%FSTAX23Y23*%
%MOIN*%
%SFA1B1*%

%IPPOS*%
%ADD50C,0.003937*%
%LNpcb1-1*%
%LPD*%
G54D50*
X-00578Y03834D02*
D01*
X-00578Y03836*
X-00578Y03837*
X-00579Y03838*
X-00579Y0384*
X-00579Y03841*
X-0058Y03842*
X-00581Y03843*
X-00581Y03845*
X-00582Y03846*
X-00583Y03847*
X-00584Y03848*
X-00585Y03849*
X-00586Y0385*
X-00587Y0385*
X-00588Y03851*
X-00589Y03852*
X-00591Y03852*
X-00592Y03853*
X-00593Y03853*
X-00595Y03854*
X-00596Y03854*
X-00597Y03854*
X-00599*
X-006Y03854*
X-00601Y03854*
X-00603Y03853*
X-00604Y03853*
X-00605Y03852*
X-00607Y03852*
X-00608Y03851*
X-00609Y0385*
X-0061Y0385*
X-00611Y03849*
X-00612Y03848*
X-00613Y03847*
X-00614Y03846*
X-00615Y03845*
X-00615Y03843*
X-00616Y03842*
X-00616Y03841*
X-00617Y0384*
X-00617Y03838*
X-00617Y03837*
X-00618Y03836*
X-00618Y03834*
X-00618Y03833*
X-00617Y03831*
X-00617Y0383*
X-00617Y03829*
X-00616Y03827*
X-00616Y03826*
X-00615Y03825*
X-00615Y03824*
X-00614Y03823*
X-00613Y03821*
X-00612Y0382*
X-00611Y0382*
X-0061Y03819*
X-00609Y03818*
X-00608Y03817*
X-00607Y03816*
X-00605Y03816*
X-00604Y03815*
X-00603Y03815*
X-00601Y03815*
X-006Y03815*
X-00599Y03814*
X-00597*
X-00596Y03815*
X-00595Y03815*
X-00593Y03815*
X-00592Y03815*
X-00591Y03816*
X-00589Y03816*
X-00588Y03817*
X-00587Y03818*
X-00586Y03819*
X-00585Y0382*
X-00584Y0382*
X-00583Y03821*
X-00582Y03823*
X-00581Y03824*
X-00581Y03825*
X-0058Y03826*
X-00579Y03827*
X-00579Y03829*
X-00579Y0383*
X-00578Y03831*
X-00578Y03833*
X-00578Y03834*
X-01118Y03019D02*
D01*
X-01118Y03021*
X-01118Y03022*
X-01118Y03023*
X-01118Y03025*
X-01119Y03026*
X-01119Y03027*
X-0112Y03028*
X-01121Y0303*
X-01121Y03031*
X-01122Y03032*
X-01123Y03033*
X-01124Y03034*
X-01125Y03035*
X-01126Y03036*
X-01127Y03036*
X-01129Y03037*
X-0113Y03037*
X-01131Y03038*
X-01133Y03038*
X-01134Y03039*
X-01135Y03039*
X-01137Y03039*
X-01138*
X-01139Y03039*
X-01141Y03039*
X-01142Y03038*
X-01143Y03038*
X-01145Y03037*
X-01146Y03037*
X-01147Y03036*
X-01148Y03036*
X-01149Y03035*
X-0115Y03034*
X-01151Y03033*
X-01152Y03032*
X-01153Y03031*
X-01154Y0303*
X-01155Y03028*
X-01155Y03027*
X-01156Y03026*
X-01156Y03025*
X-01157Y03023*
X-01157Y03022*
X-01157Y03021*
X-01157Y03019*
X-01157Y03018*
X-01157Y03016*
X-01157Y03015*
X-01156Y03014*
X-01156Y03012*
X-01155Y03011*
X-01155Y0301*
X-01154Y03009*
X-01153Y03008*
X-01152Y03007*
X-01151Y03006*
X-0115Y03005*
X-01149Y03004*
X-01148Y03003*
X-01147Y03002*
X-01146Y03001*
X-01145Y03001*
X-01143Y03*
X-01142Y03*
X-01141Y03*
X-01139Y03*
X-01138Y03*
X-01137*
X-01135Y03*
X-01134Y03*
X-01133Y03*
X-01131Y03*
X-0113Y03001*
X-01129Y03001*
X-01127Y03002*
X-01126Y03003*
X-01125Y03004*
X-01124Y03005*
X-01123Y03006*
X-01122Y03007*
X-01121Y03008*
X-01121Y03009*
X-0112Y0301*
X-01119Y03011*
X-01119Y03012*
X-01118Y03014*
X-01118Y03015*
X-01118Y03016*
X-01118Y03018*
X-01118Y03019*
Y04118D02*
D01*
X-01118Y04119*
X-01118Y0412*
X-01118Y04122*
X-01118Y04123*
X-01119Y04124*
X-01119Y04126*
X-0112Y04127*
X-01121Y04128*
X-01121Y04129*
X-01122Y0413*
X-01123Y04131*
X-01124Y04132*
X-01125Y04133*
X-01126Y04134*
X-01127Y04135*
X-01129Y04135*
X-0113Y04136*
X-01131Y04136*
X-01133Y04137*
X-01134Y04137*
X-01135Y04137*
X-01137Y04137*
X-01138*
X-01139Y04137*
X-01141Y04137*
X-01142Y04137*
X-01143Y04136*
X-01145Y04136*
X-01146Y04135*
X-01147Y04135*
X-01148Y04134*
X-01149Y04133*
X-0115Y04132*
X-01151Y04131*
X-01152Y0413*
X-01153Y04129*
X-01154Y04128*
X-01155Y04127*
X-01155Y04126*
X-01156Y04124*
X-01156Y04123*
X-01157Y04122*
X-01157Y0412*
X-01157Y04119*
X-01157Y04118*
X-01157Y04116*
X-01157Y04115*
X-01157Y04114*
X-01156Y04112*
X-01156Y04111*
X-01155Y0411*
X-01155Y04108*
X-01154Y04107*
X-01153Y04106*
X-01152Y04105*
X-01151Y04104*
X-0115Y04103*
X-01149Y04102*
X-01148Y04101*
X-01147Y04101*
X-01146Y041*
X-01145Y04099*
X-01143Y04099*
X-01142Y04099*
X-01141Y04098*
X-01139Y04098*
X-01138Y04098*
X-01137*
X-01135Y04098*
X-01134Y04098*
X-01133Y04099*
X-01131Y04099*
X-0113Y04099*
X-01129Y041*
X-01127Y04101*
X-01126Y04101*
X-01125Y04102*
X-01124Y04103*
X-01123Y04104*
X-01122Y04105*
X-01121Y04106*
X-01121Y04107*
X-0112Y04108*
X-01119Y0411*
X-01119Y04111*
X-01118Y04112*
X-01118Y04114*
X-01118Y04115*
X-01118Y04116*
X-01118Y04118*
Y00224D02*
D01*
X-01118Y00225*
X-01118Y00227*
X-01118Y00228*
X-01118Y00229*
X-01119Y00231*
X-01119Y00232*
X-0112Y00233*
X-01121Y00234*
X-01121Y00235*
X-01122Y00237*
X-01123Y00238*
X-01124Y00239*
X-01125Y00239*
X-01126Y0024*
X-01127Y00241*
X-01129Y00242*
X-0113Y00242*
X-01131Y00243*
X-01133Y00243*
X-01134Y00243*
X-01135Y00243*
X-01137Y00244*
X-01138*
X-01139Y00243*
X-01141Y00243*
X-01142Y00243*
X-01143Y00243*
X-01145Y00242*
X-01146Y00242*
X-01147Y00241*
X-01148Y0024*
X-01149Y00239*
X-0115Y00239*
X-01151Y00238*
X-01152Y00237*
X-01153Y00235*
X-01154Y00234*
X-01155Y00233*
X-01155Y00232*
X-01156Y00231*
X-01156Y00229*
X-01157Y00228*
X-01157Y00227*
X-01157Y00225*
X-01157Y00224*
X-01157Y00223*
X-01157Y00221*
X-01157Y0022*
X-01156Y00218*
X-01156Y00217*
X-01155Y00216*
X-01155Y00215*
X-01154Y00213*
X-01153Y00212*
X-01152Y00211*
X-01151Y0021*
X-0115Y00209*
X-01149Y00208*
X-01148Y00208*
X-01147Y00207*
X-01146Y00206*
X-01145Y00206*
X-01143Y00205*
X-01142Y00205*
X-01141Y00205*
X-01139Y00204*
X-01138Y00204*
X-01137*
X-01135Y00204*
X-01134Y00205*
X-01133Y00205*
X-01131Y00205*
X-0113Y00206*
X-01129Y00206*
X-01127Y00207*
X-01126Y00208*
X-01125Y00208*
X-01124Y00209*
X-01123Y0021*
X-01122Y00211*
X-01121Y00212*
X-01121Y00213*
X-0112Y00215*
X-01119Y00216*
X-01119Y00217*
X-01118Y00218*
X-01118Y0022*
X-01118Y00221*
X-01118Y00223*
X-01118Y00224*
Y03535D02*
D01*
X-01118Y03536*
X-01118Y03538*
X-01118Y03539*
X-01118Y0354*
X-01119Y03542*
X-01119Y03543*
X-0112Y03544*
X-01121Y03545*
X-01121Y03547*
X-01122Y03548*
X-01123Y03549*
X-01124Y0355*
X-01125Y0355*
X-01126Y03551*
X-01127Y03552*
X-01129Y03553*
X-0113Y03553*
X-01131Y03554*
X-01133Y03554*
X-01134Y03554*
X-01135Y03555*
X-01137Y03555*
X-01138*
X-01139Y03555*
X-01141Y03554*
X-01142Y03554*
X-01143Y03554*
X-01145Y03553*
X-01146Y03553*
X-01147Y03552*
X-01148Y03551*
X-01149Y0355*
X-0115Y0355*
X-01151Y03549*
X-01152Y03548*
X-01153Y03547*
X-01154Y03545*
X-01155Y03544*
X-01155Y03543*
X-01156Y03542*
X-01156Y0354*
X-01157Y03539*
X-01157Y03538*
X-01157Y03536*
X-01157Y03535*
X-01157Y03534*
X-01157Y03532*
X-01157Y03531*
X-01156Y0353*
X-01156Y03528*
X-01155Y03527*
X-01155Y03526*
X-01154Y03525*
X-01153Y03523*
X-01152Y03522*
X-01151Y03521*
X-0115Y0352*
X-01149Y03519*
X-01148Y03519*
X-01147Y03518*
X-01146Y03517*
X-01145Y03517*
X-01143Y03516*
X-01142Y03516*
X-01141Y03516*
X-01139Y03515*
X-01138Y03515*
X-01137*
X-01135Y03515*
X-01134Y03516*
X-01133Y03516*
X-01131Y03516*
X-0113Y03517*
X-01129Y03517*
X-01127Y03518*
X-01126Y03519*
X-01125Y03519*
X-01124Y0352*
X-01123Y03521*
X-01122Y03522*
X-01121Y03523*
X-01121Y03525*
X-0112Y03526*
X-01119Y03527*
X-01119Y03528*
X-01118Y0353*
X-01118Y03531*
X-01118Y03532*
X-01118Y03534*
X-01118Y03535*
Y01858D02*
D01*
X-01118Y01859*
X-01118Y01861*
X-01118Y01862*
X-01118Y01863*
X-01119Y01865*
X-01119Y01866*
X-0112Y01867*
X-01121Y01868*
X-01121Y01869*
X-01122Y0187*
X-01123Y01871*
X-01124Y01872*
X-01125Y01873*
X-01126Y01874*
X-01127Y01875*
X-01129Y01875*
X-0113Y01876*
X-01131Y01876*
X-01133Y01877*
X-01134Y01877*
X-01135Y01877*
X-01137Y01877*
X-01138*
X-01139Y01877*
X-01141Y01877*
X-01142Y01877*
X-01143Y01876*
X-01145Y01876*
X-01146Y01875*
X-01147Y01875*
X-01148Y01874*
X-01149Y01873*
X-0115Y01872*
X-01151Y01871*
X-01152Y0187*
X-01153Y01869*
X-01154Y01868*
X-01155Y01867*
X-01155Y01866*
X-01156Y01865*
X-01156Y01863*
X-01157Y01862*
X-01157Y01861*
X-01157Y01859*
X-01157Y01858*
X-01157Y01856*
X-01157Y01855*
X-01157Y01854*
X-01156Y01852*
X-01156Y01851*
X-01155Y0185*
X-01155Y01849*
X-01154Y01847*
X-01153Y01846*
X-01152Y01845*
X-01151Y01844*
X-0115Y01843*
X-01149Y01842*
X-01148Y01841*
X-01147Y01841*
X-01146Y0184*
X-01145Y0184*
X-01143Y01839*
X-01142Y01839*
X-01141Y01838*
X-01139Y01838*
X-01138Y01838*
X-01137*
X-01135Y01838*
X-01134Y01838*
X-01133Y01839*
X-01131Y01839*
X-0113Y0184*
X-01129Y0184*
X-01127Y01841*
X-01126Y01841*
X-01125Y01842*
X-01124Y01843*
X-01123Y01844*
X-01122Y01845*
X-01121Y01846*
X-01121Y01847*
X-0112Y01849*
X-01119Y0185*
X-01119Y01851*
X-01118Y01852*
X-01118Y01854*
X-01118Y01855*
X-01118Y01856*
X-01118Y01858*
Y00755D02*
D01*
X-01118Y00757*
X-01118Y00758*
X-01118Y00759*
X-01118Y00761*
X-01119Y00762*
X-01119Y00763*
X-0112Y00765*
X-01121Y00766*
X-01121Y00767*
X-01122Y00768*
X-01123Y00769*
X-01124Y0077*
X-01125Y00771*
X-01126Y00772*
X-01127Y00772*
X-01129Y00773*
X-0113Y00774*
X-01131Y00774*
X-01133Y00775*
X-01134Y00775*
X-01135Y00775*
X-01137Y00775*
X-01138*
X-01139Y00775*
X-01141Y00775*
X-01142Y00775*
X-01143Y00774*
X-01145Y00774*
X-01146Y00773*
X-01147Y00772*
X-01148Y00772*
X-01149Y00771*
X-0115Y0077*
X-01151Y00769*
X-01152Y00768*
X-01153Y00767*
X-01154Y00766*
X-01155Y00765*
X-01155Y00763*
X-01156Y00762*
X-01156Y00761*
X-01157Y00759*
X-01157Y00758*
X-01157Y00757*
X-01157Y00755*
X-01157Y00754*
X-01157Y00753*
X-01157Y00751*
X-01156Y0075*
X-01156Y00749*
X-01155Y00747*
X-01155Y00746*
X-01154Y00745*
X-01153Y00744*
X-01152Y00743*
X-01151Y00742*
X-0115Y00741*
X-01149Y0074*
X-01148Y00739*
X-01147Y00738*
X-01146Y00738*
X-01145Y00737*
X-01143Y00737*
X-01142Y00736*
X-01141Y00736*
X-01139Y00736*
X-01138Y00736*
X-01137*
X-01135Y00736*
X-01134Y00736*
X-01133Y00736*
X-01131Y00737*
X-0113Y00737*
X-01129Y00738*
X-01127Y00738*
X-01126Y00739*
X-01125Y0074*
X-01124Y00741*
X-01123Y00742*
X-01122Y00743*
X-01121Y00744*
X-01121Y00745*
X-0112Y00746*
X-01119Y00747*
X-01119Y00749*
X-01118Y0075*
X-01118Y00751*
X-01118Y00753*
X-01118Y00754*
X-01118Y00755*
Y01298D02*
D01*
X-01118Y01299*
X-01118Y013*
X-01118Y01302*
X-01118Y01303*
X-01119Y01304*
X-01119Y01306*
X-0112Y01307*
X-01121Y01308*
X-01121Y01309*
X-01122Y0131*
X-01123Y01311*
X-01124Y01312*
X-01125Y01313*
X-01126Y01314*
X-01127Y01315*
X-01129Y01315*
X-0113Y01316*
X-01131Y01316*
X-01133Y01317*
X-01134Y01317*
X-01135Y01317*
X-01137Y01317*
X-01138*
X-01139Y01317*
X-01141Y01317*
X-01142Y01317*
X-01143Y01316*
X-01145Y01316*
X-01146Y01315*
X-01147Y01315*
X-01148Y01314*
X-01149Y01313*
X-0115Y01312*
X-01151Y01311*
X-01152Y0131*
X-01153Y01309*
X-01154Y01308*
X-01155Y01307*
X-01155Y01306*
X-01156Y01304*
X-01156Y01303*
X-01157Y01302*
X-01157Y013*
X-01157Y01299*
X-01157Y01298*
X-01157Y01296*
X-01157Y01295*
X-01157Y01294*
X-01156Y01292*
X-01156Y01291*
X-01155Y0129*
X-01155Y01288*
X-01154Y01287*
X-01153Y01286*
X-01152Y01285*
X-01151Y01284*
X-0115Y01283*
X-01149Y01282*
X-01148Y01281*
X-01147Y01281*
X-01146Y0128*
X-01145Y01279*
X-01143Y01279*
X-01142Y01279*
X-01141Y01278*
X-01139Y01278*
X-01138Y01278*
X-01137*
X-01135Y01278*
X-01134Y01278*
X-01133Y01279*
X-01131Y01279*
X-0113Y01279*
X-01129Y0128*
X-01127Y01281*
X-01126Y01281*
X-01125Y01282*
X-01124Y01283*
X-01123Y01284*
X-01122Y01285*
X-01121Y01286*
X-01121Y01287*
X-0112Y01288*
X-01119Y0129*
X-01119Y01291*
X-01118Y01292*
X-01118Y01294*
X-01118Y01295*
X-01118Y01296*
X-01118Y01298*
Y02436D02*
D01*
X-01118Y02437*
X-01118Y02438*
X-01118Y0244*
X-01118Y02441*
X-01119Y02442*
X-01119Y02444*
X-0112Y02445*
X-01121Y02446*
X-01121Y02447*
X-01122Y02448*
X-01123Y02449*
X-01124Y0245*
X-01125Y02451*
X-01126Y02452*
X-01127Y02453*
X-01129Y02453*
X-0113Y02454*
X-01131Y02454*
X-01133Y02455*
X-01134Y02455*
X-01135Y02455*
X-01137Y02455*
X-01138*
X-01139Y02455*
X-01141Y02455*
X-01142Y02455*
X-01143Y02454*
X-01145Y02454*
X-01146Y02453*
X-01147Y02453*
X-01148Y02452*
X-01149Y02451*
X-0115Y0245*
X-01151Y02449*
X-01152Y02448*
X-01153Y02447*
X-01154Y02446*
X-01155Y02445*
X-01155Y02444*
X-01156Y02442*
X-01156Y02441*
X-01157Y0244*
X-01157Y02438*
X-01157Y02437*
X-01157Y02436*
X-01157Y02434*
X-01157Y02433*
X-01157Y02431*
X-01156Y0243*
X-01156Y02429*
X-01155Y02428*
X-01155Y02426*
X-01154Y02425*
X-01153Y02424*
X-01152Y02423*
X-01151Y02422*
X-0115Y02421*
X-01149Y0242*
X-01148Y02419*
X-01147Y02418*
X-01146Y02418*
X-01145Y02417*
X-01143Y02417*
X-01142Y02416*
X-01141Y02416*
X-01139Y02416*
X-01138Y02416*
X-01137*
X-01135Y02416*
X-01134Y02416*
X-01133Y02416*
X-01131Y02417*
X-0113Y02417*
X-01129Y02418*
X-01127Y02418*
X-01126Y02419*
X-01125Y0242*
X-01124Y02421*
X-01123Y02422*
X-01122Y02423*
X-01121Y02424*
X-01121Y02425*
X-0112Y02426*
X-01119Y02428*
X-01119Y02429*
X-01118Y0243*
X-01118Y02431*
X-01118Y02433*
X-01118Y02434*
X-01118Y02436*
X02732Y04158D02*
X02818D01*
X02732Y04103D02*
X02818D01*
Y04158*
X02732Y04103D02*
Y04158D01*
X-00321Y00116D02*
X-00198D01*
X-00321Y00175D02*
X-00198D01*
X-00321Y00116D02*
Y00175D01*
X-00198Y00116D02*
Y00175D01*
X-00321Y03663D02*
X-00198D01*
X-00321Y03722D02*
X-00198D01*
X-00321Y03663D02*
Y03722D01*
X-00198Y03663D02*
Y03722D01*
X-00321Y0071D02*
X-00198D01*
X-00321Y00769D02*
X-00198D01*
X-00321Y0071D02*
Y00769D01*
X-00198Y0071D02*
Y00769D01*
X-00321Y01332D02*
X-00198D01*
X-00321Y01391D02*
X-00198D01*
X-00321Y01332D02*
Y01391D01*
X-00198Y01332D02*
Y01391D01*
X-00321Y0199D02*
X-00198D01*
X-00321Y02049D02*
X-00198D01*
X-00321Y0199D02*
Y02049D01*
X-00198Y0199D02*
Y02049D01*
X-00321Y02541D02*
X-00198D01*
X-00321Y026D02*
X-00198D01*
X-00321Y02541D02*
Y026D01*
X-00198Y02541D02*
Y026D01*
X-00321Y03112D02*
X-00198D01*
X-00321Y03171D02*
X-00198D01*
X-00321Y03112D02*
Y03171D01*
X-00198Y03112D02*
Y03171D01*
X-00321Y04246D02*
X-00198D01*
X-00321Y04305D02*
X-00198D01*
X-00321Y04246D02*
Y04305D01*
X-00198Y04246D02*
Y04305D01*
X-00562Y03799D02*
Y04192D01*
X-00728Y03799D02*
Y04192D01*
Y03799D02*
X-00562D01*
X-00728Y04192D02*
X-00562D01*
X0096Y-00027D02*
Y00027D01*
X01047Y-00027D02*
Y00027D01*
X0096Y-00027D02*
X01047D01*
X0096Y00027D02*
X01047D01*
X03933Y-00027D02*
Y00027D01*
X04019Y-00027D02*
Y00027D01*
X03933Y-00027D02*
X04019D01*
X03933Y00027D02*
X04019D01*
X-00259Y-00023D02*
Y00031D01*
X-00173Y-00023D02*
Y00031D01*
X-00259Y-00023D02*
X-00173D01*
X-00259Y00031D02*
X-00173D01*
X0037Y-00027D02*
Y00027D01*
X00456Y-00027D02*
Y00027D01*
X0037Y-00027D02*
X00456D01*
X0037Y00027D02*
X00456D01*
X01551Y-00027D02*
Y00027D01*
X01637Y-00027D02*
Y00027D01*
X01551Y-00027D02*
X01637D01*
X01551Y00027D02*
X01637D01*
X02141Y-00027D02*
Y00027D01*
X02228Y-00027D02*
Y00027D01*
X02141Y-00027D02*
X02228D01*
X02141Y00027D02*
X02228D01*
X02732Y-0003D02*
Y00024D01*
X02818Y-0003D02*
Y00024D01*
X02732Y-0003D02*
X02818D01*
X02732Y00024D02*
X02818D01*
X03342Y-00027D02*
Y00027D01*
X03429Y-00027D02*
Y00027D01*
X03342Y-00027D02*
X03429D01*
X03342Y00027D02*
X03429D01*
X0037Y00562D02*
Y00617D01*
X00456Y00562D02*
Y00617D01*
X0037Y00562D02*
X00456D01*
X0037Y00617D02*
X00456D01*
X03342Y0056D02*
Y00615D01*
X03429Y0056D02*
Y00615D01*
X03342Y0056D02*
X03429D01*
X03342Y00615D02*
X03429D01*
X0096Y00566D02*
Y00622D01*
X01047Y00566D02*
Y00622D01*
X0096Y00566D02*
X01047D01*
X0096Y00622D02*
X01047D01*
X01551Y00562D02*
Y00617D01*
X01637Y00562D02*
Y00617D01*
X01551Y00562D02*
X01637D01*
X01551Y00617D02*
X01637D01*
X02141Y00564D02*
Y0062D01*
X02228Y00564D02*
Y0062D01*
X02141Y00564D02*
X02228D01*
X02141Y0062D02*
X02228D01*
X02732Y0056D02*
Y00615D01*
X02818Y0056D02*
Y00615D01*
X02732Y0056D02*
X02818D01*
X02732Y00615D02*
X02818D01*
X-00259Y00562D02*
Y00617D01*
X-00173Y00562D02*
Y00617D01*
X-00259Y00562D02*
X-00173D01*
X-00259Y00617D02*
X-00173D01*
X03933Y00563D02*
Y00619D01*
X04019Y00563D02*
Y00619D01*
X03933Y00563D02*
X04019D01*
X03933Y00619D02*
X04019D01*
X-00259Y01155D02*
Y0121D01*
X-00173Y01155D02*
Y0121D01*
X-00259Y01155D02*
X-00173D01*
X-00259Y0121D02*
X-00173D01*
X0037Y01153D02*
Y01208D01*
X00456Y01153D02*
Y01208D01*
X0037Y01153D02*
X00456D01*
X0037Y01208D02*
X00456D01*
X0096Y01153D02*
Y01208D01*
X01047Y01153D02*
Y01208D01*
X0096Y01153D02*
X01047D01*
X0096Y01208D02*
X01047D01*
X01551Y01149D02*
Y01204D01*
X01637Y01149D02*
Y01204D01*
X01551Y01149D02*
X01637D01*
X01551Y01204D02*
X01637D01*
X02141Y01153D02*
Y01208D01*
X02228Y01153D02*
Y01208D01*
X02141Y01153D02*
X02228D01*
X02141Y01208D02*
X02228D01*
X02732Y01153D02*
Y01208D01*
X02818Y01153D02*
Y01208D01*
X02732Y01153D02*
X02818D01*
X02732Y01208D02*
X02818D01*
X03342Y01157D02*
Y01212D01*
X03429Y01157D02*
Y01212D01*
X03342Y01157D02*
X03429D01*
X03342Y01212D02*
X03429D01*
X03974Y01153D02*
Y01208D01*
X04061Y01153D02*
Y01208D01*
X03974Y01153D02*
X04061D01*
X03974Y01208D02*
X04061D01*
X02732Y0174D02*
Y01795D01*
X02818Y0174D02*
Y01795D01*
X02732Y0174D02*
X02818D01*
X02732Y01795D02*
X02818D01*
X0037Y01747D02*
Y01802D01*
X00456Y01747D02*
Y01802D01*
X0037Y01747D02*
X00456D01*
X0037Y01802D02*
X00456D01*
X01551Y01747D02*
Y01802D01*
X01637Y01747D02*
Y01802D01*
X01551Y01747D02*
X01637D01*
X01551Y01802D02*
X01637D01*
X03342Y01743D02*
Y01798D01*
X03429Y01743D02*
Y01798D01*
X03342Y01743D02*
X03429D01*
X03342Y01798D02*
X03429D01*
X03933Y0174D02*
Y01795D01*
X04019Y0174D02*
Y01795D01*
X03933Y0174D02*
X04019D01*
X03933Y01795D02*
X04019D01*
X-00259Y01747D02*
Y01802D01*
X-00173Y01747D02*
Y01802D01*
X-00259Y01747D02*
X-00173D01*
X-00259Y01802D02*
X-00173D01*
X0096Y01747D02*
Y01802D01*
X01047Y01747D02*
Y01802D01*
X0096Y01747D02*
X01047D01*
X0096Y01802D02*
X01047D01*
X02141Y01743D02*
Y01798D01*
X02228Y01743D02*
Y01798D01*
X02141Y01743D02*
X02228D01*
X02141Y01798D02*
X02228D01*
X-00259Y02333D02*
Y02388D01*
X-00173Y02333D02*
Y02388D01*
X-00259Y02333D02*
X-00173D01*
X-00259Y02388D02*
X-00173D01*
X0037Y02329D02*
Y02384D01*
X00456Y02329D02*
Y02384D01*
X0037Y02329D02*
X00456D01*
X0037Y02384D02*
X00456D01*
X0096Y02333D02*
Y02388D01*
X01047Y02333D02*
Y02388D01*
X0096Y02333D02*
X01047D01*
X0096Y02388D02*
X01047D01*
X01551Y02336D02*
Y02391D01*
X01637Y02336D02*
Y02391D01*
X01551Y02336D02*
X01637D01*
X01551Y02391D02*
X01637D01*
X02141Y02333D02*
Y02388D01*
X02228Y02333D02*
Y02388D01*
X02141Y02333D02*
X02228D01*
X02141Y02388D02*
X02228D01*
X02732Y02336D02*
Y02391D01*
X02818Y02336D02*
Y02391D01*
X02732Y02336D02*
X02818D01*
X02732Y02391D02*
X02818D01*
X03342Y02333D02*
Y02388D01*
X03429Y02333D02*
Y02388D01*
X03342Y02333D02*
X03429D01*
X03342Y02388D02*
X03429D01*
X03933Y02333D02*
Y02388D01*
X04019Y02333D02*
Y02388D01*
X03933Y02333D02*
X04019D01*
X03933Y02388D02*
X04019D01*
X02732Y02925D02*
Y0298D01*
X02818Y02925D02*
Y0298D01*
X02732Y02925D02*
X02818D01*
X02732Y0298D02*
X02818D01*
X0037Y02925D02*
Y0298D01*
X00456Y02925D02*
Y0298D01*
X0037Y02925D02*
X00456D01*
X0037Y0298D02*
X00456D01*
X0096Y02923D02*
Y02978D01*
X01047Y02923D02*
Y02978D01*
X0096Y02923D02*
X01047D01*
X0096Y02978D02*
X01047D01*
X01551Y02924D02*
Y02979D01*
X01637Y02924D02*
Y02979D01*
X01551Y02924D02*
X01637D01*
X01551Y02979D02*
X01637D01*
X02141Y02925D02*
Y0298D01*
X02228Y02925D02*
Y0298D01*
X02141Y02925D02*
X02228D01*
X02141Y0298D02*
X02228D01*
X03342Y02923D02*
Y02978D01*
X03429Y02923D02*
Y02978D01*
X03342Y02923D02*
X03429D01*
X03342Y02978D02*
X03429D01*
X03933Y02925D02*
Y0298D01*
X04019Y02925D02*
Y0298D01*
X03933Y02925D02*
X04019D01*
X03933Y0298D02*
X04019D01*
X-00259Y02923D02*
Y02978D01*
X-00173Y02923D02*
Y02978D01*
X-00259Y02923D02*
X-00173D01*
X-00259Y02978D02*
X-00173D01*
X-00259Y03516D02*
Y03571D01*
X-00173Y03516D02*
Y03571D01*
X-00259Y03516D02*
X-00173D01*
X-00259Y03571D02*
X-00173D01*
X0096Y03516D02*
Y03571D01*
X01047Y03516D02*
Y03571D01*
X0096Y03516D02*
X01047D01*
X0096Y03571D02*
X01047D01*
X01551Y03512D02*
Y03567D01*
X01637Y03512D02*
Y03567D01*
X01551Y03512D02*
X01637D01*
X01551Y03567D02*
X01637D01*
X0037Y03516D02*
Y03571D01*
X00456Y03516D02*
Y03571D01*
X0037Y03516D02*
X00456D01*
X0037Y03571D02*
X00456D01*
X02141Y03512D02*
Y03567D01*
X02228Y03512D02*
Y03567D01*
X02141Y03512D02*
X02228D01*
X02141Y03567D02*
X02228D01*
X02732Y03515D02*
Y0357D01*
X02818Y03515D02*
Y0357D01*
X02732Y03515D02*
X02818D01*
X02732Y0357D02*
X02818D01*
X03342Y03516D02*
Y03571D01*
X03429Y03516D02*
Y03571D01*
X03342Y03516D02*
X03429D01*
X03342Y03571D02*
X03429D01*
X03933Y03516D02*
Y03571D01*
X04019Y03516D02*
Y03571D01*
X03933Y03516D02*
X04019D01*
X03933Y03571D02*
X04019D01*
X-00259Y04104D02*
Y04159D01*
X-00173Y04104D02*
Y04159D01*
X-00259Y04104D02*
X-00173D01*
X-00259Y04159D02*
X-00173D01*
X0037Y04104D02*
Y04159D01*
X00456Y04104D02*
Y04159D01*
X0037Y04104D02*
X00456D01*
X0037Y04159D02*
X00456D01*
X0096Y04106D02*
Y04161D01*
X01047Y04106D02*
Y04161D01*
X0096Y04106D02*
X01047D01*
X0096Y04161D02*
X01047D01*
X01551Y04105D02*
Y0416D01*
X01637Y04105D02*
Y0416D01*
X01551Y04105D02*
X01637D01*
X01551Y0416D02*
X01637D01*
X02141Y04107D02*
Y04162D01*
X02228Y04107D02*
Y04162D01*
X02141Y04107D02*
X02228D01*
X02141Y04162D02*
X02228D01*
X03342Y04102D02*
Y04157D01*
X03429Y04102D02*
Y04157D01*
X03342Y04102D02*
X03429D01*
X03342Y04157D02*
X03429D01*
X03933Y04102D02*
Y04157D01*
X04019Y04102D02*
Y04157D01*
X03933Y04102D02*
X04019D01*
X03933Y04157D02*
X04019D01*
X-01599Y02929D02*
Y03015D01*
X-0155Y02929D02*
Y03015D01*
X-01599Y02929D02*
X-0155D01*
X-01599Y03015D02*
X-0155D01*
X-01599Y02362D02*
Y02448D01*
X-0155Y02362D02*
Y02448D01*
X-01599Y02362D02*
X-0155D01*
X-01599Y02448D02*
X-0155D01*
X-01599Y01212D02*
Y01299D01*
X-0155Y01212D02*
Y01299D01*
X-01599Y01212D02*
X-0155D01*
X-01599Y01299D02*
X-0155D01*
X-01599Y00669D02*
Y00755D01*
X-0155Y00669D02*
Y00755D01*
X-01599Y00669D02*
X-0155D01*
X-01599Y00755D02*
X-0155D01*
X-01599Y04011D02*
Y04098D01*
X-0155Y04011D02*
Y04098D01*
X-01599Y04011D02*
X-0155D01*
X-01599Y04098D02*
X-0155D01*
X-01599Y00114D02*
Y002D01*
X-0155Y00114D02*
Y002D01*
X-01599Y00114D02*
X-0155D01*
X-01599Y002D02*
X-0155D01*
X-01599Y03448D02*
Y03535D01*
X-0155Y03448D02*
Y03535D01*
X-01599Y03448D02*
X-0155D01*
X-01599Y03535D02*
X-0155D01*
X-01599Y01775D02*
Y01862D01*
X-0155Y01775D02*
Y01862D01*
X-01599Y01775D02*
X-0155D01*
X-01599Y01862D02*
X-0155D01*
X-01496Y03055D02*
X-01102D01*
X-01496Y02889D02*
X-01102D01*
Y03055*
X-01496Y02889D02*
Y03055D01*
Y04153D02*
X-01102D01*
X-01496Y03988D02*
X-01102D01*
Y04153*
X-01496Y03988D02*
Y04153D01*
Y00259D02*
X-01102D01*
X-01496Y00094D02*
X-01102D01*
Y00259*
X-01496Y00094D02*
Y00259D01*
Y0357D02*
X-01102D01*
X-01496Y03405D02*
X-01102D01*
Y0357*
X-01496Y03405D02*
Y0357D01*
Y01893D02*
X-01102D01*
X-01496Y01728D02*
X-01102D01*
Y01893*
X-01496Y01728D02*
Y01893D01*
Y00791D02*
X-01102D01*
X-01496Y00625D02*
X-01102D01*
Y00791*
X-01496Y00625D02*
Y00791D01*
Y01333D02*
X-01102D01*
X-01496Y01168D02*
X-01102D01*
Y01333*
X-01496Y01168D02*
Y01333D01*
Y02471D02*
X-01102D01*
X-01496Y02306D02*
X-01102D01*
Y02471*
X-01496Y02306D02*
Y02471D01*
X-00679Y04304D02*
X-00592D01*
X-00679Y04254D02*
X-00592D01*
X-00679D02*
Y04304D01*
X-00592Y04254D02*
Y04304D01*
X-0294Y01067D02*
X-02854D01*
X-0294Y01018D02*
X-02854D01*
X-0294D02*
Y01067D01*
X-02854Y01018D02*
Y01067D01*
X-02731Y02377D02*
Y02464D01*
X-0278Y02377D02*
Y02464D01*
X-02731*
X-0278Y02377D02*
X-02731D01*
X-02158Y01582D02*
Y01669D01*
X-02109Y01582D02*
Y01669D01*
X-02158Y01582D02*
X-02109D01*
X-02158Y01669D02*
X-02109D01*
X-02104Y01127D02*
Y01391D01*
X-01958Y01127D02*
Y01391D01*
X-02104D02*
X-01958D01*
X-02104Y01127D02*
X-01958D01*
X-02326Y01669D02*
X-02271D01*
X-02326Y01582D02*
X-02271D01*
Y01669*
X-02326Y01582D02*
Y01669D01*
X-0233Y01255D02*
X-02275D01*
X-0233Y01342D02*
X-02275D01*
X-0233Y01255D02*
Y01342D01*
X-02275Y01255D02*
Y01342D01*
X-02644Y01692D02*
Y01779D01*
X-02693Y01692D02*
Y01779D01*
X-02644*
X-02693Y01692D02*
X-02644D01*
M02*