G04*
G04 #@! TF.GenerationSoftware,Altium Limited,Altium Designer,20.1.7 (139)*
G04*
G04 Layer_Color=32896*
%FSLAX25Y25*%
%MOIN*%
G70*
G04*
G04 #@! TF.SameCoordinates,6C4051BD-8A09-42F4-8E10-95B83C559B0F*
G04*
G04*
G04 #@! TF.FilePolarity,Positive*
G04*
G01*
G75*
%ADD12C,0.00787*%
%ADD13C,0.01000*%
D12*
X-22441Y352067D02*
X-20866D01*
X-22441Y356791D02*
X-20866D01*
X-22441Y175098D02*
X-20866D01*
X-22441Y179823D02*
X-20866D01*
X-22441Y-1969D02*
X-20866D01*
X-22441Y2756D02*
X-20866D01*
X40551Y352067D02*
X42126D01*
X40551Y356791D02*
X42126D01*
X40551Y175098D02*
X42126D01*
X40551Y179823D02*
X42126D01*
X40551Y-2362D02*
X42126D01*
X40551Y2362D02*
X42126D01*
X99606Y352067D02*
X101181D01*
X99606Y356791D02*
X101181D01*
X99606Y175098D02*
X101181D01*
X99606Y179823D02*
X101181D01*
X99606Y-2362D02*
X101181D01*
X99606Y2362D02*
X101181D01*
X158661Y351673D02*
X160236D01*
X158661Y356398D02*
X160236D01*
X158661Y175098D02*
X160236D01*
X158661Y179823D02*
X160236D01*
X158661Y-2362D02*
X160236D01*
X158661Y2362D02*
X160236D01*
X217717Y351673D02*
X219291D01*
X217717Y356398D02*
X219291D01*
X217717Y174705D02*
X219291D01*
X217717Y179429D02*
X219291D01*
X217717Y-2362D02*
X219291D01*
X217717Y2362D02*
X219291D01*
X276772Y351969D02*
X278346D01*
X276772Y356693D02*
X278346D01*
X276772Y174409D02*
X278346D01*
X276772Y179134D02*
X278346D01*
X276772Y-2657D02*
X278346D01*
X276772Y2067D02*
X278346D01*
X337795Y352067D02*
X339370D01*
X337795Y356791D02*
X339370D01*
X337795Y174705D02*
X339370D01*
X337795Y179429D02*
X339370D01*
X337795Y-2362D02*
X339370D01*
X337795Y2362D02*
X339370D01*
X396850Y352067D02*
X398425D01*
X396850Y356791D02*
X398425D01*
X396850Y174409D02*
X398425D01*
X396850Y179134D02*
X398425D01*
X396850Y-2362D02*
X398425D01*
X396850Y2362D02*
X398425D01*
X-22441Y56595D02*
X-20866D01*
X-22441Y61319D02*
X-20866D01*
X-22441Y410827D02*
X-20866D01*
X-22441Y415551D02*
X-20866D01*
X-22441Y233760D02*
X-20866D01*
X-22441Y238484D02*
X-20866D01*
X40551Y56595D02*
X42126D01*
X40551Y61319D02*
X42126D01*
X40551Y410827D02*
X42126D01*
X40551Y415551D02*
X42126D01*
X40551Y233366D02*
X42126D01*
X40551Y238090D02*
X42126D01*
X99606Y57087D02*
X101181D01*
X99606Y61811D02*
X101181D01*
X99606Y411024D02*
X101181D01*
X99606Y415748D02*
X101181D01*
X99606Y233760D02*
X101181D01*
X99606Y238484D02*
X101181D01*
X158661Y56595D02*
X160236D01*
X158661Y61319D02*
X160236D01*
X158661Y410925D02*
X160236D01*
X158661Y415650D02*
X160236D01*
X158661Y234055D02*
X160236D01*
X158661Y238779D02*
X160236D01*
X217717Y56890D02*
X219291D01*
X217717Y61614D02*
X219291D01*
X217717Y411122D02*
X219291D01*
X217717Y415846D02*
X219291D01*
X217717Y233760D02*
X219291D01*
X217717Y238484D02*
X219291D01*
X276772Y56398D02*
X278346D01*
X276772Y61122D02*
X278346D01*
X276772Y410728D02*
X278346D01*
X276772Y415453D02*
X278346D01*
X276772Y234055D02*
X278346D01*
X276772Y238779D02*
X278346D01*
X337795Y56398D02*
X339370D01*
X337795Y61122D02*
X339370D01*
X337795Y410630D02*
X339370D01*
X337795Y415354D02*
X339370D01*
X337795Y233760D02*
X339370D01*
X337795Y238484D02*
X339370D01*
X396850Y56791D02*
X398425D01*
X396850Y61516D02*
X398425D01*
X396850Y410630D02*
X398425D01*
X396850Y415354D02*
X398425D01*
X396850Y233760D02*
X398425D01*
X396850Y238484D02*
X398425D01*
X-22441Y292717D02*
X-20866D01*
X-22441Y297441D02*
X-20866D01*
X-22441Y115945D02*
X-20866D01*
X-22441Y120669D02*
X-20866D01*
X40551Y292913D02*
X42126D01*
X40551Y297638D02*
X42126D01*
X40551Y115748D02*
X42126D01*
X40551Y120472D02*
X42126D01*
X99606Y292717D02*
X101181D01*
X99606Y297441D02*
X101181D01*
X99606Y115748D02*
X101181D01*
X99606Y120472D02*
X101181D01*
X158661Y292815D02*
X160236D01*
X158661Y297539D02*
X160236D01*
X158661Y115354D02*
X160236D01*
X158661Y120079D02*
X160236D01*
X217717Y292913D02*
X219291D01*
X217717Y297638D02*
X219291D01*
X217717Y115748D02*
X219291D01*
X217717Y120472D02*
X219291D01*
X276772Y292913D02*
X278346D01*
X276772Y297638D02*
X278346D01*
X276772Y115748D02*
X278346D01*
X276772Y120472D02*
X278346D01*
X337795Y292717D02*
X339370D01*
X337795Y297441D02*
X339370D01*
X337795Y116142D02*
X339370D01*
X337795Y120866D02*
X339370D01*
X396850Y292913D02*
X398425D01*
X396850Y297638D02*
X398425D01*
X397835Y115748D02*
X399410D01*
X397835Y120472D02*
X399410D01*
D13*
X404447Y124965D02*
Y130963D01*
X401448D01*
X400449Y129964D01*
Y127964D01*
X401448Y126965D01*
X404447D01*
X402448D02*
X400449Y124965D01*
X394450Y130963D02*
X396450Y129964D01*
X398449Y127964D01*
Y125965D01*
X397449Y124965D01*
X395450D01*
X394450Y125965D01*
Y126965D01*
X395450Y127964D01*
X398449D01*
X388452Y130963D02*
X392451D01*
Y127964D01*
X390452Y128964D01*
X389452D01*
X388452Y127964D01*
Y125965D01*
X389452Y124965D01*
X391452D01*
X392451Y125965D01*
X403427Y302153D02*
Y308151D01*
X400428D01*
X399428Y307151D01*
Y305152D01*
X400428Y304152D01*
X403427D01*
X401427D02*
X399428Y302153D01*
X393430Y308151D02*
X395429Y307151D01*
X397429Y305152D01*
Y303152D01*
X396429Y302153D01*
X394430D01*
X393430Y303152D01*
Y304152D01*
X394430Y305152D01*
X397429D01*
X387432Y308151D02*
X389431Y307151D01*
X391431Y305152D01*
Y303152D01*
X390431Y302153D01*
X388432D01*
X387432Y303152D01*
Y304152D01*
X388432Y305152D01*
X391431D01*
X344327Y125353D02*
Y131351D01*
X341328D01*
X340328Y130351D01*
Y128352D01*
X341328Y127352D01*
X344327D01*
X342327D02*
X340328Y125353D01*
X334330Y131351D02*
X336329Y130351D01*
X338329Y128352D01*
Y126352D01*
X337329Y125353D01*
X335330D01*
X334330Y126352D01*
Y127352D01*
X335330Y128352D01*
X338329D01*
X332331Y130351D02*
X331331Y131351D01*
X329332D01*
X328332Y130351D01*
Y129351D01*
X329332Y128352D01*
X330331D01*
X329332D01*
X328332Y127352D01*
Y126352D01*
X329332Y125353D01*
X331331D01*
X332331Y126352D01*
X344327Y301953D02*
Y307951D01*
X341328D01*
X340328Y306951D01*
Y304952D01*
X341328Y303952D01*
X344327D01*
X342327D02*
X340328Y301953D01*
X334330Y307951D02*
X336329Y306951D01*
X338329Y304952D01*
Y302952D01*
X337329Y301953D01*
X335330D01*
X334330Y302952D01*
Y303952D01*
X335330Y304952D01*
X338329D01*
X329332Y301953D02*
Y307951D01*
X332331Y304952D01*
X328332D01*
X283327Y124953D02*
Y130951D01*
X280328D01*
X279328Y129951D01*
Y127952D01*
X280328Y126952D01*
X283327D01*
X281327D02*
X279328Y124953D01*
X273330Y130951D02*
X275329Y129951D01*
X277329Y127952D01*
Y125952D01*
X276329Y124953D01*
X274330D01*
X273330Y125952D01*
Y126952D01*
X274330Y127952D01*
X277329D01*
X271331Y124953D02*
X269331D01*
X270331D01*
Y130951D01*
X271331Y129951D01*
X283327Y302153D02*
Y308151D01*
X280328D01*
X279328Y307151D01*
Y305152D01*
X280328Y304152D01*
X283327D01*
X281327D02*
X279328Y302153D01*
X273330Y308151D02*
X275329Y307151D01*
X277329Y305152D01*
Y303152D01*
X276329Y302153D01*
X274330D01*
X273330Y303152D01*
Y304152D01*
X274330Y305152D01*
X277329D01*
X267332Y302153D02*
X271331D01*
X267332Y306152D01*
Y307151D01*
X268332Y308151D01*
X270331D01*
X271331Y307151D01*
X224327Y124953D02*
Y130951D01*
X221328D01*
X220328Y129951D01*
Y127952D01*
X221328Y126952D01*
X224327D01*
X222327D02*
X220328Y124953D01*
X214330Y130951D02*
X218329D01*
Y127952D01*
X216329Y128952D01*
X215330D01*
X214330Y127952D01*
Y125952D01*
X215330Y124953D01*
X217329D01*
X218329Y125952D01*
X212331D02*
X211331Y124953D01*
X209332D01*
X208332Y125952D01*
Y129951D01*
X209332Y130951D01*
X211331D01*
X212331Y129951D01*
Y128952D01*
X211331Y127952D01*
X208332D01*
X224327Y302153D02*
Y308151D01*
X221328D01*
X220328Y307151D01*
Y305152D01*
X221328Y304152D01*
X224327D01*
X222327D02*
X220328Y302153D01*
X214330Y308151D02*
X216329Y307151D01*
X218329Y305152D01*
Y303152D01*
X217329Y302153D01*
X215330D01*
X214330Y303152D01*
Y304152D01*
X215330Y305152D01*
X218329D01*
X212331Y307151D02*
X211331Y308151D01*
X209332D01*
X208332Y307151D01*
Y303152D01*
X209332Y302153D01*
X211331D01*
X212331Y303152D01*
Y307151D01*
X165227Y124553D02*
Y130551D01*
X162228D01*
X161228Y129551D01*
Y127552D01*
X162228Y126552D01*
X165227D01*
X163227D02*
X161228Y124553D01*
X155230Y130551D02*
X159229D01*
Y127552D01*
X157229Y128551D01*
X156230D01*
X155230Y127552D01*
Y125552D01*
X156230Y124553D01*
X158229D01*
X159229Y125552D01*
X153231Y130551D02*
X149232D01*
Y129551D01*
X153231Y125552D01*
Y124553D01*
X165227Y302053D02*
Y308051D01*
X162228D01*
X161228Y307051D01*
Y305052D01*
X162228Y304052D01*
X165227D01*
X163227D02*
X161228Y302053D01*
X155230Y308051D02*
X159229D01*
Y305052D01*
X157229Y306051D01*
X156230D01*
X155230Y305052D01*
Y303052D01*
X156230Y302053D01*
X158229D01*
X159229Y303052D01*
X153231Y307051D02*
X152231Y308051D01*
X150232D01*
X149232Y307051D01*
Y306051D01*
X150232Y305052D01*
X149232Y304052D01*
Y303052D01*
X150232Y302053D01*
X152231D01*
X153231Y303052D01*
Y304052D01*
X152231Y305052D01*
X153231Y306051D01*
Y307051D01*
X152231Y305052D02*
X150232D01*
X106227Y124953D02*
Y130951D01*
X103228D01*
X102228Y129951D01*
Y127952D01*
X103228Y126952D01*
X106227D01*
X104227D02*
X102228Y124953D01*
X96230Y130951D02*
X100229D01*
Y127952D01*
X98229Y128952D01*
X97230D01*
X96230Y127952D01*
Y125952D01*
X97230Y124953D01*
X99229D01*
X100229Y125952D01*
X90232Y130951D02*
X94231D01*
Y127952D01*
X92231Y128952D01*
X91232D01*
X90232Y127952D01*
Y125952D01*
X91232Y124953D01*
X93231D01*
X94231Y125952D01*
X106227Y301953D02*
Y307951D01*
X103228D01*
X102228Y306951D01*
Y304952D01*
X103228Y303952D01*
X106227D01*
X104227D02*
X102228Y301953D01*
X96230Y307951D02*
X100229D01*
Y304952D01*
X98229Y305951D01*
X97230D01*
X96230Y304952D01*
Y302952D01*
X97230Y301953D01*
X99229D01*
X100229Y302952D01*
X90232Y307951D02*
X92231Y306951D01*
X94231Y304952D01*
Y302952D01*
X93231Y301953D01*
X91232D01*
X90232Y302952D01*
Y303952D01*
X91232Y304952D01*
X94231D01*
X47127Y124953D02*
Y130951D01*
X44128D01*
X43128Y129951D01*
Y127952D01*
X44128Y126952D01*
X47127D01*
X45127D02*
X43128Y124953D01*
X37130Y130951D02*
X41129D01*
Y127952D01*
X39129Y128952D01*
X38130D01*
X37130Y127952D01*
Y125952D01*
X38130Y124953D01*
X40129D01*
X41129Y125952D01*
X35131Y129951D02*
X34131Y130951D01*
X32132D01*
X31132Y129951D01*
Y128952D01*
X32132Y127952D01*
X33131D01*
X32132D01*
X31132Y126952D01*
Y125952D01*
X32132Y124953D01*
X34131D01*
X35131Y125952D01*
X47127Y302153D02*
Y308151D01*
X44128D01*
X43128Y307151D01*
Y305152D01*
X44128Y304152D01*
X47127D01*
X45127D02*
X43128Y302153D01*
X37130Y308151D02*
X41129D01*
Y305152D01*
X39129Y306152D01*
X38130D01*
X37130Y305152D01*
Y303152D01*
X38130Y302153D01*
X40129D01*
X41129Y303152D01*
X32132Y302153D02*
Y308151D01*
X35131Y305152D01*
X31132D01*
X-15873Y125139D02*
Y131137D01*
X-18872D01*
X-19872Y130137D01*
Y128138D01*
X-18872Y127138D01*
X-15873D01*
X-17873D02*
X-19872Y125139D01*
X-25870Y131137D02*
X-21871D01*
Y128138D01*
X-23871Y129137D01*
X-24870D01*
X-25870Y128138D01*
Y126138D01*
X-24870Y125139D01*
X-22871D01*
X-21871Y126138D01*
X-27869Y125139D02*
X-29869D01*
X-28869D01*
Y131137D01*
X-27869Y130137D01*
X-15873Y301953D02*
Y307951D01*
X-18872D01*
X-19872Y306951D01*
Y304952D01*
X-18872Y303952D01*
X-15873D01*
X-17873D02*
X-19872Y301953D01*
X-25870Y307951D02*
X-21871D01*
Y304952D01*
X-23871Y305951D01*
X-24870D01*
X-25870Y304952D01*
Y302952D01*
X-24870Y301953D01*
X-22871D01*
X-21871Y302952D01*
X-31868Y301953D02*
X-27869D01*
X-31868Y305951D01*
Y306951D01*
X-30868Y307951D01*
X-28869D01*
X-27869Y306951D01*
X403427Y242953D02*
Y248951D01*
X400428D01*
X399428Y247951D01*
Y245952D01*
X400428Y244952D01*
X403427D01*
X401427D02*
X399428Y242953D01*
X394430D02*
Y248951D01*
X397429Y245952D01*
X393430D01*
X391431Y243952D02*
X390431Y242953D01*
X388432D01*
X387432Y243952D01*
Y247951D01*
X388432Y248951D01*
X390431D01*
X391431Y247951D01*
Y246952D01*
X390431Y245952D01*
X387432D01*
X403427Y419853D02*
Y425851D01*
X400428D01*
X399428Y424851D01*
Y422852D01*
X400428Y421852D01*
X403427D01*
X401427D02*
X399428Y419853D01*
X393430Y425851D02*
X397429D01*
Y422852D01*
X395429Y423851D01*
X394430D01*
X393430Y422852D01*
Y420852D01*
X394430Y419853D01*
X396429D01*
X397429Y420852D01*
X391431Y424851D02*
X390431Y425851D01*
X388432D01*
X387432Y424851D01*
Y420852D01*
X388432Y419853D01*
X390431D01*
X391431Y420852D01*
Y424851D01*
X403427Y65953D02*
Y71951D01*
X400428D01*
X399428Y70951D01*
Y68952D01*
X400428Y67952D01*
X403427D01*
X401427D02*
X399428Y65953D01*
X394430D02*
Y71951D01*
X397429Y68952D01*
X393430D01*
X391431Y70951D02*
X390431Y71951D01*
X388432D01*
X387432Y70951D01*
Y69951D01*
X388432Y68952D01*
X387432Y67952D01*
Y66952D01*
X388432Y65953D01*
X390431D01*
X391431Y66952D01*
Y67952D01*
X390431Y68952D01*
X391431Y69951D01*
Y70951D01*
X390431Y68952D02*
X388432D01*
X344327Y242953D02*
Y248951D01*
X341328D01*
X340328Y247951D01*
Y245952D01*
X341328Y244952D01*
X344327D01*
X342327D02*
X340328Y242953D01*
X335330D02*
Y248951D01*
X338329Y245952D01*
X334330D01*
X328332Y248951D02*
X330331Y247951D01*
X332331Y245952D01*
Y243952D01*
X331331Y242953D01*
X329332D01*
X328332Y243952D01*
Y244952D01*
X329332Y245952D01*
X332331D01*
X344327Y419853D02*
Y425851D01*
X341328D01*
X340328Y424851D01*
Y422852D01*
X341328Y421852D01*
X344327D01*
X342327D02*
X340328Y419853D01*
X335330D02*
Y425851D01*
X338329Y422852D01*
X334330D01*
X332331Y425851D02*
X328332D01*
Y424851D01*
X332331Y420852D01*
Y419853D01*
X344327Y65553D02*
Y71551D01*
X341328D01*
X340328Y70551D01*
Y68552D01*
X341328Y67552D01*
X344327D01*
X342327D02*
X340328Y65553D01*
X335330D02*
Y71551D01*
X338329Y68552D01*
X334330D01*
X328332Y71551D02*
X332331D01*
Y68552D01*
X330331Y69551D01*
X329332D01*
X328332Y68552D01*
Y66552D01*
X329332Y65553D01*
X331331D01*
X332331Y66552D01*
X283327Y243253D02*
Y249251D01*
X280328D01*
X279328Y248251D01*
Y246252D01*
X280328Y245252D01*
X283327D01*
X281327D02*
X279328Y243253D01*
X274330D02*
Y249251D01*
X277329Y246252D01*
X273330D01*
X271331Y248251D02*
X270331Y249251D01*
X268332D01*
X267332Y248251D01*
Y247252D01*
X268332Y246252D01*
X269331D01*
X268332D01*
X267332Y245252D01*
Y244252D01*
X268332Y243253D01*
X270331D01*
X271331Y244252D01*
X283327Y419953D02*
Y425951D01*
X280328D01*
X279328Y424951D01*
Y422952D01*
X280328Y421952D01*
X283327D01*
X281327D02*
X279328Y419953D01*
X274330D02*
Y425951D01*
X277329Y422952D01*
X273330D01*
X268332Y419953D02*
Y425951D01*
X271331Y422952D01*
X267332D01*
X283327Y65553D02*
Y71551D01*
X280328D01*
X279328Y70551D01*
Y68552D01*
X280328Y67552D01*
X283327D01*
X281327D02*
X279328Y65553D01*
X274330D02*
Y71551D01*
X277329Y68552D01*
X273330D01*
X267332Y65553D02*
X271331D01*
X267332Y69551D01*
Y70551D01*
X268332Y71551D01*
X270331D01*
X271331Y70551D01*
X224327Y242953D02*
Y248951D01*
X221328D01*
X220328Y247951D01*
Y245952D01*
X221328Y244952D01*
X224327D01*
X222327D02*
X220328Y242953D01*
X215330D02*
Y248951D01*
X218329Y245952D01*
X214330D01*
X212331Y247951D02*
X211331Y248951D01*
X209332D01*
X208332Y247951D01*
Y243952D01*
X209332Y242953D01*
X211331D01*
X212331Y243952D01*
Y247951D01*
X224327Y420353D02*
Y426351D01*
X221328D01*
X220328Y425351D01*
Y423352D01*
X221328Y422352D01*
X224327D01*
X222327D02*
X220328Y420353D01*
X215330D02*
Y426351D01*
X218329Y423352D01*
X214330D01*
X212331Y420353D02*
X210331D01*
X211331D01*
Y426351D01*
X212331Y425351D01*
X224327Y66053D02*
Y72051D01*
X221328D01*
X220328Y71051D01*
Y69052D01*
X221328Y68052D01*
X224327D01*
X222327D02*
X220328Y66053D01*
X218329Y71051D02*
X217329Y72051D01*
X215330D01*
X214330Y71051D01*
Y70051D01*
X215330Y69052D01*
X216329D01*
X215330D01*
X214330Y68052D01*
Y67052D01*
X215330Y66053D01*
X217329D01*
X218329Y67052D01*
X212331D02*
X211331Y66053D01*
X209332D01*
X208332Y67052D01*
Y71051D01*
X209332Y72051D01*
X211331D01*
X212331Y71051D01*
Y70051D01*
X211331Y69052D01*
X208332D01*
X165227Y243253D02*
Y249251D01*
X162228D01*
X161228Y248251D01*
Y246252D01*
X162228Y245252D01*
X165227D01*
X163227D02*
X161228Y243253D01*
X159229Y248251D02*
X158229Y249251D01*
X156230D01*
X155230Y248251D01*
Y247252D01*
X156230Y246252D01*
X157229D01*
X156230D01*
X155230Y245252D01*
Y244252D01*
X156230Y243253D01*
X158229D01*
X159229Y244252D01*
X153231Y249251D02*
X149232D01*
Y248251D01*
X153231Y244252D01*
Y243253D01*
X165227Y420153D02*
Y426151D01*
X162228D01*
X161228Y425151D01*
Y423152D01*
X162228Y422152D01*
X165227D01*
X163227D02*
X161228Y420153D01*
X159229Y425151D02*
X158229Y426151D01*
X156230D01*
X155230Y425151D01*
Y424152D01*
X156230Y423152D01*
X157229D01*
X156230D01*
X155230Y422152D01*
Y421152D01*
X156230Y420153D01*
X158229D01*
X159229Y421152D01*
X153231Y425151D02*
X152231Y426151D01*
X150232D01*
X149232Y425151D01*
Y424152D01*
X150232Y423152D01*
X149232Y422152D01*
Y421152D01*
X150232Y420153D01*
X152231D01*
X153231Y421152D01*
Y422152D01*
X152231Y423152D01*
X153231Y424152D01*
Y425151D01*
X152231Y423152D02*
X150232D01*
X165227Y65753D02*
Y71751D01*
X162228D01*
X161228Y70751D01*
Y68752D01*
X162228Y67752D01*
X165227D01*
X163227D02*
X161228Y65753D01*
X159229Y70751D02*
X158229Y71751D01*
X156230D01*
X155230Y70751D01*
Y69752D01*
X156230Y68752D01*
X157229D01*
X156230D01*
X155230Y67752D01*
Y66752D01*
X156230Y65753D01*
X158229D01*
X159229Y66752D01*
X149232Y71751D02*
X151231Y70751D01*
X153231Y68752D01*
Y66752D01*
X152231Y65753D01*
X150232D01*
X149232Y66752D01*
Y67752D01*
X150232Y68752D01*
X153231D01*
X106227Y242953D02*
Y248951D01*
X103228D01*
X102228Y247951D01*
Y245952D01*
X103228Y244952D01*
X106227D01*
X104227D02*
X102228Y242953D01*
X100229Y247951D02*
X99229Y248951D01*
X97230D01*
X96230Y247951D01*
Y246952D01*
X97230Y245952D01*
X98229D01*
X97230D01*
X96230Y244952D01*
Y243952D01*
X97230Y242953D01*
X99229D01*
X100229Y243952D01*
X91232Y242953D02*
Y248951D01*
X94231Y245952D01*
X90232D01*
X106227Y420253D02*
Y426251D01*
X103228D01*
X102228Y425251D01*
Y423252D01*
X103228Y422252D01*
X106227D01*
X104227D02*
X102228Y420253D01*
X100229Y425251D02*
X99229Y426251D01*
X97230D01*
X96230Y425251D01*
Y424252D01*
X97230Y423252D01*
X98229D01*
X97230D01*
X96230Y422252D01*
Y421252D01*
X97230Y420253D01*
X99229D01*
X100229Y421252D01*
X90232Y426251D02*
X94231D01*
Y423252D01*
X92231Y424252D01*
X91232D01*
X90232Y423252D01*
Y421252D01*
X91232Y420253D01*
X93231D01*
X94231Y421252D01*
X106227Y66253D02*
Y72251D01*
X103228D01*
X102228Y71251D01*
Y69252D01*
X103228Y68252D01*
X106227D01*
X104227D02*
X102228Y66253D01*
X100229Y71251D02*
X99229Y72251D01*
X97230D01*
X96230Y71251D01*
Y70252D01*
X97230Y69252D01*
X98229D01*
X97230D01*
X96230Y68252D01*
Y67252D01*
X97230Y66253D01*
X99229D01*
X100229Y67252D01*
X94231Y71251D02*
X93231Y72251D01*
X91232D01*
X90232Y71251D01*
Y70252D01*
X91232Y69252D01*
X92231D01*
X91232D01*
X90232Y68252D01*
Y67252D01*
X91232Y66253D01*
X93231D01*
X94231Y67252D01*
X47127Y242553D02*
Y248551D01*
X44128D01*
X43128Y247551D01*
Y245552D01*
X44128Y244552D01*
X47127D01*
X45127D02*
X43128Y242553D01*
X41129Y247551D02*
X40129Y248551D01*
X38130D01*
X37130Y247551D01*
Y246551D01*
X38130Y245552D01*
X39129D01*
X38130D01*
X37130Y244552D01*
Y243552D01*
X38130Y242553D01*
X40129D01*
X41129Y243552D01*
X35131Y242553D02*
X33131D01*
X34131D01*
Y248551D01*
X35131Y247551D01*
X47127Y420053D02*
Y426051D01*
X44128D01*
X43128Y425051D01*
Y423052D01*
X44128Y422052D01*
X47127D01*
X45127D02*
X43128Y420053D01*
X41129Y425051D02*
X40129Y426051D01*
X38130D01*
X37130Y425051D01*
Y424052D01*
X38130Y423052D01*
X39129D01*
X38130D01*
X37130Y422052D01*
Y421052D01*
X38130Y420053D01*
X40129D01*
X41129Y421052D01*
X31132Y420053D02*
X35131D01*
X31132Y424052D01*
Y425051D01*
X32132Y426051D01*
X34131D01*
X35131Y425051D01*
X47127Y65753D02*
Y71751D01*
X44128D01*
X43128Y70751D01*
Y68752D01*
X44128Y67752D01*
X47127D01*
X45127D02*
X43128Y65753D01*
X41129Y70751D02*
X40129Y71751D01*
X38130D01*
X37130Y70751D01*
Y69752D01*
X38130Y68752D01*
X39129D01*
X38130D01*
X37130Y67752D01*
Y66752D01*
X38130Y65753D01*
X40129D01*
X41129Y66752D01*
X35131Y70751D02*
X34131Y71751D01*
X32132D01*
X31132Y70751D01*
Y66752D01*
X32132Y65753D01*
X34131D01*
X35131Y66752D01*
Y70751D01*
X-15873Y242953D02*
Y248951D01*
X-18872D01*
X-19872Y247951D01*
Y245952D01*
X-18872Y244952D01*
X-15873D01*
X-17873D02*
X-19872Y242953D01*
X-25870D02*
X-21871D01*
X-25870Y246952D01*
Y247951D01*
X-24870Y248951D01*
X-22871D01*
X-21871Y247951D01*
X-27869D02*
X-28869Y248951D01*
X-30868D01*
X-31868Y247951D01*
Y246952D01*
X-30868Y245952D01*
X-31868Y244952D01*
Y243952D01*
X-30868Y242953D01*
X-28869D01*
X-27869Y243952D01*
Y244952D01*
X-28869Y245952D01*
X-27869Y246952D01*
Y247951D01*
X-28869Y245952D02*
X-30868D01*
X-15873Y420053D02*
Y426051D01*
X-18872D01*
X-19872Y425051D01*
Y423052D01*
X-18872Y422052D01*
X-15873D01*
X-17873D02*
X-19872Y420053D01*
X-25870D02*
X-21871D01*
X-25870Y424052D01*
Y425051D01*
X-24870Y426051D01*
X-22871D01*
X-21871Y425051D01*
X-27869Y421052D02*
X-28869Y420053D01*
X-30868D01*
X-31868Y421052D01*
Y425051D01*
X-30868Y426051D01*
X-28869D01*
X-27869Y425051D01*
Y424052D01*
X-28869Y423052D01*
X-31868D01*
X-15873Y65753D02*
Y71751D01*
X-18872D01*
X-19872Y70751D01*
Y68752D01*
X-18872Y67752D01*
X-15873D01*
X-17873D02*
X-19872Y65753D01*
X-25870D02*
X-21871D01*
X-25870Y69752D01*
Y70751D01*
X-24870Y71751D01*
X-22871D01*
X-21871Y70751D01*
X-27869Y71751D02*
X-31868D01*
Y70751D01*
X-27869Y66752D01*
Y65753D01*
X403427Y6853D02*
Y12851D01*
X400428D01*
X399428Y11851D01*
Y9852D01*
X400428Y8852D01*
X403427D01*
X401427D02*
X399428Y6853D01*
X393430D02*
X397429D01*
X393430Y10852D01*
Y11851D01*
X394430Y12851D01*
X396429D01*
X397429Y11851D01*
X388432Y6853D02*
Y12851D01*
X391431Y9852D01*
X387432D01*
X403427Y183653D02*
Y189651D01*
X400428D01*
X399428Y188651D01*
Y186652D01*
X400428Y185652D01*
X403427D01*
X401427D02*
X399428Y183653D01*
X393430D02*
X397429D01*
X393430Y187652D01*
Y188651D01*
X394430Y189651D01*
X396429D01*
X397429Y188651D01*
X387432Y189651D02*
X391431D01*
Y186652D01*
X389431Y187652D01*
X388432D01*
X387432Y186652D01*
Y184652D01*
X388432Y183653D01*
X390431D01*
X391431Y184652D01*
X403427Y361253D02*
Y367251D01*
X400428D01*
X399428Y366251D01*
Y364252D01*
X400428Y363252D01*
X403427D01*
X401427D02*
X399428Y361253D01*
X393430D02*
X397429D01*
X393430Y365251D01*
Y366251D01*
X394430Y367251D01*
X396429D01*
X397429Y366251D01*
X387432Y367251D02*
X389431Y366251D01*
X391431Y364252D01*
Y362252D01*
X390431Y361253D01*
X388432D01*
X387432Y362252D01*
Y363252D01*
X388432Y364252D01*
X391431D01*
X344327Y6853D02*
Y12851D01*
X341328D01*
X340328Y11851D01*
Y9852D01*
X341328Y8852D01*
X344327D01*
X342327D02*
X340328Y6853D01*
X334330D02*
X338329D01*
X334330Y10852D01*
Y11851D01*
X335330Y12851D01*
X337329D01*
X338329Y11851D01*
X332331Y6853D02*
X330331D01*
X331331D01*
Y12851D01*
X332331Y11851D01*
X344327Y183953D02*
Y189951D01*
X341328D01*
X340328Y188951D01*
Y186952D01*
X341328Y185952D01*
X344327D01*
X342327D02*
X340328Y183953D01*
X334330D02*
X338329D01*
X334330Y187952D01*
Y188951D01*
X335330Y189951D01*
X337329D01*
X338329Y188951D01*
X328332Y183953D02*
X332331D01*
X328332Y187952D01*
Y188951D01*
X329332Y189951D01*
X331331D01*
X332331Y188951D01*
X344327Y361253D02*
Y367251D01*
X341328D01*
X340328Y366251D01*
Y364252D01*
X341328Y363252D01*
X344327D01*
X342327D02*
X340328Y361253D01*
X334330D02*
X338329D01*
X334330Y365251D01*
Y366251D01*
X335330Y367251D01*
X337329D01*
X338329Y366251D01*
X332331D02*
X331331Y367251D01*
X329332D01*
X328332Y366251D01*
Y365251D01*
X329332Y364252D01*
X330331D01*
X329332D01*
X328332Y363252D01*
Y362252D01*
X329332Y361253D01*
X331331D01*
X332331Y362252D01*
X283327Y6553D02*
Y12551D01*
X280328D01*
X279328Y11551D01*
Y9552D01*
X280328Y8552D01*
X283327D01*
X281327D02*
X279328Y6553D01*
X277329D02*
X275329D01*
X276329D01*
Y12551D01*
X277329Y11551D01*
X272330D02*
X271331Y12551D01*
X269331D01*
X268332Y11551D01*
Y10552D01*
X269331Y9552D01*
X268332Y8552D01*
Y7552D01*
X269331Y6553D01*
X271331D01*
X272330Y7552D01*
Y8552D01*
X271331Y9552D01*
X272330Y10552D01*
Y11551D01*
X271331Y9552D02*
X269331D01*
X283327Y183653D02*
Y189651D01*
X280328D01*
X279328Y188651D01*
Y186652D01*
X280328Y185652D01*
X283327D01*
X281327D02*
X279328Y183653D01*
X277329D02*
X275329D01*
X276329D01*
Y189651D01*
X277329Y188651D01*
X272330Y184652D02*
X271331Y183653D01*
X269331D01*
X268332Y184652D01*
Y188651D01*
X269331Y189651D01*
X271331D01*
X272330Y188651D01*
Y187652D01*
X271331Y186652D01*
X268332D01*
X283327Y361153D02*
Y367151D01*
X280328D01*
X279328Y366151D01*
Y364152D01*
X280328Y363152D01*
X283327D01*
X281327D02*
X279328Y361153D01*
X273330D02*
X277329D01*
X273330Y365152D01*
Y366151D01*
X274330Y367151D01*
X276329D01*
X277329Y366151D01*
X271331D02*
X270331Y367151D01*
X268332D01*
X267332Y366151D01*
Y362152D01*
X268332Y361153D01*
X270331D01*
X271331Y362152D01*
Y366151D01*
X224327Y6853D02*
Y12851D01*
X221328D01*
X220328Y11851D01*
Y9852D01*
X221328Y8852D01*
X224327D01*
X222327D02*
X220328Y6853D01*
X218329D02*
X216329D01*
X217329D01*
Y12851D01*
X218329Y11851D01*
X209332Y12851D02*
X213330D01*
Y9852D01*
X211331Y10852D01*
X210331D01*
X209332Y9852D01*
Y7852D01*
X210331Y6853D01*
X212331D01*
X213330Y7852D01*
X224327Y183953D02*
Y189951D01*
X221328D01*
X220328Y188951D01*
Y186952D01*
X221328Y185952D01*
X224327D01*
X222327D02*
X220328Y183953D01*
X218329D02*
X216329D01*
X217329D01*
Y189951D01*
X218329Y188951D01*
X209332Y189951D02*
X211331Y188951D01*
X213330Y186952D01*
Y184952D01*
X212331Y183953D01*
X210331D01*
X209332Y184952D01*
Y185952D01*
X210331Y186952D01*
X213330D01*
X224327Y360853D02*
Y366851D01*
X221328D01*
X220328Y365851D01*
Y363852D01*
X221328Y362852D01*
X224327D01*
X222327D02*
X220328Y360853D01*
X218329D02*
X216329D01*
X217329D01*
Y366851D01*
X218329Y365851D01*
X213330Y366851D02*
X209332D01*
Y365851D01*
X213330Y361852D01*
Y360853D01*
X165227Y6853D02*
Y12851D01*
X162228D01*
X161228Y11851D01*
Y9852D01*
X162228Y8852D01*
X165227D01*
X163227D02*
X161228Y6853D01*
X159229D02*
X157229D01*
X158229D01*
Y12851D01*
X159229Y11851D01*
X150232Y6853D02*
X154230D01*
X150232Y10852D01*
Y11851D01*
X151231Y12851D01*
X153231D01*
X154230Y11851D01*
X165227Y184253D02*
Y190251D01*
X162228D01*
X161228Y189251D01*
Y187252D01*
X162228Y186252D01*
X165227D01*
X163227D02*
X161228Y184253D01*
X159229D02*
X157229D01*
X158229D01*
Y190251D01*
X159229Y189251D01*
X154230D02*
X153231Y190251D01*
X151231D01*
X150232Y189251D01*
Y188251D01*
X151231Y187252D01*
X152231D01*
X151231D01*
X150232Y186252D01*
Y185252D01*
X151231Y184253D01*
X153231D01*
X154230Y185252D01*
X165227Y360853D02*
Y366851D01*
X162228D01*
X161228Y365851D01*
Y363852D01*
X162228Y362852D01*
X165227D01*
X163227D02*
X161228Y360853D01*
X159229D02*
X157229D01*
X158229D01*
Y366851D01*
X159229Y365851D01*
X151231Y360853D02*
Y366851D01*
X154230Y363852D01*
X150232D01*
X106227Y6853D02*
Y12851D01*
X103228D01*
X102228Y11851D01*
Y9852D01*
X103228Y8852D01*
X106227D01*
X104227D02*
X102228Y6853D01*
X100229Y7852D02*
X99229Y6853D01*
X97230D01*
X96230Y7852D01*
Y11851D01*
X97230Y12851D01*
X99229D01*
X100229Y11851D01*
Y10852D01*
X99229Y9852D01*
X96230D01*
X106227Y184253D02*
Y190251D01*
X103228D01*
X102228Y189251D01*
Y187252D01*
X103228Y186252D01*
X106227D01*
X104227D02*
X102228Y184253D01*
X100229D02*
X98229D01*
X99229D01*
Y190251D01*
X100229Y189251D01*
X95230D02*
X94231Y190251D01*
X92231D01*
X91232Y189251D01*
Y185252D01*
X92231Y184253D01*
X94231D01*
X95230Y185252D01*
Y189251D01*
X106227Y361253D02*
Y367251D01*
X103228D01*
X102228Y366251D01*
Y364252D01*
X103228Y363252D01*
X106227D01*
X104227D02*
X102228Y361253D01*
X100229D02*
X98229D01*
X99229D01*
Y367251D01*
X100229Y366251D01*
X95230Y361253D02*
X93231D01*
X94231D01*
Y367251D01*
X95230Y366251D01*
X47127Y6853D02*
Y12851D01*
X44128D01*
X43128Y11851D01*
Y9852D01*
X44128Y8852D01*
X47127D01*
X45127D02*
X43128Y6853D01*
X37130Y12851D02*
X39129Y11851D01*
X41129Y9852D01*
Y7852D01*
X40129Y6853D01*
X38130D01*
X37130Y7852D01*
Y8852D01*
X38130Y9852D01*
X41129D01*
X47127Y184253D02*
Y190251D01*
X44128D01*
X43128Y189251D01*
Y187252D01*
X44128Y186252D01*
X47127D01*
X45127D02*
X43128Y184253D01*
X41129Y190251D02*
X37130D01*
Y189251D01*
X41129Y185252D01*
Y184253D01*
X47127Y361253D02*
Y367251D01*
X44128D01*
X43128Y366251D01*
Y364252D01*
X44128Y363252D01*
X47127D01*
X45127D02*
X43128Y361253D01*
X41129Y366251D02*
X40129Y367251D01*
X38130D01*
X37130Y366251D01*
Y365251D01*
X38130Y364252D01*
X37130Y363252D01*
Y362252D01*
X38130Y361253D01*
X40129D01*
X41129Y362252D01*
Y363252D01*
X40129Y364252D01*
X41129Y365251D01*
Y366251D01*
X40129Y364252D02*
X38130D01*
X-15873Y7253D02*
Y13251D01*
X-18872D01*
X-19872Y12251D01*
Y10252D01*
X-18872Y9252D01*
X-15873D01*
X-17873D02*
X-19872Y7253D01*
X-21871Y12251D02*
X-22871Y13251D01*
X-24870D01*
X-25870Y12251D01*
Y11252D01*
X-24870Y10252D01*
X-23871D01*
X-24870D01*
X-25870Y9252D01*
Y8252D01*
X-24870Y7253D01*
X-22871D01*
X-21871Y8252D01*
X-15873Y184253D02*
Y190251D01*
X-18872D01*
X-19872Y189251D01*
Y187252D01*
X-18872Y186252D01*
X-15873D01*
X-17873D02*
X-19872Y184253D01*
X-24870D02*
Y190251D01*
X-21871Y187252D01*
X-25870D01*
X-15873Y361253D02*
Y367251D01*
X-18872D01*
X-19872Y366251D01*
Y364252D01*
X-18872Y363252D01*
X-15873D01*
X-17873D02*
X-19872Y361253D01*
X-25870Y367251D02*
X-21871D01*
Y364252D01*
X-23871Y365251D01*
X-24870D01*
X-25870Y364252D01*
Y362252D01*
X-24870Y361253D01*
X-22871D01*
X-21871Y362252D01*
M02*
