G04*
G04 #@! TF.GenerationSoftware,Altium Limited,Altium Designer,20.1.7 (139)*
G04*
G04 Layer_Color=8388736*
%FSLAX25Y25*%
%MOIN*%
G70*
G04*
G04 #@! TF.SameCoordinates,6C4051BD-8A09-42F4-8E10-95B83C559B0F*
G04*
G04*
G04 #@! TF.FilePolarity,Negative*
G04*
G01*
G75*
%ADD14O,0.03162X0.06115*%
%ADD15O,0.06115X0.03162*%
%ADD16R,0.09265X0.04343*%
%ADD17R,0.09265X0.13398*%
%ADD18R,0.03162X0.04540*%
%ADD19R,0.06312X0.04147*%
%ADD20R,0.06312X0.04343*%
%ADD21R,0.04343X0.06312*%
%ADD22R,0.06233X0.02572*%
%ADD23R,0.09068X0.06607*%
%ADD24C,0.07099*%
%ADD25C,0.11036*%
%ADD26C,0.08674*%
%ADD27R,0.06800X0.06800*%
%ADD28C,0.00800*%
%ADD29C,0.03800*%
%ADD30C,0.19698*%
D14*
X-147421Y6791D02*
D03*
X-142421D02*
D03*
X-137421D02*
D03*
X-132421D02*
D03*
X-127421D02*
D03*
X-122421D02*
D03*
X-117421D02*
D03*
X-112421D02*
D03*
X-147421Y28642D02*
D03*
X-142421D02*
D03*
X-137421D02*
D03*
X-132421D02*
D03*
X-127421D02*
D03*
X-122421D02*
D03*
X-117421D02*
D03*
X-112421D02*
D03*
X-147421Y59941D02*
D03*
X-142421D02*
D03*
X-137421D02*
D03*
X-132421D02*
D03*
X-127421D02*
D03*
X-122421D02*
D03*
X-117421D02*
D03*
X-112421D02*
D03*
X-147421Y81791D02*
D03*
X-142421D02*
D03*
X-137421D02*
D03*
X-132421D02*
D03*
X-127421D02*
D03*
X-122421D02*
D03*
X-117421D02*
D03*
X-112421D02*
D03*
X-147421Y114173D02*
D03*
X-142421D02*
D03*
X-137421D02*
D03*
X-132421D02*
D03*
X-127421D02*
D03*
X-122421D02*
D03*
X-117421D02*
D03*
X-112421D02*
D03*
X-147421Y136024D02*
D03*
X-142421D02*
D03*
X-137421D02*
D03*
X-132421D02*
D03*
X-127421D02*
D03*
X-122421D02*
D03*
X-117421D02*
D03*
X-112421D02*
D03*
X-147421Y170177D02*
D03*
X-142421D02*
D03*
X-137421D02*
D03*
X-132421D02*
D03*
X-127421D02*
D03*
X-122421D02*
D03*
X-117421D02*
D03*
X-112421D02*
D03*
X-147421Y192028D02*
D03*
X-142421D02*
D03*
X-137421D02*
D03*
X-132421D02*
D03*
X-127421D02*
D03*
X-122421D02*
D03*
X-117421D02*
D03*
X-112421D02*
D03*
X-147421Y227953D02*
D03*
X-142421D02*
D03*
X-137421D02*
D03*
X-132421D02*
D03*
X-127421D02*
D03*
X-122421D02*
D03*
X-117421D02*
D03*
X-112421D02*
D03*
X-147421Y249803D02*
D03*
X-142421D02*
D03*
X-137421D02*
D03*
X-132421D02*
D03*
X-127421D02*
D03*
X-122421D02*
D03*
X-117421D02*
D03*
X-112421D02*
D03*
X-147421Y286319D02*
D03*
X-142421D02*
D03*
X-137421D02*
D03*
X-132421D02*
D03*
X-127421D02*
D03*
X-122421D02*
D03*
X-117421D02*
D03*
X-112421D02*
D03*
X-147421Y308169D02*
D03*
X-142421D02*
D03*
X-137421D02*
D03*
X-132421D02*
D03*
X-127421D02*
D03*
X-122421D02*
D03*
X-117421D02*
D03*
X-112421D02*
D03*
X-147421Y337894D02*
D03*
X-142421D02*
D03*
X-137421D02*
D03*
X-132421D02*
D03*
X-127421D02*
D03*
X-122421D02*
D03*
X-117421D02*
D03*
X-112421D02*
D03*
X-147421Y359744D02*
D03*
X-142421D02*
D03*
X-137421D02*
D03*
X-132421D02*
D03*
X-127421D02*
D03*
X-122421D02*
D03*
X-117421D02*
D03*
X-112421D02*
D03*
X-147421Y396161D02*
D03*
X-142421D02*
D03*
X-137421D02*
D03*
X-132421D02*
D03*
X-127421D02*
D03*
X-122421D02*
D03*
X-117421D02*
D03*
X-112421D02*
D03*
X-147421Y418012D02*
D03*
X-142421D02*
D03*
X-137421D02*
D03*
X-132421D02*
D03*
X-127421D02*
D03*
X-122421D02*
D03*
X-117421D02*
D03*
X-112421D02*
D03*
D15*
X-75492Y417106D02*
D03*
Y412106D02*
D03*
Y407106D02*
D03*
Y402106D02*
D03*
Y397106D02*
D03*
Y392106D02*
D03*
Y387106D02*
D03*
Y382106D02*
D03*
X-53642Y417106D02*
D03*
Y412106D02*
D03*
Y407106D02*
D03*
Y402106D02*
D03*
Y397106D02*
D03*
Y392106D02*
D03*
Y387106D02*
D03*
Y382106D02*
D03*
D16*
X-214665Y135039D02*
D03*
Y125984D02*
D03*
Y116929D02*
D03*
D17*
X-191634Y125984D02*
D03*
D18*
X-29724Y9744D02*
D03*
X-22244D02*
D03*
X-25984Y19390D02*
D03*
X-29724Y69193D02*
D03*
X-22244D02*
D03*
X-25984Y78839D02*
D03*
X-29724Y131398D02*
D03*
X-22244D02*
D03*
X-25984Y141043D02*
D03*
X-29724Y197146D02*
D03*
X-22244D02*
D03*
X-25984Y206791D02*
D03*
X-29724Y252264D02*
D03*
X-22244D02*
D03*
X-25984Y261910D02*
D03*
X-29724Y309350D02*
D03*
X-22244D02*
D03*
X-25984Y318996D02*
D03*
X-29724Y364469D02*
D03*
X-22244D02*
D03*
X-25984Y374114D02*
D03*
X-29724Y422736D02*
D03*
X-22244D02*
D03*
X-25984Y432382D02*
D03*
D19*
X-230315Y125886D02*
D03*
Y133957D02*
D03*
X-229921Y166634D02*
D03*
Y158563D02*
D03*
D20*
X-157480Y11614D02*
D03*
Y19882D02*
D03*
Y67126D02*
D03*
Y75394D02*
D03*
Y121457D02*
D03*
Y129724D02*
D03*
Y177756D02*
D03*
Y186024D02*
D03*
Y236417D02*
D03*
Y244685D02*
D03*
Y293110D02*
D03*
Y301378D02*
D03*
Y345079D02*
D03*
Y353346D02*
D03*
Y401378D02*
D03*
Y409646D02*
D03*
X-266929Y177756D02*
D03*
Y169488D02*
D03*
X-213386Y158465D02*
D03*
Y166732D02*
D03*
X-275590Y246260D02*
D03*
Y237992D02*
D03*
D21*
X-67716Y427953D02*
D03*
X-59449D02*
D03*
X-293898Y104331D02*
D03*
X-285630D02*
D03*
D22*
X-291732Y176181D02*
D03*
Y178740D02*
D03*
Y173622D02*
D03*
Y171063D02*
D03*
Y181299D02*
D03*
D23*
X-293110Y185925D02*
D03*
Y166437D02*
D03*
D24*
X-293307Y412992D02*
D03*
Y402992D02*
D03*
Y392992D02*
D03*
Y382992D02*
D03*
Y372992D02*
D03*
Y362992D02*
D03*
Y352992D02*
D03*
Y342992D02*
D03*
Y332992D02*
D03*
Y322992D02*
D03*
Y312992D02*
D03*
Y302992D02*
D03*
Y292992D02*
D03*
Y282992D02*
D03*
Y272992D02*
D03*
Y262992D02*
D03*
Y252992D02*
D03*
Y242992D02*
D03*
Y232992D02*
D03*
Y222992D02*
D03*
X-233307D02*
D03*
Y232992D02*
D03*
Y242992D02*
D03*
Y252992D02*
D03*
Y262992D02*
D03*
Y272992D02*
D03*
Y282992D02*
D03*
Y292992D02*
D03*
Y302992D02*
D03*
Y312992D02*
D03*
Y322992D02*
D03*
Y332992D02*
D03*
Y342992D02*
D03*
Y352992D02*
D03*
Y362992D02*
D03*
Y372992D02*
D03*
Y382992D02*
D03*
Y392992D02*
D03*
Y402992D02*
D03*
Y412992D02*
D03*
X-305118Y133858D02*
D03*
X-295118D02*
D03*
X-285118D02*
D03*
X-275118D02*
D03*
X-265118D02*
D03*
X-255118D02*
D03*
D25*
X-185827Y14961D02*
D03*
X-205512D02*
D03*
X-225197D02*
D03*
D26*
X-302461Y160630D02*
D03*
Y191732D02*
D03*
D27*
X413386Y118110D02*
D03*
X177165D02*
D03*
X0Y0D02*
D03*
X59055D02*
D03*
X118110D02*
D03*
X177165D02*
D03*
X236221D02*
D03*
X295276D02*
D03*
X354331D02*
D03*
X413386D02*
D03*
X118110Y295276D02*
D03*
X236221Y354331D02*
D03*
X59055D02*
D03*
X0Y433071D02*
D03*
Y374016D02*
D03*
Y314961D02*
D03*
Y255906D02*
D03*
Y196850D02*
D03*
Y137795D02*
D03*
Y78740D02*
D03*
Y19685D02*
D03*
Y413386D02*
D03*
X413386D02*
D03*
X354331D02*
D03*
X295276D02*
D03*
X236221D02*
D03*
X177165D02*
D03*
X118110D02*
D03*
X59055D02*
D03*
X0Y354331D02*
D03*
X413386D02*
D03*
X354331D02*
D03*
X295276Y354232D02*
D03*
X177165Y354331D02*
D03*
X118110D02*
D03*
X0Y295276D02*
D03*
X413386D02*
D03*
X354331D02*
D03*
X295276D02*
D03*
X236221D02*
D03*
X177165D02*
D03*
X59055D02*
D03*
X0Y236221D02*
D03*
X413386D02*
D03*
X354331D02*
D03*
X295276D02*
D03*
X236221D02*
D03*
X177165D02*
D03*
X118110D02*
D03*
X59055D02*
D03*
X0Y177165D02*
D03*
X413386D02*
D03*
X354331D02*
D03*
X295276D02*
D03*
X236221D02*
D03*
X177165D02*
D03*
X118110D02*
D03*
X59055D02*
D03*
X0Y118110D02*
D03*
X354331D02*
D03*
X295276D02*
D03*
X236221D02*
D03*
X118110D02*
D03*
X59055D02*
D03*
X0Y59055D02*
D03*
X413386D02*
D03*
X354331D02*
D03*
X295276D02*
D03*
X236221D02*
D03*
X177165D02*
D03*
X118110D02*
D03*
X59055D02*
D03*
D28*
X314961Y15748D02*
D03*
X374016D02*
D03*
X314961Y74803D02*
D03*
X374016D02*
D03*
X314961Y133858D02*
D03*
X374016D02*
D03*
X314961Y192913D02*
D03*
X374016D02*
D03*
X314961Y251969D02*
D03*
X374016D02*
D03*
X314961Y311024D02*
D03*
X374016D02*
D03*
X314961Y370079D02*
D03*
X374016D02*
D03*
Y429134D02*
D03*
X314961D02*
D03*
D29*
X-117274Y391092D02*
D03*
X-88976Y349114D02*
D03*
X-93405Y349016D02*
D03*
X-98819Y348622D02*
D03*
X-87598Y294193D02*
D03*
X-92716Y294390D02*
D03*
X-98425Y294291D02*
D03*
X-89764Y238976D02*
D03*
X-95079D02*
D03*
X-100886D02*
D03*
X-89075Y178543D02*
D03*
X-93504Y177953D02*
D03*
X-99016Y177657D02*
D03*
X-88386Y125197D02*
D03*
X-92913Y125000D02*
D03*
X-98721D02*
D03*
X-112411Y424498D02*
D03*
X-117421Y424508D02*
D03*
X-122421Y424685D02*
D03*
X-127421Y424744D02*
D03*
X-132421Y424567D02*
D03*
X-137421Y424685D02*
D03*
X-142421Y424409D02*
D03*
X-112402Y367224D02*
D03*
X-117421Y366831D02*
D03*
X-122343Y366929D02*
D03*
X-127421Y366673D02*
D03*
X-117421Y331594D02*
D03*
X-112402Y315748D02*
D03*
X-117421Y315551D02*
D03*
X-122343Y315354D02*
D03*
X-127421Y315650D02*
D03*
X-117421Y279232D02*
D03*
X-112421Y257461D02*
D03*
X-117421Y257480D02*
D03*
X-122421Y257362D02*
D03*
X-127461Y257382D02*
D03*
X-117520Y221457D02*
D03*
X-112402Y199016D02*
D03*
X-117421Y199114D02*
D03*
X-122421Y198839D02*
D03*
X-127421Y198878D02*
D03*
X-117421Y163681D02*
D03*
X-112538Y143097D02*
D03*
X-117421Y143012D02*
D03*
X-122441D02*
D03*
X-127461D02*
D03*
X-117421Y107776D02*
D03*
X-112402Y87894D02*
D03*
X-117421D02*
D03*
X-122441Y87795D02*
D03*
X-127461Y87894D02*
D03*
X-117421Y53937D02*
D03*
X-86516Y71063D02*
D03*
X-91535Y70472D02*
D03*
X-97638Y70768D02*
D03*
X-112421Y35217D02*
D03*
X-117421Y35039D02*
D03*
X-122421Y35217D02*
D03*
X-127461Y35335D02*
D03*
X-87992Y15256D02*
D03*
X-92716Y15354D02*
D03*
X-97736Y15256D02*
D03*
X-117421Y1181D02*
D03*
X-147244Y321161D02*
D03*
X-147343Y279724D02*
D03*
X-147441Y164272D02*
D03*
X-147638Y207972D02*
D03*
Y40256D02*
D03*
X-147441Y787D02*
D03*
Y53150D02*
D03*
X-147343Y96358D02*
D03*
X-147421Y108071D02*
D03*
X-147539Y153347D02*
D03*
X-147441Y221654D02*
D03*
X-147638Y268406D02*
D03*
X-147421Y332106D02*
D03*
X-147638Y375787D02*
D03*
X-80709Y392126D02*
D03*
X-127559Y385827D02*
D03*
X-185433Y408661D02*
D03*
X-81496Y407087D02*
D03*
X-137402Y787D02*
D03*
Y53543D02*
D03*
Y107480D02*
D03*
Y163386D02*
D03*
Y221654D02*
D03*
Y279921D02*
D03*
Y331496D02*
D03*
Y389764D02*
D03*
X-81496Y402362D02*
D03*
X-132382Y787D02*
D03*
Y53543D02*
D03*
Y107480D02*
D03*
Y163386D02*
D03*
Y221654D02*
D03*
Y279921D02*
D03*
Y331496D02*
D03*
Y389764D02*
D03*
X-127264Y1181D02*
D03*
D30*
X433071Y437008D02*
D03*
Y-5906D02*
D03*
X-299213D02*
D03*
Y437008D02*
D03*
M02*
