G04*
G04 #@! TF.GenerationSoftware,Altium Limited,Altium Designer,20.1.7 (139)*
G04*
G04 Layer_Physical_Order=2*
G04 Layer_Color=16711680*
%FSLAX25Y25*%
%MOIN*%
G70*
G04*
G04 #@! TF.SameCoordinates,6C4051BD-8A09-42F4-8E10-95B83C559B0F*
G04*
G04*
G04 #@! TF.FilePolarity,Positive*
G04*
G01*
G75*
%ADD13C,0.01000*%
%ADD42C,0.01181*%
%ADD43C,0.06299*%
%ADD44C,0.10236*%
%ADD45C,0.07874*%
%ADD46R,0.06000X0.06000*%
%ADD47C,0.03000*%
%ADD48C,0.18898*%
%ADD49R,0.03347X0.05512*%
G36*
X445321Y-18156D02*
X-311463D01*
Y451227D01*
X445321D01*
Y-18156D01*
D02*
G37*
%LPC*%
G36*
X433571Y447450D02*
Y437508D01*
X443513D01*
X443423Y438648D01*
X443039Y440247D01*
X442410Y441766D01*
X441550Y443168D01*
X440482Y444419D01*
X439231Y445487D01*
X437829Y446347D01*
X436310Y446976D01*
X434711Y447360D01*
X433571Y447450D01*
D02*
G37*
G36*
X432571D02*
X431431Y447360D01*
X429832Y446976D01*
X428312Y446347D01*
X426910Y445487D01*
X425660Y444419D01*
X424591Y443168D01*
X423732Y441766D01*
X423103Y440247D01*
X422719Y438648D01*
X422629Y437508D01*
X432571D01*
Y447450D01*
D02*
G37*
G36*
X-298713D02*
Y437508D01*
X-288771D01*
X-288861Y438648D01*
X-289245Y440247D01*
X-289874Y441766D01*
X-290733Y443168D01*
X-291801Y444419D01*
X-293052Y445487D01*
X-294454Y446347D01*
X-295974Y446976D01*
X-297573Y447360D01*
X-298713Y447450D01*
D02*
G37*
G36*
X-299713D02*
X-300852Y447360D01*
X-302451Y446976D01*
X-303971Y446347D01*
X-305373Y445487D01*
X-306624Y444419D01*
X-307692Y443168D01*
X-308551Y441766D01*
X-309181Y440247D01*
X-309565Y438648D01*
X-309654Y437508D01*
X-299713D01*
Y447450D01*
D02*
G37*
G36*
X443513Y436508D02*
X433571D01*
Y426566D01*
X434711Y426656D01*
X436310Y427040D01*
X437829Y427669D01*
X439231Y428528D01*
X440482Y429597D01*
X441550Y430847D01*
X442410Y432249D01*
X443039Y433769D01*
X443423Y435368D01*
X443513Y436508D01*
D02*
G37*
G36*
X432571D02*
X422629D01*
X422719Y435368D01*
X423103Y433769D01*
X423732Y432249D01*
X424591Y430847D01*
X425660Y429597D01*
X426910Y428528D01*
X428312Y427669D01*
X429832Y427040D01*
X431431Y426656D01*
X432571Y426566D01*
Y436508D01*
D02*
G37*
G36*
X-288771D02*
X-298713D01*
Y426566D01*
X-297573Y426656D01*
X-295974Y427040D01*
X-294454Y427669D01*
X-293052Y428528D01*
X-291801Y429597D01*
X-290733Y430847D01*
X-289874Y432249D01*
X-289245Y433769D01*
X-288861Y435368D01*
X-288771Y436508D01*
D02*
G37*
G36*
X-299713D02*
X-309654D01*
X-309565Y435368D01*
X-309181Y433769D01*
X-308551Y432249D01*
X-307692Y430847D01*
X-306624Y429597D01*
X-305373Y428528D01*
X-303971Y427669D01*
X-302451Y427040D01*
X-300852Y426656D01*
X-299713Y426566D01*
Y436508D01*
D02*
G37*
G36*
X374016Y440010D02*
X372314Y439876D01*
X370655Y439478D01*
X369078Y438825D01*
X367623Y437933D01*
X366325Y436824D01*
X365217Y435527D01*
X364325Y434071D01*
X363672Y432495D01*
X363274Y430835D01*
X363140Y429134D01*
X363274Y427432D01*
X363672Y425773D01*
X364325Y424196D01*
X365217Y422741D01*
X366325Y421443D01*
X367623Y420335D01*
X369078Y419443D01*
X370655Y418790D01*
X372314Y418392D01*
X374016Y418258D01*
X375717Y418392D01*
X377377Y418790D01*
X378953Y419443D01*
X380409Y420335D01*
X381706Y421443D01*
X382815Y422741D01*
X383706Y424196D01*
X384360Y425773D01*
X384758Y427432D01*
X384892Y429134D01*
X384758Y430835D01*
X384360Y432495D01*
X383706Y434071D01*
X382815Y435527D01*
X381706Y436824D01*
X380409Y437933D01*
X378953Y438825D01*
X377377Y439478D01*
X375717Y439876D01*
X374016Y440010D01*
D02*
G37*
G36*
X314961D02*
X313259Y439876D01*
X311600Y439478D01*
X310023Y438825D01*
X308568Y437933D01*
X307270Y436824D01*
X306162Y435527D01*
X305270Y434071D01*
X304617Y432495D01*
X304219Y430835D01*
X304085Y429134D01*
X304219Y427432D01*
X304617Y425773D01*
X305270Y424196D01*
X306162Y422741D01*
X307270Y421443D01*
X308568Y420335D01*
X310023Y419443D01*
X311600Y418790D01*
X313259Y418392D01*
X314961Y418258D01*
X316662Y418392D01*
X318321Y418790D01*
X319898Y419443D01*
X321353Y420335D01*
X322651Y421443D01*
X323760Y422741D01*
X324651Y424196D01*
X325304Y425773D01*
X325703Y427432D01*
X325837Y429134D01*
X325703Y430835D01*
X325304Y432495D01*
X324651Y434071D01*
X323760Y435527D01*
X322651Y436824D01*
X321353Y437933D01*
X319898Y438825D01*
X318321Y439478D01*
X316662Y439876D01*
X314961Y440010D01*
D02*
G37*
G36*
X240220Y417386D02*
X232221D01*
Y415106D01*
X225213D01*
Y417240D01*
X219866D01*
Y409728D01*
X225213D01*
Y411863D01*
X232221D01*
Y409386D01*
X240220D01*
Y417386D01*
D02*
G37*
G36*
X122110D02*
X114110D01*
Y415007D01*
X107102D01*
Y417142D01*
X101756D01*
Y409630D01*
X107102D01*
Y411764D01*
X114110D01*
Y409386D01*
X122110D01*
Y417386D01*
D02*
G37*
G36*
X181165D02*
X173165D01*
Y414909D01*
X166157D01*
Y417043D01*
X160811D01*
Y409531D01*
X166157D01*
Y411666D01*
X173165D01*
Y409386D01*
X181165D01*
Y417386D01*
D02*
G37*
G36*
X63055D02*
X55055D01*
Y414811D01*
X48047D01*
Y416945D01*
X42701D01*
Y409433D01*
X48047D01*
Y411567D01*
X55055D01*
Y409386D01*
X63055D01*
Y417386D01*
D02*
G37*
G36*
X299276D02*
X291276D01*
Y414712D01*
X284268D01*
Y416847D01*
X278921D01*
Y409335D01*
X284268D01*
Y411469D01*
X291276D01*
Y409386D01*
X299276D01*
Y417386D01*
D02*
G37*
G36*
X358331D02*
X350331D01*
Y414614D01*
X345291D01*
Y416748D01*
X339945D01*
Y409236D01*
X345291D01*
Y411370D01*
X350331D01*
Y409386D01*
X358331D01*
Y417386D01*
D02*
G37*
G36*
X417386D02*
X409386D01*
Y414522D01*
X404347D01*
Y416748D01*
X399000D01*
Y409236D01*
X404347D01*
Y411463D01*
X409386D01*
Y409386D01*
X417386D01*
Y417386D01*
D02*
G37*
G36*
X-232807Y417112D02*
Y413492D01*
X-229187D01*
X-229264Y414075D01*
X-229682Y415085D01*
X-230348Y415952D01*
X-231214Y416617D01*
X-232224Y417035D01*
X-232807Y417112D01*
D02*
G37*
G36*
X-233807Y417112D02*
X-234390Y417035D01*
X-235400Y416617D01*
X-236267Y415952D01*
X-236932Y415085D01*
X-237350Y414075D01*
X-237427Y413492D01*
X-233807D01*
Y417112D01*
D02*
G37*
G36*
X384350Y449752D02*
X-14173D01*
X-14794Y449628D01*
X-15320Y449277D01*
X-16912Y447685D01*
X-129035D01*
X-129656Y447561D01*
X-130182Y447210D01*
X-143568Y433824D01*
X-143920Y433298D01*
X-144043Y432677D01*
Y426333D01*
X-144224Y426212D01*
X-144776Y425385D01*
X-144970Y424409D01*
X-144776Y423434D01*
X-144224Y422607D01*
X-143397Y422054D01*
X-142421Y421861D01*
X-141446Y422054D01*
X-140619Y422607D01*
X-140130Y423339D01*
X-139753Y423408D01*
X-139565Y423393D01*
X-139224Y422883D01*
X-138397Y422330D01*
X-137421Y422136D01*
X-136446Y422330D01*
X-135619Y422883D01*
X-135239Y423452D01*
X-135180Y423469D01*
X-134660Y423418D01*
X-134224Y422764D01*
X-133397Y422212D01*
X-132421Y422018D01*
X-131446Y422212D01*
X-130619Y422764D01*
X-130163Y423447D01*
X-129699Y423508D01*
X-129584Y423481D01*
X-129224Y422942D01*
X-128397Y422389D01*
X-127421Y422195D01*
X-126446Y422389D01*
X-125619Y422942D01*
X-125219Y423540D01*
X-125205Y423546D01*
X-124646Y423515D01*
X-124224Y422883D01*
X-123397Y422330D01*
X-122421Y422136D01*
X-121446Y422330D01*
X-120619Y422883D01*
X-120258Y423422D01*
X-120143Y423449D01*
X-119680Y423388D01*
X-119224Y422706D01*
X-118397Y422153D01*
X-117421Y421959D01*
X-116446Y422153D01*
X-115619Y422706D01*
X-115200Y423333D01*
X-114636Y423328D01*
X-114214Y422696D01*
X-113387Y422143D01*
X-112411Y421949D01*
X-112198Y421991D01*
X-107367Y417160D01*
X-106841Y416809D01*
X-106220Y416685D01*
X-28362D01*
Y415007D01*
X-34449D01*
X-35069Y414884D01*
X-35596Y414533D01*
X-50081Y400047D01*
X-79600D01*
X-79745Y400525D01*
X-79694Y400560D01*
X-79141Y401387D01*
X-78947Y402362D01*
X-79141Y403338D01*
X-79694Y404165D01*
X-80081Y404424D01*
Y405025D01*
X-79694Y405284D01*
X-79141Y406111D01*
X-78947Y407087D01*
X-79141Y408062D01*
X-79694Y408889D01*
X-80521Y409442D01*
X-81496Y409636D01*
X-81709Y409593D01*
X-86944Y414828D01*
X-87470Y415179D01*
X-88091Y415303D01*
X-199311D01*
X-199932Y415179D01*
X-200458Y414828D01*
X-207052Y408233D01*
X-207404Y407707D01*
X-207527Y407087D01*
Y388583D01*
Y295160D01*
X-218073Y284614D01*
X-229487D01*
X-229682Y285085D01*
X-230348Y285952D01*
X-231214Y286617D01*
X-232224Y287035D01*
X-233307Y287177D01*
X-234390Y287035D01*
X-235400Y286617D01*
X-236267Y285952D01*
X-236932Y285085D01*
X-237350Y284075D01*
X-237492Y282992D01*
X-237350Y281909D01*
X-236932Y280899D01*
X-236267Y280033D01*
X-235400Y279367D01*
X-234390Y278949D01*
X-233307Y278807D01*
X-232224Y278949D01*
X-231214Y279367D01*
X-230348Y280033D01*
X-229682Y280899D01*
X-229487Y281370D01*
X-217402D01*
X-216781Y281494D01*
X-216255Y281845D01*
X-204759Y293341D01*
X-204407Y293868D01*
X-204284Y294488D01*
Y387911D01*
X-189879Y402315D01*
X-142798D01*
X-139023Y398541D01*
Y391687D01*
X-139204Y391566D01*
X-139757Y390739D01*
X-139951Y389764D01*
X-139757Y388788D01*
X-139204Y387961D01*
X-139023Y387841D01*
Y333419D01*
X-139204Y333298D01*
X-139757Y332471D01*
X-139951Y331496D01*
X-139757Y330521D01*
X-139204Y329694D01*
X-139023Y329573D01*
Y281844D01*
X-139204Y281724D01*
X-139757Y280897D01*
X-139951Y279921D01*
X-139757Y278946D01*
X-139204Y278119D01*
X-139023Y277998D01*
Y223577D01*
X-139204Y223456D01*
X-139757Y222629D01*
X-139951Y221654D01*
X-139757Y220678D01*
X-139204Y219851D01*
X-139023Y219730D01*
Y165309D01*
X-139204Y165188D01*
X-139757Y164361D01*
X-139951Y163386D01*
X-139757Y162410D01*
X-139204Y161583D01*
X-139023Y161463D01*
Y109403D01*
X-139204Y109283D01*
X-139757Y108456D01*
X-139951Y107480D01*
X-139757Y106505D01*
X-139204Y105678D01*
X-139023Y105557D01*
Y55466D01*
X-139204Y55346D01*
X-139757Y54519D01*
X-139951Y53543D01*
X-139757Y52568D01*
X-139204Y51741D01*
X-139023Y51620D01*
Y2710D01*
X-139204Y2590D01*
X-139757Y1763D01*
X-139951Y787D01*
X-139757Y-188D01*
X-139204Y-1015D01*
X-138377Y-1568D01*
X-137658Y-1711D01*
X-137626Y-1717D01*
X-137653Y-1985D01*
X-137653D01*
X-137653Y-1985D01*
X-138057Y-2217D01*
X-146786D01*
X-147190Y-1985D01*
X-147190Y-1985D01*
X-147190D01*
X-147216Y-1717D01*
X-147185Y-1711D01*
X-146466Y-1568D01*
X-145639Y-1015D01*
X-145086Y-188D01*
X-144892Y787D01*
X-145086Y1763D01*
X-145639Y2590D01*
X-146016Y2842D01*
Y38333D01*
X-145835Y38454D01*
X-145283Y39281D01*
X-145089Y40256D01*
X-145283Y41231D01*
X-145835Y42058D01*
X-146662Y42611D01*
X-147638Y42805D01*
X-148613Y42611D01*
X-149440Y42058D01*
X-149993Y41231D01*
X-150187Y40256D01*
X-149993Y39281D01*
X-149440Y38454D01*
X-149259Y38333D01*
Y2566D01*
X-149796Y1763D01*
X-149990Y787D01*
X-149796Y-188D01*
X-149243Y-1015D01*
X-148416Y-1568D01*
X-147697Y-1711D01*
X-147666Y-1717D01*
X-147692Y-1985D01*
X-147692D01*
X-147692Y-1985D01*
X-148096Y-2217D01*
X-162025D01*
X-173969Y9727D01*
Y31102D01*
X-174092Y31723D01*
X-174444Y32249D01*
X-240111Y97916D01*
X-240111Y259171D01*
X-237911Y261370D01*
X-237127D01*
X-236932Y260899D01*
X-236267Y260033D01*
X-235400Y259367D01*
X-234390Y258949D01*
X-233307Y258807D01*
X-232224Y258949D01*
X-231214Y259367D01*
X-230348Y260033D01*
X-229682Y260899D01*
X-229264Y261909D01*
X-229122Y262992D01*
X-229264Y264075D01*
X-229682Y265085D01*
X-230348Y265952D01*
X-231214Y266617D01*
X-232224Y267035D01*
X-233307Y267178D01*
X-234390Y267035D01*
X-235400Y266617D01*
X-236267Y265952D01*
X-236932Y265085D01*
X-237127Y264614D01*
X-238583D01*
X-239203Y264490D01*
X-239729Y264139D01*
X-242879Y260989D01*
X-243231Y260463D01*
X-243354Y259842D01*
X-243354Y97244D01*
X-243231Y96623D01*
X-242879Y96097D01*
X-177212Y30431D01*
Y9055D01*
X-177089Y8434D01*
X-176737Y7908D01*
X-163844Y-4985D01*
X-163318Y-5337D01*
X-162697Y-5460D01*
X-129528D01*
X-128907Y-5337D01*
X-128381Y-4985D01*
X-126117Y-2722D01*
X-125766Y-2195D01*
X-125642Y-1575D01*
Y-742D01*
X-125461Y-621D01*
X-124909Y206D01*
X-124715Y1181D01*
X-124909Y2157D01*
X-125461Y2984D01*
X-126288Y3536D01*
X-127264Y3730D01*
X-128239Y3536D01*
X-129066Y2984D01*
X-129619Y2157D01*
X-129635Y2076D01*
X-130166Y1970D01*
X-130579Y2590D01*
X-130760Y2710D01*
Y51620D01*
X-130579Y51741D01*
X-130027Y52568D01*
X-129833Y53543D01*
X-130027Y54519D01*
X-130579Y55346D01*
X-130760Y55466D01*
Y105557D01*
X-130579Y105678D01*
X-130027Y106505D01*
X-129833Y107480D01*
X-130027Y108456D01*
X-130579Y109283D01*
X-130760Y109403D01*
Y161463D01*
X-130579Y161583D01*
X-130027Y162410D01*
X-129833Y163386D01*
X-130027Y164361D01*
X-130579Y165188D01*
X-130760Y165309D01*
Y219730D01*
X-130579Y219851D01*
X-130027Y220678D01*
X-129833Y221654D01*
X-130027Y222629D01*
X-130579Y223456D01*
X-130760Y223577D01*
Y277998D01*
X-130579Y278119D01*
X-130027Y278946D01*
X-129833Y279921D01*
X-130027Y280897D01*
X-130579Y281724D01*
X-130760Y281844D01*
Y329573D01*
X-130579Y329694D01*
X-130027Y330521D01*
X-129833Y331496D01*
X-130027Y332471D01*
X-130579Y333298D01*
X-130760Y333419D01*
Y387841D01*
X-130579Y387961D01*
X-130027Y388788D01*
X-129833Y389764D01*
X-129875Y389977D01*
X-119112Y400740D01*
X-83668D01*
X-83522Y400547D01*
X-83771Y400047D01*
X-89567D01*
X-90188Y399923D01*
X-90714Y399572D01*
X-97571Y392714D01*
X-115350D01*
X-115471Y392895D01*
X-116298Y393447D01*
X-117274Y393641D01*
X-118249Y393447D01*
X-119076Y392895D01*
X-119629Y392068D01*
X-119823Y391092D01*
X-119629Y390117D01*
X-119076Y389290D01*
X-118249Y388738D01*
X-117274Y388544D01*
X-116298Y388738D01*
X-115471Y389290D01*
X-115350Y389471D01*
X-96900D01*
X-96279Y389594D01*
X-95753Y389946D01*
X-88895Y396803D01*
X-49409D01*
X-48789Y396927D01*
X-48263Y397278D01*
X-33777Y411764D01*
X-28362D01*
Y409433D01*
X-23016D01*
Y416685D01*
X-20291D01*
Y409433D01*
X-14945D01*
Y411567D01*
X-4000D01*
Y409386D01*
X4000D01*
Y416685D01*
X34269D01*
X34630Y416325D01*
Y409433D01*
X39976D01*
Y416945D01*
X38548D01*
X38450Y417092D01*
X36108Y419433D01*
X36113Y419521D01*
X36270Y419933D01*
X93128D01*
X94737Y418324D01*
Y417142D01*
X93685D01*
Y409630D01*
X99032D01*
Y417142D01*
X97980D01*
Y418996D01*
X97856Y419617D01*
X97505Y420143D01*
X95065Y422583D01*
X95222Y423052D01*
X95247Y423083D01*
X151986D01*
X153792Y421277D01*
Y417043D01*
X152740D01*
Y409531D01*
X158087D01*
Y417043D01*
X157035D01*
Y421949D01*
X156912Y422569D01*
X156560Y423096D01*
X154279Y425377D01*
X154470Y425839D01*
X208187D01*
X212650Y421376D01*
Y417240D01*
X211795D01*
Y409728D01*
X217142D01*
Y417240D01*
X215893D01*
Y422047D01*
X215770Y422668D01*
X215418Y423194D01*
X210005Y428607D01*
X209479Y428959D01*
X208858Y429082D01*
X4000D01*
Y437071D01*
X-4000D01*
Y429082D01*
X-91553D01*
X-97947Y435477D01*
X-97942Y435564D01*
X-97785Y435977D01*
X-7087D01*
X-6466Y436100D01*
X-5940Y436452D01*
X-4053Y438339D01*
X265076D01*
X272000Y431415D01*
Y416847D01*
X270850D01*
Y409335D01*
X276197D01*
Y416847D01*
X275244D01*
Y432087D01*
X275120Y432707D01*
X274769Y433233D01*
X266895Y441107D01*
X266369Y441459D01*
X265748Y441582D01*
X-4258D01*
X-4453Y442033D01*
X-4180Y442374D01*
X327478D01*
X332729Y437123D01*
Y416748D01*
X331874D01*
Y409236D01*
X337221D01*
Y416748D01*
X335972D01*
Y437795D01*
X335849Y438416D01*
X335497Y438942D01*
X329296Y445143D01*
X328770Y445494D01*
X328150Y445618D01*
X-4921D01*
X-5542Y445494D01*
X-6068Y445143D01*
X-8447Y442763D01*
X-126476D01*
X-127097Y442640D01*
X-127623Y442288D01*
X-138568Y431344D01*
X-138919Y430818D01*
X-139043Y430197D01*
Y426608D01*
X-139224Y426487D01*
X-139713Y425756D01*
X-140089Y425686D01*
X-140278Y425702D01*
X-140619Y426212D01*
X-140799Y426333D01*
Y432005D01*
X-128364Y444441D01*
X-16240D01*
X-15620Y444565D01*
X-15093Y444916D01*
X-13501Y446508D01*
X383679D01*
X391981Y438206D01*
Y416748D01*
X390929D01*
Y409236D01*
X396276D01*
Y416748D01*
X395224D01*
Y438878D01*
X395101Y439499D01*
X394749Y440025D01*
X385497Y449277D01*
X384971Y449628D01*
X384350Y449752D01*
D02*
G37*
G36*
X-233807Y412492D02*
X-237427D01*
X-237350Y411909D01*
X-236932Y410899D01*
X-236267Y410033D01*
X-235400Y409368D01*
X-234390Y408949D01*
X-233807Y408873D01*
Y412492D01*
D02*
G37*
G36*
X-229187D02*
X-232807D01*
Y408873D01*
X-232224Y408949D01*
X-231214Y409368D01*
X-230348Y410033D01*
X-229682Y410899D01*
X-229264Y411909D01*
X-229187Y412492D01*
D02*
G37*
G36*
X-293307Y417177D02*
X-294390Y417035D01*
X-295400Y416617D01*
X-296267Y415952D01*
X-296932Y415085D01*
X-297350Y414075D01*
X-297493Y412992D01*
X-297350Y411909D01*
X-296932Y410899D01*
X-296267Y410033D01*
X-295400Y409368D01*
X-294390Y408949D01*
X-293307Y408807D01*
X-292224Y408949D01*
X-291214Y409368D01*
X-290348Y410033D01*
X-289682Y410899D01*
X-289264Y411909D01*
X-289122Y412992D01*
X-289264Y414075D01*
X-289682Y415085D01*
X-290348Y415952D01*
X-291214Y416617D01*
X-292224Y417035D01*
X-293307Y417177D01*
D02*
G37*
G36*
X-232807Y407112D02*
Y403492D01*
X-229187D01*
X-229264Y404075D01*
X-229682Y405085D01*
X-230348Y405952D01*
X-231214Y406617D01*
X-232224Y407035D01*
X-232807Y407112D01*
D02*
G37*
G36*
X-233807Y407112D02*
X-234390Y407035D01*
X-235400Y406617D01*
X-236267Y405952D01*
X-236932Y405085D01*
X-237350Y404075D01*
X-237427Y403492D01*
X-233807D01*
Y407112D01*
D02*
G37*
G36*
Y402492D02*
X-237427D01*
X-237350Y401909D01*
X-236932Y400899D01*
X-236267Y400033D01*
X-235400Y399367D01*
X-234390Y398949D01*
X-233807Y398873D01*
Y402492D01*
D02*
G37*
G36*
X-229187D02*
X-232807D01*
Y398872D01*
X-232224Y398949D01*
X-231214Y399367D01*
X-230348Y400033D01*
X-229682Y400899D01*
X-229264Y401909D01*
X-229187Y402492D01*
D02*
G37*
G36*
X-293307Y407177D02*
X-294390Y407035D01*
X-295400Y406617D01*
X-296267Y405952D01*
X-296932Y405085D01*
X-297350Y404075D01*
X-297493Y402992D01*
X-297350Y401909D01*
X-296932Y400899D01*
X-296267Y400033D01*
X-295400Y399367D01*
X-294390Y398949D01*
X-293307Y398807D01*
X-292224Y398949D01*
X-291214Y399367D01*
X-290348Y400033D01*
X-289682Y400899D01*
X-289264Y401909D01*
X-289122Y402992D01*
X-289264Y404075D01*
X-289682Y405085D01*
X-290348Y405952D01*
X-291214Y406617D01*
X-292224Y407035D01*
X-293307Y407177D01*
D02*
G37*
G36*
X-80709Y394675D02*
X-81684Y394481D01*
X-82511Y393928D01*
X-83064Y393101D01*
X-83258Y392126D01*
X-83215Y391913D01*
X-87680Y387449D01*
X-125636D01*
X-125757Y387629D01*
X-126584Y388182D01*
X-127559Y388376D01*
X-128534Y388182D01*
X-129361Y387629D01*
X-129914Y386802D01*
X-130108Y385827D01*
X-129914Y384851D01*
X-129361Y384024D01*
X-128534Y383472D01*
X-127559Y383278D01*
X-126584Y383472D01*
X-125757Y384024D01*
X-125636Y384205D01*
X-87008D01*
X-86387Y384329D01*
X-85861Y384680D01*
X-80922Y389619D01*
X-80709Y389577D01*
X-79733Y389771D01*
X-78906Y390324D01*
X-78354Y391150D01*
X-78160Y392126D01*
X-78354Y393101D01*
X-78906Y393928D01*
X-79733Y394481D01*
X-80709Y394675D01*
D02*
G37*
G36*
X-233307Y397178D02*
X-234390Y397035D01*
X-235400Y396617D01*
X-236267Y395952D01*
X-236932Y395085D01*
X-237350Y394075D01*
X-237492Y392992D01*
X-237350Y391909D01*
X-236932Y390899D01*
X-236267Y390033D01*
X-235400Y389368D01*
X-234390Y388949D01*
X-233307Y388807D01*
X-232224Y388949D01*
X-231214Y389368D01*
X-230348Y390033D01*
X-229682Y390899D01*
X-229264Y391909D01*
X-229122Y392992D01*
X-229264Y394075D01*
X-229682Y395085D01*
X-230348Y395952D01*
X-231214Y396617D01*
X-232224Y397035D01*
X-233307Y397178D01*
D02*
G37*
G36*
X-293307D02*
X-294390Y397035D01*
X-295400Y396617D01*
X-296267Y395952D01*
X-296932Y395085D01*
X-297350Y394075D01*
X-297493Y392992D01*
X-297350Y391909D01*
X-296932Y390899D01*
X-296267Y390033D01*
X-295400Y389368D01*
X-294390Y388949D01*
X-293307Y388807D01*
X-292224Y388949D01*
X-291214Y389368D01*
X-290348Y390033D01*
X-289682Y390899D01*
X-289264Y391909D01*
X-289122Y392992D01*
X-289264Y394075D01*
X-289682Y395085D01*
X-290348Y395952D01*
X-291214Y396617D01*
X-292224Y397035D01*
X-293307Y397178D01*
D02*
G37*
G36*
X-233307Y387177D02*
X-234390Y387035D01*
X-235400Y386617D01*
X-236267Y385952D01*
X-236932Y385085D01*
X-237350Y384075D01*
X-237492Y382992D01*
X-237350Y381909D01*
X-236932Y380899D01*
X-236267Y380033D01*
X-235400Y379367D01*
X-234390Y378949D01*
X-233307Y378807D01*
X-232224Y378949D01*
X-231214Y379367D01*
X-230348Y380033D01*
X-229682Y380899D01*
X-229264Y381909D01*
X-229122Y382992D01*
X-229264Y384075D01*
X-229682Y385085D01*
X-230348Y385952D01*
X-231214Y386617D01*
X-232224Y387035D01*
X-233307Y387177D01*
D02*
G37*
G36*
X-293307D02*
X-294390Y387035D01*
X-295400Y386617D01*
X-296267Y385952D01*
X-296932Y385085D01*
X-297350Y384075D01*
X-297493Y382992D01*
X-297350Y381909D01*
X-296932Y380899D01*
X-296267Y380033D01*
X-295400Y379367D01*
X-294390Y378949D01*
X-293307Y378807D01*
X-292224Y378949D01*
X-291214Y379367D01*
X-290348Y380033D01*
X-289682Y380899D01*
X-289264Y381909D01*
X-289122Y382992D01*
X-289264Y384075D01*
X-289682Y385085D01*
X-290348Y385952D01*
X-291214Y386617D01*
X-292224Y387035D01*
X-293307Y387177D01*
D02*
G37*
G36*
X4000Y378016D02*
X-4000D01*
Y370016D01*
X4000D01*
Y378016D01*
D02*
G37*
G36*
X-233307Y377178D02*
X-234390Y377035D01*
X-235400Y376617D01*
X-236267Y375952D01*
X-236932Y375085D01*
X-237127Y374614D01*
X-249055D01*
X-249676Y374490D01*
X-250202Y374139D01*
X-276265Y348076D01*
X-276616Y347550D01*
X-276740Y346929D01*
Y137678D01*
X-277211Y137483D01*
X-278078Y136818D01*
X-278743Y135951D01*
X-279161Y134941D01*
X-279304Y133858D01*
X-279161Y132775D01*
X-278743Y131766D01*
X-278078Y130899D01*
X-277211Y130234D01*
X-276201Y129815D01*
X-275118Y129673D01*
X-274035Y129815D01*
X-273025Y130234D01*
X-272159Y130899D01*
X-271493Y131766D01*
X-271075Y132775D01*
X-270933Y133858D01*
X-271075Y134941D01*
X-271493Y135951D01*
X-272159Y136818D01*
X-273025Y137483D01*
X-273496Y137678D01*
Y346257D01*
X-248383Y371370D01*
X-237127D01*
X-236932Y370899D01*
X-236267Y370033D01*
X-235400Y369368D01*
X-234390Y368949D01*
X-233307Y368807D01*
X-232224Y368949D01*
X-231214Y369368D01*
X-230348Y370033D01*
X-229682Y370899D01*
X-229264Y371909D01*
X-229122Y372992D01*
X-229264Y374075D01*
X-229682Y375085D01*
X-230348Y375952D01*
X-231214Y376617D01*
X-232224Y377035D01*
X-233307Y377178D01*
D02*
G37*
G36*
X-293307D02*
X-294390Y377035D01*
X-295400Y376617D01*
X-296267Y375952D01*
X-296932Y375085D01*
X-297350Y374075D01*
X-297493Y372992D01*
X-297350Y371909D01*
X-296932Y370899D01*
X-296267Y370033D01*
X-295400Y369368D01*
X-294390Y368949D01*
X-293307Y368807D01*
X-292224Y368949D01*
X-291214Y369368D01*
X-290348Y370033D01*
X-289682Y370899D01*
X-289264Y371909D01*
X-289122Y372992D01*
X-289264Y374075D01*
X-289682Y375085D01*
X-290348Y375952D01*
X-291214Y376617D01*
X-292224Y377035D01*
X-293307Y377178D01*
D02*
G37*
G36*
X374016Y380955D02*
X372314Y380821D01*
X370655Y380422D01*
X369078Y379769D01*
X367623Y378878D01*
X366325Y377769D01*
X365217Y376471D01*
X364325Y375016D01*
X363672Y373440D01*
X363274Y371780D01*
X363140Y370079D01*
X363274Y368377D01*
X363672Y366718D01*
X364325Y365141D01*
X365217Y363686D01*
X366325Y362388D01*
X367623Y361280D01*
X369078Y360388D01*
X370655Y359735D01*
X372314Y359337D01*
X374016Y359203D01*
X375717Y359337D01*
X377377Y359735D01*
X378953Y360388D01*
X380409Y361280D01*
X381706Y362388D01*
X382815Y363686D01*
X383706Y365141D01*
X384360Y366718D01*
X384758Y368377D01*
X384892Y370079D01*
X384758Y371780D01*
X384360Y373440D01*
X383706Y375016D01*
X382815Y376471D01*
X381706Y377769D01*
X380409Y378878D01*
X378953Y379769D01*
X377377Y380422D01*
X375717Y380821D01*
X374016Y380955D01*
D02*
G37*
G36*
X314961D02*
X313259Y380821D01*
X311600Y380422D01*
X310023Y379769D01*
X308568Y378878D01*
X307270Y377769D01*
X306162Y376471D01*
X305270Y375016D01*
X304617Y373440D01*
X304219Y371780D01*
X304085Y370079D01*
X304219Y368377D01*
X304617Y366718D01*
X305270Y365141D01*
X306162Y363686D01*
X307270Y362388D01*
X308568Y361280D01*
X310023Y360388D01*
X311600Y359735D01*
X313259Y359337D01*
X314961Y359203D01*
X316662Y359337D01*
X318321Y359735D01*
X319898Y360388D01*
X321353Y361280D01*
X322651Y362388D01*
X323760Y363686D01*
X324651Y365141D01*
X325304Y366718D01*
X325703Y368377D01*
X325837Y370079D01*
X325703Y371780D01*
X325304Y373440D01*
X324651Y375016D01*
X323760Y376471D01*
X322651Y377769D01*
X321353Y378878D01*
X319898Y379769D01*
X318321Y380422D01*
X316662Y380821D01*
X314961Y380955D01*
D02*
G37*
G36*
X-233307Y367178D02*
X-234390Y367035D01*
X-235400Y366617D01*
X-236267Y365952D01*
X-236932Y365085D01*
X-237290Y364220D01*
X-242913D01*
X-243534Y364097D01*
X-244060Y363745D01*
X-266265Y341540D01*
X-266616Y341014D01*
X-266740Y340394D01*
Y137678D01*
X-267211Y137483D01*
X-268078Y136818D01*
X-268743Y135951D01*
X-269161Y134941D01*
X-269303Y133858D01*
X-269161Y132775D01*
X-268743Y131766D01*
X-268078Y130899D01*
X-267211Y130234D01*
X-266201Y129815D01*
X-265118Y129673D01*
X-264035Y129815D01*
X-263025Y130234D01*
X-262159Y130899D01*
X-261493Y131766D01*
X-261075Y132775D01*
X-260933Y133858D01*
X-261075Y134941D01*
X-261493Y135951D01*
X-262159Y136818D01*
X-263025Y137483D01*
X-263496Y137678D01*
Y339722D01*
X-242242Y360977D01*
X-236964D01*
X-236932Y360899D01*
X-236267Y360033D01*
X-235400Y359367D01*
X-234390Y358949D01*
X-233307Y358807D01*
X-232224Y358949D01*
X-231214Y359367D01*
X-230348Y360033D01*
X-229682Y360899D01*
X-229264Y361909D01*
X-229122Y362992D01*
X-229264Y364075D01*
X-229682Y365085D01*
X-230348Y365952D01*
X-231214Y366617D01*
X-232224Y367035D01*
X-233307Y367178D01*
D02*
G37*
G36*
X-293307D02*
X-294390Y367035D01*
X-295400Y366617D01*
X-296267Y365952D01*
X-296932Y365085D01*
X-297350Y364075D01*
X-297493Y362992D01*
X-297350Y361909D01*
X-296932Y360899D01*
X-296267Y360033D01*
X-295400Y359367D01*
X-294390Y358949D01*
X-293307Y358807D01*
X-292224Y358949D01*
X-291214Y359367D01*
X-290348Y360033D01*
X-289682Y360899D01*
X-289264Y361909D01*
X-289122Y362992D01*
X-289264Y364075D01*
X-289682Y365085D01*
X-290348Y365952D01*
X-291214Y366617D01*
X-292224Y367035D01*
X-293307Y367178D01*
D02*
G37*
G36*
X122110Y358331D02*
X114110D01*
Y356051D01*
X107102D01*
Y358185D01*
X101756D01*
Y350673D01*
X107102D01*
Y352807D01*
X114110D01*
Y350331D01*
X122110D01*
Y358331D01*
D02*
G37*
G36*
X63055D02*
X55055D01*
Y356051D01*
X48047D01*
Y358185D01*
X42701D01*
Y350673D01*
X48047D01*
Y352807D01*
X55055D01*
Y350331D01*
X63055D01*
Y358331D01*
D02*
G37*
G36*
X4000D02*
X-4000D01*
Y356051D01*
X-14945D01*
Y358185D01*
X-20291D01*
Y350673D01*
X-14945D01*
Y352807D01*
X-4000D01*
Y350331D01*
X4000D01*
Y358331D01*
D02*
G37*
G36*
X417386D02*
X409386D01*
Y356341D01*
X409031Y355989D01*
X404347Y356028D01*
Y358185D01*
X399000D01*
Y350673D01*
X404347D01*
Y352430D01*
X404702Y352782D01*
X409386Y352743D01*
Y350331D01*
X417386D01*
Y358331D01*
D02*
G37*
G36*
X358331D02*
X350331D01*
Y356341D01*
X349976Y355989D01*
X345291Y356028D01*
Y358185D01*
X339945D01*
Y350673D01*
X345291D01*
Y352430D01*
X345646Y352782D01*
X350331Y352743D01*
Y350331D01*
X358331D01*
Y358331D01*
D02*
G37*
G36*
X299276Y358232D02*
X291276D01*
Y356238D01*
X290921Y355885D01*
X284268Y355933D01*
Y358087D01*
X278921D01*
Y350575D01*
X284268D01*
Y352335D01*
X284623Y352687D01*
X291276Y352639D01*
Y350232D01*
X299276D01*
Y358232D01*
D02*
G37*
G36*
X240220Y358331D02*
X232221D01*
Y355657D01*
X225213D01*
Y357791D01*
X219866D01*
Y350279D01*
X225213D01*
Y352414D01*
X232221D01*
Y350331D01*
X240220D01*
Y358331D01*
D02*
G37*
G36*
X181165D02*
X173165D01*
Y355657D01*
X166157D01*
Y357791D01*
X160811D01*
Y350279D01*
X166157D01*
Y352414D01*
X173165D01*
Y350331D01*
X181165D01*
Y358331D01*
D02*
G37*
G36*
X-23016Y358185D02*
X-28362D01*
Y356051D01*
X-110335D01*
X-110955Y355927D01*
X-111481Y355576D01*
X-118568Y348489D01*
X-118920Y347963D01*
X-119043Y347342D01*
Y333518D01*
X-119224Y333397D01*
X-119776Y332570D01*
X-119970Y331594D01*
X-119776Y330619D01*
X-119665Y330452D01*
X-119840Y329814D01*
X-120084Y329651D01*
X-128607Y321127D01*
X-128959Y320601D01*
X-129082Y319980D01*
Y317546D01*
X-129224Y317452D01*
X-129776Y316625D01*
X-129970Y315650D01*
X-129776Y314674D01*
X-129224Y313847D01*
X-128397Y313295D01*
X-127421Y313101D01*
X-126446Y313295D01*
X-125619Y313847D01*
X-125220Y314444D01*
X-124697Y314379D01*
X-124145Y313552D01*
X-123318Y312999D01*
X-122343Y312805D01*
X-121367Y312999D01*
X-120540Y313552D01*
X-120117Y314186D01*
X-119566Y314229D01*
X-119538Y314220D01*
X-119224Y313749D01*
X-118397Y313196D01*
X-117421Y313002D01*
X-116446Y313196D01*
X-115619Y313749D01*
X-115146Y314456D01*
X-114728Y314522D01*
X-114572Y314497D01*
X-114204Y313946D01*
X-113377Y313393D01*
X-112402Y313199D01*
X-112188Y313241D01*
X-99670Y300723D01*
X-99144Y300372D01*
X-98524Y300248D01*
X33088D01*
X34630Y298707D01*
Y291520D01*
X39976D01*
Y299031D01*
X38745D01*
X38450Y299474D01*
X34907Y303017D01*
X34380Y303368D01*
X33760Y303492D01*
X-97852D01*
X-109895Y315535D01*
X-109853Y315748D01*
X-110047Y316723D01*
X-110599Y317550D01*
X-111426Y318103D01*
X-112402Y318297D01*
X-113377Y318103D01*
X-114204Y317550D01*
X-114676Y316843D01*
X-115095Y316777D01*
X-115251Y316803D01*
X-115619Y317354D01*
X-115701Y317408D01*
Y318324D01*
X-115076Y318949D01*
X-108349D01*
X-96226Y306826D01*
X-95699Y306474D01*
X-95079Y306351D01*
X89289D01*
X94737Y300903D01*
Y298835D01*
X93685D01*
Y291323D01*
X99032D01*
Y298835D01*
X97980D01*
Y301575D01*
X97856Y302195D01*
X97505Y302722D01*
X91107Y309119D01*
X90581Y309471D01*
X89961Y309594D01*
X-94407D01*
X-106530Y321718D01*
X-107057Y322069D01*
X-107166Y322091D01*
X-107117Y322591D01*
X145391D01*
X153795Y314188D01*
Y306114D01*
X153792Y306100D01*
Y298933D01*
X152740D01*
Y291421D01*
X158087D01*
Y298933D01*
X157035D01*
Y306088D01*
X157038Y306102D01*
Y314859D01*
X156915Y315480D01*
X156563Y316006D01*
X147210Y325359D01*
X146684Y325711D01*
X146063Y325834D01*
X-117717D01*
X-118337Y325711D01*
X-118863Y325359D01*
X-123489Y320733D01*
X-123841Y320207D01*
X-123964Y319587D01*
Y317278D01*
X-124145Y317157D01*
X-124544Y316560D01*
X-125066Y316625D01*
X-125619Y317452D01*
X-125839Y317599D01*
Y319309D01*
X-118265Y326882D01*
X209407D01*
X212847Y323442D01*
Y299031D01*
X211795D01*
Y291520D01*
X217142D01*
Y299031D01*
X216090D01*
Y324114D01*
X215967Y324735D01*
X215615Y325261D01*
X211226Y329651D01*
X210699Y330002D01*
X210079Y330126D01*
X-114866D01*
X-115101Y330567D01*
X-115066Y330619D01*
X-114872Y331594D01*
X-115066Y332570D01*
X-115619Y333397D01*
X-115799Y333518D01*
Y346671D01*
X-109663Y352807D01*
X-28362D01*
Y350673D01*
X-23016D01*
Y358185D01*
D02*
G37*
G36*
X207382Y390401D02*
X-15157D01*
X-15778Y390278D01*
X-16304Y389926D01*
X-26656Y379574D01*
X-122146D01*
X-122766Y379451D01*
X-123292Y379099D01*
X-128568Y373824D01*
X-128919Y373298D01*
X-129043Y372677D01*
Y368596D01*
X-129224Y368476D01*
X-129776Y367649D01*
X-129970Y366673D01*
X-129776Y365698D01*
X-129224Y364871D01*
X-128397Y364318D01*
X-127421Y364124D01*
X-126446Y364318D01*
X-125619Y364871D01*
X-125097Y365652D01*
X-124846Y365712D01*
X-124550Y365732D01*
X-124145Y365127D01*
X-123318Y364574D01*
X-122343Y364380D01*
X-121367Y364574D01*
X-120540Y365127D01*
X-120203Y365632D01*
X-119614Y365613D01*
X-119224Y365028D01*
X-118397Y364476D01*
X-117421Y364282D01*
X-116446Y364476D01*
X-115619Y365028D01*
X-115066Y365855D01*
X-114542Y365928D01*
X-114204Y365422D01*
X-113377Y364869D01*
X-112402Y364675D01*
X-112188Y364718D01*
X-107643Y360172D01*
X-107117Y359821D01*
X-106496Y359697D01*
X34269D01*
X35281Y358685D01*
X35074Y358185D01*
X34630D01*
Y350673D01*
X39976D01*
Y358185D01*
X38925D01*
Y358957D01*
X38801Y359577D01*
X38450Y360103D01*
X36088Y362466D01*
X35561Y362817D01*
X34941Y362941D01*
X-105824D01*
X-109895Y367011D01*
X-109853Y367224D01*
X-110047Y368200D01*
X-110542Y368941D01*
X-110388Y369441D01*
X-100180D01*
X-95930Y365192D01*
X-95404Y364840D01*
X-94784Y364717D01*
X91946D01*
X94540Y362123D01*
Y358185D01*
X93685D01*
Y350673D01*
X99032D01*
Y358185D01*
X97783D01*
Y362795D01*
X97660Y363416D01*
X97308Y363942D01*
X93765Y367485D01*
X93239Y367837D01*
X92618Y367960D01*
X-94112D01*
X-98361Y372210D01*
X-98887Y372561D01*
X-99508Y372685D01*
X-99500Y373181D01*
X-17421D01*
X-16801Y373305D01*
X-16274Y373656D01*
X-9171Y380760D01*
X145883D01*
X153792Y372852D01*
Y357791D01*
X152740D01*
Y350279D01*
X158087D01*
Y357791D01*
X157035D01*
Y373524D01*
X156912Y374144D01*
X156560Y374670D01*
X147702Y383529D01*
X147176Y383880D01*
X146555Y384004D01*
X-9843D01*
X-10463Y383880D01*
X-10989Y383529D01*
X-18093Y376425D01*
X-24537D01*
X-24561Y376456D01*
X-24719Y376925D01*
X-14486Y387158D01*
X206710D01*
X212650Y381218D01*
Y357791D01*
X211795D01*
Y350279D01*
X217142D01*
Y357791D01*
X215893D01*
Y381890D01*
X215770Y382510D01*
X215418Y383036D01*
X208529Y389926D01*
X208002Y390278D01*
X207382Y390401D01*
D02*
G37*
G36*
X-233307Y357177D02*
X-234390Y357035D01*
X-235400Y356617D01*
X-236267Y355952D01*
X-236932Y355085D01*
X-237350Y354075D01*
X-237362Y353984D01*
X-242126D01*
X-242747Y353860D01*
X-243273Y353509D01*
X-247210Y349572D01*
X-247561Y349046D01*
X-247685Y348425D01*
X-247685Y55512D01*
X-247561Y54891D01*
X-247210Y54365D01*
X-210831Y17987D01*
X-211192Y17313D01*
X-211541Y16160D01*
X-211660Y14961D01*
X-211541Y13761D01*
X-211192Y12608D01*
X-210623Y11545D01*
X-209859Y10614D01*
X-208927Y9849D01*
X-207864Y9281D01*
X-206711Y8931D01*
X-205512Y8813D01*
X-204312Y8931D01*
X-203159Y9281D01*
X-202096Y9849D01*
X-201165Y10614D01*
X-200400Y11545D01*
X-199832Y12608D01*
X-199482Y13761D01*
X-199364Y14961D01*
X-199482Y16160D01*
X-199832Y17313D01*
X-200400Y18376D01*
X-201165Y19308D01*
X-202096Y20072D01*
X-203159Y20640D01*
X-204312Y20990D01*
X-205512Y21108D01*
X-206711Y20990D01*
X-207864Y20640D01*
X-208538Y20280D01*
X-244441Y56183D01*
X-244441Y347754D01*
X-241454Y350741D01*
X-236810D01*
X-236267Y350033D01*
X-235400Y349367D01*
X-234390Y348949D01*
X-233307Y348807D01*
X-232224Y348949D01*
X-231214Y349367D01*
X-230348Y350033D01*
X-229682Y350899D01*
X-229264Y351909D01*
X-229122Y352992D01*
X-229264Y354075D01*
X-229682Y355085D01*
X-230348Y355952D01*
X-231214Y356617D01*
X-232224Y357035D01*
X-233307Y357177D01*
D02*
G37*
G36*
X-293307D02*
X-294390Y357035D01*
X-295400Y356617D01*
X-296267Y355952D01*
X-296932Y355085D01*
X-297350Y354075D01*
X-297493Y352992D01*
X-297350Y351909D01*
X-296932Y350899D01*
X-296267Y350033D01*
X-295400Y349367D01*
X-294390Y348949D01*
X-293307Y348807D01*
X-292224Y348949D01*
X-291214Y349367D01*
X-290348Y350033D01*
X-289682Y350899D01*
X-289264Y351909D01*
X-289122Y352992D01*
X-289264Y354075D01*
X-289682Y355085D01*
X-290348Y355952D01*
X-291214Y356617D01*
X-292224Y357035D01*
X-293307Y357177D01*
D02*
G37*
G36*
X-233307Y347178D02*
X-234390Y347035D01*
X-235400Y346617D01*
X-236267Y345952D01*
X-236932Y345085D01*
X-237350Y344075D01*
X-237492Y342992D01*
X-237350Y341909D01*
X-236932Y340899D01*
X-236267Y340033D01*
X-235400Y339368D01*
X-234390Y338949D01*
X-233307Y338807D01*
X-232224Y338949D01*
X-231214Y339368D01*
X-230348Y340033D01*
X-229682Y340899D01*
X-229264Y341909D01*
X-229122Y342992D01*
X-229264Y344075D01*
X-229682Y345085D01*
X-230348Y345952D01*
X-231214Y346617D01*
X-232224Y347035D01*
X-233307Y347178D01*
D02*
G37*
G36*
X-293307D02*
X-294390Y347035D01*
X-295400Y346617D01*
X-296267Y345952D01*
X-296932Y345085D01*
X-297350Y344075D01*
X-297493Y342992D01*
X-297350Y341909D01*
X-296932Y340899D01*
X-296267Y340033D01*
X-295400Y339368D01*
X-294390Y338949D01*
X-293307Y338807D01*
X-292224Y338949D01*
X-291214Y339368D01*
X-290348Y340033D01*
X-289682Y340899D01*
X-289264Y341909D01*
X-289122Y342992D01*
X-289264Y344075D01*
X-289682Y345085D01*
X-290348Y345952D01*
X-291214Y346617D01*
X-292224Y347035D01*
X-293307Y347178D01*
D02*
G37*
G36*
X396276Y358185D02*
X390929D01*
Y350673D01*
X392079D01*
Y345455D01*
X381021Y334397D01*
X-94013D01*
X-97197Y337581D01*
Y346699D01*
X-97017Y346820D01*
X-96464Y347647D01*
X-96328Y348330D01*
X-95818D01*
X-95761Y348040D01*
X-95224Y347237D01*
Y342520D01*
X-95101Y341899D01*
X-94749Y341373D01*
X-89237Y335861D01*
X-88711Y335510D01*
X-88090Y335386D01*
X331299D01*
X331920Y335510D01*
X332446Y335861D01*
X335694Y339109D01*
X336046Y339635D01*
X336169Y340256D01*
Y350673D01*
X337221D01*
Y358185D01*
X331874D01*
Y350673D01*
X332926D01*
Y340928D01*
X330627Y338630D01*
X-87419D01*
X-91981Y343191D01*
Y346961D01*
X-91603Y347213D01*
X-91445Y347450D01*
X-90942Y347479D01*
X-90786Y347322D01*
X-90779Y347312D01*
X-90769Y347305D01*
X-90598Y347134D01*
Y345276D01*
X-90475Y344655D01*
X-90123Y344129D01*
X-85989Y339995D01*
X-85463Y339644D01*
X-84842Y339520D01*
X266142D01*
X266762Y339644D01*
X267288Y339995D01*
X274670Y347377D01*
X275022Y347903D01*
X275145Y348524D01*
Y350575D01*
X276197D01*
Y358087D01*
X270850D01*
Y350575D01*
X271902D01*
Y349195D01*
X265470Y342763D01*
X-84171D01*
X-87355Y345947D01*
Y347191D01*
X-87174Y347312D01*
X-86621Y348139D01*
X-86427Y349114D01*
X-86621Y350090D01*
X-87174Y350917D01*
X-88001Y351469D01*
X-88976Y351663D01*
X-89952Y351469D01*
X-90779Y350917D01*
X-90974Y350625D01*
X-91474D01*
X-91603Y350818D01*
X-92430Y351371D01*
X-93405Y351565D01*
X-94381Y351371D01*
X-95208Y350818D01*
X-95761Y349991D01*
X-95897Y349307D01*
X-96406D01*
X-96464Y349598D01*
X-97017Y350424D01*
X-97843Y350977D01*
X-98819Y351171D01*
X-99794Y350977D01*
X-100621Y350424D01*
X-101174Y349598D01*
X-101368Y348622D01*
X-101174Y347647D01*
X-100621Y346820D01*
X-100441Y346699D01*
Y336910D01*
X-100317Y336289D01*
X-99966Y335763D01*
X-95832Y331629D01*
X-95306Y331277D01*
X-94685Y331154D01*
X381693D01*
X382313Y331277D01*
X382840Y331629D01*
X394847Y343637D01*
X395199Y344163D01*
X395322Y344783D01*
Y350673D01*
X396276D01*
Y358185D01*
D02*
G37*
G36*
X-147638Y378336D02*
X-148613Y378142D01*
X-149440Y377590D01*
X-149993Y376763D01*
X-150187Y375787D01*
X-149993Y374812D01*
X-149440Y373985D01*
X-149255Y373861D01*
X-149156Y333954D01*
X-149224Y333909D01*
X-149776Y333082D01*
X-149970Y332106D01*
X-149776Y331131D01*
X-149224Y330304D01*
X-148397Y329751D01*
X-147421Y329557D01*
X-146446Y329751D01*
X-145619Y330304D01*
X-145066Y331131D01*
X-144872Y332106D01*
X-145066Y333082D01*
X-145619Y333909D01*
X-145913Y334105D01*
X-146011Y373868D01*
X-145835Y373985D01*
X-145283Y374812D01*
X-145089Y375787D01*
X-145283Y376763D01*
X-145835Y377590D01*
X-146662Y378142D01*
X-147638Y378336D01*
D02*
G37*
G36*
X-233307Y337177D02*
X-234390Y337035D01*
X-235400Y336617D01*
X-236267Y335952D01*
X-236932Y335085D01*
X-237350Y334075D01*
X-237492Y332992D01*
X-237350Y331909D01*
X-236932Y330899D01*
X-236267Y330033D01*
X-235400Y329367D01*
X-234390Y328949D01*
X-233307Y328807D01*
X-232224Y328949D01*
X-231214Y329367D01*
X-230348Y330033D01*
X-229682Y330899D01*
X-229264Y331909D01*
X-229122Y332992D01*
X-229264Y334075D01*
X-229682Y335085D01*
X-230348Y335952D01*
X-231214Y336617D01*
X-232224Y337035D01*
X-233307Y337177D01*
D02*
G37*
G36*
X-293307D02*
X-294390Y337035D01*
X-295400Y336617D01*
X-296267Y335952D01*
X-296932Y335085D01*
X-297350Y334075D01*
X-297493Y332992D01*
X-297350Y331909D01*
X-296932Y330899D01*
X-296267Y330033D01*
X-295400Y329367D01*
X-294390Y328949D01*
X-293307Y328807D01*
X-292224Y328949D01*
X-291214Y329367D01*
X-290348Y330033D01*
X-289682Y330899D01*
X-289264Y331909D01*
X-289122Y332992D01*
X-289264Y334075D01*
X-289682Y335085D01*
X-290348Y335952D01*
X-291214Y336617D01*
X-292224Y337035D01*
X-293307Y337177D01*
D02*
G37*
G36*
X-233307Y327178D02*
X-234390Y327035D01*
X-235400Y326617D01*
X-236267Y325952D01*
X-236932Y325085D01*
X-237350Y324075D01*
X-237492Y322992D01*
X-237350Y321909D01*
X-236932Y320899D01*
X-236267Y320033D01*
X-235400Y319368D01*
X-234390Y318949D01*
X-233307Y318807D01*
X-232224Y318949D01*
X-231214Y319368D01*
X-230348Y320033D01*
X-229682Y320899D01*
X-229264Y321909D01*
X-229122Y322992D01*
X-229264Y324075D01*
X-229682Y325085D01*
X-230348Y325952D01*
X-231214Y326617D01*
X-232224Y327035D01*
X-233307Y327178D01*
D02*
G37*
G36*
X-293307D02*
X-294390Y327035D01*
X-295400Y326617D01*
X-296267Y325952D01*
X-296932Y325085D01*
X-297350Y324075D01*
X-297493Y322992D01*
X-297350Y321909D01*
X-296932Y320899D01*
X-296267Y320033D01*
X-295400Y319368D01*
X-294390Y318949D01*
X-293307Y318807D01*
X-292224Y318949D01*
X-291214Y319368D01*
X-290348Y320033D01*
X-289682Y320899D01*
X-289264Y321909D01*
X-289122Y322992D01*
X-289264Y324075D01*
X-289682Y325085D01*
X-290348Y325952D01*
X-291214Y326617D01*
X-292224Y327035D01*
X-293307Y327178D01*
D02*
G37*
G36*
X4000Y318961D02*
X-4000D01*
Y310961D01*
X4000D01*
Y318961D01*
D02*
G37*
G36*
X-233307Y317178D02*
X-234390Y317035D01*
X-235400Y316617D01*
X-236267Y315952D01*
X-236932Y315085D01*
X-237350Y314075D01*
X-237492Y312992D01*
X-237350Y311909D01*
X-236932Y310899D01*
X-236267Y310033D01*
X-235400Y309367D01*
X-234390Y308949D01*
X-233307Y308807D01*
X-232224Y308949D01*
X-231214Y309367D01*
X-230348Y310033D01*
X-229682Y310899D01*
X-229264Y311909D01*
X-229122Y312992D01*
X-229264Y314075D01*
X-229682Y315085D01*
X-230348Y315952D01*
X-231214Y316617D01*
X-232224Y317035D01*
X-233307Y317178D01*
D02*
G37*
G36*
X-293307D02*
X-294390Y317035D01*
X-295400Y316617D01*
X-296267Y315952D01*
X-296932Y315085D01*
X-297350Y314075D01*
X-297493Y312992D01*
X-297350Y311909D01*
X-296932Y310899D01*
X-296267Y310033D01*
X-295400Y309367D01*
X-294390Y308949D01*
X-293307Y308807D01*
X-292224Y308949D01*
X-291214Y309367D01*
X-290348Y310033D01*
X-289682Y310899D01*
X-289264Y311909D01*
X-289122Y312992D01*
X-289264Y314075D01*
X-289682Y315085D01*
X-290348Y315952D01*
X-291214Y316617D01*
X-292224Y317035D01*
X-293307Y317178D01*
D02*
G37*
G36*
X374016Y321900D02*
X372314Y321766D01*
X370655Y321367D01*
X369078Y320714D01*
X367623Y319823D01*
X366325Y318714D01*
X365217Y317416D01*
X364325Y315961D01*
X363672Y314385D01*
X363274Y312725D01*
X363140Y311024D01*
X363274Y309322D01*
X363672Y307663D01*
X364325Y306086D01*
X365217Y304631D01*
X366325Y303333D01*
X367623Y302225D01*
X369078Y301333D01*
X370655Y300680D01*
X372314Y300282D01*
X374016Y300148D01*
X375717Y300282D01*
X377377Y300680D01*
X378953Y301333D01*
X380409Y302225D01*
X381706Y303333D01*
X382815Y304631D01*
X383706Y306086D01*
X384360Y307663D01*
X384758Y309322D01*
X384892Y311024D01*
X384758Y312725D01*
X384360Y314385D01*
X383706Y315961D01*
X382815Y317416D01*
X381706Y318714D01*
X380409Y319823D01*
X378953Y320714D01*
X377377Y321367D01*
X375717Y321766D01*
X374016Y321900D01*
D02*
G37*
G36*
X314961D02*
X313259Y321766D01*
X311600Y321367D01*
X310023Y320714D01*
X308568Y319823D01*
X307270Y318714D01*
X306162Y317416D01*
X305270Y315961D01*
X304617Y314385D01*
X304219Y312725D01*
X304085Y311024D01*
X304219Y309322D01*
X304617Y307663D01*
X305270Y306086D01*
X306162Y304631D01*
X307270Y303333D01*
X308568Y302225D01*
X310023Y301333D01*
X311600Y300680D01*
X313259Y300282D01*
X314961Y300148D01*
X316662Y300282D01*
X318321Y300680D01*
X319898Y301333D01*
X321353Y302225D01*
X322651Y303333D01*
X323760Y304631D01*
X324651Y306086D01*
X325304Y307663D01*
X325703Y309322D01*
X325837Y311024D01*
X325703Y312725D01*
X325304Y314385D01*
X324651Y315961D01*
X323760Y317416D01*
X322651Y318714D01*
X321353Y319823D01*
X319898Y320714D01*
X318321Y321367D01*
X316662Y321766D01*
X314961Y321900D01*
D02*
G37*
G36*
X-233307Y307177D02*
X-234390Y307035D01*
X-235400Y306617D01*
X-236267Y305952D01*
X-236932Y305085D01*
X-237350Y304075D01*
X-237492Y302992D01*
X-237350Y301909D01*
X-236932Y300899D01*
X-236267Y300033D01*
X-235400Y299367D01*
X-234390Y298949D01*
X-233307Y298807D01*
X-232224Y298949D01*
X-231214Y299367D01*
X-230348Y300033D01*
X-229682Y300899D01*
X-229264Y301909D01*
X-229122Y302992D01*
X-229264Y304075D01*
X-229682Y305085D01*
X-230348Y305952D01*
X-231214Y306617D01*
X-232224Y307035D01*
X-233307Y307177D01*
D02*
G37*
G36*
X-293307D02*
X-294390Y307035D01*
X-295400Y306617D01*
X-296267Y305952D01*
X-296932Y305085D01*
X-297350Y304075D01*
X-297493Y302992D01*
X-297350Y301909D01*
X-296932Y300899D01*
X-296267Y300033D01*
X-295400Y299367D01*
X-294390Y298949D01*
X-293307Y298807D01*
X-292224Y298949D01*
X-291214Y299367D01*
X-290348Y300033D01*
X-289682Y300899D01*
X-289264Y301909D01*
X-289122Y302992D01*
X-289264Y304075D01*
X-289682Y305085D01*
X-290348Y305952D01*
X-291214Y306617D01*
X-292224Y307035D01*
X-293307Y307177D01*
D02*
G37*
G36*
X417386Y299276D02*
X409386D01*
Y296897D01*
X404347D01*
Y299031D01*
X399000D01*
Y291520D01*
X404347D01*
Y293654D01*
X409386D01*
Y291276D01*
X417386D01*
Y299276D01*
D02*
G37*
G36*
X299276D02*
X291276D01*
Y296897D01*
X284268D01*
Y299031D01*
X278921D01*
Y291520D01*
X284268D01*
Y293654D01*
X291276D01*
Y291276D01*
X299276D01*
Y299276D01*
D02*
G37*
G36*
X240220D02*
X232221D01*
Y296897D01*
X225213D01*
Y299031D01*
X219866D01*
Y291520D01*
X225213D01*
Y293654D01*
X232221D01*
Y291276D01*
X240220D01*
Y299276D01*
D02*
G37*
G36*
X63055D02*
X55055D01*
Y296897D01*
X48047D01*
Y299031D01*
X42701D01*
Y291520D01*
X48047D01*
Y293654D01*
X55055D01*
Y291276D01*
X63055D01*
Y299276D01*
D02*
G37*
G36*
X181165D02*
X173165D01*
Y296799D01*
X166157D01*
Y298933D01*
X160811D01*
Y291421D01*
X166157D01*
Y293555D01*
X173165D01*
Y291276D01*
X181165D01*
Y299276D01*
D02*
G37*
G36*
X358331D02*
X350331D01*
Y296701D01*
X345291D01*
Y298835D01*
X339945D01*
Y291323D01*
X345291D01*
Y293457D01*
X350331D01*
Y291276D01*
X358331D01*
Y299276D01*
D02*
G37*
G36*
X122110D02*
X114110D01*
Y296701D01*
X107102D01*
Y298835D01*
X101756D01*
Y291323D01*
X107102D01*
Y293457D01*
X114110D01*
Y291276D01*
X122110D01*
Y299276D01*
D02*
G37*
G36*
X4000D02*
X-4000D01*
Y296701D01*
X-14945D01*
Y298835D01*
X-20291D01*
Y291323D01*
X-14945D01*
Y293457D01*
X-4000D01*
Y291276D01*
X4000D01*
Y299276D01*
D02*
G37*
G36*
X-233307Y297178D02*
X-234390Y297035D01*
X-235400Y296617D01*
X-236267Y295952D01*
X-236932Y295085D01*
X-237350Y294075D01*
X-237492Y292992D01*
X-237350Y291909D01*
X-236932Y290899D01*
X-236267Y290033D01*
X-235400Y289368D01*
X-234390Y288949D01*
X-233307Y288807D01*
X-232224Y288949D01*
X-231214Y289368D01*
X-230348Y290033D01*
X-229682Y290899D01*
X-229264Y291909D01*
X-229122Y292992D01*
X-229264Y294075D01*
X-229682Y295085D01*
X-230348Y295952D01*
X-231214Y296617D01*
X-232224Y297035D01*
X-233307Y297178D01*
D02*
G37*
G36*
X-293307D02*
X-294390Y297035D01*
X-295400Y296617D01*
X-296267Y295952D01*
X-296932Y295085D01*
X-297350Y294075D01*
X-297493Y292992D01*
X-297350Y291909D01*
X-296932Y290899D01*
X-296267Y290033D01*
X-295400Y289368D01*
X-294390Y288949D01*
X-293307Y288807D01*
X-292224Y288949D01*
X-291214Y289368D01*
X-290348Y290033D01*
X-289682Y290899D01*
X-289264Y291909D01*
X-289122Y292992D01*
X-289264Y294075D01*
X-289682Y295085D01*
X-290348Y295952D01*
X-291214Y296617D01*
X-292224Y297035D01*
X-293307Y297178D01*
D02*
G37*
G36*
Y287177D02*
X-294390Y287035D01*
X-295400Y286617D01*
X-296267Y285952D01*
X-296932Y285085D01*
X-297350Y284075D01*
X-297493Y282992D01*
X-297350Y281909D01*
X-296932Y280899D01*
X-296267Y280033D01*
X-295400Y279367D01*
X-294390Y278949D01*
X-293307Y278807D01*
X-292224Y278949D01*
X-291214Y279367D01*
X-290348Y280033D01*
X-289682Y280899D01*
X-289264Y281909D01*
X-289122Y282992D01*
X-289264Y284075D01*
X-289682Y285085D01*
X-290348Y285952D01*
X-291214Y286617D01*
X-292224Y287035D01*
X-293307Y287177D01*
D02*
G37*
G36*
X-147244Y323710D02*
X-148220Y323516D01*
X-149047Y322964D01*
X-149599Y322137D01*
X-149793Y321161D01*
X-149599Y320186D01*
X-149047Y319359D01*
X-148868Y319240D01*
X-148913Y281682D01*
X-149145Y281527D01*
X-149697Y280700D01*
X-149891Y279724D01*
X-149697Y278749D01*
X-149145Y277922D01*
X-148318Y277369D01*
X-147343Y277175D01*
X-146367Y277369D01*
X-145540Y277922D01*
X-144988Y278749D01*
X-144793Y279724D01*
X-144988Y280700D01*
X-145540Y281527D01*
X-145669Y281613D01*
X-145625Y319237D01*
X-145442Y319359D01*
X-144889Y320186D01*
X-144695Y321161D01*
X-144889Y322137D01*
X-145442Y322964D01*
X-146269Y323516D01*
X-147244Y323710D01*
D02*
G37*
G36*
X-39764Y299456D02*
X-111417D01*
X-112038Y299333D01*
X-112564Y298981D01*
X-118568Y292977D01*
X-118920Y292451D01*
X-119043Y291831D01*
Y281155D01*
X-119224Y281035D01*
X-119776Y280208D01*
X-119970Y279232D01*
X-119776Y278257D01*
X-119224Y277430D01*
X-118397Y276877D01*
X-117421Y276683D01*
X-116446Y276877D01*
X-115619Y277430D01*
X-115066Y278257D01*
X-114872Y279232D01*
X-115066Y280208D01*
X-115619Y281035D01*
X-115799Y281155D01*
Y291159D01*
X-110746Y296213D01*
X-100749D01*
X-100482Y295713D01*
X-100780Y295267D01*
X-100974Y294291D01*
X-100780Y293316D01*
X-100228Y292489D01*
X-100047Y292368D01*
Y281496D01*
X-99923Y280875D01*
X-99572Y280349D01*
X-95340Y276117D01*
X-94814Y275765D01*
X-94193Y275642D01*
X383071D01*
X383692Y275765D01*
X384218Y276117D01*
X394749Y286649D01*
X395101Y287175D01*
X395224Y287795D01*
Y291520D01*
X396276D01*
Y299031D01*
X390929D01*
Y291520D01*
X391981D01*
Y288467D01*
X382399Y278886D01*
X-93521D01*
X-96803Y282168D01*
Y292368D01*
X-96623Y292489D01*
X-96070Y293316D01*
X-95876Y294291D01*
X-96070Y295267D01*
X-96368Y295713D01*
X-96101Y296213D01*
X-95106D01*
X-94839Y295713D01*
X-95072Y295365D01*
X-95266Y294390D01*
X-95072Y293414D01*
X-94519Y292587D01*
X-94338Y292467D01*
Y283957D01*
X-94215Y283336D01*
X-93863Y282810D01*
X-91206Y280153D01*
X-90680Y279801D01*
X-90059Y279678D01*
X328248D01*
X328869Y279801D01*
X329395Y280153D01*
X335891Y286649D01*
X336242Y287175D01*
X336366Y287795D01*
Y291323D01*
X337221D01*
Y298835D01*
X331874D01*
Y291323D01*
X333122D01*
Y288467D01*
X327576Y282921D01*
X-89387D01*
X-91095Y284628D01*
Y292467D01*
X-90914Y292587D01*
X-90470Y293252D01*
X-90116Y293228D01*
X-89935Y293190D01*
X-89401Y292390D01*
X-88925Y292073D01*
Y289272D01*
X-88801Y288651D01*
X-88450Y288125D01*
X-84907Y284582D01*
X-84380Y284230D01*
X-83760Y284107D01*
X270079D01*
X270699Y284230D01*
X271226Y284582D01*
X274670Y288026D01*
X275022Y288553D01*
X275145Y289173D01*
Y291520D01*
X276197D01*
Y299031D01*
X270850D01*
Y291520D01*
X271902D01*
Y289845D01*
X269407Y287350D01*
X-83088D01*
X-85681Y289943D01*
Y292562D01*
X-85243Y293217D01*
X-85049Y294193D01*
X-85243Y295168D01*
X-85607Y295713D01*
X-85340Y296213D01*
X-40435D01*
X-38155Y293932D01*
X-37628Y293581D01*
X-37008Y293457D01*
X-28362D01*
Y291323D01*
X-23016D01*
Y298835D01*
X-28362D01*
Y296701D01*
X-36336D01*
X-38029Y298393D01*
X-38617Y298981D01*
X-39143Y299333D01*
X-39764Y299456D01*
D02*
G37*
G36*
X-233307Y277178D02*
X-234390Y277035D01*
X-235400Y276617D01*
X-236267Y275952D01*
X-236932Y275085D01*
X-237350Y274075D01*
X-237492Y272992D01*
X-237350Y271909D01*
X-236932Y270899D01*
X-236267Y270033D01*
X-235400Y269368D01*
X-234390Y268949D01*
X-233307Y268807D01*
X-232224Y268949D01*
X-231214Y269368D01*
X-230348Y270033D01*
X-229682Y270899D01*
X-229264Y271909D01*
X-229122Y272992D01*
X-229264Y274075D01*
X-229682Y275085D01*
X-230348Y275952D01*
X-231214Y276617D01*
X-232224Y277035D01*
X-233307Y277178D01*
D02*
G37*
G36*
X-293307D02*
X-294390Y277035D01*
X-295400Y276617D01*
X-296267Y275952D01*
X-296932Y275085D01*
X-297350Y274075D01*
X-297493Y272992D01*
X-297350Y271909D01*
X-296932Y270899D01*
X-296267Y270033D01*
X-295400Y269368D01*
X-294390Y268949D01*
X-293307Y268807D01*
X-292224Y268949D01*
X-291214Y269368D01*
X-290348Y270033D01*
X-289682Y270899D01*
X-289264Y271909D01*
X-289122Y272992D01*
X-289264Y274075D01*
X-289682Y275085D01*
X-290348Y275952D01*
X-291214Y276617D01*
X-292224Y277035D01*
X-293307Y277178D01*
D02*
G37*
G36*
Y267178D02*
X-294390Y267035D01*
X-295400Y266617D01*
X-296267Y265952D01*
X-296932Y265085D01*
X-297350Y264075D01*
X-297493Y262992D01*
X-297350Y261909D01*
X-296932Y260899D01*
X-296267Y260033D01*
X-295400Y259367D01*
X-294390Y258949D01*
X-293307Y258807D01*
X-292224Y258949D01*
X-291214Y259367D01*
X-290348Y260033D01*
X-289682Y260899D01*
X-289264Y261909D01*
X-289122Y262992D01*
X-289264Y264075D01*
X-289682Y265085D01*
X-290348Y265952D01*
X-291214Y266617D01*
X-292224Y267035D01*
X-293307Y267178D01*
D02*
G37*
G36*
X-233307Y257177D02*
X-234390Y257035D01*
X-235400Y256617D01*
X-236267Y255952D01*
X-236932Y255085D01*
X-237350Y254075D01*
X-237492Y252992D01*
X-237350Y251909D01*
X-236932Y250899D01*
X-236267Y250033D01*
X-235400Y249367D01*
X-234390Y248949D01*
X-233307Y248807D01*
X-232224Y248949D01*
X-231214Y249367D01*
X-230348Y250033D01*
X-229682Y250899D01*
X-229264Y251909D01*
X-229122Y252992D01*
X-229264Y254075D01*
X-229682Y255085D01*
X-230348Y255952D01*
X-231214Y256617D01*
X-232224Y257035D01*
X-233307Y257177D01*
D02*
G37*
G36*
X-293307D02*
X-294390Y257035D01*
X-295400Y256617D01*
X-296267Y255952D01*
X-296932Y255085D01*
X-297350Y254075D01*
X-297493Y252992D01*
X-297350Y251909D01*
X-296932Y250899D01*
X-296267Y250033D01*
X-295400Y249367D01*
X-294390Y248949D01*
X-293307Y248807D01*
X-292224Y248949D01*
X-291214Y249367D01*
X-290348Y250033D01*
X-289682Y250899D01*
X-289264Y251909D01*
X-289122Y252992D01*
X-289264Y254075D01*
X-289682Y255085D01*
X-290348Y255952D01*
X-291214Y256617D01*
X-292224Y257035D01*
X-293307Y257177D01*
D02*
G37*
G36*
X374016Y262844D02*
X372314Y262711D01*
X370655Y262312D01*
X369078Y261659D01*
X367623Y260767D01*
X366325Y259659D01*
X365217Y258361D01*
X364325Y256906D01*
X363672Y255329D01*
X363274Y253670D01*
X363140Y251969D01*
X363274Y250267D01*
X363672Y248608D01*
X364325Y247031D01*
X365217Y245576D01*
X366325Y244278D01*
X367623Y243170D01*
X369078Y242278D01*
X370655Y241625D01*
X372314Y241226D01*
X374016Y241092D01*
X375717Y241226D01*
X377377Y241625D01*
X378953Y242278D01*
X380409Y243170D01*
X381706Y244278D01*
X382815Y245576D01*
X383706Y247031D01*
X384360Y248608D01*
X384758Y250267D01*
X384892Y251969D01*
X384758Y253670D01*
X384360Y255329D01*
X383706Y256906D01*
X382815Y258361D01*
X381706Y259659D01*
X380409Y260767D01*
X378953Y261659D01*
X377377Y262312D01*
X375717Y262711D01*
X374016Y262844D01*
D02*
G37*
G36*
X314961D02*
X313259Y262711D01*
X311600Y262312D01*
X310023Y261659D01*
X308568Y260767D01*
X307270Y259659D01*
X306162Y258361D01*
X305270Y256906D01*
X304617Y255329D01*
X304219Y253670D01*
X304085Y251969D01*
X304219Y250267D01*
X304617Y248608D01*
X305270Y247031D01*
X306162Y245576D01*
X307270Y244278D01*
X308568Y243170D01*
X310023Y242278D01*
X311600Y241625D01*
X313259Y241226D01*
X314961Y241092D01*
X316662Y241226D01*
X318321Y241625D01*
X319898Y242278D01*
X321353Y243170D01*
X322651Y244278D01*
X323760Y245576D01*
X324651Y247031D01*
X325304Y248608D01*
X325703Y250267D01*
X325837Y251969D01*
X325703Y253670D01*
X325304Y255329D01*
X324651Y256906D01*
X323760Y258361D01*
X322651Y259659D01*
X321353Y260767D01*
X319898Y261659D01*
X318321Y262312D01*
X316662Y262711D01*
X314961Y262844D01*
D02*
G37*
G36*
X-233307Y247178D02*
X-234390Y247035D01*
X-235400Y246617D01*
X-236267Y245952D01*
X-236932Y245085D01*
X-237350Y244075D01*
X-237492Y242992D01*
X-237350Y241909D01*
X-236932Y240899D01*
X-236267Y240033D01*
X-235400Y239368D01*
X-234390Y238949D01*
X-233307Y238807D01*
X-232224Y238949D01*
X-231214Y239368D01*
X-230348Y240033D01*
X-229682Y240899D01*
X-229264Y241909D01*
X-229122Y242992D01*
X-229264Y244075D01*
X-229682Y245085D01*
X-230348Y245952D01*
X-231214Y246617D01*
X-232224Y247035D01*
X-233307Y247178D01*
D02*
G37*
G36*
X-293307D02*
X-294390Y247035D01*
X-295400Y246617D01*
X-296267Y245952D01*
X-296932Y245085D01*
X-297350Y244075D01*
X-297493Y242992D01*
X-297350Y241909D01*
X-296932Y240899D01*
X-296267Y240033D01*
X-295400Y239368D01*
X-294390Y238949D01*
X-293307Y238807D01*
X-292224Y238949D01*
X-291214Y239368D01*
X-290348Y240033D01*
X-289682Y240899D01*
X-289264Y241909D01*
X-289122Y242992D01*
X-289264Y244075D01*
X-289682Y245085D01*
X-290348Y245952D01*
X-291214Y246617D01*
X-292224Y247035D01*
X-293307Y247178D01*
D02*
G37*
G36*
X299276Y240220D02*
X291276D01*
Y238039D01*
X284268D01*
Y240173D01*
X278921D01*
Y232661D01*
X284268D01*
Y234796D01*
X291276D01*
Y232221D01*
X299276D01*
Y240220D01*
D02*
G37*
G36*
X181165D02*
X173165D01*
Y238039D01*
X166157D01*
Y240173D01*
X160811D01*
Y232661D01*
X166157D01*
Y234796D01*
X173165D01*
Y232221D01*
X181165D01*
Y240220D01*
D02*
G37*
G36*
X4000D02*
X-4000D01*
Y237842D01*
X-14945D01*
Y239878D01*
X-20291D01*
Y232366D01*
X-14945D01*
Y234599D01*
X-4000D01*
Y232221D01*
X4000D01*
Y240220D01*
D02*
G37*
G36*
X417386D02*
X409386D01*
Y237744D01*
X404347D01*
Y239878D01*
X399000D01*
Y232366D01*
X404347D01*
Y234500D01*
X409386D01*
Y232221D01*
X417386D01*
Y240220D01*
D02*
G37*
G36*
X358331D02*
X350331D01*
Y237744D01*
X345291D01*
Y239878D01*
X339945D01*
Y232366D01*
X345291D01*
Y234500D01*
X350331D01*
Y232221D01*
X358331D01*
Y240220D01*
D02*
G37*
G36*
X240220D02*
X232221D01*
Y237744D01*
X225213D01*
Y239878D01*
X219866D01*
Y232366D01*
X225213D01*
Y234500D01*
X232221D01*
Y232221D01*
X240220D01*
Y240220D01*
D02*
G37*
G36*
X122110D02*
X114110D01*
Y237744D01*
X107102D01*
Y239878D01*
X101756D01*
Y232366D01*
X107102D01*
Y234500D01*
X114110D01*
Y232221D01*
X122110D01*
Y240220D01*
D02*
G37*
G36*
X63055D02*
X55055D01*
Y237350D01*
X48047D01*
Y239484D01*
X42701D01*
Y231972D01*
X48047D01*
Y234107D01*
X55055D01*
Y232221D01*
X63055D01*
Y240220D01*
D02*
G37*
G36*
X-292807Y237112D02*
Y233492D01*
X-289188D01*
X-289264Y234075D01*
X-289682Y235085D01*
X-290348Y235952D01*
X-291214Y236617D01*
X-292224Y237035D01*
X-292807Y237112D01*
D02*
G37*
G36*
X-293807Y237112D02*
X-294390Y237035D01*
X-295400Y236617D01*
X-296267Y235952D01*
X-296932Y235085D01*
X-297350Y234075D01*
X-297427Y233492D01*
X-293807D01*
Y237112D01*
D02*
G37*
G36*
X-47933Y274850D02*
X-120866D01*
X-121487Y274727D01*
X-122013Y274375D01*
X-128607Y267781D01*
X-128959Y267254D01*
X-129082Y266634D01*
Y259305D01*
X-129263Y259184D01*
X-129816Y258357D01*
X-130010Y257382D01*
X-129816Y256406D01*
X-129263Y255579D01*
X-128436Y255027D01*
X-127461Y254833D01*
X-126485Y255027D01*
X-125658Y255579D01*
X-125225Y256227D01*
X-125195Y256238D01*
X-124671Y256228D01*
X-124670Y256227D01*
X-124224Y255560D01*
X-123397Y255007D01*
X-122421Y254813D01*
X-121446Y255007D01*
X-120619Y255560D01*
X-120183Y256213D01*
X-119662Y256265D01*
X-119604Y256247D01*
X-119224Y255678D01*
X-118397Y255125D01*
X-117421Y254931D01*
X-116446Y255125D01*
X-115619Y255678D01*
X-115209Y256292D01*
X-114640Y256281D01*
X-114224Y255658D01*
X-113397Y255106D01*
X-112421Y254912D01*
X-112208Y254954D01*
X-103155Y245901D01*
X-102629Y245549D01*
X-102008Y245426D01*
X-23900D01*
X-21545Y243071D01*
X-21019Y242719D01*
X-20399Y242596D01*
X11410D01*
X19424Y234582D01*
X19950Y234230D01*
X20571Y234107D01*
X34630D01*
Y231972D01*
X39976D01*
Y239484D01*
X34630D01*
Y237350D01*
X21243D01*
X13228Y245364D01*
X12702Y245716D01*
X12082Y245839D01*
X-19727D01*
X-22082Y248194D01*
X-22608Y248546D01*
X-23228Y248669D01*
X-101336D01*
X-109915Y257247D01*
X-109872Y257461D01*
X-110066Y258436D01*
X-110619Y259263D01*
X-111446Y259816D01*
X-112421Y260010D01*
X-113397Y259816D01*
X-114224Y259263D01*
X-114634Y258649D01*
X-115203Y258660D01*
X-115504Y259111D01*
Y261238D01*
X-113698Y263044D01*
X-57463D01*
X-45044Y250625D01*
X-44518Y250273D01*
X-43898Y250150D01*
X-10613D01*
X-7643Y247180D01*
X-7117Y246829D01*
X-6496Y246705D01*
X90765D01*
X94441Y243029D01*
Y239878D01*
X93685D01*
Y232366D01*
X99032D01*
Y239878D01*
X97685D01*
Y243701D01*
X97561Y244321D01*
X97210Y244847D01*
X92584Y249474D01*
X92058Y249825D01*
X91437Y249949D01*
X-5824D01*
X-8794Y252918D01*
X-9320Y253270D01*
X-9941Y253393D01*
X-43226D01*
X-55645Y265812D01*
X-56171Y266164D01*
X-56791Y266287D01*
X-114370D01*
X-114991Y266164D01*
X-115517Y265812D01*
X-118273Y263056D01*
X-118624Y262530D01*
X-118748Y261910D01*
Y259601D01*
X-119224Y259283D01*
X-119660Y258630D01*
X-120180Y258578D01*
X-120238Y258595D01*
X-120619Y259165D01*
X-120800Y259285D01*
Y263521D01*
X-117143Y267178D01*
X-53329D01*
X-47013Y260861D01*
X-46487Y260510D01*
X-45866Y260386D01*
X-4047D01*
X-4000Y259906D01*
X-4000Y259886D01*
Y251905D01*
X4000D01*
Y259886D01*
X4000Y259906D01*
X4047Y260386D01*
X143816D01*
X153792Y250411D01*
Y240173D01*
X152740D01*
Y232661D01*
X158087D01*
Y240173D01*
X157035D01*
Y251083D01*
X156912Y251703D01*
X156560Y252229D01*
X145635Y263155D01*
X145109Y263506D01*
X144488Y263630D01*
X-45194D01*
X-51511Y269946D01*
X-52037Y270298D01*
X-52658Y270421D01*
X-117815D01*
X-118436Y270298D01*
X-118962Y269946D01*
X-123568Y265340D01*
X-123919Y264813D01*
X-124043Y264193D01*
Y259285D01*
X-124224Y259165D01*
X-124657Y258517D01*
X-124687Y258506D01*
X-125210Y258516D01*
X-125212Y258517D01*
X-125658Y259184D01*
X-125839Y259305D01*
Y265962D01*
X-120194Y271607D01*
X-48605D01*
X-42781Y265782D01*
X-42254Y265431D01*
X-41634Y265307D01*
X203561D01*
X212453Y256415D01*
Y239878D01*
X211795D01*
Y232366D01*
X217142D01*
Y239878D01*
X215697D01*
Y257087D01*
X215573Y257707D01*
X215222Y258233D01*
X205379Y268076D01*
X204853Y268427D01*
X204232Y268551D01*
X-40962D01*
X-46786Y274375D01*
X-47313Y274727D01*
X-47933Y274850D01*
D02*
G37*
G36*
X-57087Y244634D02*
X-108071D01*
X-108692Y244510D01*
X-109218Y244159D01*
X-118666Y234710D01*
X-119018Y234184D01*
X-119141Y233563D01*
Y223380D01*
X-119322Y223259D01*
X-119875Y222432D01*
X-120069Y221457D01*
X-119875Y220481D01*
X-119322Y219654D01*
X-118495Y219102D01*
X-117520Y218908D01*
X-116544Y219102D01*
X-115717Y219654D01*
X-115165Y220481D01*
X-114971Y221457D01*
X-115165Y222432D01*
X-115717Y223259D01*
X-115898Y223380D01*
Y232891D01*
X-107399Y241390D01*
X-102673D01*
X-102522Y240890D01*
X-102688Y240779D01*
X-103241Y239952D01*
X-103435Y238976D01*
X-103241Y238001D01*
X-102688Y237174D01*
X-102507Y237053D01*
Y223327D01*
X-102384Y222706D01*
X-102033Y222180D01*
X-94552Y214700D01*
X-94141Y214425D01*
X-94266Y213925D01*
X-120472D01*
X-121093Y213801D01*
X-121619Y213450D01*
X-128607Y206462D01*
X-128959Y205936D01*
X-129082Y205315D01*
Y200775D01*
X-129224Y200680D01*
X-129776Y199853D01*
X-129970Y198878D01*
X-129776Y197903D01*
X-129224Y197075D01*
X-128397Y196523D01*
X-127421Y196329D01*
X-126446Y196523D01*
X-125619Y197075D01*
X-125212Y197684D01*
X-125211Y197685D01*
X-124643Y197663D01*
X-124224Y197036D01*
X-123397Y196484D01*
X-122421Y196290D01*
X-121446Y196484D01*
X-120619Y197036D01*
X-120130Y197768D01*
X-119753Y197838D01*
X-119565Y197822D01*
X-119224Y197312D01*
X-118397Y196759D01*
X-117421Y196565D01*
X-116446Y196759D01*
X-115619Y197312D01*
X-115222Y197906D01*
X-115154Y197925D01*
X-114647Y197877D01*
X-114204Y197213D01*
X-113377Y196661D01*
X-112402Y196467D01*
X-112188Y196509D01*
X-100556Y184877D01*
X-100030Y184525D01*
X-99409Y184402D01*
X33088D01*
X35681Y181809D01*
Y181217D01*
X34630D01*
Y173705D01*
X39976D01*
Y181217D01*
X38925D01*
Y182480D01*
X38801Y183101D01*
X38450Y183627D01*
X34907Y187170D01*
X34380Y187522D01*
X33760Y187645D01*
X-98738D01*
X-109895Y198803D01*
X-109853Y199016D01*
X-110047Y199991D01*
X-110542Y200733D01*
X-110388Y201233D01*
X-19668D01*
X-7348Y188912D01*
X-6821Y188561D01*
X-6201Y188437D01*
X90076D01*
X94540Y183974D01*
Y181217D01*
X93685D01*
Y173705D01*
X99032D01*
Y181217D01*
X97783D01*
Y184646D01*
X97660Y185266D01*
X97308Y185792D01*
X91895Y191206D01*
X91369Y191557D01*
X90748Y191681D01*
X-5529D01*
X-17849Y204001D01*
X-18375Y204353D01*
X-18996Y204476D01*
X-113681D01*
X-114302Y204353D01*
X-114828Y204001D01*
X-117208Y201621D01*
X-117421Y201663D01*
X-118397Y201469D01*
X-119224Y200917D01*
X-119713Y200185D01*
X-120089Y200115D01*
X-120278Y200131D01*
X-120619Y200641D01*
X-120800Y200762D01*
Y202104D01*
X-117160Y205743D01*
X-116886Y206154D01*
X2379D01*
X14011Y194523D01*
X14537Y194171D01*
X15157Y194048D01*
X147261D01*
X153792Y187517D01*
Y181217D01*
X152740D01*
Y173705D01*
X158087D01*
Y181217D01*
X157035D01*
Y188189D01*
X156912Y188810D01*
X156560Y189336D01*
X149080Y196816D01*
X148554Y197168D01*
X147933Y197291D01*
X15829D01*
X4198Y208922D01*
X3672Y209274D01*
X3051Y209397D01*
X-117615D01*
X-118236Y209274D01*
X-118762Y208922D01*
X-119454Y208230D01*
X-119805Y207704D01*
X-119810Y207680D01*
X-123568Y203922D01*
X-123919Y203396D01*
X-124043Y202776D01*
Y200762D01*
X-124224Y200641D01*
X-124630Y200032D01*
X-124632Y200032D01*
X-125200Y200053D01*
X-125619Y200680D01*
X-125839Y200827D01*
Y204643D01*
X-119801Y210681D01*
X5234D01*
X16274Y199641D01*
X16801Y199289D01*
X17421Y199166D01*
X199919D01*
X212847Y186238D01*
Y180823D01*
X211795D01*
Y173311D01*
X217142D01*
Y180823D01*
X216090D01*
Y186909D01*
X215967Y187530D01*
X215615Y188056D01*
X201737Y201934D01*
X201211Y202286D01*
X200591Y202409D01*
X18093D01*
X7052Y213450D01*
X6641Y213725D01*
X6766Y214225D01*
X384252D01*
X384873Y214348D01*
X385399Y214700D01*
X394749Y224050D01*
X395101Y224576D01*
X395224Y225197D01*
Y232366D01*
X396276D01*
Y239878D01*
X390929D01*
Y232366D01*
X391981D01*
Y225869D01*
X383580Y217468D01*
X-92734D01*
X-99264Y223998D01*
Y237053D01*
X-99083Y237174D01*
X-98531Y238001D01*
X-98337Y238976D01*
X-98531Y239952D01*
X-99083Y240779D01*
X-99250Y240890D01*
X-99098Y241390D01*
X-96866D01*
X-96715Y240890D01*
X-96881Y240779D01*
X-97434Y239952D01*
X-97628Y238976D01*
X-97434Y238001D01*
X-96881Y237174D01*
X-96701Y237053D01*
Y225000D01*
X-96577Y224379D01*
X-96226Y223853D01*
X-91895Y219523D01*
X-91369Y219171D01*
X-90748Y219048D01*
X327854D01*
X328475Y219171D01*
X329001Y219523D01*
X335694Y226216D01*
X336046Y226742D01*
X336169Y227362D01*
Y232366D01*
X337221D01*
Y239878D01*
X331874D01*
Y232366D01*
X332926D01*
Y228034D01*
X327183Y222291D01*
X-90076D01*
X-93457Y225672D01*
Y237053D01*
X-93276Y237174D01*
X-92724Y238001D01*
X-92676Y238240D01*
X-92166D01*
X-92119Y238001D01*
X-91566Y237174D01*
X-91386Y237053D01*
Y231594D01*
X-91262Y230974D01*
X-90911Y230448D01*
X-86383Y225920D01*
X-85857Y225569D01*
X-85236Y225445D01*
X270768D01*
X271388Y225569D01*
X271914Y225920D01*
X274670Y228676D01*
X275022Y229202D01*
X275145Y229823D01*
Y232661D01*
X276197D01*
Y240173D01*
X270850D01*
Y232661D01*
X271902D01*
Y230495D01*
X270096Y228689D01*
X-84565D01*
X-88142Y232266D01*
Y237053D01*
X-87961Y237174D01*
X-87409Y238001D01*
X-87215Y238976D01*
X-87409Y239952D01*
X-87961Y240779D01*
X-88128Y240890D01*
X-87976Y241390D01*
X-57758D01*
X-52131Y235763D01*
X-51605Y235411D01*
X-50984Y235288D01*
X-28362D01*
Y232366D01*
X-23016D01*
Y239878D01*
X-28362D01*
Y238531D01*
X-50313D01*
X-55940Y244159D01*
X-56466Y244510D01*
X-57087Y244634D01*
D02*
G37*
G36*
X-293807Y232492D02*
X-297427D01*
X-297350Y231909D01*
X-296932Y230899D01*
X-296267Y230033D01*
X-295400Y229367D01*
X-294390Y228949D01*
X-293807Y228873D01*
Y232492D01*
D02*
G37*
G36*
X-289188D02*
X-292807D01*
Y228872D01*
X-292224Y228949D01*
X-291214Y229367D01*
X-290348Y230033D01*
X-289682Y230899D01*
X-289264Y231909D01*
X-289188Y232492D01*
D02*
G37*
G36*
X-233307Y237177D02*
X-234390Y237035D01*
X-235400Y236617D01*
X-236267Y235952D01*
X-236932Y235085D01*
X-237350Y234075D01*
X-237492Y232992D01*
X-237350Y231909D01*
X-236932Y230899D01*
X-236267Y230033D01*
X-235400Y229367D01*
X-234390Y228949D01*
X-233307Y228807D01*
X-232224Y228949D01*
X-231214Y229367D01*
X-230348Y230033D01*
X-229682Y230899D01*
X-229264Y231909D01*
X-229122Y232992D01*
X-229264Y234075D01*
X-229682Y235085D01*
X-230348Y235952D01*
X-231214Y236617D01*
X-232224Y237035D01*
X-233307Y237177D01*
D02*
G37*
G36*
X-147638Y270954D02*
X-148613Y270760D01*
X-149440Y270208D01*
X-149993Y269381D01*
X-150187Y268406D01*
X-149993Y267430D01*
X-149440Y266603D01*
X-149255Y266480D01*
X-149165Y223508D01*
X-149243Y223456D01*
X-149796Y222629D01*
X-149990Y221654D01*
X-149796Y220678D01*
X-149243Y219851D01*
X-148416Y219299D01*
X-147441Y219105D01*
X-146466Y219299D01*
X-145639Y219851D01*
X-145086Y220678D01*
X-144892Y221654D01*
X-145086Y222629D01*
X-145639Y223456D01*
X-145922Y223645D01*
X-146012Y266485D01*
X-145835Y266603D01*
X-145283Y267430D01*
X-145089Y268406D01*
X-145283Y269381D01*
X-145835Y270208D01*
X-146662Y270760D01*
X-147638Y270954D01*
D02*
G37*
G36*
X-233307Y227178D02*
X-234390Y227035D01*
X-235400Y226617D01*
X-236267Y225952D01*
X-236932Y225085D01*
X-237350Y224075D01*
X-237492Y222992D01*
X-237350Y221909D01*
X-236932Y220899D01*
X-236267Y220033D01*
X-235400Y219368D01*
X-234390Y218949D01*
X-233307Y218807D01*
X-232224Y218949D01*
X-231214Y219368D01*
X-230348Y220033D01*
X-229682Y220899D01*
X-229264Y221909D01*
X-229122Y222992D01*
X-229264Y224075D01*
X-229682Y225085D01*
X-230348Y225952D01*
X-231214Y226617D01*
X-232224Y227035D01*
X-233307Y227178D01*
D02*
G37*
G36*
X-293307D02*
X-294390Y227035D01*
X-295400Y226617D01*
X-296267Y225952D01*
X-296932Y225085D01*
X-297350Y224075D01*
X-297493Y222992D01*
X-297350Y221909D01*
X-296932Y220899D01*
X-296267Y220033D01*
X-295400Y219368D01*
X-294390Y218949D01*
X-293307Y218807D01*
X-292224Y218949D01*
X-291214Y219368D01*
X-290348Y220033D01*
X-289682Y220899D01*
X-289264Y221909D01*
X-289122Y222992D01*
X-289264Y224075D01*
X-289682Y225085D01*
X-290348Y225952D01*
X-291214Y226617D01*
X-292224Y227035D01*
X-293307Y227178D01*
D02*
G37*
G36*
X4000Y200850D02*
X-4000D01*
Y192850D01*
X4000D01*
Y200850D01*
D02*
G37*
G36*
X-301961Y196646D02*
Y192232D01*
X-297547D01*
X-297651Y193021D01*
X-298148Y194222D01*
X-298939Y195253D01*
X-299971Y196045D01*
X-301172Y196542D01*
X-301961Y196646D01*
D02*
G37*
G36*
X-302961D02*
X-303749Y196542D01*
X-304950Y196045D01*
X-305982Y195253D01*
X-306773Y194222D01*
X-307271Y193021D01*
X-307374Y192232D01*
X-302961D01*
Y196646D01*
D02*
G37*
G36*
X-297547Y191232D02*
X-301961D01*
Y186819D01*
X-301172Y186922D01*
X-299971Y187420D01*
X-298939Y188211D01*
X-298148Y189242D01*
X-297651Y190444D01*
X-297547Y191232D01*
D02*
G37*
G36*
X-302961D02*
X-307374D01*
X-307271Y190444D01*
X-306773Y189242D01*
X-305982Y188211D01*
X-304950Y187420D01*
X-303749Y186922D01*
X-302961Y186819D01*
Y191232D01*
D02*
G37*
G36*
X374016Y203789D02*
X372314Y203656D01*
X370655Y203257D01*
X369078Y202604D01*
X367623Y201712D01*
X366325Y200604D01*
X365217Y199306D01*
X364325Y197851D01*
X363672Y196274D01*
X363274Y194615D01*
X363140Y192913D01*
X363274Y191212D01*
X363672Y189552D01*
X364325Y187976D01*
X365217Y186521D01*
X366325Y185223D01*
X367623Y184115D01*
X369078Y183223D01*
X370655Y182570D01*
X372314Y182171D01*
X374016Y182037D01*
X375717Y182171D01*
X377377Y182570D01*
X378953Y183223D01*
X380409Y184115D01*
X381706Y185223D01*
X382815Y186521D01*
X383706Y187976D01*
X384360Y189552D01*
X384758Y191212D01*
X384892Y192913D01*
X384758Y194615D01*
X384360Y196274D01*
X383706Y197851D01*
X382815Y199306D01*
X381706Y200604D01*
X380409Y201712D01*
X378953Y202604D01*
X377377Y203257D01*
X375717Y203656D01*
X374016Y203789D01*
D02*
G37*
G36*
X314961D02*
X313259Y203656D01*
X311600Y203257D01*
X310023Y202604D01*
X308568Y201712D01*
X307270Y200604D01*
X306162Y199306D01*
X305270Y197851D01*
X304617Y196274D01*
X304219Y194615D01*
X304085Y192913D01*
X304219Y191212D01*
X304617Y189552D01*
X305270Y187976D01*
X306162Y186521D01*
X307270Y185223D01*
X308568Y184115D01*
X310023Y183223D01*
X311600Y182570D01*
X313259Y182171D01*
X314961Y182037D01*
X316662Y182171D01*
X318321Y182570D01*
X319898Y183223D01*
X321353Y184115D01*
X322651Y185223D01*
X323760Y186521D01*
X324651Y187976D01*
X325304Y189552D01*
X325703Y191212D01*
X325837Y192913D01*
X325703Y194615D01*
X325304Y196274D01*
X324651Y197851D01*
X323760Y199306D01*
X322651Y200604D01*
X321353Y201712D01*
X319898Y202604D01*
X318321Y203257D01*
X316662Y203656D01*
X314961Y203789D01*
D02*
G37*
G36*
X358331Y181165D02*
X350331D01*
Y178689D01*
X345291D01*
Y180823D01*
X339945D01*
Y173311D01*
X345291D01*
Y175445D01*
X350331D01*
Y173165D01*
X358331D01*
Y181165D01*
D02*
G37*
G36*
X240220D02*
X232221D01*
Y178689D01*
X225213D01*
Y180823D01*
X219866D01*
Y173311D01*
X225213D01*
Y175445D01*
X232221D01*
Y173165D01*
X240220D01*
Y181165D01*
D02*
G37*
G36*
X417386D02*
X409386D01*
Y178393D01*
X404347D01*
Y180527D01*
X399000D01*
Y173016D01*
X404347D01*
Y175150D01*
X409386D01*
Y173165D01*
X417386D01*
Y181165D01*
D02*
G37*
G36*
X299276D02*
X291276D01*
Y178393D01*
X284268D01*
Y180527D01*
X278921D01*
Y173016D01*
X284268D01*
Y175150D01*
X291276D01*
Y173165D01*
X299276D01*
Y181165D01*
D02*
G37*
G36*
X166157Y181217D02*
X160811D01*
Y173705D01*
X166157D01*
Y175839D01*
X173165D01*
Y173165D01*
X181165D01*
Y181165D01*
X173165D01*
Y179082D01*
X166157D01*
Y181217D01*
D02*
G37*
G36*
X107102D02*
X101756D01*
Y173705D01*
X107102D01*
Y175839D01*
X114110D01*
Y173165D01*
X122110D01*
Y181165D01*
X114110D01*
Y179082D01*
X107102D01*
Y181217D01*
D02*
G37*
G36*
X48047D02*
X42701D01*
Y173705D01*
X48047D01*
Y175839D01*
X55055D01*
Y173165D01*
X63055D01*
Y181165D01*
X55055D01*
Y179082D01*
X48047D01*
Y181217D01*
D02*
G37*
G36*
X-14945D02*
X-20291D01*
Y173705D01*
X-14945D01*
Y175839D01*
X-4000D01*
Y173165D01*
X4000D01*
Y181165D01*
X-4000D01*
Y179082D01*
X-14945D01*
Y181217D01*
D02*
G37*
G36*
X-147638Y210521D02*
X-148613Y210327D01*
X-149440Y209775D01*
X-149993Y208948D01*
X-150187Y207972D01*
X-149993Y206997D01*
X-149440Y206170D01*
X-149255Y206046D01*
X-149165Y166126D01*
X-149243Y166074D01*
X-149796Y165247D01*
X-149990Y164272D01*
X-149796Y163296D01*
X-149243Y162469D01*
X-148416Y161917D01*
X-147441Y161723D01*
X-146466Y161917D01*
X-145639Y162469D01*
X-145086Y163296D01*
X-144892Y164272D01*
X-145086Y165247D01*
X-145639Y166074D01*
X-145922Y166263D01*
X-146012Y206052D01*
X-145835Y206170D01*
X-145283Y206997D01*
X-145089Y207972D01*
X-145283Y208948D01*
X-145835Y209775D01*
X-146662Y210327D01*
X-147638Y210521D01*
D02*
G37*
G36*
X-301961Y165544D02*
Y161130D01*
X-297547D01*
X-297651Y161919D01*
X-298148Y163120D01*
X-298939Y164151D01*
X-299971Y164942D01*
X-301172Y165440D01*
X-301961Y165544D01*
D02*
G37*
G36*
X-302961D02*
X-303749Y165440D01*
X-304950Y164942D01*
X-305982Y164151D01*
X-306773Y163120D01*
X-307271Y161919D01*
X-307374Y161130D01*
X-302961D01*
Y165544D01*
D02*
G37*
G36*
X-36516Y183413D02*
X-104724D01*
X-105345Y183290D01*
X-105871Y182938D01*
X-118568Y170241D01*
X-118920Y169715D01*
X-119043Y169095D01*
Y165604D01*
X-119224Y165483D01*
X-119776Y164656D01*
X-119970Y163681D01*
X-119776Y162706D01*
X-119224Y161879D01*
X-118397Y161326D01*
X-117421Y161132D01*
X-116446Y161326D01*
X-115619Y161879D01*
X-115066Y162706D01*
X-114872Y163681D01*
X-115066Y164656D01*
X-115619Y165483D01*
X-115799Y165604D01*
Y168423D01*
X-104053Y180170D01*
X-100656D01*
X-100504Y179670D01*
X-100818Y179460D01*
X-101371Y178633D01*
X-101565Y177657D01*
X-101371Y176682D01*
X-100818Y175855D01*
X-100637Y175734D01*
Y163681D01*
X-100514Y163060D01*
X-100162Y162534D01*
X-96816Y159188D01*
X-96290Y158836D01*
X-95669Y158713D01*
X384744D01*
X385365Y158836D01*
X385891Y159188D01*
X394749Y168046D01*
X395101Y168572D01*
X395224Y169193D01*
Y173016D01*
X396276D01*
Y180527D01*
X390929D01*
Y173016D01*
X391981D01*
Y169865D01*
X384072Y161956D01*
X331602D01*
X331594Y162453D01*
X332215Y162576D01*
X332741Y162928D01*
X335694Y165881D01*
X336046Y166407D01*
X336169Y167028D01*
Y173311D01*
X337221D01*
Y180823D01*
X331874D01*
Y173311D01*
X332926D01*
Y167699D01*
X330923Y165697D01*
X-88403D01*
X-91882Y169176D01*
Y176030D01*
X-91702Y176150D01*
X-91559Y176364D01*
X-90957Y176437D01*
X-90697Y176185D01*
Y171260D01*
X-90573Y170639D01*
X-90222Y170113D01*
X-87269Y167160D01*
X-86743Y166809D01*
X-86122Y166685D01*
X270768D01*
X271388Y166809D01*
X271914Y167160D01*
X274670Y169916D01*
X275022Y170442D01*
X275145Y171063D01*
Y173016D01*
X276197D01*
Y180527D01*
X270850D01*
Y173016D01*
X271902D01*
Y171735D01*
X270096Y169929D01*
X-85450D01*
X-87453Y171932D01*
Y176620D01*
X-87272Y176741D01*
X-86720Y177568D01*
X-86526Y178543D01*
X-86720Y179519D01*
X-86860Y179729D01*
X-86624Y180170D01*
X-37187D01*
X-33332Y176314D01*
X-32806Y175962D01*
X-32185Y175839D01*
X-28362D01*
Y173705D01*
X-23016D01*
Y181217D01*
X-28362D01*
Y179082D01*
X-31513D01*
X-35369Y182938D01*
X-35895Y183290D01*
X-36516Y183413D01*
D02*
G37*
G36*
X-297547Y160130D02*
X-301961D01*
Y155716D01*
X-301172Y155820D01*
X-299971Y156317D01*
X-298939Y157109D01*
X-298148Y158140D01*
X-297651Y159341D01*
X-297547Y160130D01*
D02*
G37*
G36*
X-302961D02*
X-307374D01*
X-307271Y159341D01*
X-306773Y158140D01*
X-305982Y157109D01*
X-304950Y156317D01*
X-303749Y155820D01*
X-302961Y155716D01*
Y160130D01*
D02*
G37*
G36*
X-284618Y137978D02*
Y134358D01*
X-280998D01*
X-281075Y134941D01*
X-281493Y135951D01*
X-282159Y136818D01*
X-283025Y137483D01*
X-284035Y137901D01*
X-284618Y137978D01*
D02*
G37*
G36*
X-285618D02*
X-286201Y137901D01*
X-287211Y137483D01*
X-288078Y136818D01*
X-288743Y135951D01*
X-289161Y134941D01*
X-289238Y134358D01*
X-285618D01*
Y137978D01*
D02*
G37*
G36*
X4000Y141795D02*
X-4000D01*
Y133795D01*
X4000D01*
Y141795D01*
D02*
G37*
G36*
X-280998Y133358D02*
X-284618D01*
Y129739D01*
X-284035Y129815D01*
X-283025Y130234D01*
X-282159Y130899D01*
X-281493Y131766D01*
X-281075Y132775D01*
X-280998Y133358D01*
D02*
G37*
G36*
X-285618D02*
X-289238D01*
X-289161Y132775D01*
X-288743Y131766D01*
X-288078Y130899D01*
X-287211Y130234D01*
X-286201Y129815D01*
X-285618Y129739D01*
Y133358D01*
D02*
G37*
G36*
X-255118Y138044D02*
X-256201Y137901D01*
X-257211Y137483D01*
X-258078Y136818D01*
X-258743Y135951D01*
X-259161Y134941D01*
X-259303Y133858D01*
X-259161Y132775D01*
X-258743Y131766D01*
X-258078Y130899D01*
X-257211Y130234D01*
X-256201Y129815D01*
X-255118Y129673D01*
X-254035Y129815D01*
X-253025Y130234D01*
X-252159Y130899D01*
X-251493Y131766D01*
X-251075Y132775D01*
X-250933Y133858D01*
X-251075Y134941D01*
X-251493Y135951D01*
X-252159Y136818D01*
X-253025Y137483D01*
X-254035Y137901D01*
X-255118Y138044D01*
D02*
G37*
G36*
X-295118D02*
X-296201Y137901D01*
X-297211Y137483D01*
X-298078Y136818D01*
X-298743Y135951D01*
X-299161Y134941D01*
X-299304Y133858D01*
X-299161Y132775D01*
X-298743Y131766D01*
X-298078Y130899D01*
X-297211Y130234D01*
X-296201Y129815D01*
X-295118Y129673D01*
X-294035Y129815D01*
X-293025Y130234D01*
X-292159Y130899D01*
X-291493Y131766D01*
X-291075Y132775D01*
X-290933Y133858D01*
X-291075Y134941D01*
X-291493Y135951D01*
X-292159Y136818D01*
X-293025Y137483D01*
X-294035Y137901D01*
X-295118Y138044D01*
D02*
G37*
G36*
X-305118D02*
X-306201Y137901D01*
X-307211Y137483D01*
X-308078Y136818D01*
X-308743Y135951D01*
X-309161Y134941D01*
X-309303Y133858D01*
X-309161Y132775D01*
X-308743Y131766D01*
X-308078Y130899D01*
X-307211Y130234D01*
X-306201Y129815D01*
X-305118Y129673D01*
X-304035Y129815D01*
X-303025Y130234D01*
X-302159Y130899D01*
X-301493Y131766D01*
X-301075Y132775D01*
X-300933Y133858D01*
X-301075Y134941D01*
X-301493Y135951D01*
X-302159Y136818D01*
X-303025Y137483D01*
X-304035Y137901D01*
X-305118Y138044D01*
D02*
G37*
G36*
X-88386Y127746D02*
X-89361Y127552D01*
X-90188Y126999D01*
X-90465Y126584D01*
X-90965D01*
X-91111Y126802D01*
X-91938Y127355D01*
X-92913Y127549D01*
X-93889Y127355D01*
X-94716Y126802D01*
X-95268Y125976D01*
X-95462Y125000D01*
X-95268Y124024D01*
X-94716Y123198D01*
X-93889Y122645D01*
X-92913Y122451D01*
X-92700Y122493D01*
X-74966Y104759D01*
X-74440Y104407D01*
X-73819Y104284D01*
X314862D01*
X315483Y104407D01*
X316009Y104759D01*
X328132Y116882D01*
X331874D01*
Y114748D01*
X337221D01*
Y122260D01*
X331874D01*
Y120126D01*
X327461D01*
X326840Y120002D01*
X326314Y119651D01*
X314191Y107527D01*
X258079D01*
X258071Y108024D01*
X258692Y108147D01*
X259218Y108499D01*
X266796Y116078D01*
X267071Y116489D01*
X270850D01*
Y114354D01*
X276197D01*
Y121866D01*
X270850D01*
Y119732D01*
X266341D01*
X265721Y119608D01*
X265195Y119257D01*
X264503Y118565D01*
X264151Y118039D01*
X264146Y118015D01*
X257399Y111267D01*
X-68324D01*
X-83400Y126344D01*
X-83927Y126695D01*
X-84547Y126819D01*
X-86463D01*
X-86583Y126999D01*
X-87410Y127552D01*
X-88386Y127746D01*
D02*
G37*
G36*
X374016Y144734D02*
X372314Y144600D01*
X370655Y144202D01*
X369078Y143549D01*
X367623Y142657D01*
X366325Y141549D01*
X365217Y140251D01*
X364325Y138796D01*
X363672Y137219D01*
X363274Y135560D01*
X363140Y133858D01*
X363274Y132157D01*
X363672Y130497D01*
X364325Y128921D01*
X365217Y127465D01*
X366325Y126168D01*
X367623Y125059D01*
X369078Y124168D01*
X370655Y123514D01*
X372314Y123116D01*
X374016Y122982D01*
X375717Y123116D01*
X377377Y123514D01*
X378953Y124168D01*
X380409Y125059D01*
X381706Y126168D01*
X382815Y127465D01*
X383706Y128921D01*
X384360Y130497D01*
X384758Y132157D01*
X384892Y133858D01*
X384758Y135560D01*
X384360Y137219D01*
X383706Y138796D01*
X382815Y140251D01*
X381706Y141549D01*
X380409Y142657D01*
X378953Y143549D01*
X377377Y144202D01*
X375717Y144600D01*
X374016Y144734D01*
D02*
G37*
G36*
X314961D02*
X313259Y144600D01*
X311600Y144202D01*
X310023Y143549D01*
X308568Y142657D01*
X307270Y141549D01*
X306162Y140251D01*
X305270Y138796D01*
X304617Y137219D01*
X304219Y135560D01*
X304085Y133858D01*
X304219Y132157D01*
X304617Y130497D01*
X305270Y128921D01*
X306162Y127465D01*
X307270Y126168D01*
X308568Y125059D01*
X310023Y124168D01*
X311600Y123514D01*
X313259Y123116D01*
X314961Y122982D01*
X316662Y123116D01*
X318321Y123514D01*
X319898Y124168D01*
X321353Y125059D01*
X322651Y126168D01*
X323760Y127465D01*
X324651Y128921D01*
X325304Y130497D01*
X325703Y132157D01*
X325837Y133858D01*
X325703Y135560D01*
X325304Y137219D01*
X324651Y138796D01*
X323760Y140251D01*
X322651Y141549D01*
X321353Y142657D01*
X319898Y143549D01*
X318321Y144202D01*
X316662Y144600D01*
X314961Y144734D01*
D02*
G37*
G36*
X4000Y122110D02*
X-4000D01*
Y119929D01*
X-14945D01*
Y122063D01*
X-20291D01*
Y114551D01*
X-14945D01*
Y116685D01*
X-4000D01*
Y114110D01*
X4000D01*
Y122110D01*
D02*
G37*
G36*
X417386D02*
X409386D01*
Y119732D01*
X405331D01*
Y121866D01*
X399984D01*
Y114354D01*
X405331D01*
Y116489D01*
X409386D01*
Y114110D01*
X417386D01*
Y122110D01*
D02*
G37*
G36*
X299276D02*
X291276D01*
Y119732D01*
X284268D01*
Y121866D01*
X278921D01*
Y114354D01*
X284268D01*
Y116489D01*
X291276D01*
Y114110D01*
X299276D01*
Y122110D01*
D02*
G37*
G36*
X240220D02*
X232221D01*
Y119732D01*
X225213D01*
Y121866D01*
X219866D01*
Y114354D01*
X225213D01*
Y116489D01*
X232221D01*
Y114110D01*
X240220D01*
Y122110D01*
D02*
G37*
G36*
X122110D02*
X114110D01*
Y119732D01*
X107102D01*
Y121866D01*
X101756D01*
Y114354D01*
X107102D01*
Y116489D01*
X114110D01*
Y114110D01*
X122110D01*
Y122110D01*
D02*
G37*
G36*
X63055D02*
X55055D01*
Y119732D01*
X48047D01*
Y121866D01*
X42701D01*
Y114354D01*
X48047D01*
Y116489D01*
X55055D01*
Y114110D01*
X63055D01*
Y122110D01*
D02*
G37*
G36*
X181165D02*
X173165D01*
Y119338D01*
X166157D01*
Y121472D01*
X160811D01*
Y113961D01*
X166157D01*
Y116095D01*
X173165D01*
Y114110D01*
X181165D01*
Y122110D01*
D02*
G37*
G36*
X-42815Y131838D02*
X-107972D01*
X-108593Y131715D01*
X-109119Y131363D01*
X-118568Y121914D01*
X-118920Y121388D01*
X-119043Y120768D01*
Y109699D01*
X-119224Y109578D01*
X-119776Y108751D01*
X-119970Y107776D01*
X-119776Y106800D01*
X-119224Y105973D01*
X-118397Y105421D01*
X-117421Y105227D01*
X-116446Y105421D01*
X-115619Y105973D01*
X-115066Y106800D01*
X-114872Y107776D01*
X-115066Y108751D01*
X-115619Y109578D01*
X-115799Y109699D01*
Y120096D01*
X-107301Y128595D01*
X-43487D01*
X-31757Y116865D01*
X-31231Y116514D01*
X-30610Y116390D01*
X-28362D01*
Y114551D01*
X-23016D01*
Y122063D01*
X-28362D01*
Y119633D01*
X-29939D01*
X-41668Y131363D01*
X-42194Y131715D01*
X-42815Y131838D01*
D02*
G37*
G36*
X-98721Y127549D02*
X-99696Y127355D01*
X-100523Y126802D01*
X-101075Y125976D01*
X-101269Y125000D01*
X-101075Y124024D01*
X-100523Y123198D01*
X-100342Y123077D01*
Y122638D01*
X-100219Y122017D01*
X-99867Y121491D01*
X-77918Y99542D01*
X-77392Y99191D01*
X-76772Y99067D01*
X373917D01*
X374538Y99191D01*
X375064Y99542D01*
X391452Y115930D01*
X391913Y115738D01*
Y114354D01*
X397260D01*
Y116489D01*
X397736D01*
X398357Y116612D01*
X398883Y116964D01*
X399235Y117490D01*
X399358Y118110D01*
X399235Y118731D01*
X398883Y119257D01*
X398357Y119608D01*
X397736Y119732D01*
X397260D01*
Y121866D01*
X391913D01*
Y119732D01*
X391339D01*
X390718Y119608D01*
X390192Y119257D01*
X373246Y102311D01*
X-76100D01*
X-96924Y123135D01*
X-96918Y123198D01*
X-96365Y124024D01*
X-96171Y125000D01*
X-96365Y125976D01*
X-96918Y126802D01*
X-97745Y127355D01*
X-98721Y127549D01*
D02*
G37*
G36*
X203543Y156641D02*
X-119193D01*
X-119814Y156518D01*
X-120340Y156166D01*
X-128607Y147899D01*
X-128959Y147373D01*
X-129082Y146752D01*
Y144935D01*
X-129263Y144814D01*
X-129816Y143987D01*
X-130010Y143012D01*
X-129816Y142036D01*
X-129263Y141209D01*
X-128436Y140657D01*
X-127461Y140463D01*
X-126485Y140657D01*
X-125658Y141209D01*
X-125230Y141850D01*
X-124672D01*
X-124243Y141209D01*
X-123416Y140657D01*
X-122441Y140463D01*
X-121466Y140657D01*
X-120639Y141209D01*
X-120210Y141850D01*
X-119652D01*
X-119224Y141209D01*
X-118397Y140657D01*
X-117421Y140463D01*
X-116446Y140657D01*
X-115619Y141209D01*
X-115252Y141758D01*
X-114651D01*
X-114341Y141294D01*
X-113514Y140742D01*
X-112538Y140548D01*
X-112325Y140590D01*
X-105824Y134090D01*
X-105298Y133738D01*
X-104678Y133615D01*
X-10613D01*
X-1540Y124542D01*
X-1014Y124191D01*
X-394Y124067D01*
X32104D01*
X34630Y121541D01*
Y114354D01*
X39976D01*
Y121866D01*
X38745D01*
X38450Y122308D01*
X33922Y126836D01*
X33396Y127187D01*
X32776Y127311D01*
X278D01*
X-8794Y136383D01*
X-9320Y136734D01*
X-9941Y136858D01*
X-104006D01*
X-110032Y142884D01*
X-109989Y143097D01*
X-110183Y144072D01*
X-110736Y144899D01*
X-111563Y145452D01*
X-111886Y145516D01*
X-111837Y146016D01*
X-105691D01*
X-103214Y143538D01*
X-102688Y143187D01*
X-102067Y143063D01*
X85450D01*
X94737Y133777D01*
Y121866D01*
X93685D01*
Y114354D01*
X99032D01*
Y121866D01*
X97980D01*
Y134449D01*
X97856Y135069D01*
X97505Y135596D01*
X87269Y145832D01*
X86743Y146183D01*
X86122Y146307D01*
X-101395D01*
X-103873Y148784D01*
X-104399Y149136D01*
X-105020Y149259D01*
X-105012Y149756D01*
X141651D01*
X153300Y138108D01*
Y121472D01*
X152740D01*
Y113961D01*
X158087D01*
Y121472D01*
X156543D01*
Y138779D01*
X156420Y139400D01*
X156068Y139926D01*
X143470Y152525D01*
X142943Y152876D01*
X142834Y152898D01*
X142883Y153398D01*
X202872D01*
X212847Y143423D01*
Y121866D01*
X211795D01*
Y114354D01*
X217142D01*
Y121866D01*
X216090D01*
Y144095D01*
X215967Y144715D01*
X215615Y145241D01*
X204690Y156166D01*
X204164Y156518D01*
X203543Y156641D01*
D02*
G37*
G36*
X345291Y122260D02*
X339945D01*
Y114748D01*
X345291D01*
Y116882D01*
X350331D01*
Y114110D01*
X358331D01*
Y122110D01*
X350331D01*
Y120126D01*
X345291D01*
Y122260D01*
D02*
G37*
G36*
X-147539Y155895D02*
X-148515Y155701D01*
X-149342Y155149D01*
X-149894Y154322D01*
X-150088Y153347D01*
X-149894Y152371D01*
X-149342Y151544D01*
X-149043Y151344D01*
Y109994D01*
X-149224Y109873D01*
X-149776Y109046D01*
X-149970Y108071D01*
X-149776Y107095D01*
X-149224Y106269D01*
X-148397Y105716D01*
X-147421Y105522D01*
X-146446Y105716D01*
X-145619Y106269D01*
X-145066Y107095D01*
X-144872Y108071D01*
X-145066Y109046D01*
X-145619Y109873D01*
X-145800Y109994D01*
Y151502D01*
X-145737Y151544D01*
X-145184Y152371D01*
X-144990Y153347D01*
X-145184Y154322D01*
X-145737Y155149D01*
X-146564Y155701D01*
X-147539Y155895D01*
D02*
G37*
G36*
X4000Y82740D02*
X-4000D01*
Y74740D01*
X4000D01*
Y82740D01*
D02*
G37*
G36*
X-86516Y73612D02*
X-87491Y73418D01*
X-88318Y72865D01*
X-88871Y72038D01*
X-88894Y71920D01*
X-89425Y71814D01*
X-89733Y72275D01*
X-90560Y72827D01*
X-91535Y73021D01*
X-92511Y72827D01*
X-93338Y72275D01*
X-93890Y71448D01*
X-94084Y70472D01*
X-93890Y69497D01*
X-93338Y68670D01*
X-93157Y68549D01*
Y67126D01*
X-93034Y66505D01*
X-92682Y65979D01*
X-89926Y63223D01*
X-89400Y62872D01*
X-88779Y62748D01*
X-53231D01*
X-35891Y45408D01*
X-35365Y45057D01*
X-34744Y44933D01*
X332382D01*
X333002Y45057D01*
X333529Y45408D01*
X335792Y47672D01*
X336144Y48198D01*
X336267Y48819D01*
Y55004D01*
X337221D01*
Y62516D01*
X331874D01*
Y55004D01*
X333024D01*
Y49491D01*
X331710Y48177D01*
X-34072D01*
X-51412Y65517D01*
X-51938Y65868D01*
X-52559Y65992D01*
X-88108D01*
X-89914Y67798D01*
Y68549D01*
X-89733Y68670D01*
X-89180Y69497D01*
X-89157Y69616D01*
X-88626Y69721D01*
X-88318Y69261D01*
X-87491Y68708D01*
X-86516Y68514D01*
X-85540Y68708D01*
X-84713Y69261D01*
X-84593Y69441D01*
X-52443D01*
X-32840Y49837D01*
X-32313Y49486D01*
X-31693Y49362D01*
X271850D01*
X272471Y49486D01*
X272997Y49837D01*
X274670Y51511D01*
X275022Y52037D01*
X275145Y52658D01*
Y55004D01*
X276197D01*
Y62516D01*
X270850D01*
Y55004D01*
X271902D01*
Y53329D01*
X271179Y52606D01*
X-31021D01*
X-50625Y72210D01*
X-51151Y72561D01*
X-51772Y72685D01*
X-84593D01*
X-84713Y72865D01*
X-85540Y73418D01*
X-86516Y73612D01*
D02*
G37*
G36*
X374016Y85679D02*
X372314Y85545D01*
X370655Y85147D01*
X369078Y84494D01*
X367623Y83602D01*
X366325Y82494D01*
X365217Y81196D01*
X364325Y79741D01*
X363672Y78164D01*
X363274Y76504D01*
X363140Y74803D01*
X363274Y73102D01*
X363672Y71442D01*
X364325Y69866D01*
X365217Y68410D01*
X366325Y67113D01*
X367623Y66004D01*
X369078Y65113D01*
X370655Y64459D01*
X372314Y64061D01*
X374016Y63927D01*
X375717Y64061D01*
X377377Y64459D01*
X378953Y65113D01*
X380409Y66004D01*
X381706Y67113D01*
X382815Y68410D01*
X383706Y69866D01*
X384360Y71442D01*
X384758Y73102D01*
X384892Y74803D01*
X384758Y76504D01*
X384360Y78164D01*
X383706Y79741D01*
X382815Y81196D01*
X381706Y82494D01*
X380409Y83602D01*
X378953Y84494D01*
X377377Y85147D01*
X375717Y85545D01*
X374016Y85679D01*
D02*
G37*
G36*
X314961D02*
X313259Y85545D01*
X311600Y85147D01*
X310023Y84494D01*
X308568Y83602D01*
X307270Y82494D01*
X306162Y81196D01*
X305270Y79741D01*
X304617Y78164D01*
X304219Y76504D01*
X304085Y74803D01*
X304219Y73102D01*
X304617Y71442D01*
X305270Y69866D01*
X306162Y68410D01*
X307270Y67113D01*
X308568Y66004D01*
X310023Y65113D01*
X311600Y64459D01*
X313259Y64061D01*
X314961Y63927D01*
X316662Y64061D01*
X318321Y64459D01*
X319898Y65113D01*
X321353Y66004D01*
X322651Y67113D01*
X323760Y68410D01*
X324651Y69866D01*
X325304Y71442D01*
X325703Y73102D01*
X325837Y74803D01*
X325703Y76504D01*
X325304Y78164D01*
X324651Y79741D01*
X323760Y81196D01*
X322651Y82494D01*
X321353Y83602D01*
X319898Y84494D01*
X318321Y85147D01*
X316662Y85545D01*
X314961Y85679D01*
D02*
G37*
G36*
X240220Y63055D02*
X232221D01*
Y60874D01*
X225213D01*
Y63008D01*
X219866D01*
Y55496D01*
X225213D01*
Y57630D01*
X232221D01*
Y55055D01*
X240220D01*
Y63055D01*
D02*
G37*
G36*
X417386D02*
X409386D01*
Y60775D01*
X404347D01*
Y62909D01*
X399000D01*
Y55398D01*
X404347D01*
Y57532D01*
X409386D01*
Y55055D01*
X417386D01*
Y63055D01*
D02*
G37*
G36*
X181165D02*
X173165D01*
Y60578D01*
X166157D01*
Y62713D01*
X160811D01*
Y55201D01*
X166157D01*
Y57335D01*
X173165D01*
Y55055D01*
X181165D01*
Y63055D01*
D02*
G37*
G36*
X63055D02*
X55055D01*
Y60578D01*
X48047D01*
Y62713D01*
X42701D01*
Y55201D01*
X48047D01*
Y57335D01*
X55055D01*
Y55055D01*
X63055D01*
Y63055D01*
D02*
G37*
G36*
X4000D02*
X-4000D01*
Y60578D01*
X-14945D01*
Y62713D01*
X-20291D01*
Y55201D01*
X-14945D01*
Y57335D01*
X-4000D01*
Y55055D01*
X4000D01*
Y63055D01*
D02*
G37*
G36*
X358331D02*
X350331D01*
Y60382D01*
X345291D01*
Y62516D01*
X339945D01*
Y55004D01*
X345291D01*
Y57138D01*
X350331D01*
Y55055D01*
X358331D01*
Y63055D01*
D02*
G37*
G36*
X299276D02*
X291276D01*
Y60382D01*
X284268D01*
Y62516D01*
X278921D01*
Y55004D01*
X284268D01*
Y57138D01*
X291276D01*
Y55055D01*
X299276D01*
Y63055D01*
D02*
G37*
G36*
X-104823Y101819D02*
X-117717D01*
X-118337Y101695D01*
X-118863Y101344D01*
X-128607Y91600D01*
X-128959Y91073D01*
X-129082Y90453D01*
Y89817D01*
X-129263Y89696D01*
X-129816Y88869D01*
X-130010Y87894D01*
X-129816Y86918D01*
X-129263Y86091D01*
X-128436Y85539D01*
X-127461Y85345D01*
X-126485Y85539D01*
X-125658Y86091D01*
X-125261Y86685D01*
X-125193Y86705D01*
X-124687Y86656D01*
X-124243Y85993D01*
X-123416Y85440D01*
X-122441Y85246D01*
X-121466Y85440D01*
X-120639Y85993D01*
X-120195Y86656D01*
X-119688Y86705D01*
X-119620Y86685D01*
X-119224Y86091D01*
X-118397Y85539D01*
X-117421Y85345D01*
X-116446Y85539D01*
X-115619Y86091D01*
X-115190Y86732D01*
X-114632D01*
X-114204Y86091D01*
X-113377Y85539D01*
X-112402Y85345D01*
X-112188Y85387D01*
X-107544Y80743D01*
X-107018Y80392D01*
X-106398Y80268D01*
X-22325D01*
X-8529Y66471D01*
X-8003Y66120D01*
X-7382Y65996D01*
X18718D01*
X27200Y57515D01*
X27726Y57163D01*
X28346Y57040D01*
X34630D01*
Y55201D01*
X39976D01*
Y62713D01*
X34630D01*
Y60283D01*
X29018D01*
X20537Y68765D01*
X20010Y69116D01*
X19390Y69240D01*
X-6710D01*
X-20507Y83037D01*
X-21033Y83388D01*
X-21654Y83512D01*
X-105726D01*
X-109895Y87681D01*
X-109853Y87894D01*
X-110047Y88869D01*
X-110599Y89696D01*
X-111426Y90249D01*
X-111520Y90267D01*
X-111732Y90819D01*
X-111623Y90967D01*
X-110682D01*
X-104493Y84778D01*
X-103967Y84427D01*
X-103347Y84303D01*
X4545D01*
X8948Y79900D01*
X9474Y79549D01*
X10095Y79425D01*
X51254D01*
X72377Y58302D01*
X72903Y57951D01*
X73524Y57827D01*
X93685D01*
Y55693D01*
X99032D01*
Y63205D01*
X93685D01*
Y61071D01*
X74195D01*
X53072Y82194D01*
X52546Y82545D01*
X51925Y82669D01*
X10767D01*
X6363Y87072D01*
X5837Y87423D01*
X5217Y87547D01*
X-102675D01*
X-108863Y93736D01*
X-109390Y94087D01*
X-110010Y94211D01*
X-112726D01*
X-113347Y94087D01*
X-113873Y93736D01*
X-117208Y90400D01*
X-117421Y90443D01*
X-118397Y90249D01*
X-119224Y89696D01*
X-119667Y89033D01*
X-120174Y88984D01*
X-120242Y89004D01*
X-120639Y89598D01*
X-120643Y90154D01*
X-116060Y94737D01*
X-108054D01*
X-102722Y89404D01*
X-102195Y89053D01*
X-101575Y88929D01*
X9466D01*
X14109Y84286D01*
X14635Y83935D01*
X15256Y83811D01*
X55726D01*
X72180Y67357D01*
X72706Y67006D01*
X73327Y66882D01*
X150903D01*
X153792Y63994D01*
Y62713D01*
X152740D01*
Y55201D01*
X158087D01*
Y62713D01*
X157035D01*
Y64665D01*
X156912Y65286D01*
X156560Y65812D01*
X152722Y69651D01*
X152195Y70002D01*
X151575Y70126D01*
X73998D01*
X57544Y86580D01*
X57018Y86931D01*
X56398Y87055D01*
X15928D01*
X11285Y91698D01*
X10758Y92049D01*
X10138Y92173D01*
X-100903D01*
X-106235Y97505D01*
X-106761Y97856D01*
X-107382Y97980D01*
X-116541D01*
X-116806Y98369D01*
X-116826Y98470D01*
X-116760Y98575D01*
X-105495D01*
X-100261Y93341D01*
X-99735Y92990D01*
X-99114Y92866D01*
X12714D01*
X17259Y88322D01*
X17785Y87970D01*
X18406Y87847D01*
X61730D01*
X78282Y71294D01*
X78808Y70943D01*
X79429Y70819D01*
X208679D01*
X213044Y66454D01*
Y63008D01*
X211795D01*
Y55496D01*
X217142D01*
Y63008D01*
X216287D01*
Y67126D01*
X216164Y67747D01*
X215812Y68273D01*
X210497Y73588D01*
X209971Y73939D01*
X209350Y74063D01*
X80101D01*
X63548Y90615D01*
X63022Y90967D01*
X62402Y91090D01*
X19077D01*
X14533Y95635D01*
X14006Y95986D01*
X13386Y96110D01*
X-98442D01*
X-103676Y101344D01*
X-104202Y101695D01*
X-104823Y101819D01*
D02*
G37*
G36*
X-34154Y77606D02*
X-108858D01*
X-109479Y77482D01*
X-110005Y77131D01*
X-118568Y68568D01*
X-118920Y68042D01*
X-119043Y67421D01*
Y55860D01*
X-119224Y55739D01*
X-119776Y54913D01*
X-119970Y53937D01*
X-119776Y52962D01*
X-119224Y52135D01*
X-118397Y51582D01*
X-117421Y51388D01*
X-116446Y51582D01*
X-115619Y52135D01*
X-115066Y52962D01*
X-114872Y53937D01*
X-115066Y54913D01*
X-115619Y55739D01*
X-115799Y55860D01*
Y66750D01*
X-108186Y74362D01*
X-34825D01*
X-27507Y67045D01*
Y62713D01*
X-28362D01*
Y55201D01*
X-23016D01*
Y62713D01*
X-24264D01*
Y67716D01*
X-24388Y68337D01*
X-24739Y68863D01*
X-33007Y77131D01*
X-33533Y77482D01*
X-34154Y77606D01*
D02*
G37*
G36*
X107102Y63205D02*
X101756D01*
Y55693D01*
X107102D01*
Y57827D01*
X114110D01*
Y55055D01*
X122110D01*
Y63055D01*
X114110D01*
Y61071D01*
X107102D01*
Y63205D01*
D02*
G37*
G36*
X-147343Y98907D02*
X-148318Y98713D01*
X-149145Y98161D01*
X-149697Y97334D01*
X-149891Y96358D01*
X-149697Y95383D01*
X-149145Y94556D01*
X-149013Y94468D01*
Y55106D01*
X-149243Y54952D01*
X-149796Y54125D01*
X-149990Y53150D01*
X-149796Y52174D01*
X-149243Y51347D01*
X-148416Y50795D01*
X-147441Y50601D01*
X-146466Y50795D01*
X-145639Y51347D01*
X-145086Y52174D01*
X-144892Y53150D01*
X-145086Y54125D01*
X-145639Y54952D01*
X-145770Y55040D01*
Y94402D01*
X-145540Y94556D01*
X-144988Y95383D01*
X-144793Y96358D01*
X-144988Y97334D01*
X-145540Y98161D01*
X-146367Y98713D01*
X-147343Y98907D01*
D02*
G37*
G36*
X-97638Y73317D02*
X-98613Y73123D01*
X-99440Y72570D01*
X-99993Y71743D01*
X-100187Y70768D01*
X-99993Y69792D01*
X-99440Y68965D01*
X-99260Y68845D01*
Y66240D01*
X-99136Y65620D01*
X-98785Y65093D01*
X-91107Y57416D01*
X-90581Y57065D01*
X-89961Y56941D01*
X-56479D01*
X-40418Y40881D01*
X-39892Y40529D01*
X-39272Y40406D01*
X388090D01*
X388711Y40529D01*
X389237Y40881D01*
X394552Y46196D01*
X394904Y46722D01*
X395027Y47343D01*
Y55398D01*
X396276D01*
Y62909D01*
X390929D01*
Y55398D01*
X391784D01*
Y48014D01*
X387419Y43649D01*
X-38600D01*
X-54660Y59710D01*
X-55186Y60061D01*
X-55807Y60185D01*
X-89289D01*
X-96016Y66912D01*
Y68845D01*
X-95835Y68965D01*
X-95283Y69792D01*
X-95089Y70768D01*
X-95283Y71743D01*
X-95835Y72570D01*
X-96662Y73123D01*
X-97638Y73317D01*
D02*
G37*
G36*
X-92716Y17903D02*
X-93692Y17709D01*
X-94519Y17157D01*
X-94962Y16493D01*
X-95469Y16445D01*
X-95537Y16465D01*
X-95934Y17058D01*
X-96761Y17611D01*
X-97736Y17805D01*
X-98712Y17611D01*
X-99539Y17058D01*
X-100091Y16231D01*
X-100285Y15256D01*
X-100091Y14280D01*
X-99539Y13453D01*
X-99358Y13333D01*
Y-4134D01*
X-99234Y-4755D01*
X-98883Y-5281D01*
X-88056Y-16107D01*
X-87530Y-16459D01*
X-86910Y-16582D01*
X388878D01*
X389498Y-16459D01*
X390025Y-16107D01*
X394749Y-11383D01*
X395101Y-10857D01*
X395224Y-10236D01*
Y-3756D01*
X396276D01*
Y3756D01*
X390929D01*
Y-3756D01*
X391981D01*
Y-9565D01*
X388206Y-13339D01*
X332235D01*
X332083Y-12839D01*
X332347Y-12663D01*
X335694Y-9316D01*
X336046Y-8790D01*
X336169Y-8169D01*
Y-3756D01*
X337221D01*
Y3756D01*
X331874D01*
Y-3756D01*
X332926D01*
Y-7498D01*
X330529Y-9894D01*
X-81415D01*
X-91095Y-214D01*
Y13431D01*
X-90914Y13552D01*
X-90688Y13891D01*
X-90087D01*
X-89794Y13453D01*
X-89614Y13333D01*
Y689D01*
X-89490Y68D01*
X-89139Y-458D01*
X-80871Y-8726D01*
X-80345Y-9077D01*
X-79724Y-9200D01*
X271555D01*
X272176Y-9077D01*
X272702Y-8726D01*
X274670Y-6757D01*
X275022Y-6231D01*
X275145Y-5610D01*
Y-4051D01*
X276197D01*
Y3461D01*
X270850D01*
Y-4051D01*
X271902D01*
Y-4939D01*
X270883Y-5957D01*
X-79053D01*
X-86370Y1361D01*
Y13333D01*
X-86190Y13453D01*
X-85637Y14280D01*
X-85443Y15256D01*
X-85637Y16231D01*
X-86190Y17058D01*
X-87017Y17611D01*
X-87992Y17805D01*
X-88968Y17611D01*
X-89794Y17058D01*
X-90021Y16720D01*
X-90622D01*
X-90914Y17157D01*
X-91741Y17709D01*
X-92716Y17903D01*
D02*
G37*
G36*
X4000Y23685D02*
X-4000D01*
Y15685D01*
X4000D01*
Y23685D01*
D02*
G37*
G36*
X-224697Y21059D02*
Y15461D01*
X-219098D01*
X-219167Y16160D01*
X-219517Y17313D01*
X-220085Y18376D01*
X-220850Y19308D01*
X-221781Y20072D01*
X-222844Y20640D01*
X-223997Y20990D01*
X-224697Y21059D01*
D02*
G37*
G36*
X-225697D02*
X-226396Y20990D01*
X-227550Y20640D01*
X-228612Y20072D01*
X-229544Y19308D01*
X-230309Y18376D01*
X-230877Y17313D01*
X-231226Y16160D01*
X-231295Y15461D01*
X-225697D01*
Y21059D01*
D02*
G37*
G36*
X-219098Y14461D02*
X-224697D01*
Y8862D01*
X-223997Y8931D01*
X-222844Y9281D01*
X-221781Y9849D01*
X-220850Y10614D01*
X-220085Y11545D01*
X-219517Y12608D01*
X-219167Y13761D01*
X-219098Y14461D01*
D02*
G37*
G36*
X-225697D02*
X-231295D01*
X-231226Y13761D01*
X-230877Y12608D01*
X-230309Y11545D01*
X-229544Y10614D01*
X-228612Y9849D01*
X-227550Y9281D01*
X-226396Y8931D01*
X-225697Y8862D01*
Y14461D01*
D02*
G37*
G36*
X-185827Y21108D02*
X-187026Y20990D01*
X-188179Y20640D01*
X-189242Y20072D01*
X-190174Y19308D01*
X-190938Y18376D01*
X-191507Y17313D01*
X-191856Y16160D01*
X-191974Y14961D01*
X-191856Y13761D01*
X-191507Y12608D01*
X-190938Y11545D01*
X-190174Y10614D01*
X-189242Y9849D01*
X-188179Y9281D01*
X-187026Y8931D01*
X-185827Y8813D01*
X-184627Y8931D01*
X-183474Y9281D01*
X-182411Y9849D01*
X-181480Y10614D01*
X-180715Y11545D01*
X-180147Y12608D01*
X-179797Y13761D01*
X-179679Y14961D01*
X-179797Y16160D01*
X-180147Y17313D01*
X-180715Y18376D01*
X-181480Y19308D01*
X-182411Y20072D01*
X-183474Y20640D01*
X-184627Y20990D01*
X-185827Y21108D01*
D02*
G37*
G36*
X374016Y26624D02*
X372314Y26490D01*
X370655Y26092D01*
X369078Y25439D01*
X367623Y24547D01*
X366325Y23439D01*
X365217Y22141D01*
X364325Y20686D01*
X363672Y19109D01*
X363274Y17449D01*
X363140Y15748D01*
X363274Y14047D01*
X363672Y12387D01*
X364325Y10810D01*
X365217Y9355D01*
X366325Y8057D01*
X367623Y6949D01*
X369078Y6057D01*
X370655Y5404D01*
X372314Y5006D01*
X374016Y4872D01*
X375717Y5006D01*
X377377Y5404D01*
X378953Y6057D01*
X380409Y6949D01*
X381706Y8057D01*
X382815Y9355D01*
X383706Y10810D01*
X384360Y12387D01*
X384758Y14047D01*
X384892Y15748D01*
X384758Y17449D01*
X384360Y19109D01*
X383706Y20686D01*
X382815Y22141D01*
X381706Y23439D01*
X380409Y24547D01*
X378953Y25439D01*
X377377Y26092D01*
X375717Y26490D01*
X374016Y26624D01*
D02*
G37*
G36*
X314961D02*
X313259Y26490D01*
X311600Y26092D01*
X310023Y25439D01*
X308568Y24547D01*
X307270Y23439D01*
X306162Y22141D01*
X305270Y20686D01*
X304617Y19109D01*
X304219Y17449D01*
X304085Y15748D01*
X304219Y14047D01*
X304617Y12387D01*
X305270Y10810D01*
X306162Y9355D01*
X307270Y8057D01*
X308568Y6949D01*
X310023Y6057D01*
X311600Y5404D01*
X313259Y5006D01*
X314961Y4872D01*
X316662Y5006D01*
X318321Y5404D01*
X319898Y6057D01*
X321353Y6949D01*
X322651Y8057D01*
X323760Y9355D01*
X324651Y10810D01*
X325304Y12387D01*
X325703Y14047D01*
X325837Y15748D01*
X325703Y17449D01*
X325304Y19109D01*
X324651Y20686D01*
X323760Y22141D01*
X322651Y23439D01*
X321353Y24547D01*
X319898Y25439D01*
X318321Y26092D01*
X316662Y26490D01*
X314961Y26624D01*
D02*
G37*
G36*
X417386Y4000D02*
X409386D01*
Y1622D01*
X404347D01*
Y3756D01*
X399000D01*
Y-3756D01*
X404347D01*
Y-1622D01*
X409386D01*
Y-4000D01*
X417386D01*
Y4000D01*
D02*
G37*
G36*
X358331D02*
X350331D01*
Y1622D01*
X345291D01*
Y3756D01*
X339945D01*
Y-3756D01*
X345291D01*
Y-1622D01*
X350331D01*
Y-4000D01*
X358331D01*
Y4000D01*
D02*
G37*
G36*
X240220D02*
X232221D01*
Y1622D01*
X225213D01*
Y3756D01*
X219866D01*
Y-3756D01*
X225213D01*
Y-1622D01*
X232221D01*
Y-4000D01*
X240220D01*
Y4000D01*
D02*
G37*
G36*
X181165D02*
X173165D01*
Y1622D01*
X166157D01*
Y3756D01*
X160811D01*
Y-3756D01*
X166157D01*
Y-1622D01*
X173165D01*
Y-4000D01*
X181165D01*
Y4000D01*
D02*
G37*
G36*
X122110D02*
X114110D01*
Y1622D01*
X107102D01*
Y3756D01*
X101756D01*
Y-3756D01*
X107102D01*
Y-1622D01*
X114110D01*
Y-4000D01*
X122110D01*
Y4000D01*
D02*
G37*
G36*
X63055D02*
X55055D01*
Y1622D01*
X48047D01*
Y3756D01*
X42701D01*
Y-3756D01*
X48047D01*
Y-1622D01*
X55055D01*
Y-4000D01*
X63055D01*
Y4000D01*
D02*
G37*
G36*
X299276D02*
X291276D01*
Y1326D01*
X284268D01*
Y3461D01*
X278921D01*
Y-4051D01*
X284268D01*
Y-1917D01*
X291276D01*
Y-4000D01*
X299276D01*
Y4000D01*
D02*
G37*
G36*
X-54035Y49358D02*
X-121555D01*
X-122176Y49235D01*
X-122702Y48883D01*
X-128607Y42977D01*
X-128959Y42451D01*
X-129082Y41831D01*
Y37258D01*
X-129263Y37137D01*
X-129816Y36310D01*
X-130010Y35335D01*
X-129816Y34359D01*
X-129263Y33532D01*
X-128436Y32980D01*
X-127461Y32786D01*
X-126485Y32980D01*
X-125658Y33532D01*
X-125258Y34131D01*
X-125140Y34158D01*
X-124685Y34105D01*
X-124224Y33414D01*
X-123397Y32862D01*
X-122421Y32668D01*
X-121446Y32862D01*
X-120619Y33414D01*
X-120258Y33954D01*
X-120143Y33980D01*
X-119680Y33920D01*
X-119224Y33237D01*
X-118397Y32684D01*
X-117421Y32490D01*
X-116446Y32684D01*
X-115619Y33237D01*
X-115163Y33920D01*
X-114699Y33980D01*
X-114584Y33954D01*
X-114224Y33414D01*
X-113397Y32862D01*
X-112421Y32667D01*
X-111446Y32862D01*
X-110619Y33414D01*
X-110498Y33595D01*
X-62266D01*
X-51639Y22967D01*
X-51227Y22693D01*
X-51352Y22193D01*
X-115453D01*
X-116073Y22069D01*
X-116600Y21718D01*
X-118568Y19749D01*
X-118920Y19223D01*
X-119043Y18602D01*
Y3104D01*
X-119224Y2984D01*
X-119776Y2157D01*
X-119970Y1181D01*
X-119776Y206D01*
X-119224Y-621D01*
X-118397Y-1174D01*
X-117421Y-1368D01*
X-116446Y-1174D01*
X-115619Y-621D01*
X-115066Y206D01*
X-114872Y1181D01*
X-115066Y2157D01*
X-115619Y2984D01*
X-115799Y3104D01*
Y17931D01*
X-114781Y18949D01*
X-31971D01*
X-27114Y14092D01*
Y4150D01*
X-28362D01*
Y-3362D01*
X-23016D01*
Y4150D01*
X-23870D01*
Y14764D01*
X-23994Y15384D01*
X-24345Y15911D01*
X-30152Y21718D01*
X-30564Y21993D01*
X-30439Y22492D01*
X-17404D01*
X-4100Y9188D01*
X-3573Y8836D01*
X-2953Y8713D01*
X31021D01*
X35478Y4256D01*
X35271Y3756D01*
X34630D01*
Y-3756D01*
X39976D01*
Y3756D01*
X38925D01*
Y4724D01*
X38801Y5345D01*
X38450Y5871D01*
X32840Y11481D01*
X32313Y11833D01*
X31693Y11956D01*
X-2281D01*
X-15586Y25261D01*
X-16112Y25612D01*
X-16732Y25736D01*
X-49820D01*
X-60448Y36363D01*
X-60974Y36715D01*
X-61594Y36838D01*
X-110498D01*
X-110619Y37019D01*
X-111446Y37571D01*
X-112421Y37765D01*
X-113397Y37571D01*
X-114224Y37019D01*
X-114680Y36336D01*
X-115143Y36276D01*
X-115258Y36302D01*
X-115619Y36842D01*
X-115799Y36963D01*
Y38600D01*
X-115372Y39028D01*
X-61302D01*
X-49670Y27397D01*
X-49144Y27045D01*
X-48524Y26922D01*
X67143D01*
X93046Y1019D01*
X93572Y667D01*
X93685Y645D01*
Y-3756D01*
X99032D01*
Y3756D01*
X95432D01*
X95276Y3787D01*
X94865D01*
X68962Y29690D01*
X68436Y30042D01*
X67815Y30165D01*
X-47852D01*
X-59483Y41796D01*
X-60009Y42148D01*
X-60630Y42271D01*
X-60622Y42768D01*
X-58349D01*
X-47407Y31826D01*
X-46880Y31474D01*
X-46260Y31351D01*
X145293D01*
X153890Y22753D01*
Y3756D01*
X152740D01*
Y-3756D01*
X158087D01*
Y3756D01*
X157133D01*
Y23425D01*
X157010Y24046D01*
X156658Y24572D01*
X147111Y34119D01*
X146585Y34471D01*
X145965Y34594D01*
X-45588D01*
X-56530Y45537D01*
X-56647Y45614D01*
X-56496Y46115D01*
X-54707D01*
X-45340Y36747D01*
X-44813Y36395D01*
X-44193Y36272D01*
X203068D01*
X212453Y26887D01*
Y3756D01*
X211795D01*
Y-3756D01*
X217142D01*
Y3756D01*
X215697D01*
Y27559D01*
X215573Y28180D01*
X215222Y28706D01*
X204887Y39040D01*
X204361Y39392D01*
X203740Y39515D01*
X-43521D01*
X-52889Y48883D01*
X-53415Y49235D01*
X-54035Y49358D01*
D02*
G37*
G36*
X-14945Y4150D02*
X-20291D01*
Y-3362D01*
X-14945D01*
Y-1622D01*
X-4000D01*
Y-4000D01*
X4000D01*
Y4000D01*
X-4000D01*
Y1622D01*
X-14945D01*
Y4150D01*
D02*
G37*
G36*
X433571Y4536D02*
Y-5406D01*
X443513D01*
X443423Y-4266D01*
X443039Y-2667D01*
X442410Y-1147D01*
X441550Y255D01*
X440482Y1506D01*
X439231Y2574D01*
X437829Y3433D01*
X436310Y4063D01*
X434711Y4447D01*
X433571Y4536D01*
D02*
G37*
G36*
X432571D02*
X431431Y4447D01*
X429832Y4063D01*
X428312Y3433D01*
X426910Y2574D01*
X425660Y1506D01*
X424591Y255D01*
X423732Y-1147D01*
X423103Y-2667D01*
X422719Y-4266D01*
X422629Y-5406D01*
X432571D01*
Y4536D01*
D02*
G37*
G36*
X-298713D02*
Y-5406D01*
X-288771D01*
X-288861Y-4266D01*
X-289245Y-2667D01*
X-289874Y-1147D01*
X-290733Y255D01*
X-291801Y1506D01*
X-293052Y2574D01*
X-294454Y3433D01*
X-295974Y4063D01*
X-297573Y4447D01*
X-298713Y4536D01*
D02*
G37*
G36*
X-299713D02*
X-300852Y4447D01*
X-302451Y4063D01*
X-303971Y3433D01*
X-305373Y2574D01*
X-306624Y1506D01*
X-307692Y255D01*
X-308551Y-1147D01*
X-309181Y-2667D01*
X-309565Y-4266D01*
X-309654Y-5406D01*
X-299713D01*
Y4536D01*
D02*
G37*
G36*
X443513Y-6406D02*
X433571D01*
Y-16347D01*
X434711Y-16258D01*
X436310Y-15874D01*
X437829Y-15244D01*
X439231Y-14385D01*
X440482Y-13317D01*
X441550Y-12066D01*
X442410Y-10664D01*
X443039Y-9144D01*
X443423Y-7545D01*
X443513Y-6406D01*
D02*
G37*
G36*
X432571D02*
X422629D01*
X422719Y-7545D01*
X423103Y-9144D01*
X423732Y-10664D01*
X424591Y-12066D01*
X425660Y-13317D01*
X426910Y-14385D01*
X428312Y-15244D01*
X429832Y-15874D01*
X431431Y-16258D01*
X432571Y-16347D01*
Y-6406D01*
D02*
G37*
G36*
X-288771D02*
X-298713D01*
Y-16347D01*
X-297573Y-16258D01*
X-295974Y-15874D01*
X-294454Y-15244D01*
X-293052Y-14385D01*
X-291801Y-13317D01*
X-290733Y-12066D01*
X-289874Y-10664D01*
X-289245Y-9144D01*
X-288861Y-7545D01*
X-288771Y-6406D01*
D02*
G37*
G36*
X-299713D02*
X-309654D01*
X-309565Y-7545D01*
X-309181Y-9144D01*
X-308551Y-10664D01*
X-307692Y-12066D01*
X-306624Y-13317D01*
X-305373Y-14385D01*
X-303971Y-15244D01*
X-302451Y-15874D01*
X-300852Y-16258D01*
X-299713Y-16347D01*
Y-6406D01*
D02*
G37*
%LPD*%
G36*
X-97722Y420429D02*
X-97727Y420341D01*
X-97884Y419929D01*
X-105549D01*
X-109905Y424285D01*
X-109862Y424498D01*
X-110056Y425473D01*
X-110609Y426300D01*
X-110981Y426549D01*
X-111085Y427220D01*
X-111010Y427315D01*
X-104609D01*
X-97722Y420429D01*
D02*
G37*
G36*
X-84003Y407300D02*
X-84045Y407087D01*
X-83851Y406111D01*
X-83298Y405284D01*
X-82911Y405025D01*
Y404424D01*
X-83298Y404165D01*
X-83419Y403984D01*
X-119783D01*
X-120404Y403861D01*
X-120930Y403509D01*
X-130298Y394141D01*
X-130760Y394332D01*
Y401279D01*
X-130884Y401900D01*
X-131235Y402426D01*
X-138617Y409808D01*
X-139143Y410160D01*
X-139764Y410283D01*
X-183510D01*
X-183631Y410464D01*
X-184458Y411016D01*
X-185433Y411210D01*
X-186408Y411016D01*
X-187235Y410464D01*
X-187788Y409637D01*
X-187982Y408661D01*
X-187788Y407686D01*
X-187235Y406859D01*
X-186408Y406307D01*
X-185433Y406112D01*
X-184458Y406307D01*
X-183631Y406859D01*
X-183510Y407040D01*
X-140436D01*
X-134004Y400608D01*
Y391687D01*
X-134184Y391566D01*
X-134613Y390925D01*
X-135171D01*
X-135599Y391566D01*
X-135780Y391687D01*
Y399213D01*
X-135903Y399833D01*
X-136255Y400359D01*
X-140979Y405084D01*
X-141505Y405435D01*
X-142126Y405559D01*
X-190551D01*
X-191172Y405435D01*
X-191698Y405084D01*
X-203822Y392960D01*
X-204284Y393151D01*
Y406415D01*
X-198639Y412059D01*
X-88762D01*
X-84003Y407300D01*
D02*
G37*
G36*
X-134184Y387961D02*
X-134004Y387841D01*
Y333419D01*
X-134184Y333298D01*
X-134613Y332657D01*
X-135171D01*
X-135599Y333298D01*
X-135780Y333419D01*
Y387841D01*
X-135599Y387961D01*
X-135171Y388602D01*
X-134613D01*
X-134184Y387961D01*
D02*
G37*
G36*
Y329694D02*
X-134004Y329573D01*
Y281844D01*
X-134184Y281724D01*
X-134613Y281083D01*
X-135171D01*
X-135599Y281724D01*
X-135780Y281844D01*
Y329573D01*
X-135599Y329694D01*
X-135171Y330335D01*
X-134613D01*
X-134184Y329694D01*
D02*
G37*
G36*
Y278119D02*
X-134004Y277998D01*
Y223577D01*
X-134184Y223456D01*
X-134613Y222815D01*
X-135171D01*
X-135599Y223456D01*
X-135780Y223577D01*
Y277998D01*
X-135599Y278119D01*
X-135171Y278760D01*
X-134613D01*
X-134184Y278119D01*
D02*
G37*
G36*
Y219851D02*
X-134004Y219730D01*
Y165309D01*
X-134184Y165188D01*
X-134613Y164547D01*
X-135171D01*
X-135599Y165188D01*
X-135780Y165309D01*
Y219730D01*
X-135599Y219851D01*
X-135171Y220492D01*
X-134613D01*
X-134184Y219851D01*
D02*
G37*
G36*
Y161583D02*
X-134004Y161463D01*
Y109403D01*
X-134184Y109283D01*
X-134613Y108642D01*
X-135171D01*
X-135599Y109283D01*
X-135780Y109403D01*
Y161463D01*
X-135599Y161583D01*
X-135171Y162224D01*
X-134613D01*
X-134184Y161583D01*
D02*
G37*
G36*
Y105678D02*
X-134004Y105557D01*
Y55466D01*
X-134184Y55346D01*
X-134613Y54705D01*
X-135171D01*
X-135599Y55346D01*
X-135780Y55466D01*
Y105557D01*
X-135599Y105678D01*
X-135171Y106319D01*
X-134613D01*
X-134184Y105678D01*
D02*
G37*
G36*
Y51741D02*
X-134004Y51620D01*
Y2710D01*
X-134184Y2590D01*
X-134613Y1949D01*
X-135171D01*
X-135599Y2590D01*
X-135780Y2710D01*
Y51620D01*
X-135599Y51741D01*
X-135171Y52382D01*
X-134613D01*
X-134184Y51741D01*
D02*
G37*
G36*
X-95859Y176977D02*
X-95306Y176150D01*
X-95126Y176030D01*
Y168504D01*
X-95002Y167883D01*
X-94651Y167357D01*
X-90222Y162928D01*
X-89695Y162576D01*
X-89075Y162453D01*
X-89083Y161956D01*
X-94998D01*
X-97394Y164353D01*
Y175734D01*
X-97213Y175855D01*
X-96661Y176682D01*
X-96467Y177657D01*
X-95995Y177662D01*
X-95859Y176977D01*
D02*
G37*
G36*
X-70143Y108499D02*
X-69617Y108147D01*
X-68996Y108024D01*
X-69004Y107527D01*
X-73147D01*
X-87912Y122292D01*
X-87767Y122771D01*
X-87410Y122842D01*
X-86583Y123395D01*
X-86463Y123575D01*
X-85219D01*
X-70143Y108499D01*
D02*
G37*
G36*
X-94916Y14146D02*
X-94519Y13552D01*
X-94338Y13431D01*
Y-886D01*
X-94215Y-1506D01*
X-93863Y-2033D01*
X-83233Y-12663D01*
X-82969Y-12839D01*
X-83121Y-13339D01*
X-86238D01*
X-96114Y-3462D01*
Y13333D01*
X-95934Y13453D01*
X-95490Y14117D01*
X-94984Y14165D01*
X-94916Y14146D01*
D02*
G37*
D13*
X401673Y412992D02*
X412992D01*
X413386Y413386D01*
D42*
X222539Y354035D02*
X235925D01*
X236221Y354331D01*
X-17224Y0D02*
X0D01*
X-17618Y394D02*
X-17224Y0D01*
X45374D02*
X59055D01*
X104429D02*
X118110D01*
X163484D02*
X177165D01*
X222539D02*
X236221D01*
X281594Y-295D02*
X294980D01*
X295276Y0D01*
X342618D02*
X354331D01*
X401673D02*
X413386D01*
X45374Y58957D02*
X58957D01*
X59055Y59055D01*
X-17618Y58957D02*
X-98D01*
X0Y59055D01*
X342618Y295079D02*
X354134D01*
X354331Y295276D01*
X281594D02*
X295276D01*
X222539D02*
X236221D01*
X163484Y295177D02*
X177067D01*
X177165Y295276D01*
X401673D02*
X413386D01*
X402658Y118110D02*
X413386D01*
X104429Y59449D02*
X117717D01*
X118110Y59055D01*
X163484Y58957D02*
X177067D01*
X177165Y59055D01*
X222539Y59252D02*
X236024D01*
X236221Y59055D01*
X281594Y58760D02*
X294980D01*
X295276Y59055D01*
X342618Y58760D02*
X354035D01*
X354331Y59055D01*
X401673Y59153D02*
X413287D01*
X413386Y59055D01*
X342618Y118504D02*
X353937D01*
X354331Y118110D01*
X281594D02*
X295276D01*
X222539D02*
X236221D01*
X163484Y117717D02*
X176772D01*
X177165Y118110D01*
X104429D02*
X118110D01*
X45374D02*
X59055D01*
X-17618Y118307D02*
X-197D01*
X0Y118110D01*
X-17618Y177461D02*
X-295D01*
X0Y177165D01*
X45374Y177461D02*
X58760D01*
X59055Y177165D01*
X104429Y177461D02*
X117815D01*
X118110Y177165D01*
X163484Y177461D02*
X176870D01*
X177165Y177165D01*
X222539Y177067D02*
X236122D01*
X236221Y177165D01*
X281594Y176772D02*
X294882D01*
X295276Y177165D01*
X342618Y177067D02*
X354232D01*
X354331Y177165D01*
X401673Y176772D02*
X412992D01*
X413386Y177165D01*
X401673Y236122D02*
X413287D01*
X413386Y236221D01*
X342618Y236122D02*
X354232D01*
X354331Y236221D01*
X281594Y236417D02*
X295079D01*
X295276Y236221D01*
X222539Y236122D02*
X236122D01*
X236221Y236221D01*
X163484Y236417D02*
X176969D01*
X177165Y236221D01*
X104429Y236122D02*
X118012D01*
X118110Y236221D01*
X45374Y235728D02*
X58563D01*
X59055Y236221D01*
X-17520D02*
X0D01*
X-17618Y236122D02*
X-17520Y236221D01*
X104429Y295079D02*
X117913D01*
X118110Y295276D01*
X45374D02*
X59055D01*
X-17618Y295079D02*
X-197D01*
X0Y295276D01*
X342618Y412992D02*
X353937D01*
X354331Y413386D01*
X281594Y413091D02*
X294980D01*
X295276Y413386D01*
X222539Y413484D02*
X236122D01*
X236221Y413386D01*
X163484Y413287D02*
X177067D01*
X177165Y413386D01*
X104429D02*
X118110D01*
X-17618Y413189D02*
X-197D01*
X0Y413386D01*
X45374Y413189D02*
X58858D01*
X59055Y413386D01*
X401673Y354429D02*
X413386Y354331D01*
X342618Y354429D02*
X354331Y354331D01*
X281594D02*
X295276Y354232D01*
X-17618Y354429D02*
X-98D01*
X0Y354331D01*
X45374Y354429D02*
X58957D01*
X59055Y354331D01*
X104429Y354429D02*
X118012D01*
X118110Y354331D01*
X163484Y354035D02*
X176870D01*
X177165Y354331D01*
X37303Y413189D02*
Y415945D01*
X34941Y418307D02*
X37303Y415945D01*
X-106220Y418307D02*
X34941D01*
X393602Y412992D02*
X393602Y412992D01*
X393602Y412992D02*
Y438878D01*
X384350Y448130D02*
X393602Y438878D01*
X-14173Y448130D02*
X384350D01*
X-129035Y446063D02*
X-16240D01*
X-14173Y448130D01*
X-7776Y441142D02*
X-4921Y443996D01*
X328150D01*
X334350Y437795D01*
X-142421Y424409D02*
Y432677D01*
X-129035Y446063D01*
X334350Y413189D02*
X334547Y412992D01*
X334350Y413189D02*
Y437795D01*
X-126476Y441142D02*
X-7776D01*
X-124409Y437598D02*
X-7087D01*
X-4724Y439961D02*
X265748D01*
X-7087Y437598D02*
X-4724Y439961D01*
X265748D02*
X273622Y432087D01*
X-137421Y424685D02*
Y430197D01*
X-126476Y441142D01*
X273524Y413091D02*
X273622Y413189D01*
Y432087D01*
X-132421Y424567D02*
Y429587D01*
X-124409Y437598D01*
X214272Y413681D02*
X214469Y413484D01*
X214272Y413681D02*
Y422047D01*
X208858Y427461D02*
X214272Y422047D01*
X-99114Y434350D02*
X-92224Y427461D01*
X208858D01*
X-127421Y429272D02*
X-122340Y434353D01*
X-121361D01*
X-121358Y434350D01*
X-99114D01*
X-122421Y428268D02*
X-118898Y431791D01*
X-101575D02*
X-94488Y424705D01*
X-118898Y431791D02*
X-101575D01*
X-127421Y424744D02*
Y429272D01*
X152657Y424705D02*
X155413Y421949D01*
X-94488Y424705D02*
X152657D01*
X93799Y421555D02*
X96358Y418996D01*
X-96555Y421555D02*
X93799D01*
X-103937Y428937D02*
X-96555Y421555D01*
X-112411Y424498D02*
X-106220Y418307D01*
X155413Y413287D02*
Y421949D01*
X-122421Y424685D02*
Y428268D01*
X-115748Y428937D02*
X-103937D01*
X-117073Y427612D02*
X-115748Y428937D01*
X96358Y413386D02*
Y418996D01*
X-117421Y424508D02*
X-117073Y424856D01*
Y427612D01*
X-25886Y413386D02*
X-25689Y413189D01*
X-49409Y398425D02*
X-34449Y413386D01*
X-25886D01*
X-96900Y391092D02*
X-89567Y398425D01*
X-49409D01*
X-117274Y391092D02*
X-96900D01*
X-132382Y331496D02*
Y389764D01*
Y279921D02*
Y331496D01*
X-114764Y371063D02*
X-99508D01*
X-117398Y368429D02*
X-114764Y371063D01*
X-117398Y366854D02*
Y368429D01*
X-17421Y374803D02*
X-9843Y382382D01*
X-118898Y374803D02*
X-17421D01*
X-122343Y371358D02*
X-118898Y374803D01*
X155413Y354035D02*
Y373524D01*
X146555Y382382D02*
X155413Y373524D01*
X-9843Y382382D02*
X146555D01*
X214272Y354232D02*
X214469Y354035D01*
X207382Y388779D02*
X214272Y381890D01*
Y354232D02*
Y381890D01*
X-15157Y388779D02*
X207382D01*
X-25984Y377953D02*
X-15157Y388779D01*
X-122146Y377953D02*
X-25984D01*
X-127421Y372677D02*
X-122146Y377953D01*
X-127421Y366673D02*
Y372677D01*
X-122343Y366929D02*
Y371358D01*
X92618Y366339D02*
X96161Y362795D01*
X-94784Y366339D02*
X92618D01*
X-99508Y371063D02*
X-94784Y366339D01*
X96161Y354626D02*
X96358Y354429D01*
X96161Y354626D02*
Y362795D01*
X-117421Y366831D02*
X-117398Y366854D01*
X37303Y354429D02*
Y358957D01*
X34941Y361319D02*
X37303Y358957D01*
X-112402Y367224D02*
X-106496Y361319D01*
X34941D01*
X-118937Y328504D02*
X210079D01*
X214469Y324114D01*
X-127461Y319980D02*
X-118937Y328504D01*
X273524Y348524D02*
Y354331D01*
X266142Y341142D02*
X273524Y348524D01*
X-84842Y341142D02*
X266142D01*
X-88976Y345276D02*
X-84842Y341142D01*
X-88976Y345276D02*
Y349114D01*
X-93602Y348819D02*
X-93405Y349016D01*
X-93602Y342520D02*
Y348819D01*
X-88090Y337008D02*
X331299D01*
X-93602Y342520D02*
X-88090Y337008D01*
X-94685Y332776D02*
X381693D01*
X-98819Y336910D02*
X-94685Y332776D01*
X-98819Y336910D02*
Y348622D01*
X334547Y340256D02*
Y354429D01*
X331299Y337008D02*
X334547Y340256D01*
X393602Y354429D02*
X393701Y354331D01*
Y344783D02*
Y354331D01*
X381693Y332776D02*
X393701Y344783D01*
X-110335Y354429D02*
X-25689D01*
X-117421Y347342D02*
X-110335Y354429D01*
X-117421Y331594D02*
Y347342D01*
X146063Y324213D02*
X155416Y314859D01*
X-117717Y324213D02*
X146063D01*
X-122343Y319587D02*
X-117717Y324213D01*
X-127461Y315689D02*
Y319980D01*
Y315689D02*
X-127421Y315650D01*
X214469Y295276D02*
Y324114D01*
X155413Y295177D02*
Y306100D01*
X155416Y306102D01*
Y314859D01*
X-122343Y315354D02*
Y319587D01*
X89961Y307972D02*
X96358Y301575D01*
X-95079Y307972D02*
X89961D01*
X-107677Y320571D02*
X-95079Y307972D01*
X96358Y295079D02*
Y301575D01*
X-115748Y320571D02*
X-107677D01*
X-117323Y318996D02*
X-115748Y320571D01*
X-117421Y315551D02*
X-117323Y315650D01*
Y318996D01*
X37303Y295276D02*
Y298327D01*
X33760Y301870D02*
X37303Y298327D01*
X-98524Y301870D02*
X33760D01*
X-112402Y315748D02*
X-98524Y301870D01*
X-83760Y285728D02*
X270079D01*
X-87303Y289272D02*
X-83760Y285728D01*
X-87303Y289272D02*
Y293898D01*
X270079Y285728D02*
X273524Y289173D01*
X-87598Y294193D02*
X-87303Y293898D01*
X-90059Y281299D02*
X328248D01*
X-92716Y283957D02*
Y294390D01*
Y283957D02*
X-90059Y281299D01*
X273524Y289173D02*
Y295276D01*
X334547Y295079D02*
X334744Y294882D01*
Y287795D02*
Y294882D01*
X328248Y281299D02*
X334744Y287795D01*
X393602Y295276D02*
X393602Y295276D01*
X393602Y287795D02*
Y295276D01*
X-94193Y277264D02*
X383071D01*
X393602Y287795D01*
X-98425Y281496D02*
Y294291D01*
Y281496D02*
X-94193Y277264D01*
X-39764Y297835D02*
X-39176Y297247D01*
X-37008Y295079D02*
X-25689D01*
X-39176Y297247D02*
X-37008Y295079D01*
X-111417Y297835D02*
X-39764D01*
X-117421Y279232D02*
Y291831D01*
X-111417Y297835D01*
X214075Y236516D02*
Y257087D01*
X204232Y266929D02*
X214075Y257087D01*
X-41634Y266929D02*
X204232D01*
X-47933Y273228D02*
X-41634Y266929D01*
X-120866Y273228D02*
X-47933D01*
X-45866Y262008D02*
X144488D01*
X-52658Y268799D02*
X-45866Y262008D01*
X-117815Y268799D02*
X-52658D01*
X144488Y262008D02*
X155413Y251083D01*
X214075Y236516D02*
X214469Y236122D01*
X270768Y227067D02*
X273524Y229823D01*
X-89764Y231594D02*
X-85236Y227067D01*
X270768D01*
X-127461Y257382D02*
Y266634D01*
X-120866Y273228D01*
X155413Y236417D02*
Y251083D01*
X-122421Y257362D02*
Y264193D01*
X-117815Y268799D01*
X96063Y236417D02*
X96358Y236122D01*
X96063Y236417D02*
Y243701D01*
X-6496Y248327D02*
X91437D01*
X96063Y243701D01*
X-43898Y251772D02*
X-9941D01*
X-6496Y248327D01*
X-56791Y264665D02*
X-43898Y251772D01*
X-114370Y264665D02*
X-56791D01*
X20571Y235728D02*
X37303D01*
X12082Y244217D02*
X20571Y235728D01*
X-20399Y244217D02*
X12082D01*
X-23228Y247047D02*
X-20399Y244217D01*
X-102008Y247047D02*
X-23228D01*
X-112421Y257461D02*
X-102008Y247047D01*
X-57087Y243012D02*
X-50984Y236910D01*
X-108071Y243012D02*
X-57087D01*
X-117520Y233563D02*
X-108071Y243012D01*
X-50984Y236910D02*
X-26476D01*
X-117126Y261910D02*
X-114370Y264665D01*
X-117126Y257776D02*
Y261910D01*
X-117421Y257480D02*
X-117126Y257776D01*
X273524Y229823D02*
Y236417D01*
X-89764Y231594D02*
Y238976D01*
X327854Y220669D02*
X334547Y227362D01*
X-90748Y220669D02*
X327854D01*
X-95079Y225000D02*
X-90748Y220669D01*
X-93405Y215846D02*
X384252D01*
X-100886Y223327D02*
X-93405Y215846D01*
X-100886Y223327D02*
Y238976D01*
X-95079Y225000D02*
Y238976D01*
X334547Y227362D02*
Y236122D01*
X384252Y215846D02*
X393602Y225197D01*
Y236122D01*
X-26476Y236910D02*
X-25689Y236122D01*
X-117520Y221457D02*
Y233563D01*
X214469Y177067D02*
Y186909D01*
X200591Y200787D02*
X214469Y186909D01*
X17421Y200787D02*
X200591D01*
X5906Y212303D02*
X17421Y200787D01*
X-127461Y205315D02*
X-120472Y212303D01*
X5906D01*
X-127461Y198917D02*
Y205315D01*
Y198917D02*
X-127421Y198878D01*
X155413Y177461D02*
Y188189D01*
X15157Y195669D02*
X147933D01*
X155413Y188189D01*
X-117615Y207776D02*
X3051D01*
X15157Y195669D01*
X-118307Y206890D02*
Y207084D01*
X-117615Y207776D01*
X-122421Y202776D02*
X-118307Y206890D01*
X-122421Y198839D02*
Y202776D01*
X96161Y177657D02*
Y184646D01*
X90748Y190059D02*
X96161Y184646D01*
X-6201Y190059D02*
X90748D01*
X96161Y177657D02*
X96358Y177461D01*
X-18996Y202854D02*
X-6201Y190059D01*
X-117421Y199114D02*
X-113681Y202854D01*
X-18996D01*
X37303Y177461D02*
Y182480D01*
X33760Y186024D02*
X37303Y182480D01*
X-99409Y186024D02*
X33760D01*
X-112402Y199016D02*
X-99409Y186024D01*
X273524Y176772D02*
X273524Y176772D01*
X273524Y171063D02*
Y176772D01*
X270768Y168307D02*
X273524Y171063D01*
X-86122Y168307D02*
X270768D01*
X-89075Y171260D02*
Y178543D01*
Y171260D02*
X-86122Y168307D01*
X-93504Y168504D02*
X-89075Y164075D01*
X-93504Y168504D02*
Y177953D01*
X-89075Y164075D02*
X331594D01*
X-104724Y181791D02*
X-36516D01*
X-32185Y177461D01*
X-117421Y169095D02*
X-104724Y181791D01*
X334547Y167028D02*
Y177067D01*
X331594Y164075D02*
X334547Y167028D01*
X393602Y169193D02*
Y176772D01*
X384744Y160335D02*
X393602Y169193D01*
X-95669Y160335D02*
X384744D01*
X-99016Y163681D02*
Y177657D01*
Y163681D02*
X-95669Y160335D01*
X-32185Y177461D02*
X-25689D01*
X-117421Y163681D02*
Y169095D01*
X203543Y155020D02*
X214469Y144095D01*
X-119193Y155020D02*
X203543D01*
X-9941Y135236D02*
X-394Y125689D01*
X-104678Y135236D02*
X-9941D01*
X155413Y58957D02*
Y64665D01*
X151575Y68504D02*
X155413Y64665D01*
X73327Y68504D02*
X151575D01*
X214665Y59449D02*
Y67126D01*
X209350Y72441D02*
X214665Y67126D01*
X79429Y72441D02*
X209350D01*
X37303Y118110D02*
Y121161D01*
X32776Y125689D02*
X37303Y121161D01*
X-394Y125689D02*
X32776D01*
X96358Y118110D02*
Y134449D01*
X86122Y144685D02*
X96358Y134449D01*
X-102067Y144685D02*
X86122D01*
X154921Y118209D02*
Y138779D01*
X142323Y151378D02*
X154921Y138779D01*
X-117224Y151378D02*
X142323D01*
X214469Y118110D02*
Y144095D01*
X-127461Y143012D02*
Y146752D01*
X-119193Y155020D01*
X-122319Y146283D02*
X-117224Y151378D01*
X154921Y118209D02*
X155413Y117717D01*
X-122441Y143012D02*
X-122319Y143134D01*
Y146283D01*
X-105020Y147638D02*
X-102067Y144685D01*
X-116043Y147638D02*
X-105020D01*
X-117421Y146260D02*
X-116043Y147638D01*
X-117421Y143012D02*
Y146260D01*
X-112538Y143097D02*
X-104678Y135236D01*
X-101575Y90551D02*
X10138D01*
X-107382Y96358D02*
X-101575Y90551D01*
X-116732Y96358D02*
X-107382D01*
X10138Y90551D02*
X15256Y85433D01*
X-122441Y90650D02*
X-116732Y96358D01*
X13386Y94488D02*
X18406Y89468D01*
X-99114Y94488D02*
X13386D01*
X-104823Y100197D02*
X-99114Y94488D01*
X-117717Y100197D02*
X-104823D01*
X-127461Y90453D02*
X-117717Y100197D01*
X-76772Y100689D02*
X373917D01*
X-98721Y122638D02*
X-76772Y100689D01*
X-98721Y122638D02*
Y125000D01*
X-73819Y105905D02*
X314862D01*
X-92913Y125000D02*
X-73819Y105905D01*
X-68996Y109646D02*
X258071D01*
X-84547Y125197D02*
X-68996Y109646D01*
X-88386Y125197D02*
X-84547D01*
X258071Y109646D02*
X265650Y117224D01*
X314862Y105905D02*
X327461Y118504D01*
X373917Y100689D02*
X391339Y118110D01*
X-127461Y87894D02*
Y90453D01*
X-122441Y87795D02*
Y90650D01*
X-103347Y85925D02*
X5217D01*
X-110010Y92589D02*
X-103347Y85925D01*
X-117421Y87894D02*
X-112726Y92589D01*
X-110010D01*
X-21654Y81890D02*
X-7382Y67618D01*
X-106398Y81890D02*
X-21654D01*
X-112402Y87894D02*
X-106398Y81890D01*
X265650Y117224D02*
Y117418D01*
X266341Y118110D02*
X273524D01*
X265650Y117418D02*
X266341Y118110D01*
X327461Y118504D02*
X334547D01*
X391339Y118110D02*
X397736D01*
X73524Y59449D02*
X96358D01*
X51925Y81047D02*
X73524Y59449D01*
X10095Y81047D02*
X51925D01*
X56398Y85433D02*
X73327Y68504D01*
X15256Y85433D02*
X56398D01*
X62402Y89468D02*
X79429Y72441D01*
X18406Y89468D02*
X62402D01*
X-25984Y118012D02*
X-25689Y118307D01*
X-30610Y118012D02*
X-25984D01*
X-107972Y130217D02*
X-42815D01*
X-30610Y118012D01*
X-117421Y107776D02*
Y120768D01*
X-107972Y130217D01*
X5217Y85925D02*
X10095Y81047D01*
X214469Y59252D02*
X214665Y59449D01*
X37008Y58661D02*
X37303Y58957D01*
X28346Y58661D02*
X37008D01*
X-7382Y67618D02*
X19390D01*
X28346Y58661D01*
X37303Y0D02*
Y4724D01*
X-2953Y10335D02*
X31693D01*
X37303Y4724D01*
X-16732Y24114D02*
X-2953Y10335D01*
X-50492Y24114D02*
X-16732D01*
X-112421Y35217D02*
X-61594D01*
X-50492Y24114D01*
X-117421Y39272D02*
X-116043Y40650D01*
X-117421Y35039D02*
Y39272D01*
X-60630Y40650D02*
X-48524Y28543D01*
X-116043Y40650D02*
X-60630D01*
X-48524Y28543D02*
X67815D01*
X96358Y0D02*
Y1083D01*
X95276Y2165D02*
X96358Y1083D01*
X94193Y2165D02*
X95276D01*
X67815Y28543D02*
X94193Y2165D01*
X155413Y0D02*
X155512Y98D01*
Y23425D01*
X-46260Y32972D02*
X145965D01*
X155512Y23425D01*
X-118602Y44390D02*
X-57677D01*
X-46260Y32972D01*
X-122421Y35217D02*
Y40571D01*
X-118602Y44390D01*
X214075Y394D02*
X214469Y0D01*
X214075Y394D02*
Y27559D01*
X-44193Y37894D02*
X203740D01*
X214075Y27559D01*
X-54035Y47736D02*
X-44193Y37894D01*
X-127461Y41831D02*
X-121555Y47736D01*
X-54035D01*
X-127461Y35335D02*
Y41831D01*
X-31299Y20571D02*
X-25492Y14764D01*
X-115453Y20571D02*
X-31299D01*
X-117421Y18602D02*
X-115453Y20571D01*
X-39272Y42028D02*
X388090D01*
X-55807Y58563D02*
X-39272Y42028D01*
X-89961Y58563D02*
X-55807D01*
X-34744Y46555D02*
X332382D01*
X-52559Y64370D02*
X-34744Y46555D01*
X-88779Y64370D02*
X-52559D01*
X-31693Y50984D02*
X271850D01*
X-51772Y71063D02*
X-31693Y50984D01*
X-86516Y71063D02*
X-51772D01*
X388090Y42028D02*
X393406Y47343D01*
X332382Y46555D02*
X334646Y48819D01*
X271850Y50984D02*
X273524Y52658D01*
X-97638Y66240D02*
X-89961Y58563D01*
X-91535Y67126D02*
X-88779Y64370D01*
X-91535Y67126D02*
Y70472D01*
X-97638Y66240D02*
Y70768D01*
X273524Y52658D02*
Y58760D01*
X393406Y47343D02*
Y58957D01*
X334547Y58760D02*
X334646Y58661D01*
Y48819D02*
Y58661D01*
X393406Y58957D02*
X393602Y59153D01*
X-25886Y59153D02*
X-25689Y58957D01*
X-25886Y59153D02*
Y67716D01*
X-34154Y75984D02*
X-25886Y67716D01*
X-108858Y75984D02*
X-34154D01*
X-117421Y67421D02*
X-108858Y75984D01*
X-117421Y53937D02*
Y67421D01*
X271555Y-7579D02*
X273524Y-5610D01*
Y-295D01*
X-79724Y-7579D02*
X271555D01*
X-82087Y-11516D02*
X331201D01*
X334547Y-8169D01*
Y0D01*
X-87992Y689D02*
Y15256D01*
Y689D02*
X-79724Y-7579D01*
X-92716Y-886D02*
Y15354D01*
Y-886D02*
X-82087Y-11516D01*
X-97736Y-4134D02*
Y15256D01*
Y-4134D02*
X-86910Y-14961D01*
X388878D01*
X393602Y-10236D02*
Y0D01*
X388878Y-14961D02*
X393602Y-10236D01*
X-25689Y394D02*
X-25492Y591D01*
Y14764D01*
X-117421Y1181D02*
Y18602D01*
X-147293Y279774D02*
X-147244Y321161D01*
X-147343Y279724D02*
X-147293Y279774D01*
X-147638Y984D02*
Y40256D01*
Y984D02*
X-147441Y787D01*
X-147343Y95276D02*
Y96358D01*
X-147392Y95226D02*
X-147343Y95276D01*
X-147392Y53199D02*
Y95226D01*
X-147421Y153622D02*
X-147146Y153347D01*
X-147421D02*
Y153622D01*
Y108071D02*
Y153347D01*
X-147146D01*
X-147539D02*
X-147421D01*
X-88091Y413681D02*
X-81496Y407087D01*
X-199311Y413681D02*
X-88091D01*
X-205906Y407087D02*
X-199311Y413681D01*
X-127264Y-1575D02*
Y1181D01*
X-129528Y-3839D02*
X-127264Y-1575D01*
X-162697Y-3839D02*
X-129528D01*
X-175591Y9055D02*
X-162697Y-3839D01*
X-147529Y332215D02*
X-147421Y332106D01*
X-147638Y375787D02*
X-147529Y332215D01*
X-147539Y221752D02*
X-147441Y221654D01*
X-147638Y268406D02*
X-147539Y221752D01*
X-147539Y164370D02*
X-147441Y164272D01*
X-147638Y207972D02*
X-147539Y164370D01*
X-147441Y53150D02*
X-147392Y53199D01*
X-127559Y385827D02*
X-87008D01*
X-80709Y392126D01*
X-119783Y402362D02*
X-81496D01*
X-132382Y389764D02*
X-119783Y402362D01*
X-205906Y388583D02*
Y407087D01*
X-132382Y163386D02*
Y221654D01*
Y389764D02*
Y401279D01*
X-139764Y408661D02*
X-132382Y401279D01*
X-185433Y408661D02*
X-139764D01*
X-137402Y163386D02*
Y221654D01*
Y389764D02*
Y399213D01*
X-142126Y403937D02*
X-137402Y399213D01*
X-190551Y403937D02*
X-142126D01*
X-205906Y294488D02*
Y388583D01*
X-190551Y403937D01*
X-217402Y282992D02*
X-205906Y294488D01*
X-233307Y282992D02*
X-217402D01*
X-137402Y787D02*
Y53543D01*
Y107480D01*
Y163386D01*
Y221654D02*
Y279921D01*
Y331496D01*
Y389764D01*
X-241732Y97244D02*
X-175591Y31102D01*
X-241732Y259842D02*
X-241732Y97244D01*
X-241732Y259842D02*
X-238583Y262992D01*
X-233307D01*
X-175591Y9055D02*
Y31102D01*
X-132382Y787D02*
Y53543D01*
Y107480D01*
Y163386D01*
Y221654D02*
Y279921D01*
X-246063Y348425D02*
X-242126Y352362D01*
X-246063Y348425D02*
X-246063Y55512D01*
X-205512Y14961D01*
X-233937Y352362D02*
X-233307Y352992D01*
X-242126Y352362D02*
X-233937D01*
X-233701Y362598D02*
X-233307Y362992D01*
X-242913Y362598D02*
X-233701D01*
X-265118Y133858D02*
Y340394D01*
X-242913Y362598D01*
X-249055Y372992D02*
X-233307D01*
X-275118Y346929D02*
X-249055Y372992D01*
X-275118Y133858D02*
Y346929D01*
D43*
X-293307Y412992D02*
D03*
Y402992D02*
D03*
Y392992D02*
D03*
Y382992D02*
D03*
Y372992D02*
D03*
Y362992D02*
D03*
Y352992D02*
D03*
Y342992D02*
D03*
Y332992D02*
D03*
Y322992D02*
D03*
Y312992D02*
D03*
Y302992D02*
D03*
Y292992D02*
D03*
Y282992D02*
D03*
Y272992D02*
D03*
Y262992D02*
D03*
Y252992D02*
D03*
Y242992D02*
D03*
Y232992D02*
D03*
Y222992D02*
D03*
X-233307D02*
D03*
Y232992D02*
D03*
Y242992D02*
D03*
Y252992D02*
D03*
Y262992D02*
D03*
Y272992D02*
D03*
Y282992D02*
D03*
Y292992D02*
D03*
Y302992D02*
D03*
Y312992D02*
D03*
Y322992D02*
D03*
Y332992D02*
D03*
Y342992D02*
D03*
Y352992D02*
D03*
Y362992D02*
D03*
Y372992D02*
D03*
Y382992D02*
D03*
Y392992D02*
D03*
Y402992D02*
D03*
Y412992D02*
D03*
X-305118Y133858D02*
D03*
X-295118D02*
D03*
X-285118D02*
D03*
X-275118D02*
D03*
X-265118D02*
D03*
X-255118D02*
D03*
D44*
X-185827Y14961D02*
D03*
X-205512D02*
D03*
X-225197D02*
D03*
D45*
X-302461Y160630D02*
D03*
Y191732D02*
D03*
D46*
X413386Y118110D02*
D03*
X177165D02*
D03*
X0Y0D02*
D03*
X59055D02*
D03*
X118110D02*
D03*
X177165D02*
D03*
X236221D02*
D03*
X295276D02*
D03*
X354331D02*
D03*
X413386D02*
D03*
X118110Y295276D02*
D03*
X236221Y354331D02*
D03*
X59055D02*
D03*
X0Y433071D02*
D03*
Y374016D02*
D03*
Y314961D02*
D03*
Y255906D02*
D03*
Y196850D02*
D03*
Y137795D02*
D03*
Y78740D02*
D03*
Y19685D02*
D03*
Y413386D02*
D03*
X413386D02*
D03*
X354331D02*
D03*
X295276D02*
D03*
X236221D02*
D03*
X177165D02*
D03*
X118110D02*
D03*
X59055D02*
D03*
X0Y354331D02*
D03*
X413386D02*
D03*
X354331D02*
D03*
X295276Y354232D02*
D03*
X177165Y354331D02*
D03*
X118110D02*
D03*
X0Y295276D02*
D03*
X413386D02*
D03*
X354331D02*
D03*
X295276D02*
D03*
X236221D02*
D03*
X177165D02*
D03*
X59055D02*
D03*
X0Y236221D02*
D03*
X413386D02*
D03*
X354331D02*
D03*
X295276D02*
D03*
X236221D02*
D03*
X177165D02*
D03*
X118110D02*
D03*
X59055D02*
D03*
X0Y177165D02*
D03*
X413386D02*
D03*
X354331D02*
D03*
X295276D02*
D03*
X236221D02*
D03*
X177165D02*
D03*
X118110D02*
D03*
X59055D02*
D03*
X0Y118110D02*
D03*
X354331D02*
D03*
X295276D02*
D03*
X236221D02*
D03*
X118110D02*
D03*
X59055D02*
D03*
X0Y59055D02*
D03*
X413386D02*
D03*
X354331D02*
D03*
X295276D02*
D03*
X236221D02*
D03*
X177165D02*
D03*
X118110D02*
D03*
X59055D02*
D03*
D47*
X-117274Y391092D02*
D03*
X-88976Y349114D02*
D03*
X-93405Y349016D02*
D03*
X-98819Y348622D02*
D03*
X-87598Y294193D02*
D03*
X-92716Y294390D02*
D03*
X-98425Y294291D02*
D03*
X-89764Y238976D02*
D03*
X-95079D02*
D03*
X-100886D02*
D03*
X-89075Y178543D02*
D03*
X-93504Y177953D02*
D03*
X-99016Y177657D02*
D03*
X-88386Y125197D02*
D03*
X-92913Y125000D02*
D03*
X-98721D02*
D03*
X-112411Y424498D02*
D03*
X-117421Y424508D02*
D03*
X-122421Y424685D02*
D03*
X-127421Y424744D02*
D03*
X-132421Y424567D02*
D03*
X-137421Y424685D02*
D03*
X-142421Y424409D02*
D03*
X-112402Y367224D02*
D03*
X-117421Y366831D02*
D03*
X-122343Y366929D02*
D03*
X-127421Y366673D02*
D03*
X-117421Y331594D02*
D03*
X-112402Y315748D02*
D03*
X-117421Y315551D02*
D03*
X-122343Y315354D02*
D03*
X-127421Y315650D02*
D03*
X-117421Y279232D02*
D03*
X-112421Y257461D02*
D03*
X-117421Y257480D02*
D03*
X-122421Y257362D02*
D03*
X-127461Y257382D02*
D03*
X-117520Y221457D02*
D03*
X-112402Y199016D02*
D03*
X-117421Y199114D02*
D03*
X-122421Y198839D02*
D03*
X-127421Y198878D02*
D03*
X-117421Y163681D02*
D03*
X-112538Y143097D02*
D03*
X-117421Y143012D02*
D03*
X-122441D02*
D03*
X-127461D02*
D03*
X-117421Y107776D02*
D03*
X-112402Y87894D02*
D03*
X-117421D02*
D03*
X-122441Y87795D02*
D03*
X-127461Y87894D02*
D03*
X-117421Y53937D02*
D03*
X-86516Y71063D02*
D03*
X-91535Y70472D02*
D03*
X-97638Y70768D02*
D03*
X-112421Y35217D02*
D03*
X-117421Y35039D02*
D03*
X-122421Y35217D02*
D03*
X-127461Y35335D02*
D03*
X-87992Y15256D02*
D03*
X-92716Y15354D02*
D03*
X-97736Y15256D02*
D03*
X-117421Y1181D02*
D03*
X-147244Y321161D02*
D03*
X-147343Y279724D02*
D03*
X-147441Y164272D02*
D03*
X-147638Y207972D02*
D03*
Y40256D02*
D03*
X-147441Y787D02*
D03*
Y53150D02*
D03*
X-147343Y96358D02*
D03*
X-147421Y108071D02*
D03*
X-147539Y153347D02*
D03*
X-147441Y221654D02*
D03*
X-147638Y268406D02*
D03*
X-147421Y332106D02*
D03*
X-147638Y375787D02*
D03*
X-80709Y392126D02*
D03*
X-127559Y385827D02*
D03*
X-185433Y408661D02*
D03*
X-81496Y407087D02*
D03*
X-137402Y787D02*
D03*
Y53543D02*
D03*
Y107480D02*
D03*
Y163386D02*
D03*
Y221654D02*
D03*
Y279921D02*
D03*
Y331496D02*
D03*
Y389764D02*
D03*
X-81496Y402362D02*
D03*
X-132382Y787D02*
D03*
Y53543D02*
D03*
Y107480D02*
D03*
Y163386D02*
D03*
Y221654D02*
D03*
Y279921D02*
D03*
Y331496D02*
D03*
Y389764D02*
D03*
X-127264Y1181D02*
D03*
D48*
X433071Y437008D02*
D03*
Y-5906D02*
D03*
X-299213D02*
D03*
Y437008D02*
D03*
D49*
X-25689Y354429D02*
D03*
X-17618D02*
D03*
X-25689Y177461D02*
D03*
X-17618D02*
D03*
X-25689Y394D02*
D03*
X-17618D02*
D03*
X37303Y354429D02*
D03*
X45374D02*
D03*
X37303Y177461D02*
D03*
X45374D02*
D03*
X37303Y0D02*
D03*
X45374D02*
D03*
X96358Y354429D02*
D03*
X104429D02*
D03*
X96358Y177461D02*
D03*
X104429D02*
D03*
X96358Y0D02*
D03*
X104429D02*
D03*
X155413Y354035D02*
D03*
X163484D02*
D03*
X155413Y177461D02*
D03*
X163484D02*
D03*
X155413Y0D02*
D03*
X163484D02*
D03*
X214469Y354035D02*
D03*
X222539D02*
D03*
X214469Y177067D02*
D03*
X222539D02*
D03*
X214469Y0D02*
D03*
X222539D02*
D03*
X273524Y354331D02*
D03*
X281594D02*
D03*
X273524Y176772D02*
D03*
X281594D02*
D03*
X273524Y-295D02*
D03*
X281594D02*
D03*
X334547Y354429D02*
D03*
X342618D02*
D03*
X334547Y177067D02*
D03*
X342618D02*
D03*
X334547Y0D02*
D03*
X342618D02*
D03*
X393602Y354429D02*
D03*
X401673D02*
D03*
X393602Y176772D02*
D03*
X401673D02*
D03*
X393602Y0D02*
D03*
X401673D02*
D03*
X-25689Y58957D02*
D03*
X-17618D02*
D03*
X-25689Y413189D02*
D03*
X-17618D02*
D03*
X-25689Y236122D02*
D03*
X-17618D02*
D03*
X37303Y58957D02*
D03*
X45374D02*
D03*
X37303Y413189D02*
D03*
X45374D02*
D03*
X37303Y235728D02*
D03*
X45374D02*
D03*
X96358Y59449D02*
D03*
X104429D02*
D03*
X96358Y413386D02*
D03*
X104429D02*
D03*
X96358Y236122D02*
D03*
X104429D02*
D03*
X155413Y58957D02*
D03*
X163484D02*
D03*
X155413Y413287D02*
D03*
X163484D02*
D03*
X155413Y236417D02*
D03*
X163484D02*
D03*
X214469Y59252D02*
D03*
X222539D02*
D03*
X214469Y413484D02*
D03*
X222539D02*
D03*
X214469Y236122D02*
D03*
X222539D02*
D03*
X273524Y58760D02*
D03*
X281594D02*
D03*
X273524Y413091D02*
D03*
X281594D02*
D03*
X273524Y236417D02*
D03*
X281594D02*
D03*
X334547Y58760D02*
D03*
X342618D02*
D03*
X334547Y412992D02*
D03*
X342618D02*
D03*
X334547Y236122D02*
D03*
X342618D02*
D03*
X393602Y59153D02*
D03*
X401673D02*
D03*
X393602Y412992D02*
D03*
X401673D02*
D03*
X393602Y236122D02*
D03*
X401673D02*
D03*
X-25689Y295079D02*
D03*
X-17618D02*
D03*
X-25689Y118307D02*
D03*
X-17618D02*
D03*
X37303Y295276D02*
D03*
X45374D02*
D03*
X37303Y118110D02*
D03*
X45374D02*
D03*
X96358Y295079D02*
D03*
X104429D02*
D03*
X96358Y118110D02*
D03*
X104429D02*
D03*
X155413Y295177D02*
D03*
X163484D02*
D03*
X155413Y117717D02*
D03*
X163484D02*
D03*
X214469Y295276D02*
D03*
X222539D02*
D03*
X214469Y118110D02*
D03*
X222539D02*
D03*
X273524Y295276D02*
D03*
X281594D02*
D03*
X273524Y118110D02*
D03*
X281594D02*
D03*
X334547Y295079D02*
D03*
X342618D02*
D03*
X334547Y118504D02*
D03*
X342618D02*
D03*
X393602Y295276D02*
D03*
X401673D02*
D03*
X394587Y118110D02*
D03*
X402658D02*
D03*
M02*
