M48
;Layer_Color=9474304
;FILE_FORMAT=2:4
INCH,TZ
;TYPE=PLATED
T1F00S00C0.0118
T2F00S00C0.0354
T3F00S00C0.0394
T4F00S00C0.0591
T5F00S00C0.1496
;TYPE=NON_PLATED
T6F00S00C0.0512
T7F00S00C0.1496
T8F00S00C0.1969
%
T01
X-14744Y79
X-13740
X-13238
X-12726Y118
X-11742
X-9774Y1526
X-9272Y1535
X-8799Y1526
X-11242Y3522
X-11742Y3504
X-12242Y3522
X-12746Y3533
X-13238Y5354
X-13740
X-14744Y5315
X-14764Y4026
X-11742Y5394
Y8789
X-11240
X-12244Y8780
X-12746Y8789
X-13238Y10748
X-13740
X-14742Y10807
X-14734Y9636
X-11742Y10778
Y14301
X-11254Y14310
X-12244Y14301
X-12746
X-13238Y16339
X-13740
X-14744Y16427
X-14754Y15335
X-11742Y16368
X-9902Y17766
X-9350Y17795
X-8907Y17854
X-8839Y12520
X-9291Y12500
X-9872
X-9764Y7077
X-9154Y7047
X-8652Y7106
X-11240Y19902
X-11742Y19911
X-12242Y19884
X-12742Y19888
X-13238Y22165
X-13740
X-14744
X-14764Y20797
X-11752Y22146
X-10089Y23898
X-9508
X-8976
X-11242Y25746
X-11742Y25748
X-12242Y25736
X-12746Y25738
X-13238Y27992
X-13740
X-14734Y27972
X-14764Y26841
X-11742Y27923
X-9843Y29429
X-9272Y29439
X-8760Y29419
X-11240Y31575
X-11742Y31555
X-12234Y31535
X-12742Y31565
X-13238Y33150
X-13740
X-14742Y33211
X-14724Y32116
X-11742Y33159
Y36683
X-12234Y36693
X-12742Y36667
X-11240Y36722
X-11727Y39109
X-12756Y38583
X-13238Y38976
X-13740
X-14764Y37579
X-14242Y42441
X-13742Y42469
X-13242Y42457
X-12742Y42474
X-12242Y42469
X-11742Y42451
X-11241Y42450
X-8150Y40709
Y40236
X-8071Y39213
X-8898Y34911
X-9341Y34902
X-9882Y34862
X-18543Y40866
T02
X0Y0
Y1969
X5906Y0
X11811
X17717
X23622
X29528
X35433
X41339
Y5906
Y11811
Y17717
X35433
Y11811
X29528
Y17717
Y5906
X35433
X23622
Y11811
Y17717
X17717
Y11811
X11811
Y17717
Y5906
X17717
X5906
Y11811
Y17717
X0
Y13780
Y11811
Y7874
Y5906
Y19685
Y23622
Y25591
Y29528
Y31496
X5906Y29528
Y23622
X11811
X17717
Y29528
X11811
X23622
Y23622
X29528
Y29528
X35433
X41339
Y23622
X35433
Y35433
Y41339
X41339
Y35433
X29528Y35423
Y41339
X23622
Y35433
X17717
X11811
Y41339
X17717
X5906
Y35433
X0
Y37402
Y41339
Y43307
T03
X-30512Y13386
X-29512
X-28512
X-27512
X-26512
X-25512
X-23331Y22299
Y23299
Y24299
Y25299
Y26299
Y27299
Y28299
Y29299
Y30299
Y31299
Y32299
Y33299
Y34299
X-29331
Y33299
Y32299
Y31299
Y30299
Y29299
Y28299
Y27299
Y26299
Y25299
Y24299
Y23299
Y22299
Y35299
Y36299
Y37299
Y38299
Y39299
Y40299
Y41299
X-23331
Y40299
Y39299
Y38299
Y37299
Y36299
Y35299
T04
X-22520Y1496
X-20551
X-18583
T05
X-29921Y-591
T06
X-30246Y16063
Y19173
T07
X43307Y-591
Y43701
X-29921
T08
X31496Y1575
X37402
Y7480
X31496
Y13386
X37402
Y19291
Y25197
X31496
Y19291
Y31102
X37402
Y37008
X31496
Y42913
X37402
M30
