G04*
G04 #@! TF.GenerationSoftware,Altium Limited,Altium Designer,20.1.7 (139)*
G04*
G04 Layer_Color=8421504*
%FSLAX44Y44*%
%MOMM*%
G71*
G04*
G04 #@! TF.SameCoordinates,EFB5D3D7-55B5-4037-8E01-90247DCDA2F6*
G04*
G04*
G04 #@! TF.FilePolarity,Positive*
G04*
G01*
G75*
%ADD14R,0.6000X0.9500*%
%ADD15O,1.3500X0.6000*%
%ADD16R,1.4000X0.9000*%
%ADD17O,0.6000X1.3500*%
%ADD18R,1.3800X0.4500*%
%ADD19R,2.1000X1.4750*%
%ADD20R,0.9000X1.4000*%
%ADD21R,2.1500X0.9000*%
%ADD22R,2.1500X3.2000*%
%ADD23R,1.4000X0.8500*%
D14*
X-75500Y24750D02*
D03*
X-56500D02*
D03*
X-66000Y49250D02*
D03*
X-75500Y925750D02*
D03*
X-56500D02*
D03*
X-66000Y950250D02*
D03*
X-75500Y175750D02*
D03*
X-56500D02*
D03*
X-66000Y200250D02*
D03*
X-75500Y333750D02*
D03*
X-56500D02*
D03*
X-66000Y358250D02*
D03*
X-75500Y500750D02*
D03*
X-56500D02*
D03*
X-66000Y525250D02*
D03*
X-75500Y640750D02*
D03*
X-56500D02*
D03*
X-66000Y665250D02*
D03*
X-75500Y785750D02*
D03*
X-56500D02*
D03*
X-66000Y810250D02*
D03*
X-75500Y1073750D02*
D03*
X-56500D02*
D03*
X-66000Y1098250D02*
D03*
D15*
X-136250Y970550D02*
D03*
Y983250D02*
D03*
Y995950D02*
D03*
Y1008650D02*
D03*
Y1021350D02*
D03*
Y1034050D02*
D03*
Y1046750D02*
D03*
Y1059450D02*
D03*
X-191750Y970550D02*
D03*
Y983250D02*
D03*
Y995950D02*
D03*
Y1008650D02*
D03*
Y1021350D02*
D03*
Y1034050D02*
D03*
Y1046750D02*
D03*
Y1059450D02*
D03*
D16*
X-400000Y744500D02*
D03*
Y765500D02*
D03*
Y600500D02*
D03*
Y621500D02*
D03*
Y308500D02*
D03*
Y329500D02*
D03*
Y170500D02*
D03*
Y191500D02*
D03*
Y1019500D02*
D03*
Y1040500D02*
D03*
Y29500D02*
D03*
Y50500D02*
D03*
Y876500D02*
D03*
Y897500D02*
D03*
Y451500D02*
D03*
Y472500D02*
D03*
X-700000Y625500D02*
D03*
Y604500D02*
D03*
X-542000Y402500D02*
D03*
Y423500D02*
D03*
X-678000Y451500D02*
D03*
Y430500D02*
D03*
D17*
X-285550Y782750D02*
D03*
X-298250D02*
D03*
X-310950D02*
D03*
X-323650D02*
D03*
X-336350D02*
D03*
X-349050D02*
D03*
X-361750D02*
D03*
X-374450D02*
D03*
X-285550Y727250D02*
D03*
X-298250D02*
D03*
X-310950D02*
D03*
X-323650D02*
D03*
X-336350D02*
D03*
X-349050D02*
D03*
X-361750D02*
D03*
X-374450D02*
D03*
X-285550Y1061750D02*
D03*
X-298250D02*
D03*
X-310950D02*
D03*
X-323650D02*
D03*
X-336350D02*
D03*
X-349050D02*
D03*
X-361750D02*
D03*
X-374450D02*
D03*
X-285550Y1006250D02*
D03*
X-298250D02*
D03*
X-310950D02*
D03*
X-323650D02*
D03*
X-336350D02*
D03*
X-349050D02*
D03*
X-361750D02*
D03*
X-374450D02*
D03*
X-285550Y72750D02*
D03*
X-298250D02*
D03*
X-310950D02*
D03*
X-323650D02*
D03*
X-336350D02*
D03*
X-349050D02*
D03*
X-361750D02*
D03*
X-374450D02*
D03*
X-285550Y17250D02*
D03*
X-298250D02*
D03*
X-310950D02*
D03*
X-323650D02*
D03*
X-336350D02*
D03*
X-349050D02*
D03*
X-361750D02*
D03*
X-374450D02*
D03*
X-285550Y913750D02*
D03*
X-298250D02*
D03*
X-310950D02*
D03*
X-323650D02*
D03*
X-336350D02*
D03*
X-349050D02*
D03*
X-361750D02*
D03*
X-374450D02*
D03*
X-285550Y858250D02*
D03*
X-298250D02*
D03*
X-310950D02*
D03*
X-323650D02*
D03*
X-336350D02*
D03*
X-349050D02*
D03*
X-361750D02*
D03*
X-374450D02*
D03*
X-285550Y487750D02*
D03*
X-298250D02*
D03*
X-310950D02*
D03*
X-323650D02*
D03*
X-336350D02*
D03*
X-349050D02*
D03*
X-361750D02*
D03*
X-374450D02*
D03*
X-285550Y432250D02*
D03*
X-298250D02*
D03*
X-310950D02*
D03*
X-323650D02*
D03*
X-336350D02*
D03*
X-349050D02*
D03*
X-361750D02*
D03*
X-374450D02*
D03*
X-285550Y207750D02*
D03*
X-298250D02*
D03*
X-310950D02*
D03*
X-323650D02*
D03*
X-336350D02*
D03*
X-349050D02*
D03*
X-361750D02*
D03*
X-374450D02*
D03*
X-285550Y152250D02*
D03*
X-298250D02*
D03*
X-310950D02*
D03*
X-323650D02*
D03*
X-336350D02*
D03*
X-349050D02*
D03*
X-361750D02*
D03*
X-374450D02*
D03*
X-285550Y345500D02*
D03*
X-298250D02*
D03*
X-310950D02*
D03*
X-323650D02*
D03*
X-336350D02*
D03*
X-349050D02*
D03*
X-361750D02*
D03*
X-374450D02*
D03*
X-285550Y290000D02*
D03*
X-298250D02*
D03*
X-310950D02*
D03*
X-323650D02*
D03*
X-336350D02*
D03*
X-349050D02*
D03*
X-361750D02*
D03*
X-374450D02*
D03*
X-285550Y634500D02*
D03*
X-298250D02*
D03*
X-310950D02*
D03*
X-323650D02*
D03*
X-336350D02*
D03*
X-349050D02*
D03*
X-361750D02*
D03*
X-374450D02*
D03*
X-285550Y579000D02*
D03*
X-298250D02*
D03*
X-310950D02*
D03*
X-323650D02*
D03*
X-336350D02*
D03*
X-349050D02*
D03*
X-361750D02*
D03*
X-374450D02*
D03*
D18*
X-741000Y447500D02*
D03*
Y454000D02*
D03*
Y441000D02*
D03*
Y434500D02*
D03*
Y460500D02*
D03*
D19*
X-744500Y472250D02*
D03*
Y422750D02*
D03*
D20*
X-172000Y1087000D02*
D03*
X-151000D02*
D03*
X-746500Y265000D02*
D03*
X-725500D02*
D03*
D21*
X-545250Y343000D02*
D03*
Y320000D02*
D03*
Y297000D02*
D03*
D22*
X-486750Y320000D02*
D03*
D23*
X-584000Y423250D02*
D03*
Y402750D02*
D03*
X-585000Y319750D02*
D03*
Y340250D02*
D03*
M02*
