%FSTAX23Y23*%
%MOIN*%
%SFA1B1*%

%IPPOS*%
%ADD50C,0.003937*%
%ADD51C,0.001969*%
%LNpcb1-1*%
%LPD*%
G54D50*
X02775Y04111D02*
Y0415D01*
X02755Y0413D02*
X02795D01*
X-00259Y00125D02*
Y00165D01*
X-00279Y00145D02*
X-0024D01*
X-00259Y03673D02*
Y03712D01*
X-00279Y03692D02*
X-0024D01*
X-00259Y0072D02*
Y00759D01*
X-00279Y0074D02*
X-0024D01*
X-00259Y01342D02*
Y01381D01*
X-00279Y01362D02*
X-0024D01*
X-00259Y02D02*
Y02039D01*
X-00279Y02019D02*
X-0024D01*
X-00259Y02551D02*
Y0259D01*
X-00279Y0257D02*
X-0024D01*
X-00259Y03122D02*
Y03161D01*
X-00279Y03141D02*
X-0024D01*
X-00259Y04255D02*
Y04295D01*
X-00279Y04275D02*
X-0024D01*
X-00665Y03996D02*
X-00625D01*
X-00645Y03976D02*
Y04015D01*
X00984Y0D02*
X01023D01*
X01003Y-00019D02*
Y00019D01*
X03956Y0D02*
X03996D01*
X03976Y-00019D02*
Y00019D01*
X-00236Y00003D02*
X-00196D01*
X-00216Y-00015D02*
Y00023D01*
X00393Y0D02*
X00433D01*
X00413Y-00019D02*
Y00019D01*
X01574Y0D02*
X01614D01*
X01594Y-00019D02*
Y00019D01*
X02165Y0D02*
X02204D01*
X02185Y-00019D02*
Y00019D01*
X02755Y-00002D02*
X02795D01*
X02775Y-00022D02*
Y00016D01*
X03366Y0D02*
X03405D01*
X03385Y-00019D02*
Y00019D01*
X00393Y00589D02*
X00433D01*
X00413Y00569D02*
Y00609D01*
X03366Y00587D02*
X03405D01*
X03385Y00567D02*
Y00607D01*
X00984Y00594D02*
X01023D01*
X01003Y00574D02*
Y00614D01*
X01574Y00589D02*
X01614D01*
X01594Y00569D02*
Y00609D01*
X02165Y00592D02*
X02204D01*
X02185Y00572D02*
Y00612D01*
X02755Y00587D02*
X02795D01*
X02775Y00567D02*
Y00607D01*
X-00236Y00589D02*
X-00196D01*
X-00216Y00569D02*
Y00609D01*
X03956Y00591D02*
X03996D01*
X03976Y00571D02*
Y00611D01*
X-00236Y01183D02*
X-00196D01*
X-00216Y01163D02*
Y01202D01*
X00393Y01181D02*
X00433D01*
X00413Y01161D02*
Y012D01*
X00984Y01181D02*
X01023D01*
X01003Y01161D02*
Y012D01*
X01574Y01177D02*
X01614D01*
X01594Y01157D02*
Y01196D01*
X02165Y01181D02*
X02204D01*
X02185Y01161D02*
Y012D01*
X02755Y01181D02*
X02795D01*
X02775Y01161D02*
Y012D01*
X03366Y01185D02*
X03405D01*
X03385Y01165D02*
Y01204D01*
X03998Y01181D02*
X04037D01*
X04017Y01161D02*
Y012D01*
X02755Y01767D02*
X02795D01*
X02775Y01748D02*
Y01787D01*
X00393Y01774D02*
X00433D01*
X00413Y01754D02*
Y01794D01*
X01574Y01774D02*
X01614D01*
X01594Y01754D02*
Y01794D01*
X03366Y0177D02*
X03405D01*
X03385Y0175D02*
Y0179D01*
X03956Y01767D02*
X03996D01*
X03976Y01748D02*
Y01787D01*
X-00236Y01774D02*
X-00196D01*
X-00216Y01754D02*
Y01794D01*
X00984Y01774D02*
X01023D01*
X01003Y01754D02*
Y01794D01*
X02165Y0177D02*
X02204D01*
X02185Y0175D02*
Y0179D01*
X-00236Y02361D02*
X-00196D01*
X-00216Y02341D02*
Y0238D01*
X00393Y02357D02*
X00433D01*
X00413Y02337D02*
Y02376D01*
X00984Y02361D02*
X01023D01*
X01003Y02341D02*
Y0238D01*
X01574Y02364D02*
X01614D01*
X01594Y02344D02*
Y02383D01*
X02165Y02361D02*
X02204D01*
X02185Y02341D02*
Y0238D01*
X02755Y02364D02*
X02795D01*
X02775Y02344D02*
Y02383D01*
X03366Y02361D02*
X03405D01*
X03385Y02341D02*
Y0238D01*
X03956Y02361D02*
X03996D01*
X03976Y02341D02*
Y0238D01*
X02755Y02952D02*
X02795D01*
X02775Y02933D02*
Y02972D01*
X00393Y02952D02*
X00433D01*
X00413Y02933D02*
Y02972D01*
X00984Y0295D02*
X01023D01*
X01003Y02931D02*
Y0297D01*
X01574Y02951D02*
X01614D01*
X01594Y02932D02*
Y02971D01*
X02165Y02952D02*
X02204D01*
X02185Y02933D02*
Y02972D01*
X03366Y0295D02*
X03405D01*
X03385Y02931D02*
Y0297D01*
X03956Y02952D02*
X03996D01*
X03976Y02933D02*
Y02972D01*
X-00236Y0295D02*
X-00196D01*
X-00216Y02931D02*
Y0297D01*
X-00236Y03544D02*
X-00196D01*
X-00216Y03524D02*
Y03563D01*
X00984Y03544D02*
X01023D01*
X01003Y03524D02*
Y03563D01*
X01574Y0354D02*
X01614D01*
X01594Y0352D02*
Y0356D01*
X00393Y03544D02*
X00433D01*
X00413Y03524D02*
Y03563D01*
X02165Y0354D02*
X02204D01*
X02185Y0352D02*
Y0356D01*
X02755Y03543D02*
X02795D01*
X02775Y03523D02*
Y03562D01*
X03366Y03544D02*
X03405D01*
X03385Y03524D02*
Y03563D01*
X03956Y03544D02*
X03996D01*
X03976Y03524D02*
Y03563D01*
X-00236Y04131D02*
X-00196D01*
X-00216Y04112D02*
Y04151D01*
X00393Y04131D02*
X00433D01*
X00413Y04112D02*
Y04151D01*
X00984Y04133D02*
X01023D01*
X01003Y04114D02*
Y04153D01*
X01574Y04132D02*
X01614D01*
X01594Y04113D02*
Y04152D01*
X02165Y04134D02*
X02204D01*
X02185Y04115D02*
Y04154D01*
X03366Y04129D02*
X03405D01*
X03385Y0411D02*
Y04149D01*
X03956Y04129D02*
X03996D01*
X03976Y0411D02*
Y04149D01*
X-01594Y02972D02*
X-01555D01*
X-01574Y02952D02*
Y02992D01*
X-01594Y02405D02*
X-01555D01*
X-01574Y02385D02*
Y02425D01*
X-01594Y01255D02*
X-01555D01*
X-01574Y01236D02*
Y01275D01*
X-01594Y00712D02*
X-01555D01*
X-01574Y00692D02*
Y00732D01*
X-01594Y04055D02*
X-01555D01*
X-01574Y04035D02*
Y04074D01*
X-01594Y00157D02*
X-01555D01*
X-01574Y00137D02*
Y00177D01*
X-01594Y03492D02*
X-01555D01*
X-01574Y03472D02*
Y03511D01*
X-01594Y01818D02*
X-01555D01*
X-01574Y01799D02*
Y01838D01*
X-01299Y02952D02*
Y02992D01*
X-01318Y02972D02*
X-01279D01*
X-01299Y04051D02*
Y0409D01*
X-01318Y0407D02*
X-01279D01*
X-01299Y00157D02*
Y00196D01*
X-01318Y00177D02*
X-01279D01*
X-01299Y03468D02*
Y03507D01*
X-01318Y03488D02*
X-01279D01*
X-01299Y01791D02*
Y0183D01*
X-01318Y01811D02*
X-01279D01*
X-01299Y00688D02*
Y00728D01*
X-01318Y00708D02*
X-01279D01*
X-01299Y01231D02*
Y0127D01*
X-01318Y0125D02*
X-01279D01*
X-01299Y02369D02*
Y02408D01*
X-01318Y02388D02*
X-01279D01*
X-00635Y04259D02*
Y04299D01*
X-00655Y04279D02*
X-00616D01*
X-02897Y01023D02*
Y01062D01*
X-02917Y01043D02*
X-02877D01*
X-02775Y02421D02*
X-02736D01*
X-02755Y02401D02*
Y0244D01*
X-02153Y01625D02*
X-02114D01*
X-02133Y01606D02*
Y01645D01*
X-02051Y01259D02*
X-02011D01*
X-02031Y0124D02*
Y01279D01*
X-02299Y01606D02*
Y01645D01*
X-02318Y01625D02*
X-02279D01*
X-02303Y01279D02*
Y01318D01*
X-02322Y01299D02*
X-02283D01*
X-02688Y01736D02*
X-02649D01*
X-02669Y01716D02*
Y01755D01*
G54D51*
X02708Y04168D02*
X02842D01*
X02708Y04093D02*
X02842D01*
Y04168*
X02708Y04093D02*
Y04168D01*
X-0033Y00069D02*
X-00188D01*
X-0033Y00221D02*
X-00188D01*
X-0033Y00069D02*
Y00221D01*
X-00188Y00069D02*
Y00221D01*
X-0033Y03617D02*
X-00188D01*
X-0033Y03768D02*
X-00188D01*
X-0033Y03617D02*
Y03768D01*
X-00188Y03617D02*
Y03768D01*
X-0033Y00664D02*
X-00188D01*
X-0033Y00815D02*
X-00188D01*
X-0033Y00664D02*
Y00815D01*
X-00188Y00664D02*
Y00815D01*
X-0033Y01286D02*
X-00188D01*
X-0033Y01437D02*
X-00188D01*
X-0033Y01286D02*
Y01437D01*
X-00188Y01286D02*
Y01437D01*
X-0033Y01943D02*
X-00188D01*
X-0033Y02095D02*
X-00188D01*
X-0033Y01943D02*
Y02095D01*
X-00188Y01943D02*
Y02095D01*
X-0033Y02495D02*
X-00188D01*
X-0033Y02646D02*
X-00188D01*
X-0033Y02495D02*
Y02646D01*
X-00188Y02495D02*
Y02646D01*
X-0033Y03065D02*
X-00188D01*
X-0033Y03217D02*
X-00188D01*
X-0033Y03065D02*
Y03217D01*
X-00188Y03065D02*
Y03217D01*
X-0033Y04199D02*
X-00188D01*
X-0033Y04351D02*
X-00188D01*
X-0033Y04199D02*
Y04351D01*
X-00188Y04199D02*
Y04351D01*
X-005Y03789D02*
Y04202D01*
X-00791Y03789D02*
Y04202D01*
Y03789D02*
X-005D01*
X-00791Y04202D02*
X-005D01*
X00937Y-00037D02*
Y00037D01*
X0107Y-00037D02*
Y00037D01*
X00937Y-00037D02*
X0107D01*
X00937Y00037D02*
X0107D01*
X03909Y-00037D02*
Y00037D01*
X04043Y-00037D02*
Y00037D01*
X03909Y-00037D02*
X04043D01*
X03909Y00037D02*
X04043D01*
X-00283Y-00033D02*
Y00041D01*
X-00149Y-00033D02*
Y00041D01*
X-00283Y-00033D02*
X-00149D01*
X-00283Y00041D02*
X-00149D01*
X00346Y-00037D02*
Y00037D01*
X0048Y-00037D02*
Y00037D01*
X00346Y-00037D02*
X0048D01*
X00346Y00037D02*
X0048D01*
X01527Y-00037D02*
Y00037D01*
X01661Y-00037D02*
Y00037D01*
X01527Y-00037D02*
X01661D01*
X01527Y00037D02*
X01661D01*
X02118Y-00037D02*
Y00037D01*
X02251Y-00037D02*
Y00037D01*
X02118Y-00037D02*
X02251D01*
X02118Y00037D02*
X02251D01*
X02708Y-0004D02*
Y00034D01*
X02842Y-0004D02*
Y00034D01*
X02708Y-0004D02*
X02842D01*
X02708Y00034D02*
X02842D01*
X03318Y-00037D02*
Y00037D01*
X03452Y-00037D02*
Y00037D01*
X03318Y-00037D02*
X03452D01*
X03318Y00037D02*
X03452D01*
X00346Y00552D02*
Y00626D01*
X0048Y00552D02*
Y00626D01*
X00346Y00552D02*
X0048D01*
X00346Y00626D02*
X0048D01*
X03318Y0055D02*
Y00625D01*
X03452Y0055D02*
Y00625D01*
X03318Y0055D02*
X03452D01*
X03318Y00625D02*
X03452D01*
X00937Y00557D02*
Y00631D01*
X0107Y00557D02*
Y00631D01*
X00937Y00557D02*
X0107D01*
X00937Y00631D02*
X0107D01*
X01527Y00552D02*
Y00626D01*
X01661Y00552D02*
Y00626D01*
X01527Y00552D02*
X01661D01*
X01527Y00626D02*
X01661D01*
X02118Y00555D02*
Y00629D01*
X02251Y00555D02*
Y00629D01*
X02118Y00555D02*
X02251D01*
X02118Y00629D02*
X02251D01*
X02708Y0055D02*
Y00625D01*
X02842Y0055D02*
Y00625D01*
X02708Y0055D02*
X02842D01*
X02708Y00625D02*
X02842D01*
X-00283Y00552D02*
Y00626D01*
X-00149Y00552D02*
Y00626D01*
X-00283Y00552D02*
X-00149D01*
X-00283Y00626D02*
X-00149D01*
X03909Y00554D02*
Y00628D01*
X04043Y00554D02*
Y00628D01*
X03909Y00554D02*
X04043D01*
X03909Y00628D02*
X04043D01*
X-00283Y01145D02*
Y0122D01*
X-00149Y01145D02*
Y0122D01*
X-00283Y01145D02*
X-00149D01*
X-00283Y0122D02*
X-00149D01*
X00346Y01143D02*
Y01218D01*
X0048Y01143D02*
Y01218D01*
X00346Y01143D02*
X0048D01*
X00346Y01218D02*
X0048D01*
X00937Y01143D02*
Y01218D01*
X0107Y01143D02*
Y01218D01*
X00937Y01143D02*
X0107D01*
X00937Y01218D02*
X0107D01*
X01527Y01139D02*
Y01214D01*
X01661Y01139D02*
Y01214D01*
X01527Y01139D02*
X01661D01*
X01527Y01214D02*
X01661D01*
X02118Y01143D02*
Y01218D01*
X02251Y01143D02*
Y01218D01*
X02118Y01143D02*
X02251D01*
X02118Y01218D02*
X02251D01*
X02708Y01143D02*
Y01218D01*
X02842Y01143D02*
Y01218D01*
X02708Y01143D02*
X02842D01*
X02708Y01218D02*
X02842D01*
X03318Y01147D02*
Y01222D01*
X03452Y01147D02*
Y01222D01*
X03318Y01147D02*
X03452D01*
X03318Y01222D02*
X03452D01*
X0395Y01143D02*
Y01218D01*
X04084Y01143D02*
Y01218D01*
X0395Y01143D02*
X04084D01*
X0395Y01218D02*
X04084D01*
X02708Y0173D02*
Y01805D01*
X02842Y0173D02*
Y01805D01*
X02708Y0173D02*
X02842D01*
X02708Y01805D02*
X02842D01*
X00346Y01737D02*
Y01812D01*
X0048Y01737D02*
Y01812D01*
X00346Y01737D02*
X0048D01*
X00346Y01812D02*
X0048D01*
X01527Y01737D02*
Y01812D01*
X01661Y01737D02*
Y01812D01*
X01527Y01737D02*
X01661D01*
X01527Y01812D02*
X01661D01*
X03318Y01733D02*
Y01808D01*
X03452Y01733D02*
Y01808D01*
X03318Y01733D02*
X03452D01*
X03318Y01808D02*
X03452D01*
X03909Y0173D02*
Y01805D01*
X04043Y0173D02*
Y01805D01*
X03909Y0173D02*
X04043D01*
X03909Y01805D02*
X04043D01*
X-00283Y01737D02*
Y01812D01*
X-00149Y01737D02*
Y01812D01*
X-00283Y01737D02*
X-00149D01*
X-00283Y01812D02*
X-00149D01*
X00937Y01737D02*
Y01812D01*
X0107Y01737D02*
Y01812D01*
X00937Y01737D02*
X0107D01*
X00937Y01812D02*
X0107D01*
X02118Y01733D02*
Y01808D01*
X02251Y01733D02*
Y01808D01*
X02118Y01733D02*
X02251D01*
X02118Y01808D02*
X02251D01*
X-00283Y02323D02*
Y02398D01*
X-00149Y02323D02*
Y02398D01*
X-00283Y02323D02*
X-00149D01*
X-00283Y02398D02*
X-00149D01*
X00346Y02319D02*
Y02394D01*
X0048Y02319D02*
Y02394D01*
X00346Y02319D02*
X0048D01*
X00346Y02394D02*
X0048D01*
X00937Y02323D02*
Y02398D01*
X0107Y02323D02*
Y02398D01*
X00937Y02323D02*
X0107D01*
X00937Y02398D02*
X0107D01*
X01527Y02326D02*
Y02401D01*
X01661Y02326D02*
Y02401D01*
X01527Y02326D02*
X01661D01*
X01527Y02401D02*
X01661D01*
X02118Y02323D02*
Y02398D01*
X02251Y02323D02*
Y02398D01*
X02118Y02323D02*
X02251D01*
X02118Y02398D02*
X02251D01*
X02708Y02326D02*
Y02401D01*
X02842Y02326D02*
Y02401D01*
X02708Y02326D02*
X02842D01*
X02708Y02401D02*
X02842D01*
X03318Y02323D02*
Y02398D01*
X03452Y02323D02*
Y02398D01*
X03318Y02323D02*
X03452D01*
X03318Y02398D02*
X03452D01*
X03909Y02323D02*
Y02398D01*
X04043Y02323D02*
Y02398D01*
X03909Y02323D02*
X04043D01*
X03909Y02398D02*
X04043D01*
X02708Y02915D02*
Y0299D01*
X02842Y02915D02*
Y0299D01*
X02708Y02915D02*
X02842D01*
X02708Y0299D02*
X02842D01*
X00346Y02915D02*
Y0299D01*
X0048Y02915D02*
Y0299D01*
X00346Y02915D02*
X0048D01*
X00346Y0299D02*
X0048D01*
X00937Y02913D02*
Y02988D01*
X0107Y02913D02*
Y02988D01*
X00937Y02913D02*
X0107D01*
X00937Y02988D02*
X0107D01*
X01527Y02914D02*
Y02989D01*
X01661Y02914D02*
Y02989D01*
X01527Y02914D02*
X01661D01*
X01527Y02989D02*
X01661D01*
X02118Y02915D02*
Y0299D01*
X02251Y02915D02*
Y0299D01*
X02118Y02915D02*
X02251D01*
X02118Y0299D02*
X02251D01*
X03318Y02913D02*
Y02988D01*
X03452Y02913D02*
Y02988D01*
X03318Y02913D02*
X03452D01*
X03318Y02988D02*
X03452D01*
X03909Y02915D02*
Y0299D01*
X04043Y02915D02*
Y0299D01*
X03909Y02915D02*
X04043D01*
X03909Y0299D02*
X04043D01*
X-00283Y02913D02*
Y02988D01*
X-00149Y02913D02*
Y02988D01*
X-00283Y02913D02*
X-00149D01*
X-00283Y02988D02*
X-00149D01*
X-00283Y03506D02*
Y03581D01*
X-00149Y03506D02*
Y03581D01*
X-00283Y03506D02*
X-00149D01*
X-00283Y03581D02*
X-00149D01*
X00937Y03506D02*
Y03581D01*
X0107Y03506D02*
Y03581D01*
X00937Y03506D02*
X0107D01*
X00937Y03581D02*
X0107D01*
X01527Y03502D02*
Y03577D01*
X01661Y03502D02*
Y03577D01*
X01527Y03502D02*
X01661D01*
X01527Y03577D02*
X01661D01*
X00346Y03506D02*
Y03581D01*
X0048Y03506D02*
Y03581D01*
X00346Y03506D02*
X0048D01*
X00346Y03581D02*
X0048D01*
X02118Y03502D02*
Y03577D01*
X02251Y03502D02*
Y03577D01*
X02118Y03502D02*
X02251D01*
X02118Y03577D02*
X02251D01*
X02708Y03505D02*
Y0358D01*
X02842Y03505D02*
Y0358D01*
X02708Y03505D02*
X02842D01*
X02708Y0358D02*
X02842D01*
X03318Y03506D02*
Y03581D01*
X03452Y03506D02*
Y03581D01*
X03318Y03506D02*
X03452D01*
X03318Y03581D02*
X03452D01*
X03909Y03506D02*
Y03581D01*
X04043Y03506D02*
Y03581D01*
X03909Y03506D02*
X04043D01*
X03909Y03581D02*
X04043D01*
X-00283Y04094D02*
Y04169D01*
X-00149Y04094D02*
Y04169D01*
X-00283Y04094D02*
X-00149D01*
X-00283Y04169D02*
X-00149D01*
X00346Y04094D02*
Y04169D01*
X0048Y04094D02*
Y04169D01*
X00346Y04094D02*
X0048D01*
X00346Y04169D02*
X0048D01*
X00937Y04096D02*
Y04171D01*
X0107Y04096D02*
Y04171D01*
X00937Y04096D02*
X0107D01*
X00937Y04171D02*
X0107D01*
X01527Y04095D02*
Y0417D01*
X01661Y04095D02*
Y0417D01*
X01527Y04095D02*
X01661D01*
X01527Y0417D02*
X01661D01*
X02118Y04097D02*
Y04172D01*
X02251Y04097D02*
Y04172D01*
X02118Y04097D02*
X02251D01*
X02118Y04172D02*
X02251D01*
X03318Y04092D02*
Y04167D01*
X03452Y04092D02*
Y04167D01*
X03318Y04092D02*
X03452D01*
X03318Y04167D02*
X03452D01*
X03909Y04092D02*
Y04167D01*
X04043Y04092D02*
Y04167D01*
X03909Y04092D02*
X04043D01*
X03909Y04167D02*
X04043D01*
X-01612Y02903D02*
Y03041D01*
X-01537Y02903D02*
Y03041D01*
X-01612Y02903D02*
X-01537D01*
X-01612Y03041D02*
X-01537D01*
X-01612Y02336D02*
Y02474D01*
X-01537Y02336D02*
Y02474D01*
X-01612Y02336D02*
X-01537D01*
X-01612Y02474D02*
X-01537D01*
X-01612Y01187D02*
Y01324D01*
X-01537Y01187D02*
Y01324D01*
X-01612Y01187D02*
X-01537D01*
X-01612Y01324D02*
X-01537D01*
X-01612Y00643D02*
Y00781D01*
X-01537Y00643D02*
Y00781D01*
X-01612Y00643D02*
X-01537D01*
X-01612Y00781D02*
X-01537D01*
X-01612Y03986D02*
Y04124D01*
X-01537Y03986D02*
Y04124D01*
X-01612Y03986D02*
X-01537D01*
X-01612Y04124D02*
X-01537D01*
X-01612Y00088D02*
Y00226D01*
X-01537Y00088D02*
Y00226D01*
X-01612Y00088D02*
X-01537D01*
X-01612Y00226D02*
X-01537D01*
X-01612Y03423D02*
Y03561D01*
X-01537Y03423D02*
Y03561D01*
X-01612Y03423D02*
X-01537D01*
X-01612Y03561D02*
X-01537D01*
X-01612Y0175D02*
Y01887D01*
X-01537Y0175D02*
Y01887D01*
X-01612Y0175D02*
X-01537D01*
X-01612Y01887D02*
X-01537D01*
X-01505Y03118D02*
X-01092D01*
X-01505Y02826D02*
X-01092D01*
Y03118*
X-01505Y02826D02*
Y03118D01*
Y04216D02*
X-01092D01*
X-01505Y03925D02*
X-01092D01*
Y04216*
X-01505Y03925D02*
Y04216D01*
Y00322D02*
X-01092D01*
X-01505Y00031D02*
X-01092D01*
Y00322*
X-01505Y00031D02*
Y00322D01*
Y03633D02*
X-01092D01*
X-01505Y03342D02*
X-01092D01*
Y03633*
X-01505Y03342D02*
Y03633D01*
Y01956D02*
X-01092D01*
X-01505Y01665D02*
X-01092D01*
Y01956*
X-01505Y01665D02*
Y01956D01*
Y00854D02*
X-01092D01*
X-01505Y00562D02*
X-01092D01*
Y00854*
X-01505Y00562D02*
Y00854D01*
Y01396D02*
X-01092D01*
X-01505Y01105D02*
X-01092D01*
Y01396*
X-01505Y01105D02*
Y01396D01*
Y02534D02*
X-01092D01*
X-01505Y02243D02*
X-01092D01*
Y02534*
X-01505Y02243D02*
Y02534D01*
X-00704Y04316D02*
X-00566D01*
X-00704Y04242D02*
X-00566D01*
X-00704D02*
Y04316D01*
X-00566Y04242D02*
Y04316D01*
X-02966Y0108D02*
X-02828D01*
X-02966Y01005D02*
X-02828D01*
X-02966D02*
Y0108D01*
X-02828Y01005D02*
Y0108D01*
X-02718Y02352D02*
Y0249D01*
X-02793Y02352D02*
Y0249D01*
X-02718*
X-02793Y02352D02*
X-02718D01*
X-02171Y01557D02*
Y01694D01*
X-02096Y01557D02*
Y01694D01*
X-02171Y01557D02*
X-02096D01*
X-02171Y01694D02*
X-02096D01*
X-02198Y01118D02*
Y01401D01*
X-01864Y01118D02*
Y01401D01*
X-02198D02*
X-01864D01*
X-02198Y01118D02*
X-01864D01*
X-02336Y01692D02*
X-02261D01*
X-02336Y01559D02*
X-02261D01*
Y01692*
X-02336Y01559D02*
Y01692D01*
X-0234Y01232D02*
X-02265D01*
X-0234Y01366D02*
X-02265D01*
X-0234Y01232D02*
Y01366D01*
X-02265Y01232D02*
Y01366D01*
X-02631Y01667D02*
Y01805D01*
X-02706Y01667D02*
Y01805D01*
X-02631*
X-02706Y01667D02*
X-02631D01*
M02*