G04*
G04 #@! TF.GenerationSoftware,Altium Limited,Altium Designer,20.1.7 (139)*
G04*
G04 Layer_Physical_Order=2*
G04 Layer_Color=16711680*
%FSLAX25Y25*%
%MOIN*%
G70*
G04*
G04 #@! TF.SameCoordinates,7B629D7A-5012-4778-A706-7C37D5037AAD*
G04*
G04*
G04 #@! TF.FilePolarity,Positive*
G04*
G01*
G75*
%ADD10C,0.01000*%
%ADD21C,0.01968*%
%ADD23C,0.01772*%
%ADD24C,0.06000*%
%ADD25C,0.06299*%
%ADD26R,0.06000X0.06000*%
%ADD27C,0.15748*%
%ADD28C,0.07874*%
%ADD29R,0.12598X0.05984*%
%ADD30R,0.14173X0.10630*%
%ADD31R,0.03347X0.05512*%
%ADD32R,0.03543X0.05512*%
%ADD33R,0.07874X0.23622*%
%ADD34R,0.05512X0.03543*%
%ADD35R,0.05512X0.03347*%
%ADD36R,0.08465X0.03543*%
%ADD37R,0.08465X0.12598*%
%ADD38R,0.03937X0.02165*%
%ADD39O,0.02165X0.04921*%
%ADD40O,0.05906X0.02362*%
%ADD41O,0.01181X0.05709*%
%ADD42O,0.05709X0.01181*%
G36*
X370442Y1606D02*
X23259D01*
Y143299D01*
X23759Y143451D01*
X23920Y143211D01*
X26676Y140455D01*
X33627Y133504D01*
Y66929D01*
X33764Y66238D01*
X34156Y65652D01*
X46360Y53447D01*
X46946Y53056D01*
X47638Y52918D01*
X136221D01*
X136912Y53056D01*
X137498Y53447D01*
X150391Y66341D01*
X150783Y66927D01*
X150920Y67618D01*
Y70716D01*
X151654Y70862D01*
X152305Y71297D01*
X152740Y71948D01*
X152893Y72716D01*
X152740Y73485D01*
X152305Y74136D01*
X151654Y74571D01*
X150886Y74724D01*
X147343D01*
X146574Y74571D01*
X145923Y74136D01*
X145488Y73485D01*
X145335Y72716D01*
X145488Y71948D01*
X145923Y71297D01*
X146574Y70862D01*
X147308Y70716D01*
Y68366D01*
X135472Y56531D01*
X48386D01*
X37239Y67677D01*
Y134252D01*
X37102Y134943D01*
X36710Y135529D01*
X32776Y139464D01*
X32967Y139926D01*
X64606D01*
X67817Y136715D01*
X68403Y136323D01*
X69095Y136186D01*
X78642D01*
Y134449D01*
X83563D01*
Y141535D01*
X78642D01*
Y139798D01*
X69843D01*
X66632Y143010D01*
X66046Y143401D01*
X65354Y143539D01*
X28701D01*
X27003Y145236D01*
Y155157D01*
X29441Y157595D01*
X30310Y157235D01*
X31299Y157105D01*
X32288Y157235D01*
X33209Y157617D01*
X34000Y158224D01*
X34607Y159015D01*
X34989Y159936D01*
X35119Y160925D01*
X34989Y161914D01*
X34607Y162835D01*
X34000Y163626D01*
X33209Y164234D01*
X33106Y164276D01*
Y173267D01*
X38953Y179115D01*
X39453Y178908D01*
Y177173D01*
X42709D01*
Y179445D01*
X39990D01*
X39783Y179945D01*
X42220Y182382D01*
X46752D01*
Y182839D01*
X51968D01*
X52660Y182977D01*
X53246Y183368D01*
X63482Y193605D01*
X63874Y194191D01*
X64011Y194882D01*
Y225197D01*
X63874Y225888D01*
X63482Y226474D01*
X59643Y230313D01*
X59057Y230704D01*
X58366Y230842D01*
X52859D01*
X52816Y230945D01*
X52209Y231737D01*
X51418Y232344D01*
X50497Y232725D01*
X49508Y232856D01*
X48519Y232725D01*
X47998Y232509D01*
X42358Y238150D01*
Y307913D01*
X56654Y322209D01*
X103287D01*
X126442Y299055D01*
Y281988D01*
X125787D01*
Y274902D01*
X130709D01*
Y281988D01*
X130054D01*
Y299803D01*
X129917Y300494D01*
X129525Y301080D01*
X105313Y325293D01*
X104727Y325685D01*
X104035Y325822D01*
X55905D01*
X55214Y325685D01*
X54628Y325293D01*
X39274Y309939D01*
X38882Y309353D01*
X38745Y308661D01*
Y237402D01*
X38882Y236710D01*
X39274Y236124D01*
X45766Y229632D01*
X45688Y229035D01*
X45818Y228047D01*
X46200Y227125D01*
X46807Y226334D01*
X47598Y225727D01*
X48519Y225345D01*
X49508Y225215D01*
X50497Y225345D01*
X51418Y225727D01*
X52209Y226334D01*
X52816Y227125D01*
X52859Y227229D01*
X57618D01*
X60398Y224449D01*
Y195630D01*
X51220Y186452D01*
X46752D01*
Y187500D01*
X43186D01*
X43012Y187535D01*
X42837Y187500D01*
X39665D01*
Y184936D01*
X30022Y175293D01*
X29630Y174707D01*
X29493Y174016D01*
Y164276D01*
X29389Y164234D01*
X28598Y163626D01*
X27991Y162835D01*
X27609Y161914D01*
X27479Y160925D01*
X27500Y160764D01*
X23920Y157183D01*
X23759Y156943D01*
X23259Y157094D01*
Y352725D01*
X370442D01*
Y1606D01*
D02*
G37*
%LPC*%
G36*
X202311Y335616D02*
Y331996D01*
X205931D01*
X205854Y332579D01*
X205436Y333589D01*
X204771Y334456D01*
X203904Y335121D01*
X202894Y335539D01*
X202311Y335616D01*
D02*
G37*
G36*
X201311D02*
X200728Y335539D01*
X199718Y335121D01*
X198852Y334456D01*
X198186Y333589D01*
X197768Y332579D01*
X197691Y331996D01*
X201311D01*
Y335616D01*
D02*
G37*
G36*
X221811Y335467D02*
X220783Y335332D01*
X219826Y334935D01*
X219003Y334304D01*
X218372Y333482D01*
X217975Y332524D01*
X217840Y331496D01*
X217975Y330468D01*
X218372Y329511D01*
X219003Y328688D01*
X219826Y328057D01*
X220783Y327660D01*
X221811Y327525D01*
X222839Y327660D01*
X223797Y328057D01*
X224619Y328688D01*
X225250Y329511D01*
X225647Y330468D01*
X225782Y331496D01*
X225647Y332524D01*
X225250Y333482D01*
X224619Y334304D01*
X223797Y334935D01*
X222839Y335332D01*
X221811Y335467D01*
D02*
G37*
G36*
X171811D02*
X170783Y335332D01*
X169825Y334935D01*
X169003Y334304D01*
X168372Y333482D01*
X167975Y332524D01*
X167840Y331496D01*
X167975Y330468D01*
X168372Y329511D01*
X169003Y328688D01*
X169825Y328057D01*
X170783Y327660D01*
X171811Y327525D01*
X172839Y327660D01*
X173796Y328057D01*
X174619Y328688D01*
X175250Y329511D01*
X175647Y330468D01*
X175782Y331496D01*
X175647Y332524D01*
X175250Y333482D01*
X174619Y334304D01*
X173796Y334935D01*
X172839Y335332D01*
X171811Y335467D01*
D02*
G37*
G36*
X205931Y330996D02*
X202311D01*
Y327377D01*
X202894Y327453D01*
X203904Y327871D01*
X204771Y328537D01*
X205436Y329403D01*
X205854Y330413D01*
X205931Y330996D01*
D02*
G37*
G36*
X201311D02*
X197691D01*
X197768Y330413D01*
X198186Y329403D01*
X198852Y328537D01*
X199718Y327871D01*
X200728Y327453D01*
X201311Y327377D01*
Y330996D01*
D02*
G37*
G36*
X191811Y335467D02*
X190783Y335332D01*
X189825Y334935D01*
X189003Y334304D01*
X188372Y333482D01*
X187975Y332524D01*
X187840Y331496D01*
X187975Y330468D01*
X188372Y329511D01*
X189003Y328688D01*
X189825Y328057D01*
X190498Y327778D01*
Y322276D01*
X187064Y318842D01*
X186779Y318416D01*
X186735Y318191D01*
X186192Y318026D01*
X182809Y321410D01*
Y327656D01*
X182839Y327660D01*
X183797Y328057D01*
X184619Y328688D01*
X185250Y329511D01*
X185647Y330468D01*
X185782Y331496D01*
X185647Y332524D01*
X185250Y333482D01*
X184619Y334304D01*
X183797Y334935D01*
X182839Y335332D01*
X181811Y335467D01*
X180783Y335332D01*
X179825Y334935D01*
X179003Y334304D01*
X178372Y333482D01*
X177975Y332524D01*
X177840Y331496D01*
X177975Y330468D01*
X178372Y329511D01*
X179003Y328688D01*
X179825Y328057D01*
X180183Y327909D01*
Y320866D01*
X180283Y320364D01*
X180568Y319938D01*
X184711Y315795D01*
Y278527D01*
X184249Y278336D01*
X174255Y288330D01*
X173829Y288614D01*
X173327Y288714D01*
X167287D01*
X166893Y288978D01*
X166240Y289108D01*
X165587Y288978D01*
X165034Y288608D01*
X164664Y288054D01*
X164534Y287402D01*
X164664Y286749D01*
X165034Y286195D01*
Y285950D01*
X164664Y285397D01*
X164534Y284744D01*
X164664Y284091D01*
X165034Y283538D01*
X164869Y283047D01*
X164664Y282739D01*
X164534Y282087D01*
X164664Y281434D01*
X165034Y280880D01*
X164936Y280734D01*
X164935Y280734D01*
X164566Y280180D01*
X164436Y279528D01*
X164566Y278875D01*
X164935Y278321D01*
Y278175D01*
X164566Y277621D01*
X164436Y276969D01*
X164566Y276316D01*
X164935Y275762D01*
Y275616D01*
X164566Y275062D01*
X164436Y274410D01*
X164566Y273757D01*
X164847Y273336D01*
X165034Y272860D01*
X164664Y272306D01*
X164534Y271654D01*
X164664Y271001D01*
X164915Y270626D01*
X164995Y270276D01*
X164915Y269925D01*
X164664Y269550D01*
X164534Y268898D01*
X164664Y268245D01*
X165034Y267691D01*
X165587Y267321D01*
X166240Y267192D01*
X166893Y267321D01*
X167287Y267585D01*
X168255D01*
X168963Y266878D01*
Y261488D01*
X168871Y261024D01*
Y256496D01*
X168978Y255958D01*
X169282Y255503D01*
X169738Y255198D01*
X170276Y255091D01*
X170813Y255198D01*
X171260Y255497D01*
X171706Y255198D01*
X172244Y255091D01*
X172782Y255198D01*
X173228Y255497D01*
X173675Y255198D01*
X174213Y255091D01*
X174750Y255198D01*
X175197Y255497D01*
X175644Y255198D01*
X176181Y255091D01*
X176719Y255198D01*
X177165Y255497D01*
X177612Y255198D01*
X178150Y255091D01*
X178687Y255198D01*
X179134Y255497D01*
X179580Y255198D01*
X180118Y255091D01*
X180656Y255198D01*
X181102Y255497D01*
X181549Y255198D01*
X182087Y255091D01*
X182624Y255198D01*
X183071Y255497D01*
X183518Y255198D01*
X184055Y255091D01*
X184593Y255198D01*
X185039Y255497D01*
X185486Y255198D01*
X186024Y255091D01*
X186561Y255198D01*
X187008Y255497D01*
X187454Y255198D01*
X187992Y255091D01*
X188530Y255198D01*
X188796Y255376D01*
X188814Y255349D01*
X189340Y254998D01*
X189425Y254981D01*
X189590Y254438D01*
X183561Y248409D01*
X168526D01*
X168116Y248909D01*
X168137Y249016D01*
X168030Y249553D01*
X167732Y250000D01*
X168030Y250447D01*
X168137Y250984D01*
X168030Y251522D01*
X167732Y251969D01*
X168030Y252415D01*
X168137Y252953D01*
X168030Y253490D01*
X167726Y253946D01*
X167270Y254251D01*
X166732Y254358D01*
X162205D01*
X161667Y254251D01*
X161211Y253946D01*
X160907Y253490D01*
X160800Y252953D01*
X160907Y252415D01*
X161205Y251969D01*
X160907Y251522D01*
X160800Y250984D01*
X160831Y250828D01*
X160430Y250328D01*
X154481D01*
X147080Y257729D01*
Y275000D01*
X148622D01*
Y282087D01*
X143701D01*
Y279757D01*
X138779D01*
Y281988D01*
X133858D01*
Y274902D01*
X138779D01*
Y277132D01*
X143701D01*
Y275000D01*
X144455D01*
Y257185D01*
X144555Y256683D01*
X144840Y256257D01*
X153009Y248088D01*
X153435Y247803D01*
X153937Y247703D01*
X160430D01*
X160831Y247203D01*
X160800Y247047D01*
X160907Y246510D01*
X161085Y246243D01*
X161058Y246226D01*
X160706Y245699D01*
X160682Y245579D01*
X164469D01*
X168555D01*
X168723Y245784D01*
X175588D01*
X180716Y240656D01*
X180726Y240649D01*
X180734Y240639D01*
X183071Y238391D01*
X182884Y237927D01*
X175098D01*
X174596Y237827D01*
X174170Y237542D01*
X169347Y232719D01*
X169063Y232294D01*
X168963Y231791D01*
Y228220D01*
X168871Y227756D01*
Y227298D01*
X166212D01*
X165521Y227161D01*
X164935Y226769D01*
X163487Y225321D01*
X163095Y224735D01*
X162957Y224044D01*
Y213583D01*
X162205D01*
Y206496D01*
X163253D01*
Y203051D01*
X163390Y202360D01*
X163782Y201774D01*
X183861Y181695D01*
X184447Y181304D01*
X185138Y181166D01*
X224652D01*
Y172466D01*
X234692D01*
Y177746D01*
X247684D01*
Y176994D01*
X257723D01*
Y177832D01*
X275197D01*
Y177165D01*
X282283D01*
Y177918D01*
X287638D01*
X301085Y164471D01*
X301671Y164079D01*
X302362Y163942D01*
X316929D01*
X317620Y164079D01*
X318206Y164471D01*
X341299Y187564D01*
X356098D01*
X356140Y187460D01*
X356748Y186669D01*
X357539Y186062D01*
X358460Y185680D01*
X359449Y185550D01*
X360437Y185680D01*
X361359Y186062D01*
X362150Y186669D01*
X362757Y187460D01*
X363139Y188381D01*
X363269Y189370D01*
X363139Y190359D01*
X362757Y191280D01*
X362150Y192071D01*
X361359Y192678D01*
X360437Y193060D01*
X359449Y193190D01*
X358460Y193060D01*
X357539Y192678D01*
X356748Y192071D01*
X356140Y191280D01*
X356098Y191176D01*
X340551D01*
X339860Y191039D01*
X339274Y190647D01*
X316181Y167554D01*
X303110D01*
X289663Y181002D01*
X289077Y181393D01*
X288386Y181531D01*
X282283D01*
Y182283D01*
X275197D01*
Y181445D01*
X257723D01*
Y182112D01*
X247684D01*
Y181359D01*
X234692D01*
Y186639D01*
X224652D01*
Y184779D01*
X185886D01*
X166865Y203799D01*
Y206496D01*
X167323D01*
Y213583D01*
X166570D01*
Y223295D01*
X166960Y223686D01*
X168871D01*
Y223228D01*
X168978Y222691D01*
X169282Y222235D01*
X169738Y221930D01*
X170276Y221823D01*
X170813Y221930D01*
X171080Y222108D01*
X171097Y222082D01*
X171624Y221730D01*
X171744Y221706D01*
Y225492D01*
Y229629D01*
X171588Y229757D01*
Y231248D01*
X175642Y235301D01*
X185498D01*
Y234842D01*
X185598Y234340D01*
X185883Y233914D01*
X189426Y230371D01*
X189852Y230086D01*
X190354Y229987D01*
X195008D01*
X195472Y229894D01*
X200000D01*
X200538Y230001D01*
X200538Y230001D01*
X213425Y230070D01*
X213779Y229717D01*
Y227953D01*
X218898D01*
Y235039D01*
X213779D01*
Y232697D01*
X202006Y232634D01*
X201896Y232768D01*
X197736D01*
X193599D01*
X193471Y232612D01*
X190898D01*
X188124Y235386D01*
Y236614D01*
X188121Y236627D01*
X188123Y236640D01*
X188071Y236878D01*
X188024Y237117D01*
X188016Y237127D01*
X188014Y237140D01*
X187874Y237340D01*
X187739Y237542D01*
X187728Y237549D01*
X187721Y237560D01*
X182563Y242522D01*
X179763Y245322D01*
X179954Y245784D01*
X184104D01*
X184607Y245884D01*
X185032Y246168D01*
X192857Y253993D01*
X193142Y254419D01*
X193242Y254921D01*
Y256032D01*
X193334Y256496D01*
Y257447D01*
X208268D01*
Y255118D01*
X213386D01*
Y262205D01*
X208268D01*
Y260072D01*
X193334D01*
Y261024D01*
X193227Y261561D01*
X192923Y262017D01*
X192467Y262322D01*
X191929Y262429D01*
X191392Y262322D01*
X191125Y262144D01*
X191107Y262170D01*
X190581Y262522D01*
X190461Y262546D01*
Y258760D01*
X189461D01*
Y262897D01*
X189305Y263025D01*
Y317370D01*
X192739Y320804D01*
X193024Y321230D01*
X193124Y321732D01*
Y327778D01*
X193797Y328057D01*
X194619Y328688D01*
X195250Y329511D01*
X195647Y330468D01*
X195782Y331496D01*
X195647Y332524D01*
X195250Y333482D01*
X194619Y334304D01*
X193797Y334935D01*
X192839Y335332D01*
X191811Y335467D01*
D02*
G37*
G36*
X310736Y317824D02*
Y309457D01*
X319104D01*
X318982Y310696D01*
X318474Y312369D01*
X317650Y313911D01*
X316542Y315262D01*
X315190Y316371D01*
X313649Y317195D01*
X311976Y317702D01*
X310736Y317824D01*
D02*
G37*
G36*
X309736D02*
X308497Y317702D01*
X306824Y317195D01*
X305282Y316371D01*
X303931Y315262D01*
X302822Y313911D01*
X301998Y312369D01*
X301491Y310696D01*
X301368Y309457D01*
X309736D01*
Y317824D01*
D02*
G37*
G36*
X82390D02*
Y309457D01*
X90758D01*
X90635Y310696D01*
X90128Y312369D01*
X89304Y313911D01*
X88195Y315262D01*
X86844Y316371D01*
X85302Y317195D01*
X83629Y317702D01*
X82390Y317824D01*
D02*
G37*
G36*
X81390D02*
X80150Y317702D01*
X78477Y317195D01*
X76936Y316371D01*
X75585Y315262D01*
X74476Y313911D01*
X73652Y312369D01*
X73144Y310696D01*
X73022Y309457D01*
X81390D01*
Y317824D01*
D02*
G37*
G36*
X319104Y308457D02*
X310736D01*
Y300089D01*
X311976Y300211D01*
X313649Y300718D01*
X315190Y301542D01*
X316542Y302652D01*
X317650Y304003D01*
X318474Y305544D01*
X318982Y307217D01*
X319104Y308457D01*
D02*
G37*
G36*
X309736D02*
X301368D01*
X301491Y307217D01*
X301998Y305544D01*
X302822Y304003D01*
X303931Y302652D01*
X305282Y301542D01*
X306824Y300718D01*
X308497Y300211D01*
X309736Y300089D01*
Y308457D01*
D02*
G37*
G36*
X90758D02*
X82390D01*
Y300089D01*
X83629Y300211D01*
X85302Y300718D01*
X86844Y301542D01*
X88195Y302652D01*
X89304Y304003D01*
X90128Y305544D01*
X90635Y307217D01*
X90758Y308457D01*
D02*
G37*
G36*
X81390D02*
X73022D01*
X73144Y307217D01*
X73652Y305544D01*
X74476Y304003D01*
X75585Y302652D01*
X76936Y301542D01*
X78477Y300718D01*
X80150Y300211D01*
X81390Y300089D01*
Y308457D01*
D02*
G37*
G36*
X310335Y342357D02*
X213976D01*
X213285Y342220D01*
X212699Y341828D01*
X210534Y339663D01*
X210142Y339077D01*
X210005Y338386D01*
Y335009D01*
X209826Y334935D01*
X209003Y334304D01*
X208372Y333482D01*
X207975Y332524D01*
X207840Y331496D01*
X207975Y330468D01*
X208372Y329511D01*
X209003Y328688D01*
X209826Y328057D01*
X210783Y327660D01*
X211811Y327525D01*
X212839Y327660D01*
X213796Y328057D01*
X214619Y328688D01*
X215250Y329511D01*
X215647Y330468D01*
X215782Y331496D01*
X215647Y332524D01*
X215250Y333482D01*
X214619Y334304D01*
X213796Y334935D01*
X213617Y335009D01*
Y337638D01*
X214725Y338745D01*
X309586D01*
X325556Y322775D01*
Y301536D01*
X319035Y295015D01*
X313587D01*
X313545Y295119D01*
X312937Y295910D01*
X312146Y296517D01*
X311225Y296899D01*
X310236Y297029D01*
X309247Y296899D01*
X308326Y296517D01*
X307535Y295910D01*
X306928Y295119D01*
X306546Y294197D01*
X306416Y293209D01*
X306546Y292220D01*
X306928Y291299D01*
X307535Y290508D01*
X308326Y289900D01*
X309247Y289519D01*
X310236Y289389D01*
X311225Y289519D01*
X312146Y289900D01*
X312937Y290508D01*
X313545Y291299D01*
X313587Y291402D01*
X319783D01*
X320475Y291540D01*
X321061Y291931D01*
X328640Y299510D01*
X329031Y300096D01*
X329169Y300787D01*
Y323524D01*
X329031Y324215D01*
X328640Y324801D01*
X311612Y341828D01*
X311026Y342220D01*
X310335Y342357D01*
D02*
G37*
G36*
X359449Y299627D02*
X358460Y299497D01*
X357539Y299115D01*
X356748Y298508D01*
X356140Y297717D01*
X355759Y296796D01*
X355629Y295807D01*
X355759Y294818D01*
X356140Y293897D01*
X356748Y293106D01*
X357539Y292499D01*
X358460Y292117D01*
X359449Y291987D01*
X360437Y292117D01*
X361359Y292499D01*
X362150Y293106D01*
X362757Y293897D01*
X363139Y294818D01*
X363269Y295807D01*
X363139Y296796D01*
X362757Y297717D01*
X362150Y298508D01*
X361359Y299115D01*
X360437Y299497D01*
X359449Y299627D01*
D02*
G37*
G36*
X97654Y289878D02*
X95382D01*
Y286622D01*
X97654D01*
Y289878D01*
D02*
G37*
G36*
X94382D02*
X92110D01*
Y286622D01*
X94382D01*
Y289878D01*
D02*
G37*
G36*
X310736Y287177D02*
Y283709D01*
X314205D01*
X314133Y284253D01*
X313730Y285226D01*
X313089Y286062D01*
X312253Y286703D01*
X311280Y287106D01*
X310736Y287177D01*
D02*
G37*
G36*
X309736D02*
X309192Y287106D01*
X308219Y286703D01*
X307383Y286062D01*
X306742Y285226D01*
X306339Y284253D01*
X306267Y283709D01*
X309736D01*
Y287177D01*
D02*
G37*
G36*
X97654Y285622D02*
X95382D01*
Y282366D01*
X97654D01*
Y285622D01*
D02*
G37*
G36*
X94382D02*
X92110D01*
Y282366D01*
X94382D01*
Y285622D01*
D02*
G37*
G36*
X359449Y289627D02*
X358460Y289497D01*
X357539Y289115D01*
X356748Y288508D01*
X356140Y287717D01*
X355759Y286796D01*
X355629Y285807D01*
X355759Y284818D01*
X356140Y283897D01*
X356748Y283106D01*
X357539Y282499D01*
X358460Y282117D01*
X359449Y281987D01*
X360437Y282117D01*
X361359Y282499D01*
X362150Y283106D01*
X362757Y283897D01*
X363139Y284818D01*
X363269Y285807D01*
X363139Y286796D01*
X362757Y287717D01*
X362150Y288508D01*
X361359Y289115D01*
X360437Y289497D01*
X359449Y289627D01*
D02*
G37*
G36*
X314205Y282709D02*
X310736D01*
Y279240D01*
X311280Y279312D01*
X312253Y279715D01*
X313089Y280356D01*
X313730Y281191D01*
X314133Y282164D01*
X314205Y282709D01*
D02*
G37*
G36*
X309736D02*
X306267D01*
X306339Y282164D01*
X306742Y281191D01*
X307383Y280356D01*
X308219Y279715D01*
X309192Y279312D01*
X309736Y279240D01*
Y282709D01*
D02*
G37*
G36*
X156905Y282299D02*
X154732D01*
Y279043D01*
X156905D01*
Y282299D01*
D02*
G37*
G36*
X153732D02*
X151559D01*
Y279043D01*
X153732D01*
Y282299D01*
D02*
G37*
G36*
X156905Y278043D02*
X154732D01*
Y274787D01*
X156905D01*
Y278043D01*
D02*
G37*
G36*
X153732D02*
X151559D01*
Y274787D01*
X153732D01*
Y278043D01*
D02*
G37*
G36*
X310736Y277177D02*
Y273709D01*
X314205D01*
X314133Y274253D01*
X313730Y275226D01*
X313089Y276062D01*
X312253Y276703D01*
X311280Y277106D01*
X310736Y277177D01*
D02*
G37*
G36*
X309736D02*
X309192Y277106D01*
X308219Y276703D01*
X307383Y276062D01*
X306742Y275226D01*
X306339Y274253D01*
X306267Y273709D01*
X309736D01*
Y277177D01*
D02*
G37*
G36*
X359449Y279627D02*
X358460Y279497D01*
X357539Y279115D01*
X356748Y278508D01*
X356140Y277717D01*
X355759Y276796D01*
X355629Y275807D01*
X355759Y274818D01*
X356140Y273897D01*
X356748Y273106D01*
X357539Y272499D01*
X358460Y272117D01*
X359449Y271987D01*
X360437Y272117D01*
X361359Y272499D01*
X362150Y273106D01*
X362757Y273897D01*
X363139Y274818D01*
X363269Y275807D01*
X363139Y276796D01*
X362757Y277717D01*
X362150Y278508D01*
X361359Y279115D01*
X360437Y279497D01*
X359449Y279627D01*
D02*
G37*
G36*
X314205Y272709D02*
X310736D01*
Y269240D01*
X311280Y269312D01*
X312253Y269715D01*
X313089Y270356D01*
X313730Y271191D01*
X314133Y272164D01*
X314205Y272709D01*
D02*
G37*
G36*
X309736D02*
X306267D01*
X306339Y272164D01*
X306742Y271191D01*
X307383Y270356D01*
X308219Y269715D01*
X309192Y269312D01*
X309736Y269240D01*
Y272709D01*
D02*
G37*
G36*
X359949Y269776D02*
Y266307D01*
X363418D01*
X363346Y266851D01*
X362943Y267824D01*
X362302Y268660D01*
X361466Y269301D01*
X360493Y269704D01*
X359949Y269776D01*
D02*
G37*
G36*
X358949D02*
X358405Y269704D01*
X357432Y269301D01*
X356596Y268660D01*
X355955Y267824D01*
X355552Y266851D01*
X355480Y266307D01*
X358949D01*
Y269776D01*
D02*
G37*
G36*
X363418Y265307D02*
X359949D01*
Y261838D01*
X360493Y261910D01*
X361466Y262313D01*
X362302Y262954D01*
X362943Y263790D01*
X363346Y264763D01*
X363418Y265307D01*
D02*
G37*
G36*
X358949D02*
X355480D01*
X355552Y264763D01*
X355955Y263790D01*
X356596Y262954D01*
X357432Y262313D01*
X358405Y261910D01*
X358949Y261838D01*
Y265307D01*
D02*
G37*
G36*
X310236Y267029D02*
X309247Y266899D01*
X308326Y266517D01*
X307535Y265910D01*
X306928Y265119D01*
X306546Y264197D01*
X306416Y263209D01*
X306546Y262220D01*
X306928Y261299D01*
X307535Y260507D01*
X308326Y259900D01*
X309247Y259519D01*
X310236Y259389D01*
X311225Y259519D01*
X312146Y259900D01*
X312937Y260507D01*
X313545Y261299D01*
X313926Y262220D01*
X314056Y263209D01*
X313926Y264197D01*
X313545Y265119D01*
X312937Y265910D01*
X312146Y266517D01*
X311225Y266899D01*
X310236Y267029D01*
D02*
G37*
G36*
X221866Y262417D02*
X219595D01*
Y259161D01*
X221866D01*
Y262417D01*
D02*
G37*
G36*
X218595D02*
X216323D01*
Y259161D01*
X218595D01*
Y262417D01*
D02*
G37*
G36*
X221866Y258161D02*
X219595D01*
Y254906D01*
X221866D01*
Y258161D01*
D02*
G37*
G36*
X218595D02*
X216323D01*
Y254906D01*
X218595D01*
Y258161D01*
D02*
G37*
G36*
X359449Y259627D02*
X358460Y259497D01*
X357539Y259115D01*
X356748Y258508D01*
X356140Y257717D01*
X355759Y256796D01*
X355629Y255807D01*
X355759Y254818D01*
X356140Y253897D01*
X356748Y253106D01*
X357539Y252499D01*
X358460Y252117D01*
X359449Y251987D01*
X360437Y252117D01*
X361359Y252499D01*
X362150Y253106D01*
X362757Y253897D01*
X363139Y254818D01*
X363269Y255807D01*
X363139Y256796D01*
X362757Y257717D01*
X362150Y258508D01*
X361359Y259115D01*
X360437Y259497D01*
X359449Y259627D01*
D02*
G37*
G36*
X310236Y257029D02*
X309247Y256899D01*
X308326Y256517D01*
X307535Y255910D01*
X306928Y255119D01*
X306546Y254197D01*
X306416Y253209D01*
X306546Y252220D01*
X306928Y251299D01*
X307535Y250507D01*
X308326Y249900D01*
X309247Y249519D01*
X310236Y249389D01*
X311225Y249519D01*
X312146Y249900D01*
X312937Y250507D01*
X313545Y251299D01*
X313926Y252220D01*
X314056Y253209D01*
X313926Y254197D01*
X313545Y255119D01*
X312937Y255910D01*
X312146Y256517D01*
X311225Y256899D01*
X310236Y257029D01*
D02*
G37*
G36*
X105709Y289665D02*
X100591D01*
Y282579D01*
X105709D01*
Y284809D01*
X107035D01*
X110991Y280854D01*
Y275787D01*
X107579D01*
Y250591D01*
X110991D01*
Y248031D01*
X111091Y247529D01*
X111375Y247103D01*
X114623Y243855D01*
X115049Y243571D01*
X115551Y243471D01*
X120032D01*
X122113Y241390D01*
Y230315D01*
X122213Y229813D01*
X122497Y229387D01*
X126631Y225253D01*
X127057Y224968D01*
X127559Y224868D01*
X140453D01*
X140955Y224968D01*
X141381Y225253D01*
X153102Y236974D01*
X153206Y236958D01*
X153609Y236417D01*
Y226331D01*
X133905Y206628D01*
X115748D01*
Y207874D01*
X113616D01*
Y215158D01*
X117028D01*
Y240354D01*
X107579D01*
Y215158D01*
X110991D01*
Y207874D01*
X108661D01*
Y202756D01*
X115748D01*
Y204002D01*
X134449D01*
X134951Y204102D01*
X135377Y204387D01*
X155849Y224859D01*
X156134Y225285D01*
X156234Y225787D01*
Y235874D01*
X158221Y237861D01*
X160430D01*
X160831Y237361D01*
X160800Y237205D01*
X160907Y236667D01*
X161205Y236221D01*
X160907Y235774D01*
X160800Y235236D01*
X160831Y235080D01*
X160430Y234580D01*
X159512D01*
X159117Y234844D01*
X158465Y234974D01*
X157812Y234844D01*
X157258Y234474D01*
X156888Y233921D01*
X156759Y233268D01*
X156888Y232615D01*
X157258Y232061D01*
X157812Y231692D01*
X158465Y231562D01*
X159117Y231692D01*
X159512Y231955D01*
X160430D01*
X160831Y231455D01*
X160800Y231299D01*
X160907Y230762D01*
X161211Y230306D01*
X161667Y230001D01*
X162205Y229894D01*
X166732D01*
X167270Y230001D01*
X167726Y230306D01*
X168030Y230762D01*
X168137Y231299D01*
X168030Y231837D01*
X167732Y232283D01*
X168030Y232730D01*
X168137Y233268D01*
X168030Y233805D01*
X167732Y234252D01*
X168030Y234699D01*
X168137Y235236D01*
X168030Y235774D01*
X167732Y236221D01*
X168030Y236667D01*
X168137Y237205D01*
X168030Y237742D01*
X167732Y238189D01*
X168030Y238636D01*
X168137Y239173D01*
X168030Y239711D01*
X167732Y240158D01*
X168030Y240604D01*
X168137Y241142D01*
X168030Y241679D01*
X167732Y242126D01*
X168030Y242573D01*
X168137Y243110D01*
X168030Y243648D01*
X167852Y243914D01*
X167879Y243932D01*
X168230Y244458D01*
X168254Y244579D01*
X164469D01*
X160332D01*
X160204Y244423D01*
X139469D01*
Y245571D01*
X137996D01*
X137789Y246071D01*
X138536Y246817D01*
X146787D01*
X147182Y246554D01*
X147835Y246424D01*
X148487Y246554D01*
X149041Y246924D01*
X149411Y247477D01*
X149541Y248130D01*
X149411Y248783D01*
X149041Y249336D01*
X148487Y249706D01*
X147835Y249836D01*
X147182Y249706D01*
X146787Y249443D01*
X137992D01*
X137490Y249343D01*
X137064Y249058D01*
X135096Y247090D01*
X134811Y246664D01*
X134711Y246161D01*
Y245571D01*
X132382D01*
Y240453D01*
X139469D01*
Y241798D01*
X153560D01*
X153751Y241336D01*
X139909Y227494D01*
X128103D01*
X124738Y230859D01*
Y241934D01*
X124638Y242436D01*
X124353Y242862D01*
X121504Y245712D01*
X121078Y245996D01*
X120576Y246096D01*
X116095D01*
X113616Y248575D01*
Y250591D01*
X117028D01*
Y275787D01*
X113616D01*
Y281398D01*
X113516Y281900D01*
X113231Y282326D01*
X108507Y287050D01*
X108081Y287335D01*
X107579Y287435D01*
X105709D01*
Y289665D01*
D02*
G37*
G36*
X30008Y243004D02*
Y239535D01*
X33477D01*
X33405Y240080D01*
X33002Y241053D01*
X32361Y241888D01*
X31525Y242529D01*
X30552Y242933D01*
X30008Y243004D01*
D02*
G37*
G36*
X29008D02*
X28464Y242933D01*
X27491Y242529D01*
X26655Y241888D01*
X26014Y241053D01*
X25611Y240080D01*
X25539Y239535D01*
X29008D01*
Y243004D01*
D02*
G37*
G36*
X310236Y247029D02*
X309247Y246899D01*
X308326Y246517D01*
X307535Y245910D01*
X306928Y245119D01*
X306546Y244197D01*
X306416Y243209D01*
X306546Y242220D01*
X306928Y241299D01*
X307535Y240508D01*
X308326Y239900D01*
X309247Y239519D01*
X310236Y239389D01*
X311225Y239519D01*
X312146Y239900D01*
X312937Y240508D01*
X313545Y241299D01*
X313926Y242220D01*
X314056Y243209D01*
X313926Y244197D01*
X313545Y245119D01*
X312937Y245910D01*
X312146Y246517D01*
X311225Y246899D01*
X310236Y247029D01*
D02*
G37*
G36*
X139681Y237516D02*
X136425D01*
Y235244D01*
X139681D01*
Y237516D01*
D02*
G37*
G36*
X135425D02*
X132169D01*
Y235244D01*
X135425D01*
Y237516D01*
D02*
G37*
G36*
X33477Y238535D02*
X30008D01*
Y235067D01*
X30552Y235138D01*
X31525Y235541D01*
X32361Y236183D01*
X33002Y237018D01*
X33405Y237991D01*
X33477Y238535D01*
D02*
G37*
G36*
X29008D02*
X25539D01*
X25611Y237991D01*
X26014Y237018D01*
X26655Y236183D01*
X27491Y235541D01*
X28464Y235138D01*
X29008Y235067D01*
Y238535D01*
D02*
G37*
G36*
X227378Y235252D02*
X225106D01*
Y231996D01*
X227378D01*
Y235252D01*
D02*
G37*
G36*
X224106D02*
X221835D01*
Y231996D01*
X224106D01*
Y235252D01*
D02*
G37*
G36*
X139681Y234244D02*
X136425D01*
Y231972D01*
X139681D01*
Y234244D01*
D02*
G37*
G36*
X135425D02*
X132169D01*
Y231972D01*
X135425D01*
Y234244D01*
D02*
G37*
G36*
X200000Y254358D02*
X195472D01*
X194935Y254251D01*
X194479Y253946D01*
X194174Y253490D01*
X194068Y252953D01*
X194174Y252415D01*
X194473Y251969D01*
X194174Y251522D01*
X194068Y250984D01*
X194174Y250447D01*
X194473Y250000D01*
X194174Y249553D01*
X194068Y249016D01*
X194174Y248478D01*
X194473Y248031D01*
X194174Y247585D01*
X194068Y247047D01*
X194174Y246510D01*
X194473Y246063D01*
X194174Y245616D01*
X194068Y245079D01*
X194174Y244541D01*
X194473Y244094D01*
X194174Y243648D01*
X194068Y243110D01*
X194174Y242573D01*
X194473Y242126D01*
X194174Y241679D01*
X194068Y241142D01*
X194174Y240604D01*
X194473Y240158D01*
X194174Y239711D01*
X194068Y239173D01*
X194174Y238636D01*
X194473Y238189D01*
X194174Y237742D01*
X194068Y237205D01*
X194174Y236667D01*
X194473Y236221D01*
X194174Y235774D01*
X194068Y235236D01*
X194174Y234699D01*
X194352Y234432D01*
X194326Y234414D01*
X193974Y233888D01*
X193950Y233768D01*
X197736D01*
X201873D01*
X202001Y233924D01*
X204626D01*
X204797Y233958D01*
X204971Y233970D01*
X205046Y234007D01*
X205128Y234023D01*
X205273Y234120D01*
X205430Y234198D01*
X205485Y234262D01*
X205554Y234308D01*
X205651Y234453D01*
X205766Y234585D01*
X206019Y235029D01*
X206066Y235038D01*
X206620Y235408D01*
X206990Y235961D01*
X207119Y236614D01*
X206990Y237267D01*
X206620Y237821D01*
X206066Y238190D01*
X205413Y238320D01*
X204761Y238190D01*
X204207Y237821D01*
X203837Y237267D01*
X203707Y236614D01*
X203654Y236549D01*
X201775D01*
X201374Y237049D01*
X201405Y237205D01*
X201298Y237742D01*
X201000Y238189D01*
X201298Y238636D01*
X201405Y239173D01*
X201374Y239329D01*
X201775Y239829D01*
X233118D01*
X256158Y216788D01*
X256584Y216504D01*
X257087Y216404D01*
X307401D01*
X307506Y216094D01*
X307530Y215904D01*
X306928Y215119D01*
X306680Y214521D01*
X189304D01*
X185368Y218457D01*
Y221454D01*
X185868Y221854D01*
X186024Y221823D01*
X186179Y221854D01*
X186679Y221454D01*
Y220339D01*
X186416Y219944D01*
X186286Y219291D01*
X186416Y218638D01*
X186786Y218085D01*
X187339Y217715D01*
X187992Y217585D01*
X188645Y217715D01*
X189199Y218085D01*
X189568Y218638D01*
X189698Y219291D01*
X189568Y219944D01*
X189305Y220339D01*
Y221454D01*
X189805Y221854D01*
X189961Y221823D01*
X190498Y221930D01*
X190945Y222229D01*
X191392Y221930D01*
X191929Y221823D01*
X192467Y221930D01*
X192923Y222235D01*
X193227Y222691D01*
X193334Y223228D01*
Y223687D01*
X204071D01*
X204465Y223424D01*
X205118Y223294D01*
X205771Y223424D01*
X206324Y223794D01*
X206694Y224347D01*
X206824Y225000D01*
X206694Y225653D01*
X206324Y226206D01*
X205771Y226576D01*
X205118Y226706D01*
X204465Y226576D01*
X204071Y226313D01*
X193334D01*
Y227756D01*
X193227Y228294D01*
X192923Y228749D01*
X192467Y229054D01*
X191929Y229161D01*
X191392Y229054D01*
X190945Y228755D01*
X190498Y229054D01*
X189961Y229161D01*
X189423Y229054D01*
X188976Y228755D01*
X188530Y229054D01*
X187992Y229161D01*
X187454Y229054D01*
X187008Y228755D01*
X186561Y229054D01*
X186024Y229161D01*
X185486Y229054D01*
X185039Y228755D01*
X184593Y229054D01*
X184055Y229161D01*
X183518Y229054D01*
X183071Y228755D01*
X182624Y229054D01*
X182087Y229161D01*
X181549Y229054D01*
X181102Y228755D01*
X180656Y229054D01*
X180118Y229161D01*
X179580Y229054D01*
X179134Y228755D01*
X178687Y229054D01*
X178150Y229161D01*
X177612Y229054D01*
X177165Y228755D01*
X176719Y229054D01*
X176181Y229161D01*
X175644Y229054D01*
X175197Y228755D01*
X174750Y229054D01*
X174213Y229161D01*
X173675Y229054D01*
X173409Y228876D01*
X173391Y228903D01*
X172865Y229254D01*
X172744Y229278D01*
Y225492D01*
Y221706D01*
X172865Y221730D01*
X173391Y222082D01*
X173409Y222108D01*
X173675Y221930D01*
X174213Y221823D01*
X174750Y221930D01*
X175197Y222229D01*
X175644Y221930D01*
X176181Y221823D01*
X176337Y221854D01*
X176837Y221454D01*
Y207677D01*
X176937Y207175D01*
X177221Y206749D01*
X189525Y194446D01*
X189950Y194161D01*
X190453Y194061D01*
X287402D01*
Y192913D01*
X294488D01*
Y193160D01*
X294950Y193351D01*
X301434Y186867D01*
X301860Y186583D01*
X302362Y186483D01*
X307685D01*
X307759Y185983D01*
X306824Y185699D01*
X305282Y184875D01*
X303931Y183766D01*
X302822Y182415D01*
X301998Y180873D01*
X301491Y179200D01*
X301368Y177961D01*
X319104D01*
X318982Y179200D01*
X318474Y180873D01*
X317650Y182415D01*
X316542Y183766D01*
X315190Y184875D01*
X313649Y185699D01*
X312713Y185983D01*
X312787Y186483D01*
X325590D01*
X326093Y186583D01*
X326519Y186867D01*
X337709Y198057D01*
X355893D01*
X356140Y197460D01*
X356748Y196669D01*
X357539Y196062D01*
X358460Y195680D01*
X359449Y195550D01*
X360437Y195680D01*
X361359Y196062D01*
X362150Y196669D01*
X362757Y197460D01*
X363139Y198381D01*
X363269Y199370D01*
X363139Y200359D01*
X362757Y201280D01*
X362150Y202071D01*
X361359Y202678D01*
X360437Y203060D01*
X359449Y203190D01*
X358460Y203060D01*
X357539Y202678D01*
X356748Y202071D01*
X356140Y201280D01*
X355893Y200683D01*
X337165D01*
X336663Y200583D01*
X336237Y200298D01*
X325047Y189108D01*
X311540D01*
X311440Y189608D01*
X312146Y189900D01*
X312937Y190507D01*
X313545Y191299D01*
X313926Y192220D01*
X314056Y193209D01*
X313926Y194197D01*
X313545Y195119D01*
X312937Y195910D01*
X312146Y196517D01*
X311225Y196899D01*
X310236Y197029D01*
X309247Y196899D01*
X308326Y196517D01*
X307535Y195910D01*
X306928Y195119D01*
X306680Y194521D01*
X305366D01*
X299353Y200535D01*
X298927Y200819D01*
X298425Y200919D01*
X191882D01*
X181534Y211267D01*
X181568Y211538D01*
X182095Y211718D01*
X191533Y202280D01*
X191958Y201996D01*
X192461Y201896D01*
X306680D01*
X306928Y201299D01*
X307535Y200507D01*
X308326Y199900D01*
X309247Y199519D01*
X310236Y199389D01*
X311225Y199519D01*
X312146Y199900D01*
X312937Y200507D01*
X313545Y201299D01*
X313926Y202220D01*
X314056Y203209D01*
X313926Y204197D01*
X313545Y205119D01*
X312937Y205910D01*
X312146Y206517D01*
X311225Y206899D01*
X310236Y207029D01*
X309247Y206899D01*
X308326Y206517D01*
X307535Y205910D01*
X306928Y205119D01*
X306680Y204521D01*
X193004D01*
X183399Y214126D01*
Y216060D01*
X183861Y216251D01*
X187832Y212281D01*
X188258Y211996D01*
X188760Y211896D01*
X306680D01*
X306928Y211299D01*
X307535Y210507D01*
X308326Y209900D01*
X309247Y209519D01*
X310236Y209389D01*
X311225Y209519D01*
X312146Y209900D01*
X312937Y210507D01*
X313545Y211299D01*
X313926Y212220D01*
X314056Y213209D01*
X313926Y214197D01*
X313545Y215119D01*
X312942Y215904D01*
X312966Y216094D01*
X313071Y216404D01*
X314811D01*
X322773Y208442D01*
X323199Y208157D01*
X323701Y208057D01*
X355893D01*
X356140Y207460D01*
X356748Y206669D01*
X357539Y206062D01*
X358460Y205680D01*
X359449Y205550D01*
X360437Y205680D01*
X361359Y206062D01*
X362150Y206669D01*
X362757Y207460D01*
X363139Y208381D01*
X363269Y209370D01*
X363139Y210359D01*
X362757Y211280D01*
X362150Y212071D01*
X361359Y212678D01*
X360437Y213060D01*
X359449Y213190D01*
X358460Y213060D01*
X357539Y212678D01*
X356748Y212071D01*
X356140Y211280D01*
X355893Y210683D01*
X324244D01*
X316283Y218645D01*
X315857Y218929D01*
X315354Y219029D01*
X311301D01*
X311225Y219519D01*
X312146Y219900D01*
X312937Y220508D01*
X313545Y221299D01*
X313926Y222220D01*
X314056Y223209D01*
X313926Y224197D01*
X313545Y225119D01*
X312937Y225910D01*
X312146Y226517D01*
X311225Y226899D01*
X310236Y227029D01*
X309247Y226899D01*
X308326Y226517D01*
X307535Y225910D01*
X306928Y225119D01*
X306680Y224521D01*
X290327D01*
X266873Y247975D01*
X266447Y248260D01*
X265945Y248360D01*
X201775D01*
X201374Y248860D01*
X201405Y249016D01*
X201374Y249172D01*
X201775Y249672D01*
X272488D01*
X289879Y232280D01*
X290305Y231996D01*
X290807Y231896D01*
X306680D01*
X306928Y231299D01*
X307535Y230507D01*
X308326Y229900D01*
X309247Y229519D01*
X310236Y229389D01*
X311225Y229519D01*
X312146Y229900D01*
X312937Y230507D01*
X313545Y231299D01*
X313926Y232220D01*
X314056Y233209D01*
X313926Y234197D01*
X313545Y235119D01*
X312937Y235910D01*
X312146Y236517D01*
X311225Y236899D01*
X310236Y237029D01*
X309247Y236899D01*
X308326Y236517D01*
X307535Y235910D01*
X306928Y235119D01*
X306680Y234521D01*
X291351D01*
X273960Y251912D01*
X273534Y252197D01*
X273031Y252297D01*
X201775D01*
X201374Y252797D01*
X201405Y252953D01*
X201298Y253490D01*
X200993Y253946D01*
X200538Y254251D01*
X200000Y254358D01*
D02*
G37*
G36*
X227378Y230996D02*
X225106D01*
Y227740D01*
X227378D01*
Y230996D01*
D02*
G37*
G36*
X224106D02*
X221835D01*
Y227740D01*
X224106D01*
Y230996D01*
D02*
G37*
G36*
X30008Y223004D02*
Y219535D01*
X33477D01*
X33405Y220080D01*
X33002Y221053D01*
X32361Y221888D01*
X31525Y222529D01*
X30552Y222933D01*
X30008Y223004D01*
D02*
G37*
G36*
X29008D02*
X28464Y222933D01*
X27491Y222529D01*
X26655Y221888D01*
X26014Y221053D01*
X25611Y220080D01*
X25539Y219535D01*
X29008D01*
Y223004D01*
D02*
G37*
G36*
X359449Y223190D02*
X358460Y223060D01*
X357539Y222678D01*
X356748Y222071D01*
X356140Y221280D01*
X355759Y220359D01*
X355629Y219370D01*
X355759Y218381D01*
X356140Y217460D01*
X356748Y216669D01*
X357539Y216062D01*
X358460Y215680D01*
X359449Y215550D01*
X360437Y215680D01*
X361359Y216062D01*
X362150Y216669D01*
X362757Y217460D01*
X363139Y218381D01*
X363269Y219370D01*
X363139Y220359D01*
X362757Y221280D01*
X362150Y222071D01*
X361359Y222678D01*
X360437Y223060D01*
X359449Y223190D01*
D02*
G37*
G36*
X49508Y222855D02*
X48519Y222725D01*
X47598Y222344D01*
X46807Y221737D01*
X46200Y220946D01*
X45818Y220024D01*
X45688Y219035D01*
X45818Y218047D01*
X46200Y217125D01*
X46807Y216334D01*
X47598Y215727D01*
X48519Y215346D01*
X49508Y215215D01*
X50497Y215346D01*
X51418Y215727D01*
X52209Y216334D01*
X52816Y217125D01*
X53198Y218047D01*
X53328Y219035D01*
X53198Y220024D01*
X52816Y220946D01*
X52209Y221737D01*
X51418Y222344D01*
X50497Y222725D01*
X49508Y222855D01*
D02*
G37*
G36*
X33477Y218535D02*
X30008D01*
Y215067D01*
X30552Y215138D01*
X31525Y215541D01*
X32361Y216183D01*
X33002Y217018D01*
X33405Y217991D01*
X33477Y218535D01*
D02*
G37*
G36*
X29008D02*
X25539D01*
X25611Y217991D01*
X26014Y217018D01*
X26655Y216183D01*
X27491Y215541D01*
X28464Y215138D01*
X29008Y215067D01*
Y218535D01*
D02*
G37*
G36*
X159268Y213795D02*
X156996D01*
Y210539D01*
X159268D01*
Y213795D01*
D02*
G37*
G36*
X155996D02*
X153724D01*
Y210539D01*
X155996D01*
Y213795D01*
D02*
G37*
G36*
X159268Y209539D02*
X156996D01*
Y206283D01*
X159268D01*
Y209539D01*
D02*
G37*
G36*
X155996D02*
X153724D01*
Y206283D01*
X155996D01*
Y209539D01*
D02*
G37*
G36*
X115961Y199819D02*
X112705D01*
Y197547D01*
X115961D01*
Y199819D01*
D02*
G37*
G36*
X111705D02*
X108449D01*
Y197547D01*
X111705D01*
Y199819D01*
D02*
G37*
G36*
X115961Y196547D02*
X112705D01*
Y194276D01*
X115961D01*
Y196547D01*
D02*
G37*
G36*
X111705D02*
X108449D01*
Y194276D01*
X111705D01*
Y196547D01*
D02*
G37*
G36*
X257936Y191380D02*
X253204D01*
Y189108D01*
X257936D01*
Y191380D01*
D02*
G37*
G36*
X252204D02*
X247471D01*
Y189108D01*
X252204D01*
Y191380D01*
D02*
G37*
G36*
X282496Y190764D02*
X279240D01*
Y188492D01*
X282496D01*
Y190764D01*
D02*
G37*
G36*
X278240D02*
X274984D01*
Y188492D01*
X278240D01*
Y190764D01*
D02*
G37*
G36*
X294701Y189976D02*
X291445D01*
Y187803D01*
X294701D01*
Y189976D01*
D02*
G37*
G36*
X290445D02*
X287189D01*
Y187803D01*
X290445D01*
Y189976D01*
D02*
G37*
G36*
X257936Y188108D02*
X253204D01*
Y185836D01*
X257936D01*
Y188108D01*
D02*
G37*
G36*
X252204D02*
X247471D01*
Y185836D01*
X252204D01*
Y188108D01*
D02*
G37*
G36*
X282496Y187492D02*
X279240D01*
Y185221D01*
X282496D01*
Y187492D01*
D02*
G37*
G36*
X278240D02*
X274984D01*
Y185221D01*
X278240D01*
Y187492D01*
D02*
G37*
G36*
X294701Y186803D02*
X291445D01*
Y184630D01*
X294701D01*
Y186803D01*
D02*
G37*
G36*
X290445D02*
X287189D01*
Y184630D01*
X290445D01*
Y186803D01*
D02*
G37*
G36*
X82390Y186328D02*
Y177961D01*
X90758D01*
X90635Y179200D01*
X90128Y180873D01*
X89304Y182415D01*
X88195Y183766D01*
X86844Y184875D01*
X85302Y185699D01*
X83629Y186206D01*
X82390Y186328D01*
D02*
G37*
G36*
X81390D02*
X80150Y186206D01*
X78477Y185699D01*
X76936Y184875D01*
X75585Y183766D01*
X74476Y182415D01*
X73652Y180873D01*
X73144Y179200D01*
X73022Y177961D01*
X81390D01*
Y186328D01*
D02*
G37*
G36*
X46965Y179445D02*
X43709D01*
Y177173D01*
X46965D01*
Y179445D01*
D02*
G37*
G36*
Y176173D02*
X43709D01*
Y173902D01*
X46965D01*
Y176173D01*
D02*
G37*
G36*
X42709D02*
X39453D01*
Y173902D01*
X42709D01*
Y176173D01*
D02*
G37*
G36*
X282677Y173228D02*
X275591D01*
Y172390D01*
X257723D01*
Y173057D01*
X247684D01*
Y167939D01*
X250851D01*
Y163587D01*
X250747Y163544D01*
X249956Y162937D01*
X249349Y162146D01*
X248968Y161225D01*
X248837Y160236D01*
X248968Y159248D01*
X249349Y158326D01*
X249956Y157535D01*
X250747Y156928D01*
X251669Y156546D01*
X252658Y156416D01*
X253646Y156546D01*
X254568Y156928D01*
X255359Y157535D01*
X255966Y158326D01*
X256347Y159248D01*
X256478Y160236D01*
X256347Y161225D01*
X255966Y162146D01*
X255359Y162937D01*
X254568Y163544D01*
X254464Y163587D01*
Y167939D01*
X257723D01*
Y168777D01*
X275591D01*
Y168110D01*
X282677D01*
Y168863D01*
X284094D01*
X295573Y157384D01*
X296159Y156993D01*
X296850Y156855D01*
X350138D01*
X361973Y145019D01*
Y118662D01*
X358701Y115389D01*
X356890D01*
Y117362D01*
X342717D01*
Y109803D01*
X347048D01*
X347239Y109341D01*
X338683Y100785D01*
X338292Y100199D01*
X338154Y99508D01*
Y95040D01*
X331634Y88519D01*
X316240D01*
X315549Y88381D01*
X314963Y87990D01*
X307815Y80842D01*
X303898D01*
X301413Y83327D01*
Y88484D01*
X302165D01*
Y95571D01*
X301363D01*
Y106201D01*
X301969D01*
Y113287D01*
X297047D01*
Y106201D01*
X297751D01*
Y95571D01*
X297047D01*
Y88484D01*
X297800D01*
Y83566D01*
X297702Y83071D01*
X297839Y82380D01*
X297840Y82378D01*
X297937Y81888D01*
X298329Y81301D01*
X301872Y77758D01*
X302458Y77367D01*
X303150Y77229D01*
X308563D01*
X309254Y77367D01*
X309840Y77758D01*
X316988Y84906D01*
X332382D01*
X333073Y85044D01*
X333659Y85435D01*
X341238Y93014D01*
X341630Y93600D01*
X341767Y94291D01*
Y98760D01*
X351769Y108762D01*
X352161Y109348D01*
X352252Y109803D01*
X356890D01*
Y111776D01*
X359449D01*
X360140Y111914D01*
X360726Y112305D01*
X365057Y116636D01*
X365448Y117222D01*
X365586Y117913D01*
Y145768D01*
X365448Y146459D01*
X365057Y147045D01*
X352163Y159939D01*
X351577Y160330D01*
X350886Y160468D01*
X297599D01*
X286120Y171947D01*
X285534Y172338D01*
X284842Y172476D01*
X282677D01*
Y173228D01*
D02*
G37*
G36*
X319104Y176961D02*
X310736D01*
Y168593D01*
X311976Y168715D01*
X313649Y169222D01*
X315190Y170046D01*
X316542Y171155D01*
X317650Y172507D01*
X318474Y174048D01*
X318982Y175721D01*
X319104Y176961D01*
D02*
G37*
G36*
X309736D02*
X301368D01*
X301491Y175721D01*
X301998Y174048D01*
X302822Y172507D01*
X303931Y171155D01*
X305282Y170046D01*
X306824Y169222D01*
X308497Y168715D01*
X309736Y168593D01*
Y176961D01*
D02*
G37*
G36*
X90758D02*
X82390D01*
Y168593D01*
X83629Y168715D01*
X85302Y169222D01*
X86844Y170046D01*
X88195Y171155D01*
X89304Y172507D01*
X90128Y174048D01*
X90635Y175721D01*
X90758Y176961D01*
D02*
G37*
G36*
X81390D02*
X73022D01*
X73144Y175721D01*
X73652Y174048D01*
X74476Y172507D01*
X75585Y171155D01*
X76936Y170046D01*
X78477Y169222D01*
X80150Y168715D01*
X81390Y168593D01*
Y176961D01*
D02*
G37*
G36*
X282890Y165173D02*
X279634D01*
Y162902D01*
X282890D01*
Y165173D01*
D02*
G37*
G36*
X278634D02*
X275378D01*
Y162902D01*
X278634D01*
Y165173D01*
D02*
G37*
G36*
X51968Y164699D02*
X45669D01*
X45167Y164599D01*
X44741Y164314D01*
X41985Y161558D01*
X41701Y161132D01*
X41601Y160630D01*
Y156055D01*
X37783Y152238D01*
X35087D01*
Y154713D01*
X27512D01*
Y147138D01*
X35087D01*
Y149613D01*
X38327D01*
X38829Y149713D01*
X39255Y149997D01*
X43842Y154584D01*
X44126Y155009D01*
X44226Y155512D01*
Y160086D01*
X46213Y162073D01*
X51425D01*
X52483Y161015D01*
X52236Y160555D01*
X51673Y160667D01*
X50944Y160521D01*
X50325Y160108D01*
X49912Y159490D01*
X49766Y158760D01*
Y156004D01*
X49912Y155274D01*
X50325Y154656D01*
X50944Y154242D01*
X51673Y154097D01*
X52403Y154242D01*
X52479Y154293D01*
X52920Y154057D01*
Y152953D01*
X53020Y152450D01*
X53304Y152025D01*
X55765Y149564D01*
X56191Y149279D01*
X56693Y149179D01*
X70519D01*
X73777Y145922D01*
X74202Y145638D01*
X74705Y145538D01*
X78347D01*
Y143307D01*
X83465D01*
Y150394D01*
X83465D01*
X83364Y150873D01*
X83585Y151148D01*
X99063D01*
X101542Y148669D01*
Y145276D01*
X100098D01*
X100098Y141332D01*
X99745Y140978D01*
X95472D01*
X94970Y140878D01*
X94544Y140594D01*
X93256Y139305D01*
X91634D01*
Y141535D01*
X90486D01*
Y143307D01*
X91732D01*
Y150394D01*
X86614D01*
Y143307D01*
X87861D01*
Y141535D01*
X86713D01*
Y134449D01*
X91634D01*
Y136679D01*
X93799D01*
X94301Y136779D01*
X94727Y137064D01*
X96016Y138353D01*
X99745D01*
X100098Y137999D01*
Y137795D01*
X100098Y137295D01*
Y134055D01*
X105610D01*
Y137295D01*
X105610Y137795D01*
X105610Y138295D01*
Y141035D01*
X105610Y141535D01*
X105610Y142035D01*
Y145276D01*
X104167D01*
Y149213D01*
X104067Y149715D01*
X103782Y150141D01*
X100534Y153389D01*
X100109Y153673D01*
X99606Y153773D01*
X82973D01*
X82470Y153673D01*
X82044Y153389D01*
X80076Y151420D01*
X79791Y150994D01*
X79691Y150492D01*
Y150394D01*
X78347D01*
Y148163D01*
X75248D01*
X71991Y151420D01*
X71565Y151705D01*
X71063Y151805D01*
X57237D01*
X55545Y153497D01*
Y154057D01*
X55986Y154293D01*
X56062Y154242D01*
X56791Y154097D01*
X57521Y154242D01*
X58071Y154610D01*
X58621Y154242D01*
X59350Y154097D01*
X60080Y154242D01*
X60699Y154656D01*
X61112Y155274D01*
X61257Y156004D01*
Y156069D01*
X107232D01*
X112270Y151031D01*
Y145276D01*
X110728D01*
Y142035D01*
X110728Y141535D01*
X110728Y141035D01*
Y138295D01*
X110728Y137795D01*
X110728Y137295D01*
Y134055D01*
X111778D01*
Y124264D01*
X105362Y117848D01*
X71410D01*
X60663Y128595D01*
Y131994D01*
X60699Y132018D01*
X61112Y132636D01*
X61257Y133366D01*
Y136122D01*
X61112Y136852D01*
X60699Y137470D01*
X60080Y137884D01*
X59350Y138029D01*
X58621Y137884D01*
X58262Y137644D01*
X57604Y138084D01*
X57291Y138146D01*
Y134744D01*
Y131342D01*
X57538Y131391D01*
X57797Y131301D01*
X58038Y131172D01*
Y128051D01*
X58138Y127549D01*
X58422Y127123D01*
X69938Y115607D01*
X70364Y115323D01*
X70866Y115223D01*
X105905D01*
X106408Y115323D01*
X106834Y115607D01*
X114019Y122792D01*
X114303Y123218D01*
X114403Y123721D01*
Y134055D01*
X116240D01*
X116240Y137999D01*
X116594Y138353D01*
X121358D01*
Y136417D01*
X126279D01*
Y143504D01*
X121358D01*
Y140978D01*
X116594D01*
X116240Y141332D01*
Y141535D01*
X116240Y142035D01*
Y145276D01*
X114895D01*
Y151575D01*
X114795Y152077D01*
X114511Y152503D01*
X108704Y158310D01*
X108278Y158595D01*
X107776Y158695D01*
X61257D01*
Y158760D01*
X61112Y159490D01*
X60699Y160108D01*
X60080Y160521D01*
X59350Y160667D01*
X58621Y160521D01*
X58071Y160154D01*
X57521Y160521D01*
X56791Y160667D01*
X56062Y160521D01*
X55946Y160444D01*
X55446Y160712D01*
Y161221D01*
X55347Y161723D01*
X55062Y162149D01*
X52897Y164314D01*
X52471Y164599D01*
X51968Y164699D01*
D02*
G37*
G36*
X282890Y161902D02*
X279634D01*
Y159630D01*
X282890D01*
Y161902D01*
D02*
G37*
G36*
X278634D02*
X275378D01*
Y159630D01*
X278634D01*
Y161902D01*
D02*
G37*
G36*
X301476Y150527D02*
X278150D01*
X277458Y150389D01*
X276872Y149998D01*
X271939Y145064D01*
X246358D01*
Y148819D01*
X230610D01*
Y136614D01*
X246358D01*
Y141452D01*
X272687D01*
X273378Y141589D01*
X273964Y141981D01*
X278898Y146914D01*
X300728D01*
X307347Y140295D01*
Y137402D01*
X306398D01*
Y133874D01*
X306185D01*
Y132291D01*
X309154D01*
X312122D01*
Y133725D01*
X331791D01*
X332483Y133863D01*
X333069Y134254D01*
X335099Y136284D01*
X342717D01*
Y134311D01*
X356890D01*
Y141870D01*
X342717D01*
Y139897D01*
X334350D01*
X333659Y139759D01*
X333073Y139368D01*
X331043Y137338D01*
X311909D01*
Y137402D01*
X310960D01*
Y141043D01*
X310822Y141735D01*
X310431Y142321D01*
X302754Y149998D01*
X302168Y150389D01*
X301476Y150527D01*
D02*
G37*
G36*
X134563Y143717D02*
X132390D01*
Y140461D01*
X134563D01*
Y143717D01*
D02*
G37*
G36*
X131390D02*
X129217D01*
Y140461D01*
X131390D01*
Y143717D01*
D02*
G37*
G36*
X56291Y138146D02*
X55979Y138084D01*
X55321Y137644D01*
X54962Y137884D01*
X54232Y138029D01*
X53503Y137884D01*
X52953Y137516D01*
X52403Y137884D01*
X51673Y138029D01*
X50944Y137884D01*
X50325Y137470D01*
X49912Y136852D01*
X49766Y136122D01*
Y133366D01*
X49912Y132636D01*
X50325Y132018D01*
X50944Y131605D01*
X51673Y131459D01*
X52403Y131605D01*
X52953Y131972D01*
X53503Y131605D01*
X54232Y131459D01*
X54962Y131605D01*
X55321Y131844D01*
X55979Y131404D01*
X56291Y131342D01*
Y134744D01*
Y138146D01*
D02*
G37*
G36*
X134563Y139461D02*
X132390D01*
Y136205D01*
X134563D01*
Y139461D01*
D02*
G37*
G36*
X131390D02*
X129217D01*
Y136205D01*
X131390D01*
Y139461D01*
D02*
G37*
G36*
X102362Y130349D02*
X101335Y130214D01*
X100377Y129817D01*
X99554Y129186D01*
X98923Y128363D01*
X98645Y127691D01*
X80489D01*
X80211Y128363D01*
X79580Y129186D01*
X78757Y129817D01*
X77799Y130214D01*
X76772Y130349D01*
X75744Y130214D01*
X74786Y129817D01*
X73964Y129186D01*
X73333Y128363D01*
X72936Y127406D01*
X72801Y126378D01*
X72936Y125350D01*
X73333Y124392D01*
X73964Y123570D01*
X74786Y122939D01*
X75744Y122542D01*
X76772Y122407D01*
X77799Y122542D01*
X78757Y122939D01*
X79580Y123570D01*
X80211Y124392D01*
X80489Y125065D01*
X98645D01*
X98923Y124392D01*
X99554Y123570D01*
X100377Y122939D01*
X101335Y122542D01*
X102362Y122407D01*
X103390Y122542D01*
X104348Y122939D01*
X105170Y123570D01*
X105801Y124392D01*
X106198Y125350D01*
X106333Y126378D01*
X106198Y127406D01*
X105801Y128363D01*
X105170Y129186D01*
X104348Y129817D01*
X103390Y130214D01*
X102362Y130349D01*
D02*
G37*
G36*
X316929D02*
X315901Y130214D01*
X314944Y129817D01*
X314121Y129186D01*
X313490Y128363D01*
X313093Y127406D01*
X312958Y126378D01*
X313093Y125350D01*
X313490Y124392D01*
X314121Y123570D01*
X314944Y122939D01*
X315901Y122542D01*
X316929Y122407D01*
X317957Y122542D01*
X318915Y122939D01*
X319737Y123570D01*
X320368Y124392D01*
X320765Y125350D01*
X320900Y126378D01*
X320765Y127406D01*
X320368Y128363D01*
X319737Y129186D01*
X318915Y129817D01*
X317957Y130214D01*
X316929Y130349D01*
D02*
G37*
G36*
X336630Y113500D02*
X334457D01*
Y110244D01*
X336630D01*
Y113500D01*
D02*
G37*
G36*
X333457D02*
X331283D01*
Y110244D01*
X333457D01*
Y113500D01*
D02*
G37*
G36*
X49508Y242856D02*
X48519Y242725D01*
X47598Y242344D01*
X46807Y241737D01*
X46200Y240946D01*
X45818Y240024D01*
X45688Y239035D01*
X45818Y238047D01*
X46200Y237125D01*
X46807Y236334D01*
X47598Y235727D01*
X48519Y235346D01*
X49508Y235215D01*
X50497Y235346D01*
X51418Y235727D01*
X52209Y236334D01*
X52816Y237125D01*
X52859Y237229D01*
X58248D01*
X94650Y200827D01*
Y178642D01*
X94788Y177951D01*
X95179Y177364D01*
X102660Y169884D01*
X103246Y169493D01*
X103937Y169355D01*
X172736Y169355D01*
X180354D01*
X212957Y136752D01*
Y119390D01*
X213095Y118699D01*
X213487Y118113D01*
X222837Y108762D01*
X223423Y108370D01*
X224114Y108233D01*
X230610D01*
Y103937D01*
X246358D01*
Y109119D01*
X271260D01*
X271951Y109256D01*
X272537Y109648D01*
X273583Y110694D01*
X278543D01*
Y109941D01*
X285630D01*
Y115059D01*
X284717D01*
X284523Y115559D01*
X285760Y116796D01*
X295374D01*
X296065Y116934D01*
X296651Y117325D01*
X299899Y120573D01*
X300291Y121159D01*
X300428Y121850D01*
Y126181D01*
X301279D01*
Y129421D01*
X301279Y129921D01*
X301279D01*
Y129921D01*
X301279D01*
Y133161D01*
X301279Y133661D01*
X301279Y134161D01*
Y137402D01*
X295768D01*
Y134161D01*
X295768Y133661D01*
X295768Y133161D01*
Y130421D01*
X295768Y129921D01*
X295768D01*
Y129921D01*
X295768D01*
Y126728D01*
X295268Y126696D01*
X295174Y127406D01*
X294778Y128363D01*
X294146Y129186D01*
X293324Y129817D01*
X292366Y130214D01*
X291339Y130349D01*
X290311Y130214D01*
X289353Y129817D01*
X288531Y129186D01*
X287900Y128363D01*
X287503Y127406D01*
X287368Y126378D01*
X287503Y125350D01*
X287900Y124392D01*
X288531Y123570D01*
X289353Y122939D01*
X290311Y122542D01*
X291339Y122407D01*
X292366Y122542D01*
X293324Y122939D01*
X294146Y123570D01*
X294778Y124392D01*
X295174Y125350D01*
X295280Y126152D01*
X295768Y126181D01*
X295788Y126181D01*
X296816D01*
Y122599D01*
X294626Y120409D01*
X285011D01*
X284320Y120271D01*
X283734Y119880D01*
X281301Y117447D01*
X280910Y116861D01*
X280772Y116170D01*
Y115059D01*
X278543D01*
Y114306D01*
X272835D01*
X272143Y114169D01*
X271557Y113777D01*
X270512Y112732D01*
X246358D01*
Y116142D01*
X230610D01*
Y111846D01*
X224862D01*
X216570Y120138D01*
Y137500D01*
X216433Y138191D01*
X216041Y138777D01*
X182380Y172439D01*
X181794Y172830D01*
X181102Y172968D01*
X172736D01*
X104685Y172968D01*
X98263Y179390D01*
Y201575D01*
X98125Y202266D01*
X97734Y202852D01*
X60273Y240313D01*
X59687Y240704D01*
X58996Y240842D01*
X52859D01*
X52816Y240946D01*
X52209Y241737D01*
X51418Y242344D01*
X50497Y242725D01*
X49508Y242856D01*
D02*
G37*
G36*
X317429Y112781D02*
Y109161D01*
X321049D01*
X320972Y109745D01*
X320554Y110754D01*
X319889Y111621D01*
X319022Y112286D01*
X318012Y112704D01*
X317429Y112781D01*
D02*
G37*
G36*
X316429D02*
X315846Y112704D01*
X314836Y112286D01*
X313970Y111621D01*
X313304Y110754D01*
X312886Y109745D01*
X312809Y109161D01*
X316429D01*
Y112781D01*
D02*
G37*
G36*
X291839D02*
Y109161D01*
X295458D01*
X295381Y109745D01*
X294963Y110754D01*
X294298Y111621D01*
X293431Y112286D01*
X292422Y112704D01*
X291839Y112781D01*
D02*
G37*
G36*
X290839D02*
X290255Y112704D01*
X289246Y112286D01*
X288379Y111621D01*
X287714Y110754D01*
X287296Y109745D01*
X287219Y109161D01*
X290839D01*
Y112781D01*
D02*
G37*
G36*
X102862D02*
Y109161D01*
X106482D01*
X106405Y109745D01*
X105987Y110754D01*
X105322Y111621D01*
X104455Y112286D01*
X103445Y112704D01*
X102862Y112781D01*
D02*
G37*
G36*
X101862D02*
X101279Y112704D01*
X100269Y112286D01*
X99403Y111621D01*
X98738Y110754D01*
X98319Y109745D01*
X98243Y109161D01*
X101862D01*
Y112781D01*
D02*
G37*
G36*
X77272D02*
Y109161D01*
X80891D01*
X80814Y109745D01*
X80396Y110754D01*
X79731Y111621D01*
X78864Y112286D01*
X77855Y112704D01*
X77272Y112781D01*
D02*
G37*
G36*
X76272D02*
X75688Y112704D01*
X74679Y112286D01*
X73812Y111621D01*
X73147Y110754D01*
X72729Y109745D01*
X72652Y109161D01*
X76272D01*
Y112781D01*
D02*
G37*
G36*
X312122Y131291D02*
X309154D01*
X306185D01*
Y129709D01*
X306398D01*
Y126181D01*
X307743D01*
Y123772D01*
X306651Y122680D01*
X306366Y122254D01*
X306266Y121752D01*
Y117717D01*
Y113287D01*
X305118D01*
Y106201D01*
X310039D01*
Y113287D01*
X308891D01*
Y114330D01*
X309278Y114647D01*
X309350Y114632D01*
X324259D01*
X324573Y114319D01*
Y113287D01*
X323425D01*
Y106201D01*
X328346D01*
Y113287D01*
X327198D01*
Y114862D01*
X327098Y115365D01*
X326814Y115790D01*
X325731Y116873D01*
X325306Y117158D01*
X324803Y117257D01*
X309894D01*
X308891Y118260D01*
Y121208D01*
X309983Y122300D01*
X310268Y122726D01*
X310368Y123228D01*
Y126181D01*
X311909D01*
Y129709D01*
X312122D01*
Y131291D01*
D02*
G37*
G36*
X336630Y109244D02*
X334457D01*
Y105988D01*
X336630D01*
Y109244D01*
D02*
G37*
G36*
X333457D02*
X331283D01*
Y105988D01*
X333457D01*
Y109244D01*
D02*
G37*
G36*
X285842Y107004D02*
X282587D01*
Y104732D01*
X285842D01*
Y107004D01*
D02*
G37*
G36*
X281587D02*
X278331D01*
Y104732D01*
X281587D01*
Y107004D01*
D02*
G37*
G36*
X321049Y108161D02*
X317429D01*
Y104542D01*
X318012Y104619D01*
X319022Y105037D01*
X319889Y105702D01*
X320554Y106569D01*
X320972Y107578D01*
X321049Y108161D01*
D02*
G37*
G36*
X316429D02*
X312809D01*
X312886Y107578D01*
X313304Y106569D01*
X313970Y105702D01*
X314836Y105037D01*
X315846Y104619D01*
X316429Y104542D01*
Y108161D01*
D02*
G37*
G36*
X295458D02*
X291839D01*
Y104542D01*
X292422Y104619D01*
X293431Y105037D01*
X294298Y105702D01*
X294963Y106569D01*
X295381Y107578D01*
X295458Y108161D01*
D02*
G37*
G36*
X290839D02*
X287219D01*
X287296Y107578D01*
X287714Y106569D01*
X288379Y105702D01*
X289246Y105037D01*
X290255Y104619D01*
X290839Y104542D01*
Y108161D01*
D02*
G37*
G36*
X106482D02*
X102862D01*
Y104542D01*
X103445Y104619D01*
X104455Y105037D01*
X105322Y105702D01*
X105987Y106569D01*
X106405Y107578D01*
X106482Y108161D01*
D02*
G37*
G36*
X101862D02*
X98243D01*
X98319Y107578D01*
X98738Y106569D01*
X99403Y105702D01*
X100269Y105037D01*
X101279Y104619D01*
X101862Y104542D01*
Y108161D01*
D02*
G37*
G36*
X80891D02*
X77272D01*
Y104542D01*
X77855Y104619D01*
X78864Y105037D01*
X79731Y105702D01*
X80396Y106569D01*
X80814Y107578D01*
X80891Y108161D01*
D02*
G37*
G36*
X76272D02*
X72652D01*
X72729Y107578D01*
X73147Y106569D01*
X73812Y105702D01*
X74679Y105037D01*
X75688Y104619D01*
X76272Y104542D01*
Y108161D01*
D02*
G37*
G36*
X285842Y103732D02*
X282587D01*
Y101461D01*
X285842D01*
Y103732D01*
D02*
G37*
G36*
X281587D02*
X278331D01*
Y101461D01*
X281587D01*
Y103732D01*
D02*
G37*
G36*
X133858Y98853D02*
X132831Y98718D01*
X131873Y98321D01*
X131050Y97690D01*
X130419Y96867D01*
X130141Y96194D01*
X111985D01*
X111707Y96867D01*
X111076Y97690D01*
X110253Y98321D01*
X109295Y98718D01*
X108268Y98853D01*
X107240Y98718D01*
X106282Y98321D01*
X105460Y97690D01*
X104829Y96867D01*
X104432Y95910D01*
X104297Y94882D01*
X104432Y93854D01*
X104829Y92896D01*
X105460Y92074D01*
X106282Y91443D01*
X107240Y91046D01*
X108268Y90911D01*
X109295Y91046D01*
X110253Y91443D01*
X111076Y92074D01*
X111707Y92896D01*
X111985Y93569D01*
X130141D01*
X130419Y92896D01*
X131050Y92074D01*
X131873Y91443D01*
X132831Y91046D01*
X133858Y90911D01*
X134886Y91046D01*
X135844Y91443D01*
X136666Y92074D01*
X137297Y92896D01*
X137694Y93854D01*
X137829Y94882D01*
X137694Y95910D01*
X137297Y96867D01*
X136666Y97690D01*
X135844Y98321D01*
X134886Y98718D01*
X133858Y98853D01*
D02*
G37*
G36*
X70866D02*
X69838Y98718D01*
X68881Y98321D01*
X68058Y97690D01*
X67427Y96867D01*
X67149Y96194D01*
X48993D01*
X48715Y96867D01*
X48083Y97690D01*
X47261Y98321D01*
X46303Y98718D01*
X45276Y98853D01*
X44248Y98718D01*
X43290Y98321D01*
X42468Y97690D01*
X41837Y96867D01*
X41440Y95910D01*
X41305Y94882D01*
X41440Y93854D01*
X41837Y92896D01*
X42468Y92074D01*
X43290Y91443D01*
X44248Y91046D01*
X45276Y90911D01*
X46303Y91046D01*
X47261Y91443D01*
X48083Y92074D01*
X48715Y92896D01*
X48993Y93569D01*
X67149D01*
X67427Y92896D01*
X68058Y92074D01*
X68881Y91443D01*
X69838Y91046D01*
X70866Y90911D01*
X71894Y91046D01*
X72852Y91443D01*
X73674Y92074D01*
X74305Y92896D01*
X74702Y93854D01*
X74837Y94882D01*
X74702Y95910D01*
X74305Y96867D01*
X73674Y97690D01*
X72852Y98321D01*
X71894Y98718D01*
X70866Y98853D01*
D02*
G37*
G36*
X310646Y95784D02*
X308374D01*
Y92528D01*
X310646D01*
Y95784D01*
D02*
G37*
G36*
X307374D02*
X305102D01*
Y92528D01*
X307374D01*
Y95784D01*
D02*
G37*
G36*
X348425Y98853D02*
X347397Y98718D01*
X346440Y98321D01*
X345617Y97690D01*
X344986Y96867D01*
X344589Y95910D01*
X344454Y94882D01*
X344589Y93854D01*
X344986Y92896D01*
X345617Y92074D01*
X346440Y91443D01*
X347397Y91046D01*
X348425Y90911D01*
X349453Y91046D01*
X350411Y91443D01*
X351233Y92074D01*
X351864Y92896D01*
X352261Y93854D01*
X352396Y94882D01*
X352261Y95910D01*
X351864Y96867D01*
X351233Y97690D01*
X350411Y98321D01*
X349453Y98718D01*
X348425Y98853D01*
D02*
G37*
G36*
X322835D02*
X321807Y98718D01*
X320849Y98321D01*
X320027Y97690D01*
X319396Y96867D01*
X318999Y95910D01*
X318864Y94882D01*
X318999Y93854D01*
X319396Y92896D01*
X320027Y92074D01*
X320849Y91443D01*
X321807Y91046D01*
X322835Y90911D01*
X323862Y91046D01*
X324820Y91443D01*
X325642Y92074D01*
X326274Y92896D01*
X326670Y93854D01*
X326806Y94882D01*
X326670Y95910D01*
X326274Y96867D01*
X325642Y97690D01*
X324820Y98321D01*
X323862Y98718D01*
X322835Y98853D01*
D02*
G37*
G36*
X285433D02*
X284405Y98718D01*
X283448Y98321D01*
X282625Y97690D01*
X281994Y96867D01*
X281597Y95910D01*
X281462Y94882D01*
X281597Y93854D01*
X281994Y92896D01*
X282625Y92074D01*
X283448Y91443D01*
X284405Y91046D01*
X285433Y90911D01*
X286461Y91046D01*
X287419Y91443D01*
X288241Y92074D01*
X288872Y92896D01*
X289269Y93854D01*
X289404Y94882D01*
X289269Y95910D01*
X288872Y96867D01*
X288241Y97690D01*
X287419Y98321D01*
X286461Y98718D01*
X285433Y98853D01*
D02*
G37*
G36*
X259842D02*
X258815Y98718D01*
X257857Y98321D01*
X257035Y97690D01*
X256404Y96867D01*
X256007Y95910D01*
X255872Y94882D01*
X256007Y93854D01*
X256404Y92896D01*
X257035Y92074D01*
X257857Y91443D01*
X258815Y91046D01*
X259842Y90911D01*
X260870Y91046D01*
X261828Y91443D01*
X262650Y92074D01*
X263281Y92896D01*
X263678Y93854D01*
X263813Y94882D01*
X263678Y95910D01*
X263281Y96867D01*
X262650Y97690D01*
X261828Y98321D01*
X260870Y98718D01*
X259842Y98853D01*
D02*
G37*
G36*
X209646D02*
X208618Y98718D01*
X207660Y98321D01*
X206838Y97690D01*
X206207Y96867D01*
X205810Y95910D01*
X205675Y94882D01*
X205810Y93854D01*
X206207Y92896D01*
X206838Y92074D01*
X207660Y91443D01*
X208618Y91046D01*
X209646Y90911D01*
X210673Y91046D01*
X211631Y91443D01*
X212454Y92074D01*
X213085Y92896D01*
X213481Y93854D01*
X213617Y94882D01*
X213481Y95910D01*
X213085Y96867D01*
X212454Y97690D01*
X211631Y98321D01*
X210673Y98718D01*
X209646Y98853D01*
D02*
G37*
G36*
X184055D02*
X183027Y98718D01*
X182070Y98321D01*
X181247Y97690D01*
X180616Y96867D01*
X180219Y95910D01*
X180084Y94882D01*
X180219Y93854D01*
X180616Y92896D01*
X181247Y92074D01*
X182070Y91443D01*
X183027Y91046D01*
X184055Y90911D01*
X185083Y91046D01*
X186041Y91443D01*
X186863Y92074D01*
X187494Y92896D01*
X187891Y93854D01*
X188026Y94882D01*
X187891Y95910D01*
X187494Y96867D01*
X186863Y97690D01*
X186041Y98321D01*
X185083Y98718D01*
X184055Y98853D01*
D02*
G37*
G36*
X310646Y91527D02*
X308374D01*
Y88272D01*
X310646D01*
Y91527D01*
D02*
G37*
G36*
X307374D02*
X305102D01*
Y88272D01*
X307374D01*
Y91527D01*
D02*
G37*
G36*
X172539Y89940D02*
X171268D01*
Y88217D01*
X174664D01*
X174594Y88568D01*
X174112Y89289D01*
X173390Y89771D01*
X172539Y89940D01*
D02*
G37*
G36*
X170268D02*
X168996D01*
X168145Y89771D01*
X167424Y89289D01*
X166941Y88568D01*
X166872Y88217D01*
X170268D01*
Y89940D01*
D02*
G37*
G36*
X174664Y87217D02*
X171268D01*
Y85493D01*
X172539D01*
X173390Y85662D01*
X174112Y86144D01*
X174594Y86866D01*
X174664Y87217D01*
D02*
G37*
G36*
X170268D02*
X166872D01*
X166941Y86866D01*
X167424Y86144D01*
X168145Y85662D01*
X168996Y85493D01*
X170268D01*
Y87217D01*
D02*
G37*
G36*
X203543Y85039D02*
X196457D01*
Y84029D01*
X174030D01*
X173959Y84136D01*
X173307Y84571D01*
X172539Y84724D01*
X168996D01*
X168228Y84571D01*
X167577Y84136D01*
X167142Y83485D01*
X166989Y82717D01*
X167142Y81949D01*
X167577Y81297D01*
X168228Y80862D01*
X168996Y80709D01*
X172539D01*
X173307Y80862D01*
X173959Y81297D01*
X174030Y81404D01*
X182138D01*
X182237Y80904D01*
X181962Y80790D01*
X181096Y80125D01*
X180430Y79258D01*
X180012Y78249D01*
X179936Y77665D01*
X188175D01*
X188098Y78249D01*
X187680Y79258D01*
X187015Y80125D01*
X186148Y80790D01*
X185873Y80904D01*
X185972Y81404D01*
X196457D01*
Y80118D01*
X203543D01*
Y85039D01*
D02*
G37*
G36*
X150000Y154757D02*
X149347Y154627D01*
X148794Y154258D01*
X148424Y153704D01*
X148294Y153051D01*
X148424Y152398D01*
X148687Y152004D01*
Y125544D01*
X141592Y118448D01*
X141307Y118022D01*
X141207Y117520D01*
Y83957D01*
X141307Y83454D01*
X141592Y83029D01*
X142832Y81788D01*
X143257Y81504D01*
X143760Y81404D01*
X145852D01*
X145923Y81297D01*
X146574Y80862D01*
X147343Y80709D01*
X150886D01*
X151654Y80862D01*
X152305Y81297D01*
X152740Y81949D01*
X152893Y82717D01*
X152740Y83485D01*
X152305Y84136D01*
X151654Y84571D01*
X150886Y84724D01*
X147343D01*
X146574Y84571D01*
X145923Y84136D01*
X145852Y84029D01*
X144304D01*
X143832Y84500D01*
Y116976D01*
X150928Y124072D01*
X151213Y124498D01*
X151313Y125000D01*
Y152004D01*
X151576Y152398D01*
X151706Y153051D01*
X151576Y153704D01*
X151206Y154258D01*
X150653Y154627D01*
X150000Y154757D01*
D02*
G37*
G36*
X172539Y79940D02*
X171268D01*
Y78216D01*
X174664D01*
X174594Y78568D01*
X174112Y79289D01*
X173390Y79771D01*
X172539Y79940D01*
D02*
G37*
G36*
X170268D02*
X168996D01*
X168145Y79771D01*
X167424Y79289D01*
X166941Y78568D01*
X166872Y78216D01*
X170268D01*
Y79940D01*
D02*
G37*
G36*
X348925Y81285D02*
Y77665D01*
X352545D01*
X352468Y78249D01*
X352050Y79258D01*
X351385Y80125D01*
X350518Y80790D01*
X349509Y81208D01*
X348925Y81285D01*
D02*
G37*
G36*
X347925D02*
X347342Y81208D01*
X346333Y80790D01*
X345466Y80125D01*
X344800Y79258D01*
X344382Y78249D01*
X344306Y77665D01*
X347925D01*
Y81285D01*
D02*
G37*
G36*
X323335D02*
Y77665D01*
X326954D01*
X326877Y78249D01*
X326459Y79258D01*
X325794Y80125D01*
X324927Y80790D01*
X323918Y81208D01*
X323335Y81285D01*
D02*
G37*
G36*
X322335D02*
X321751Y81208D01*
X320742Y80790D01*
X319875Y80125D01*
X319210Y79258D01*
X318792Y78249D01*
X318715Y77665D01*
X322335D01*
Y81285D01*
D02*
G37*
G36*
X285933D02*
Y77665D01*
X289553D01*
X289476Y78249D01*
X289058Y79258D01*
X288393Y80125D01*
X287526Y80790D01*
X286516Y81208D01*
X285933Y81285D01*
D02*
G37*
G36*
X284933D02*
X284350Y81208D01*
X283340Y80790D01*
X282473Y80125D01*
X281808Y79258D01*
X281390Y78249D01*
X281313Y77665D01*
X284933D01*
Y81285D01*
D02*
G37*
G36*
X260343D02*
Y77665D01*
X263962D01*
X263885Y78249D01*
X263467Y79258D01*
X262802Y80125D01*
X261935Y80790D01*
X260926Y81208D01*
X260343Y81285D01*
D02*
G37*
G36*
X259343D02*
X258759Y81208D01*
X257750Y80790D01*
X256883Y80125D01*
X256218Y79258D01*
X255800Y78249D01*
X255723Y77665D01*
X259343D01*
Y81285D01*
D02*
G37*
G36*
X210146D02*
Y77665D01*
X213765D01*
X213688Y78249D01*
X213270Y79258D01*
X212605Y80125D01*
X211738Y80790D01*
X210729Y81208D01*
X210146Y81285D01*
D02*
G37*
G36*
X209146D02*
X208562Y81208D01*
X207553Y80790D01*
X206686Y80125D01*
X206021Y79258D01*
X205603Y78249D01*
X205526Y77665D01*
X209146D01*
Y81285D01*
D02*
G37*
G36*
X134358D02*
Y77665D01*
X137978D01*
X137901Y78249D01*
X137483Y79258D01*
X136818Y80125D01*
X135951Y80790D01*
X134941Y81208D01*
X134358Y81285D01*
D02*
G37*
G36*
X133358D02*
X132775Y81208D01*
X131766Y80790D01*
X130899Y80125D01*
X130234Y79258D01*
X129815Y78249D01*
X129739Y77665D01*
X133358D01*
Y81285D01*
D02*
G37*
G36*
X108768D02*
Y77665D01*
X112387D01*
X112311Y78249D01*
X111892Y79258D01*
X111227Y80125D01*
X110360Y80790D01*
X109351Y81208D01*
X108768Y81285D01*
D02*
G37*
G36*
X107768D02*
X107185Y81208D01*
X106175Y80790D01*
X105308Y80125D01*
X104643Y79258D01*
X104225Y78249D01*
X104148Y77665D01*
X107768D01*
Y81285D01*
D02*
G37*
G36*
X71366D02*
Y77665D01*
X74986D01*
X74909Y78249D01*
X74491Y79258D01*
X73826Y80125D01*
X72959Y80790D01*
X71949Y81208D01*
X71366Y81285D01*
D02*
G37*
G36*
X70366D02*
X69783Y81208D01*
X68774Y80790D01*
X67907Y80125D01*
X67242Y79258D01*
X66823Y78249D01*
X66747Y77665D01*
X70366D01*
Y81285D01*
D02*
G37*
G36*
X45776D02*
Y77665D01*
X49395D01*
X49318Y78249D01*
X48900Y79258D01*
X48235Y80125D01*
X47368Y80790D01*
X46359Y81208D01*
X45776Y81285D01*
D02*
G37*
G36*
X44776D02*
X44192Y81208D01*
X43183Y80790D01*
X42316Y80125D01*
X41651Y79258D01*
X41233Y78249D01*
X41156Y77665D01*
X44776D01*
Y81285D01*
D02*
G37*
G36*
X150886Y79724D02*
X147343D01*
X146574Y79571D01*
X145923Y79136D01*
X145488Y78485D01*
X145335Y77716D01*
X145488Y76948D01*
X145923Y76297D01*
X146574Y75862D01*
X147343Y75709D01*
X150886D01*
X151654Y75862D01*
X152305Y76297D01*
X152740Y76948D01*
X152893Y77716D01*
X152740Y78485D01*
X152305Y79136D01*
X151654Y79571D01*
X150886Y79724D01*
D02*
G37*
G36*
X174664Y77217D02*
X171268D01*
Y75493D01*
X172539D01*
X173390Y75662D01*
X174112Y76144D01*
X174594Y76866D01*
X174664Y77217D01*
D02*
G37*
G36*
X170268D02*
X166872D01*
X166941Y76866D01*
X167424Y76144D01*
X168145Y75662D01*
X168996Y75493D01*
X170268D01*
Y77217D01*
D02*
G37*
G36*
X203756Y77181D02*
X200500D01*
Y75008D01*
X203756D01*
Y77181D01*
D02*
G37*
G36*
X199500D02*
X196244D01*
Y75008D01*
X199500D01*
Y77181D01*
D02*
G37*
G36*
X352545Y76665D02*
X348925D01*
Y73046D01*
X349509Y73123D01*
X350518Y73541D01*
X351385Y74206D01*
X352050Y75073D01*
X352468Y76082D01*
X352545Y76665D01*
D02*
G37*
G36*
X347925D02*
X344306D01*
X344382Y76082D01*
X344800Y75073D01*
X345466Y74206D01*
X346333Y73541D01*
X347342Y73123D01*
X347925Y73046D01*
Y76665D01*
D02*
G37*
G36*
X326954D02*
X323335D01*
Y73046D01*
X323918Y73123D01*
X324927Y73541D01*
X325794Y74206D01*
X326459Y75073D01*
X326877Y76082D01*
X326954Y76665D01*
D02*
G37*
G36*
X322335D02*
X318715D01*
X318792Y76082D01*
X319210Y75073D01*
X319875Y74206D01*
X320742Y73541D01*
X321751Y73123D01*
X322335Y73046D01*
Y76665D01*
D02*
G37*
G36*
X289553D02*
X285933D01*
Y73046D01*
X286516Y73123D01*
X287526Y73541D01*
X288393Y74206D01*
X289058Y75073D01*
X289476Y76082D01*
X289553Y76665D01*
D02*
G37*
G36*
X284933D02*
X281313D01*
X281390Y76082D01*
X281808Y75073D01*
X282473Y74206D01*
X283340Y73541D01*
X284350Y73123D01*
X284933Y73046D01*
Y76665D01*
D02*
G37*
G36*
X263962D02*
X260343D01*
Y73046D01*
X260926Y73123D01*
X261935Y73541D01*
X262802Y74206D01*
X263467Y75073D01*
X263885Y76082D01*
X263962Y76665D01*
D02*
G37*
G36*
X259343D02*
X255723D01*
X255800Y76082D01*
X256218Y75073D01*
X256883Y74206D01*
X257750Y73541D01*
X258759Y73123D01*
X259343Y73046D01*
Y76665D01*
D02*
G37*
G36*
X213765D02*
X210146D01*
Y73046D01*
X210729Y73123D01*
X211738Y73541D01*
X212605Y74206D01*
X213270Y75073D01*
X213688Y76082D01*
X213765Y76665D01*
D02*
G37*
G36*
X209146D02*
X205526D01*
X205603Y76082D01*
X206021Y75073D01*
X206686Y74206D01*
X207553Y73541D01*
X208562Y73123D01*
X209146Y73046D01*
Y76665D01*
D02*
G37*
G36*
X188175D02*
X184555D01*
Y73046D01*
X185138Y73123D01*
X186148Y73541D01*
X187015Y74206D01*
X187680Y75073D01*
X188098Y76082D01*
X188175Y76665D01*
D02*
G37*
G36*
X183555D02*
X179936D01*
X180012Y76082D01*
X180430Y75073D01*
X181096Y74206D01*
X181962Y73541D01*
X182972Y73123D01*
X183555Y73046D01*
Y76665D01*
D02*
G37*
G36*
X137978D02*
X134358D01*
Y73046D01*
X134941Y73123D01*
X135951Y73541D01*
X136818Y74206D01*
X137483Y75073D01*
X137901Y76082D01*
X137978Y76665D01*
D02*
G37*
G36*
X133358D02*
X129739D01*
X129815Y76082D01*
X130234Y75073D01*
X130899Y74206D01*
X131766Y73541D01*
X132775Y73123D01*
X133358Y73046D01*
Y76665D01*
D02*
G37*
G36*
X112387D02*
X108768D01*
Y73046D01*
X109351Y73123D01*
X110360Y73541D01*
X111227Y74206D01*
X111892Y75073D01*
X112311Y76082D01*
X112387Y76665D01*
D02*
G37*
G36*
X107768D02*
X104148D01*
X104225Y76082D01*
X104643Y75073D01*
X105308Y74206D01*
X106175Y73541D01*
X107185Y73123D01*
X107768Y73046D01*
Y76665D01*
D02*
G37*
G36*
X74986D02*
X71366D01*
Y73046D01*
X71949Y73123D01*
X72959Y73541D01*
X73826Y74206D01*
X74491Y75073D01*
X74909Y76082D01*
X74986Y76665D01*
D02*
G37*
G36*
X70366D02*
X66747D01*
X66823Y76082D01*
X67242Y75073D01*
X67907Y74206D01*
X68774Y73541D01*
X69783Y73123D01*
X70366Y73046D01*
Y76665D01*
D02*
G37*
G36*
X49395D02*
X45776D01*
Y73046D01*
X46359Y73123D01*
X47368Y73541D01*
X48235Y74206D01*
X48900Y75073D01*
X49318Y76082D01*
X49395Y76665D01*
D02*
G37*
G36*
X44776D02*
X41156D01*
X41233Y76082D01*
X41651Y75073D01*
X42316Y74206D01*
X43183Y73541D01*
X44192Y73123D01*
X44776Y73046D01*
Y76665D01*
D02*
G37*
G36*
X203756Y74008D02*
X200500D01*
Y71835D01*
X203756D01*
Y74008D01*
D02*
G37*
G36*
X199500D02*
X196244D01*
Y71835D01*
X199500D01*
Y74008D01*
D02*
G37*
G36*
X316929Y67357D02*
X315901Y67221D01*
X314944Y66825D01*
X314121Y66194D01*
X313490Y65371D01*
X313211Y64698D01*
X295056D01*
X294778Y65371D01*
X294146Y66194D01*
X293324Y66825D01*
X292366Y67221D01*
X291339Y67357D01*
X290311Y67221D01*
X289353Y66825D01*
X288531Y66194D01*
X287900Y65371D01*
X287503Y64414D01*
X287368Y63386D01*
X287503Y62358D01*
X287900Y61400D01*
X288531Y60578D01*
X289353Y59947D01*
X290311Y59550D01*
X291339Y59415D01*
X292366Y59550D01*
X293324Y59947D01*
X294146Y60578D01*
X294778Y61400D01*
X295056Y62073D01*
X313211D01*
X313490Y61400D01*
X314121Y60578D01*
X314944Y59947D01*
X315901Y59550D01*
X316929Y59415D01*
X317957Y59550D01*
X318915Y59947D01*
X319737Y60578D01*
X320368Y61400D01*
X320765Y62358D01*
X320900Y63386D01*
X320765Y64414D01*
X320368Y65371D01*
X319737Y66194D01*
X318915Y66825D01*
X317957Y67221D01*
X316929Y67357D01*
D02*
G37*
G36*
X102362Y67357D02*
X101335Y67221D01*
X100377Y66825D01*
X99554Y66194D01*
X98923Y65371D01*
X98527Y64414D01*
X98391Y63386D01*
X98527Y62358D01*
X98923Y61400D01*
X99554Y60578D01*
X100377Y59947D01*
X101335Y59550D01*
X102362Y59415D01*
X103390Y59550D01*
X104348Y59947D01*
X105170Y60578D01*
X105801Y61400D01*
X106198Y62358D01*
X106333Y63386D01*
X106198Y64414D01*
X105801Y65371D01*
X105170Y66194D01*
X104348Y66825D01*
X103390Y67221D01*
X102362Y67357D01*
D02*
G37*
G36*
X76772D02*
X75744Y67221D01*
X74786Y66825D01*
X73964Y66194D01*
X73333Y65371D01*
X72936Y64414D01*
X72801Y63386D01*
X72936Y62358D01*
X73333Y61400D01*
X73964Y60578D01*
X74786Y59947D01*
X75744Y59550D01*
X76772Y59415D01*
X77799Y59550D01*
X78757Y59947D01*
X79580Y60578D01*
X80211Y61400D01*
X80607Y62358D01*
X80743Y63386D01*
X80607Y64414D01*
X80211Y65371D01*
X79580Y66194D01*
X78757Y66825D01*
X77799Y67221D01*
X76772Y67357D01*
D02*
G37*
G36*
X172752Y59661D02*
X170480D01*
Y56406D01*
X172752D01*
Y59661D01*
D02*
G37*
G36*
X169480D02*
X167209D01*
Y56406D01*
X169480D01*
Y59661D01*
D02*
G37*
G36*
X172752Y55405D02*
X170480D01*
Y52150D01*
X172752D01*
Y55405D01*
D02*
G37*
G36*
X169480D02*
X167209D01*
Y52150D01*
X169480D01*
Y55405D01*
D02*
G37*
G36*
X102862Y49789D02*
Y46169D01*
X106482D01*
X106405Y46753D01*
X105987Y47762D01*
X105322Y48629D01*
X104455Y49294D01*
X103445Y49712D01*
X102862Y49789D01*
D02*
G37*
G36*
X101862D02*
X101279Y49712D01*
X100269Y49294D01*
X99403Y48629D01*
X98738Y47762D01*
X98319Y46753D01*
X98243Y46169D01*
X101862D01*
Y49789D01*
D02*
G37*
G36*
X77272D02*
Y46169D01*
X80891D01*
X80814Y46753D01*
X80396Y47762D01*
X79731Y48629D01*
X78864Y49294D01*
X77855Y49712D01*
X77272Y49789D01*
D02*
G37*
G36*
X76272D02*
X75688Y49712D01*
X74679Y49294D01*
X73812Y48629D01*
X73147Y47762D01*
X72729Y46753D01*
X72652Y46169D01*
X76272D01*
Y49789D01*
D02*
G37*
G36*
X317429Y49789D02*
Y46169D01*
X321049D01*
X320972Y46753D01*
X320554Y47762D01*
X319889Y48629D01*
X319022Y49294D01*
X318012Y49712D01*
X317429Y49789D01*
D02*
G37*
G36*
X316429D02*
X315846Y49712D01*
X314836Y49294D01*
X313970Y48629D01*
X313304Y47762D01*
X312886Y46753D01*
X312809Y46169D01*
X316429D01*
Y49789D01*
D02*
G37*
G36*
X291839D02*
Y46169D01*
X295458D01*
X295381Y46753D01*
X294963Y47762D01*
X294298Y48629D01*
X293431Y49294D01*
X292422Y49712D01*
X291839Y49789D01*
D02*
G37*
G36*
X290839D02*
X290255Y49712D01*
X289246Y49294D01*
X288379Y48629D01*
X287714Y47762D01*
X287296Y46753D01*
X287219Y46169D01*
X290839D01*
Y49789D01*
D02*
G37*
G36*
X106482Y45169D02*
X102862D01*
Y41550D01*
X103445Y41627D01*
X104455Y42045D01*
X105322Y42710D01*
X105987Y43577D01*
X106405Y44586D01*
X106482Y45169D01*
D02*
G37*
G36*
X101862D02*
X98243D01*
X98319Y44586D01*
X98738Y43577D01*
X99403Y42710D01*
X100269Y42045D01*
X101279Y41627D01*
X101862Y41550D01*
Y45169D01*
D02*
G37*
G36*
X80891D02*
X77272D01*
Y41550D01*
X77855Y41627D01*
X78864Y42045D01*
X79731Y42710D01*
X80396Y43577D01*
X80814Y44586D01*
X80891Y45169D01*
D02*
G37*
G36*
X76272D02*
X72652D01*
X72729Y44586D01*
X73147Y43577D01*
X73812Y42710D01*
X74679Y42045D01*
X75688Y41627D01*
X76272Y41550D01*
Y45169D01*
D02*
G37*
G36*
X321049Y45169D02*
X317429D01*
Y41550D01*
X318012Y41627D01*
X319022Y42045D01*
X319889Y42710D01*
X320554Y43577D01*
X320972Y44586D01*
X321049Y45169D01*
D02*
G37*
G36*
X316429D02*
X312809D01*
X312886Y44586D01*
X313304Y43577D01*
X313970Y42710D01*
X314836Y42045D01*
X315846Y41627D01*
X316429Y41550D01*
Y45169D01*
D02*
G37*
G36*
X295458D02*
X291839D01*
Y41550D01*
X292422Y41627D01*
X293431Y42045D01*
X294298Y42710D01*
X294963Y43577D01*
X295381Y44586D01*
X295458Y45169D01*
D02*
G37*
G36*
X290839D02*
X287219D01*
X287296Y44586D01*
X287714Y43577D01*
X288379Y42710D01*
X289246Y42045D01*
X290255Y41627D01*
X290839Y41550D01*
Y45169D01*
D02*
G37*
G36*
X150886Y89724D02*
X147343D01*
X146574Y89571D01*
X145923Y89136D01*
X145488Y88485D01*
X145335Y87717D01*
X145488Y86949D01*
X145923Y86297D01*
X146574Y85862D01*
X147343Y85710D01*
X150886D01*
X151654Y85862D01*
X151726Y85910D01*
X155236D01*
X157446Y83701D01*
Y78445D01*
X157583Y77754D01*
X157975Y77168D01*
X163628Y71515D01*
X164214Y71123D01*
X164905Y70986D01*
X168043D01*
X168228Y70862D01*
X168996Y70710D01*
X172539D01*
X173307Y70862D01*
X173379Y70910D01*
X174173D01*
X176442Y68642D01*
Y59449D01*
X175689D01*
Y52362D01*
X176442D01*
Y43996D01*
X176579Y43305D01*
X176971Y42719D01*
X190553Y29136D01*
X191139Y28745D01*
X191831Y28607D01*
X192522Y28745D01*
X193108Y29136D01*
X193500Y29722D01*
X193637Y30413D01*
X193500Y31105D01*
X193108Y31691D01*
X180054Y44744D01*
Y52362D01*
X180807D01*
Y59449D01*
X180054D01*
Y69390D01*
X179917Y70081D01*
X179525Y70667D01*
X176199Y73994D01*
X175612Y74385D01*
X174921Y74523D01*
X173379D01*
X173307Y74571D01*
X172539Y74724D01*
X168996D01*
X168366Y74598D01*
X165653D01*
X161058Y79193D01*
Y84449D01*
X160921Y85140D01*
X160529Y85726D01*
X157262Y88994D01*
X156676Y89385D01*
X155984Y89523D01*
X151726D01*
X151654Y89571D01*
X150886Y89724D01*
D02*
G37*
G36*
X212902Y16036D02*
Y11622D01*
X217315D01*
X217212Y12411D01*
X216714Y13612D01*
X215923Y14643D01*
X214891Y15435D01*
X213690Y15932D01*
X212902Y16036D01*
D02*
G37*
G36*
X181799D02*
Y11622D01*
X186213D01*
X186109Y12411D01*
X185612Y13612D01*
X184820Y14643D01*
X183789Y15435D01*
X182588Y15932D01*
X181799Y16036D01*
D02*
G37*
G36*
X211902D02*
X211113Y15932D01*
X209912Y15435D01*
X208880Y14643D01*
X208089Y13612D01*
X207592Y12411D01*
X207488Y11622D01*
X211902D01*
Y16036D01*
D02*
G37*
G36*
X180799D02*
X180010Y15932D01*
X178809Y15435D01*
X177778Y14643D01*
X176987Y13612D01*
X176489Y12411D01*
X176385Y11622D01*
X180799D01*
Y16036D01*
D02*
G37*
G36*
X217315Y10622D02*
X212902D01*
Y6208D01*
X213690Y6312D01*
X214891Y6810D01*
X215923Y7601D01*
X216714Y8632D01*
X217212Y9833D01*
X217315Y10622D01*
D02*
G37*
G36*
X186213D02*
X181799D01*
Y6208D01*
X182588Y6312D01*
X183789Y6810D01*
X184820Y7601D01*
X185612Y8632D01*
X186109Y9833D01*
X186213Y10622D01*
D02*
G37*
G36*
X211902D02*
X207488D01*
X207592Y9833D01*
X208089Y8632D01*
X208880Y7601D01*
X209912Y6810D01*
X211113Y6312D01*
X211902Y6208D01*
Y10622D01*
D02*
G37*
G36*
X180799D02*
X176385D01*
X176489Y9833D01*
X176987Y8632D01*
X177778Y7601D01*
X178809Y6810D01*
X180010Y6312D01*
X180799Y6208D01*
Y10622D01*
D02*
G37*
%LPD*%
G36*
X288855Y222281D02*
X289281Y221996D01*
X289784Y221896D01*
X306680D01*
X306928Y221299D01*
X307535Y220508D01*
X308326Y219900D01*
X309247Y219519D01*
X309172Y219029D01*
X257630D01*
X235324Y241336D01*
X235515Y241798D01*
X240598D01*
X253056Y229340D01*
X253148Y228875D01*
X253518Y228321D01*
X254071Y227951D01*
X254724Y227822D01*
X255377Y227951D01*
X255931Y228321D01*
X256301Y228875D01*
X256430Y229528D01*
X256301Y230180D01*
X255931Y230734D01*
X255377Y231104D01*
X254912Y231196D01*
X242804Y243304D01*
X242996Y243766D01*
X249555D01*
X255910Y237411D01*
X256003Y236946D01*
X256372Y236392D01*
X256926Y236022D01*
X257579Y235892D01*
X258232Y236022D01*
X258785Y236392D01*
X259155Y236946D01*
X259285Y237598D01*
X259155Y238251D01*
X258785Y238805D01*
X258232Y239175D01*
X257766Y239267D01*
X251761Y245273D01*
X251952Y245735D01*
X265401D01*
X288855Y222281D01*
D02*
G37*
G36*
X190410Y198678D02*
X190836Y198394D01*
X191339Y198294D01*
X287303D01*
X287402Y197835D01*
X287402D01*
Y196687D01*
X190997D01*
X179462Y208221D01*
Y208973D01*
X179924Y209164D01*
X190410Y198678D01*
D02*
G37*
G36*
X303895Y192280D02*
X304321Y191996D01*
X304823Y191896D01*
X306680D01*
X306928Y191299D01*
X307535Y190507D01*
X308326Y189900D01*
X309032Y189608D01*
X308933Y189108D01*
X302906D01*
X295810Y196204D01*
X295384Y196488D01*
X294882Y196588D01*
X294488D01*
Y197835D01*
X294488D01*
X294587Y198294D01*
X297882D01*
X303895Y192280D01*
D02*
G37*
D10*
X291339Y63386D02*
X316929D01*
X76772Y126378D02*
X102362D01*
X45276Y94882D02*
X70866D01*
X108268D02*
X133858D01*
X54134Y157480D02*
X54232Y157382D01*
X54134Y157480D02*
Y161221D01*
X197736Y231299D02*
X216339Y231398D01*
X209449Y258760D02*
X210335Y259646D01*
X164469Y247096D02*
X176132D01*
X190354Y231299D02*
X197736D01*
X186811Y234842D02*
Y236614D01*
Y234842D02*
X190354Y231299D01*
X175098Y236614D02*
X186811D01*
X197736Y235236D02*
X204626D01*
X205413Y236614D01*
X150000Y125000D02*
Y153051D01*
X142520Y117520D02*
X150000Y125000D01*
X142520Y83957D02*
Y117520D01*
Y83957D02*
X143760Y82717D01*
X149114D01*
X158465Y233268D02*
X164469D01*
X158465Y233268D02*
X158465Y233268D01*
X136024Y243110D02*
Y246161D01*
X135925Y243012D02*
X136024Y243110D01*
Y246161D02*
X137992Y248130D01*
X147835D01*
X250098Y245079D02*
X257579Y237598D01*
X197736Y245079D02*
X250098D01*
X184055Y258760D02*
Y276673D01*
X184055Y258760D02*
X184055Y258760D01*
X173327Y287402D02*
X184055Y276673D01*
X166240Y287402D02*
X173327D01*
X172638Y284744D02*
X182087Y275295D01*
Y258760D02*
Y275295D01*
X166240Y284744D02*
X172638D01*
X180118Y258760D02*
Y274016D01*
X172047Y282087D02*
X180118Y274016D01*
X166240Y282087D02*
X172047D01*
X178150Y258760D02*
Y273130D01*
X178150Y258760D02*
X178150Y258760D01*
X171752Y279528D02*
X178150Y273130D01*
X166142Y279528D02*
X171752D01*
X176181Y258760D02*
Y271850D01*
X171063Y276969D02*
X176181Y271850D01*
X166142Y276969D02*
X171063D01*
X174213Y258760D02*
Y270472D01*
X174213Y258760D02*
X174213Y258760D01*
X170276Y274410D02*
X174213Y270472D01*
X166142Y274410D02*
X170276D01*
X172244Y258760D02*
Y269193D01*
X169783Y271654D02*
X172244Y269193D01*
X166240Y271654D02*
X169783D01*
X170276Y258760D02*
Y267421D01*
X168799Y268898D02*
X170276Y267421D01*
X166240Y268898D02*
X168799D01*
X191929Y225084D02*
Y225492D01*
Y225084D02*
X192013Y225000D01*
X205118D01*
X135827Y243110D02*
X135925Y243012D01*
X187992Y225492D02*
X187992Y225492D01*
Y219291D02*
Y225492D01*
X197736Y243110D02*
X241142D01*
X254724Y229528D01*
X233661Y241142D02*
X257087Y217717D01*
X197736Y241142D02*
X233661D01*
X257087Y217717D02*
X315354D01*
X323701Y209370D01*
X359449D01*
X188760Y213209D02*
X310236D01*
X184055Y217913D02*
X188760Y213209D01*
X191339Y199606D02*
X298425D01*
X180118Y210827D02*
X191339Y199606D01*
X180118Y210827D02*
Y225492D01*
X298425Y199606D02*
X304823Y193209D01*
X310236D01*
X176132Y247096D02*
X184104D01*
X191929Y254921D02*
Y258760D01*
X184104Y247096D02*
X191929Y254921D01*
X273031Y250984D02*
X290807Y233209D01*
X197736Y250984D02*
X273031D01*
X290807Y233209D02*
X310236D01*
X197736Y247047D02*
X265945D01*
X289784Y223209D01*
X310236D01*
X184055Y217913D02*
Y225492D01*
X182087Y213583D02*
Y225492D01*
Y213583D02*
X192461Y203209D01*
X310236D01*
X178150Y207677D02*
X190453Y195374D01*
X178150Y207677D02*
Y225492D01*
X190453Y195374D02*
X290945D01*
X294882Y195276D02*
X302362Y187795D01*
X325590D01*
X290945Y195374D02*
X291043Y195276D01*
X294882D01*
X325590Y187795D02*
X337165Y199370D01*
X359449D01*
X187992Y317913D02*
X191811Y321732D01*
Y331496D01*
X187992Y258760D02*
Y317913D01*
X181496Y320866D02*
Y331181D01*
X181811Y331496D01*
X181496Y320866D02*
X186024Y316339D01*
Y258760D02*
Y316339D01*
X113091Y123721D02*
Y135531D01*
X105905Y116535D02*
X113091Y123721D01*
X70866Y116535D02*
X105905D01*
X59350Y128051D02*
Y134744D01*
Y128051D02*
X70866Y116535D01*
X31299Y150925D02*
X38327D01*
X42913Y155512D01*
Y160630D01*
X45669Y163386D01*
X51968D01*
X54134Y161221D01*
X324803Y115945D02*
X325886Y114862D01*
X309350Y115945D02*
X324803D01*
X307579Y117717D02*
X309350Y115945D01*
X307579Y117717D02*
Y121752D01*
Y109744D02*
Y117717D01*
X325886Y109744D02*
Y114862D01*
X309055Y123228D02*
Y127953D01*
X309154Y128051D01*
X307579Y121752D02*
X309055Y123228D01*
X298524Y128051D02*
Y131791D01*
X113091Y135531D02*
X113484Y135925D01*
X112303Y263189D02*
Y281398D01*
X107579Y286122D02*
X112303Y281398D01*
X103150Y286122D02*
X107579D01*
X145473Y278445D02*
X145768Y278150D01*
X136319Y278445D02*
X145473D01*
X145768Y257185D02*
Y278150D01*
Y257185D02*
X153937Y249016D01*
X164469D01*
X127559Y226181D02*
X140453D01*
X155413Y241142D01*
X123425Y230315D02*
X127559Y226181D01*
X123425Y230315D02*
Y241934D01*
X120576Y244783D02*
X123425Y241934D01*
X112303Y248031D02*
X115551Y244783D01*
X112303Y248031D02*
Y263189D01*
X115551Y244783D02*
X120576D01*
X155413Y241142D02*
X164469D01*
X154921Y236417D02*
X157677Y239173D01*
X164469D01*
X154921Y225787D02*
Y236417D01*
X134449Y205315D02*
X154921Y225787D01*
X112205Y205315D02*
X134449D01*
X112205D02*
X112303Y205413D01*
Y227756D01*
X191929Y258760D02*
X209449D01*
X136024Y243110D02*
X164469D01*
X176132Y247096D02*
X181644Y241585D01*
X186811Y236614D01*
X170276Y231791D02*
X175098Y236614D01*
X170276Y225492D02*
Y231791D01*
X170768Y82717D02*
X199862D01*
X74705Y146850D02*
X80905D01*
X71063Y150492D02*
X74705Y146850D01*
X56693Y150492D02*
X71063D01*
X54232Y152953D02*
X56693Y150492D01*
X54232Y152953D02*
Y157382D01*
X59350D02*
X107776D01*
X113484Y139665D02*
X123524D01*
X123819Y139961D01*
X93799Y137992D02*
X95472Y139665D01*
X89173Y137992D02*
X93799D01*
X95472Y139665D02*
X102854D01*
X89173Y137992D02*
Y146850D01*
X81004Y146949D02*
Y150492D01*
X80905Y146850D02*
X81004Y146949D01*
Y150492D02*
X82973Y152461D01*
X99606D01*
X102854Y149213D01*
Y143405D02*
Y149213D01*
X113583Y143504D02*
Y151575D01*
X113484Y143405D02*
X113583Y143504D01*
X107776Y157382D02*
X113583Y151575D01*
X199862Y82717D02*
X200000Y82579D01*
D21*
X224114Y110039D02*
X238484D01*
X214764Y119390D02*
X224114Y110039D01*
X214764Y119390D02*
Y137500D01*
X172736Y171161D02*
X181102D01*
X214764Y137500D01*
X238484Y110039D02*
X239370Y110925D01*
X271260D01*
X238484Y142717D02*
X239026Y143258D01*
X272687D01*
X334350Y138091D02*
X349803D01*
X331791Y135531D02*
X334350Y138091D01*
X309154Y135531D02*
X331791D01*
X350492Y110039D02*
Y112894D01*
X339961Y99508D02*
X350492Y110039D01*
X349803Y113583D02*
X350492Y112894D01*
X363779Y117913D02*
Y145768D01*
X359449Y113583D02*
X363779Y117913D01*
X349803Y113583D02*
X359449D01*
X339961Y94291D02*
Y99508D01*
X350886Y158661D02*
X363779Y145768D01*
X296850Y158661D02*
X350886D01*
X310236Y293209D02*
X319783D01*
X327362Y300787D01*
Y323524D01*
X310335Y340551D02*
X327362Y323524D01*
X213976Y340551D02*
X310335D01*
X211811Y338386D02*
X213976Y340551D01*
X211811Y331496D02*
Y338386D01*
X252658Y170452D02*
X252704Y170498D01*
X252658Y160236D02*
Y170452D01*
X165059Y203051D02*
Y209744D01*
X164764Y210039D02*
X165059Y209744D01*
X185138Y182972D02*
X226253D01*
X165059Y203051D02*
X185138Y182972D01*
X288386Y179724D02*
X302362Y165748D01*
X278740Y179724D02*
X288386D01*
X278654Y179639D02*
X278740Y179724D01*
X302362Y165748D02*
X316929D01*
X340551Y189370D01*
X359449D01*
X252789Y179639D02*
X278654D01*
X252704Y179553D02*
X252789Y179639D01*
X284842Y170669D02*
X296850Y158661D01*
X279134Y170669D02*
X284842D01*
X279048Y170583D02*
X279134Y170669D01*
X252789Y170583D02*
X279048D01*
X252704Y170498D02*
X252789Y170583D01*
X27953Y141732D02*
X35433Y134252D01*
Y66929D02*
Y134252D01*
Y66929D02*
X47638Y54724D01*
X136221D01*
X149114Y67618D01*
Y72716D01*
X43110Y185039D02*
X43701D01*
X43012Y184941D02*
X43307Y184646D01*
X43012Y185728D02*
X43701Y185039D01*
X43012Y184941D02*
X43110Y185039D01*
X65354Y141732D02*
X69095Y137992D01*
X27953Y141732D02*
X65354D01*
X25197Y144488D02*
X27953Y141732D01*
X25197Y155905D02*
X30217Y160925D01*
X31299D01*
X25197Y144488D02*
Y155905D01*
X69095Y137992D02*
X81102D01*
X43012Y184941D02*
X43209D01*
X42224D02*
X43012D01*
X31299Y174016D02*
X42224Y184941D01*
X31299Y160925D02*
Y174016D01*
X43307Y184646D02*
X51968D01*
X62205Y194882D01*
Y225197D01*
X58366Y229035D02*
X62205Y225197D01*
X49508Y229035D02*
X58366D01*
X48917D02*
X49508D01*
X40551Y237402D02*
X48917Y229035D01*
X40551Y237402D02*
Y308661D01*
X55905Y324016D01*
X49508Y239035D02*
X58996D01*
X96457Y201575D01*
Y178642D02*
Y201575D01*
Y178642D02*
X103937Y171161D01*
X178248Y55905D02*
Y69390D01*
X174921Y72716D02*
X178248Y69390D01*
X170768Y72716D02*
X174921D01*
X332382Y86713D02*
X339961Y94291D01*
X316240Y86713D02*
X332382D01*
X308563Y79035D02*
X316240Y86713D01*
X303150Y79035D02*
X308563D01*
X295374Y118602D02*
X298622Y121850D01*
X285011Y118602D02*
X295374D01*
X282579Y116170D02*
X285011Y118602D01*
X298524Y128051D02*
X298622Y127953D01*
X298425Y128150D02*
X298524Y128051D01*
X298622Y121850D02*
Y127953D01*
X282579Y112992D02*
Y116170D01*
X282087Y112500D02*
X282579Y112992D01*
X104035Y324016D02*
X128248Y299803D01*
X55905Y324016D02*
X104035D01*
X103937Y171161D02*
X172736Y171161D01*
X178248Y43996D02*
Y55905D01*
Y43996D02*
X191831Y30413D01*
X128248Y278445D02*
Y299803D01*
X164764Y210039D02*
Y224044D01*
X226253Y182972D02*
X229672Y179553D01*
X166212Y225492D02*
X169882D01*
X164764Y224044D02*
X166212Y225492D01*
X229672Y179553D02*
X252704D01*
X272835Y112500D02*
X282087D01*
X271260Y110925D02*
X272835Y112500D01*
X299508Y83071D02*
X299557Y83022D01*
Y92077D02*
Y109695D01*
X299606Y82579D02*
X303150Y79035D01*
X299606Y82579D02*
Y92028D01*
X309154Y135531D02*
Y141043D01*
X301476Y148721D02*
X309154Y141043D01*
X278150Y148721D02*
X301476D01*
X272687Y143258D02*
X278150Y148721D01*
X155984Y87717D02*
X159252Y84449D01*
Y78445D02*
Y84449D01*
Y78445D02*
X164905Y72792D01*
X170692D01*
X170768Y72716D01*
X149114Y87717D02*
X155984D01*
D23*
X150000Y153051D02*
D03*
X158465Y233268D02*
D03*
X257579Y237598D02*
D03*
X166240Y287402D02*
D03*
Y284744D02*
D03*
X166240Y282087D02*
D03*
X166142Y279528D02*
D03*
Y276969D02*
D03*
Y274410D02*
D03*
X166240Y268898D02*
D03*
Y271654D02*
D03*
X205413Y236614D02*
D03*
X147835Y248130D02*
D03*
X205118Y225000D02*
D03*
X187992Y219291D02*
D03*
X254724Y229528D02*
D03*
X191831Y30413D02*
D03*
D24*
X252658Y160236D02*
D03*
X359449Y199370D02*
D03*
Y189370D02*
D03*
Y219370D02*
D03*
Y209370D02*
D03*
Y255807D02*
D03*
Y265807D02*
D03*
Y275807D02*
D03*
Y285807D02*
D03*
Y295807D02*
D03*
X31299Y160925D02*
D03*
X310236Y293209D02*
D03*
Y283209D02*
D03*
Y273209D02*
D03*
Y263209D02*
D03*
Y253209D02*
D03*
Y243209D02*
D03*
Y233209D02*
D03*
Y223209D02*
D03*
Y213209D02*
D03*
Y203209D02*
D03*
Y193209D02*
D03*
X49508Y239035D02*
D03*
Y229035D02*
D03*
Y219035D02*
D03*
X29508Y239035D02*
D03*
Y219035D02*
D03*
D25*
X285433Y94882D02*
D03*
X259842D02*
D03*
X285433Y77165D02*
D03*
X259842D02*
D03*
X316929Y63386D02*
D03*
X291339D02*
D03*
X316929Y45669D02*
D03*
X291339D02*
D03*
X102362Y126378D02*
D03*
X76772D02*
D03*
X102362Y108661D02*
D03*
X76772D02*
D03*
X133858Y94882D02*
D03*
X108268D02*
D03*
X133858Y77165D02*
D03*
X108268D02*
D03*
X209646Y94882D02*
D03*
X184055D02*
D03*
X209646Y77165D02*
D03*
X184055D02*
D03*
X70866Y94882D02*
D03*
X45276D02*
D03*
X70866Y77165D02*
D03*
X45276D02*
D03*
X348425Y94882D02*
D03*
X322835D02*
D03*
X348425Y77165D02*
D03*
X322835D02*
D03*
X316929Y126378D02*
D03*
X291339D02*
D03*
X316929Y108661D02*
D03*
X291339D02*
D03*
X102362Y63386D02*
D03*
X76772D02*
D03*
X102362Y45669D02*
D03*
X76772D02*
D03*
X171811Y331496D02*
D03*
X181811D02*
D03*
X191811D02*
D03*
X201811D02*
D03*
X211811D02*
D03*
X221811D02*
D03*
D26*
X31299Y150925D02*
D03*
D27*
X81890Y308957D02*
D03*
Y177461D02*
D03*
X310236D02*
D03*
Y308957D02*
D03*
D28*
X181299Y11122D02*
D03*
X212402D02*
D03*
D29*
X349803Y113583D02*
D03*
Y138091D02*
D03*
D30*
X238484Y142717D02*
D03*
Y110039D02*
D03*
D31*
X136319Y278445D02*
D03*
X128248D02*
D03*
X154232Y278543D02*
D03*
X146161D02*
D03*
X307579Y109744D02*
D03*
X299508D02*
D03*
X333957D02*
D03*
X325886D02*
D03*
X81102Y137992D02*
D03*
X89173D02*
D03*
X123819Y139961D02*
D03*
X131890D02*
D03*
D32*
X94882Y286122D02*
D03*
X103150D02*
D03*
X156496Y210039D02*
D03*
X164764D02*
D03*
X224606Y231496D02*
D03*
X216339D02*
D03*
X219094Y258661D02*
D03*
X210827D02*
D03*
X307874Y92028D02*
D03*
X299606D02*
D03*
X80905Y146850D02*
D03*
X89173D02*
D03*
X169980Y55905D02*
D03*
X178248D02*
D03*
D33*
X112303Y227756D02*
D03*
Y263189D02*
D03*
D34*
X112205Y197047D02*
D03*
Y205315D02*
D03*
X135925Y234744D02*
D03*
Y243012D02*
D03*
X278740Y187992D02*
D03*
Y179724D02*
D03*
X279134Y162402D02*
D03*
Y170669D02*
D03*
X282087Y104232D02*
D03*
Y112500D02*
D03*
X43209Y176673D02*
D03*
Y184941D02*
D03*
D35*
X290945Y187303D02*
D03*
Y195374D02*
D03*
X200000Y74508D02*
D03*
Y82579D02*
D03*
D36*
X252704Y188608D02*
D03*
Y179553D02*
D03*
Y170498D02*
D03*
D37*
X229672Y179553D02*
D03*
D38*
X309154Y135531D02*
D03*
Y131791D02*
D03*
Y128051D02*
D03*
X298524D02*
D03*
Y131791D02*
D03*
Y135531D02*
D03*
X113484Y143405D02*
D03*
Y139665D02*
D03*
Y135925D02*
D03*
X102854D02*
D03*
Y139665D02*
D03*
Y143405D02*
D03*
D39*
X59350Y134744D02*
D03*
X56791D02*
D03*
X54232D02*
D03*
X51673D02*
D03*
X59350Y157382D02*
D03*
X56791D02*
D03*
X54232D02*
D03*
X51673D02*
D03*
D40*
X170768Y87717D02*
D03*
Y82717D02*
D03*
Y77716D02*
D03*
Y72716D02*
D03*
X149114Y87717D02*
D03*
Y82717D02*
D03*
Y77716D02*
D03*
Y72716D02*
D03*
D41*
X170276Y225492D02*
D03*
X172244D02*
D03*
X174213D02*
D03*
X176181D02*
D03*
X178150D02*
D03*
X180118D02*
D03*
X182087D02*
D03*
X184055D02*
D03*
X186024D02*
D03*
X187992D02*
D03*
X189961D02*
D03*
X191929D02*
D03*
Y258760D02*
D03*
X189961D02*
D03*
X187992D02*
D03*
X186024D02*
D03*
X184055D02*
D03*
X182087D02*
D03*
X180118D02*
D03*
X178150D02*
D03*
X176181D02*
D03*
X174213D02*
D03*
X172244D02*
D03*
X170276D02*
D03*
D42*
X197736Y231299D02*
D03*
Y233268D02*
D03*
Y235236D02*
D03*
Y237205D02*
D03*
Y239173D02*
D03*
Y241142D02*
D03*
Y243110D02*
D03*
Y245079D02*
D03*
Y247047D02*
D03*
Y249016D02*
D03*
Y250984D02*
D03*
Y252953D02*
D03*
X164469D02*
D03*
Y250984D02*
D03*
Y249016D02*
D03*
Y247047D02*
D03*
Y245079D02*
D03*
Y243110D02*
D03*
Y241142D02*
D03*
Y239173D02*
D03*
Y237205D02*
D03*
Y235236D02*
D03*
Y233268D02*
D03*
Y231299D02*
D03*
M02*
