M48
;Layer_Color=9474304
;FILE_FORMAT=2:4
INCH,TZ
;TYPE=PLATED
T1F00S00C0.0079
T2F00S00C0.0300
T3F00S00C0.0354
T4F00S00C0.0394
T5F00S00C0.1220
;TYPE=NON_PLATED
T6F00S00C0.0512
T7F00S00C0.1220
%
T01
X19183Y3041
X15000Y15305
X15846Y23327
X14783Y24813
X16624Y26890
Y27165
X16614Y27441
Y27697
Y27953
X16624Y28209
X16624Y28474
Y28740
X18799Y21929
X20512Y22500
X20541Y23661
X25758Y23760
X25472Y22953
T02
X25266Y16024
X35945Y18937
Y19937
Y20937
X3130Y16093
Y15093
X4951Y21904
Y22904
Y23904
X35945Y25581
Y26581
Y27581
Y28581
Y29581
Y21937
T03
X31024Y19321
Y20321
Y21321
Y22321
Y23321
Y24321
Y25321
Y26321
Y27321
Y28321
Y29321
T04
X7677Y4567
X10236
X29134Y4567
X31693
Y6339
X32283Y7717
Y9488
X31693Y10866
Y12638
X29134
Y10866
X28543Y9488
Y7717
X29134Y6339
X25984Y7717
Y9488
X20965
Y7717
X34843
Y9488
X18406
Y7717
X13386
Y9488
X10827
Y7717
X10236Y6339
X7677
X7087Y7717
Y9488
X7677Y10866
Y12638
X10236
Y10866
X4528Y9488
Y7717
X2951Y21904
Y23904
X17181Y33150
X18181
X19181
X20181
X21181
X22181
T05
X8189Y17746
Y30896
T06
X18130Y1112
X21240
T07
X31024Y17746
Y30896
M30
