G04*
G04 #@! TF.GenerationSoftware,Altium Limited,Altium Designer,20.1.7 (139)*
G04*
G04 Layer_Physical_Order=1*
G04 Layer_Color=255*
%FSLAX25Y25*%
%MOIN*%
G70*
G04*
G04 #@! TF.SameCoordinates,7B629D7A-5012-4778-A706-7C37D5037AAD*
G04*
G04*
G04 #@! TF.FilePolarity,Positive*
G04*
G01*
G75*
%ADD10C,0.01000*%
%ADD19R,0.05807X0.08268*%
%ADD20R,0.01772X0.05433*%
%ADD21C,0.01968*%
%ADD22C,0.01575*%
%ADD23C,0.01772*%
%ADD24C,0.06000*%
%ADD25C,0.06299*%
%ADD26R,0.06000X0.06000*%
%ADD27C,0.15748*%
%ADD28C,0.07874*%
G36*
X370442Y317429D02*
X369942Y317277D01*
X369781Y317517D01*
X340352Y346947D01*
X339766Y347338D01*
X339075Y347476D01*
X217913D01*
X217222Y347338D01*
X216636Y346947D01*
X210534Y340844D01*
X210142Y340258D01*
X210005Y339567D01*
Y335009D01*
X209826Y334935D01*
X209003Y334304D01*
X208372Y333482D01*
X207975Y332524D01*
X207840Y331496D01*
X207975Y330468D01*
X208372Y329511D01*
X209003Y328688D01*
X209826Y328057D01*
X210783Y327660D01*
X211811Y327525D01*
X212839Y327660D01*
X213796Y328057D01*
X214619Y328688D01*
X215250Y329511D01*
X215647Y330468D01*
X215782Y331496D01*
X215647Y332524D01*
X215250Y333482D01*
X214619Y334304D01*
X213796Y334935D01*
X213617Y335009D01*
Y338819D01*
X218662Y343863D01*
X338327D01*
X366698Y315492D01*
Y179390D01*
X349350Y162043D01*
X256009D01*
X255966Y162146D01*
X255359Y162937D01*
X254568Y163544D01*
X253646Y163926D01*
X252658Y164056D01*
X251669Y163926D01*
X250747Y163544D01*
X249956Y162937D01*
X249349Y162146D01*
X248968Y161225D01*
X248837Y160236D01*
X248968Y159248D01*
X249349Y158326D01*
X249956Y157535D01*
X250747Y156928D01*
X251669Y156546D01*
X252658Y156416D01*
X253646Y156546D01*
X254568Y156928D01*
X255359Y157535D01*
X255966Y158326D01*
X256009Y158430D01*
X350098D01*
X350790Y158567D01*
X351376Y158959D01*
X369781Y177364D01*
X369942Y177604D01*
X370442Y177453D01*
Y1606D01*
X23259D01*
Y352725D01*
X370442D01*
Y317429D01*
D02*
G37*
%LPC*%
G36*
X202311Y335616D02*
Y331996D01*
X205931D01*
X205854Y332579D01*
X205436Y333589D01*
X204771Y334456D01*
X203904Y335121D01*
X202894Y335539D01*
X202311Y335616D01*
D02*
G37*
G36*
X201311D02*
X200728Y335539D01*
X199718Y335121D01*
X198852Y334456D01*
X198186Y333589D01*
X197768Y332579D01*
X197691Y331996D01*
X201311D01*
Y335616D01*
D02*
G37*
G36*
X221811Y335467D02*
X220783Y335332D01*
X219826Y334935D01*
X219003Y334304D01*
X218372Y333482D01*
X217975Y332524D01*
X217840Y331496D01*
X217975Y330468D01*
X218372Y329511D01*
X219003Y328688D01*
X219826Y328057D01*
X220783Y327660D01*
X221811Y327525D01*
X222839Y327660D01*
X223797Y328057D01*
X224619Y328688D01*
X225250Y329511D01*
X225647Y330468D01*
X225782Y331496D01*
X225647Y332524D01*
X225250Y333482D01*
X224619Y334304D01*
X223797Y334935D01*
X222839Y335332D01*
X221811Y335467D01*
D02*
G37*
G36*
X191811D02*
X190783Y335332D01*
X189825Y334935D01*
X189003Y334304D01*
X188372Y333482D01*
X187975Y332524D01*
X187840Y331496D01*
X187975Y330468D01*
X188372Y329511D01*
X189003Y328688D01*
X189825Y328057D01*
X190783Y327660D01*
X191811Y327525D01*
X192839Y327660D01*
X193797Y328057D01*
X194619Y328688D01*
X195250Y329511D01*
X195647Y330468D01*
X195782Y331496D01*
X195647Y332524D01*
X195250Y333482D01*
X194619Y334304D01*
X193797Y334935D01*
X192839Y335332D01*
X191811Y335467D01*
D02*
G37*
G36*
X181811D02*
X180783Y335332D01*
X179825Y334935D01*
X179003Y334304D01*
X178372Y333482D01*
X177975Y332524D01*
X177840Y331496D01*
X177975Y330468D01*
X178372Y329511D01*
X179003Y328688D01*
X179825Y328057D01*
X180783Y327660D01*
X181811Y327525D01*
X182839Y327660D01*
X183797Y328057D01*
X184619Y328688D01*
X185250Y329511D01*
X185647Y330468D01*
X185782Y331496D01*
X185647Y332524D01*
X185250Y333482D01*
X184619Y334304D01*
X183797Y334935D01*
X182839Y335332D01*
X181811Y335467D01*
D02*
G37*
G36*
X171811D02*
X170783Y335332D01*
X169825Y334935D01*
X169003Y334304D01*
X168372Y333482D01*
X167975Y332524D01*
X167840Y331496D01*
X167975Y330468D01*
X168372Y329511D01*
X169003Y328688D01*
X169825Y328057D01*
X170783Y327660D01*
X171811Y327525D01*
X172839Y327660D01*
X173796Y328057D01*
X174619Y328688D01*
X175250Y329511D01*
X175647Y330468D01*
X175782Y331496D01*
X175647Y332524D01*
X175250Y333482D01*
X174619Y334304D01*
X173796Y334935D01*
X172839Y335332D01*
X171811Y335467D01*
D02*
G37*
G36*
X205931Y330996D02*
X202311D01*
Y327377D01*
X202894Y327453D01*
X203904Y327871D01*
X204771Y328537D01*
X205436Y329403D01*
X205854Y330413D01*
X205931Y330996D01*
D02*
G37*
G36*
X201311D02*
X197691D01*
X197768Y330413D01*
X198186Y329403D01*
X198852Y328537D01*
X199718Y327871D01*
X200728Y327453D01*
X201311Y327377D01*
Y330996D01*
D02*
G37*
G36*
X310736Y317824D02*
Y309457D01*
X319104D01*
X318982Y310696D01*
X318474Y312369D01*
X317650Y313911D01*
X316542Y315262D01*
X315190Y316371D01*
X313649Y317195D01*
X311976Y317702D01*
X310736Y317824D01*
D02*
G37*
G36*
X309736D02*
X308497Y317702D01*
X306824Y317195D01*
X305282Y316371D01*
X303931Y315262D01*
X302822Y313911D01*
X301998Y312369D01*
X301491Y310696D01*
X301368Y309457D01*
X309736D01*
Y317824D01*
D02*
G37*
G36*
X82390D02*
Y309457D01*
X90758D01*
X90635Y310696D01*
X90128Y312369D01*
X89304Y313911D01*
X88195Y315262D01*
X86844Y316371D01*
X85302Y317195D01*
X83629Y317702D01*
X82390Y317824D01*
D02*
G37*
G36*
X81390D02*
X80150Y317702D01*
X78477Y317195D01*
X76936Y316371D01*
X75585Y315262D01*
X74476Y313911D01*
X73652Y312369D01*
X73144Y310696D01*
X73022Y309457D01*
X81390D01*
Y317824D01*
D02*
G37*
G36*
X319104Y308457D02*
X310736D01*
Y300089D01*
X311976Y300211D01*
X313649Y300718D01*
X315190Y301542D01*
X316542Y302652D01*
X317650Y304003D01*
X318474Y305544D01*
X318982Y307217D01*
X319104Y308457D01*
D02*
G37*
G36*
X309736D02*
X301368D01*
X301491Y307217D01*
X301998Y305544D01*
X302822Y304003D01*
X303931Y302652D01*
X305282Y301542D01*
X306824Y300718D01*
X308497Y300211D01*
X309736Y300089D01*
Y308457D01*
D02*
G37*
G36*
X90758D02*
X82390D01*
Y300089D01*
X83629Y300211D01*
X85302Y300718D01*
X86844Y301542D01*
X88195Y302652D01*
X89304Y304003D01*
X90128Y305544D01*
X90635Y307217D01*
X90758Y308457D01*
D02*
G37*
G36*
X81390D02*
X73022D01*
X73144Y307217D01*
X73652Y305544D01*
X74476Y304003D01*
X75585Y302652D01*
X76936Y301542D01*
X78477Y300718D01*
X80150Y300211D01*
X81390Y300089D01*
Y308457D01*
D02*
G37*
G36*
X340256Y328773D02*
X257087D01*
X256584Y328673D01*
X256158Y328389D01*
X196665Y268895D01*
X196280Y269058D01*
X196195Y269132D01*
Y275000D01*
X196095Y275502D01*
X195810Y275928D01*
X191282Y280456D01*
X190857Y280740D01*
X190354Y280840D01*
X168021D01*
X167754Y281340D01*
X167816Y281434D01*
X167946Y282087D01*
X167816Y282739D01*
X167446Y283293D01*
X167611Y283784D01*
X167816Y284091D01*
X167946Y284744D01*
X167816Y285397D01*
X167446Y285950D01*
Y286195D01*
X167816Y286749D01*
X167946Y287402D01*
X167816Y288054D01*
X167446Y288608D01*
X166893Y288978D01*
X166240Y289108D01*
X165587Y288978D01*
X165193Y288714D01*
X96850D01*
X96348Y288614D01*
X95922Y288330D01*
X58422Y250830D01*
X58138Y250404D01*
X58038Y249902D01*
Y154185D01*
X29485Y125633D01*
X29201Y125207D01*
X29101Y124705D01*
Y67716D01*
X29201Y67214D01*
X29485Y66788D01*
X35292Y60981D01*
X35718Y60697D01*
X36220Y60597D01*
X45374D01*
X45876Y60697D01*
X46302Y60981D01*
X56341Y71021D01*
X56626Y71447D01*
X56726Y71949D01*
Y117271D01*
X64520Y125065D01*
X73054D01*
X73333Y124392D01*
X73964Y123570D01*
X74786Y122939D01*
X75744Y122542D01*
X76772Y122407D01*
X77799Y122542D01*
X78757Y122939D01*
X79580Y123570D01*
X80211Y124392D01*
X80607Y125350D01*
X80743Y126378D01*
X80607Y127406D01*
X80211Y128363D01*
X79580Y129186D01*
X78757Y129817D01*
X77799Y130214D01*
X76772Y130349D01*
X75744Y130214D01*
X74786Y129817D01*
X73964Y129186D01*
X73333Y128363D01*
X73054Y127691D01*
X63976D01*
X63474Y127591D01*
X63048Y127306D01*
X54485Y118743D01*
X54201Y118317D01*
X54101Y117815D01*
Y72492D01*
X44830Y63222D01*
X36764D01*
X31726Y68260D01*
Y124161D01*
X60278Y152714D01*
X60563Y153139D01*
X60663Y153642D01*
Y249358D01*
X97394Y286089D01*
X132260D01*
X132377Y285913D01*
X132453Y285589D01*
X95824Y248960D01*
X95539Y248534D01*
X95439Y248031D01*
Y170918D01*
X44347Y119826D01*
X44063Y119400D01*
X43963Y118898D01*
Y98600D01*
X43290Y98321D01*
X42468Y97690D01*
X41837Y96867D01*
X41440Y95910D01*
X41305Y94882D01*
X41440Y93854D01*
X41837Y92896D01*
X42468Y92074D01*
X43290Y91443D01*
X44248Y91046D01*
X45276Y90911D01*
X46303Y91046D01*
X47261Y91443D01*
X48083Y92074D01*
X48715Y92896D01*
X49111Y93854D01*
X49247Y94882D01*
X49111Y95910D01*
X48715Y96867D01*
X48083Y97690D01*
X47261Y98321D01*
X46588Y98600D01*
Y118354D01*
X97680Y169446D01*
X97965Y169872D01*
X98065Y170374D01*
Y247488D01*
X134008Y283432D01*
X138362D01*
X138479Y283256D01*
X138556Y282931D01*
X102320Y246696D01*
X102035Y246270D01*
X101935Y245768D01*
Y162945D01*
X88737Y149747D01*
X88453Y149321D01*
X88353Y148819D01*
Y76823D01*
X78472Y66943D01*
X77799Y67221D01*
X76772Y67357D01*
X75744Y67221D01*
X74786Y66825D01*
X73964Y66194D01*
X73333Y65371D01*
X72936Y64414D01*
X72801Y63386D01*
X72936Y62358D01*
X73333Y61400D01*
X73964Y60578D01*
X74786Y59947D01*
X75744Y59550D01*
X76772Y59415D01*
X77799Y59550D01*
X78757Y59947D01*
X79580Y60578D01*
X80211Y61400D01*
X80489Y62073D01*
X98645D01*
X98923Y61400D01*
X99554Y60578D01*
X100377Y59947D01*
X101335Y59550D01*
X102362Y59415D01*
X103390Y59550D01*
X104348Y59947D01*
X105170Y60578D01*
X105801Y61400D01*
X106198Y62358D01*
X106333Y63386D01*
X106198Y64414D01*
X105801Y65371D01*
X105170Y66194D01*
X104348Y66825D01*
X103390Y67221D01*
X102362Y67357D01*
X101335Y67221D01*
X100377Y66825D01*
X99554Y66194D01*
X98923Y65371D01*
X98645Y64698D01*
X80599D01*
X80406Y65164D01*
X90593Y75351D01*
X90878Y75777D01*
X90978Y76279D01*
Y148275D01*
X104176Y161473D01*
X104461Y161899D01*
X104561Y162402D01*
Y245224D01*
X140111Y280774D01*
X164361D01*
X164628Y280274D01*
X164566Y280180D01*
X164436Y279528D01*
X164566Y278875D01*
X164935Y278321D01*
Y278175D01*
X164566Y277621D01*
X164436Y276969D01*
X164566Y276316D01*
X164628Y276222D01*
X164361Y275722D01*
X138681D01*
X138179Y275622D01*
X137753Y275338D01*
X108619Y246204D01*
X108335Y245778D01*
X108235Y245276D01*
Y117028D01*
X108335Y116525D01*
X108619Y116099D01*
X116601Y108118D01*
Y75197D01*
X116701Y74695D01*
X116985Y74269D01*
X132832Y58422D01*
X133257Y58138D01*
X133760Y58038D01*
X205460D01*
X231454Y32044D01*
X231880Y31760D01*
X232382Y31660D01*
X293602D01*
X294105Y31760D01*
X294531Y32044D01*
X305456Y42970D01*
X305740Y43395D01*
X305840Y43898D01*
Y75787D01*
X305740Y76290D01*
X305456Y76716D01*
X288990Y93181D01*
X289269Y93854D01*
X289404Y94882D01*
X289269Y95910D01*
X288872Y96867D01*
X288241Y97690D01*
X287419Y98321D01*
X286461Y98718D01*
X285433Y98853D01*
X284405Y98718D01*
X283448Y98321D01*
X282625Y97690D01*
X281994Y96867D01*
X281715Y96194D01*
X263560D01*
X263281Y96867D01*
X262650Y97690D01*
X261828Y98321D01*
X260870Y98718D01*
X259842Y98853D01*
X258815Y98718D01*
X257857Y98321D01*
X257035Y97690D01*
X256404Y96867D01*
X256007Y95910D01*
X255872Y94882D01*
X256007Y93854D01*
X256404Y92896D01*
X257035Y92074D01*
X257857Y91443D01*
X258815Y91046D01*
X259842Y90911D01*
X260870Y91046D01*
X261828Y91443D01*
X262650Y92074D01*
X263281Y92896D01*
X263560Y93569D01*
X281715D01*
X281994Y92896D01*
X282625Y92074D01*
X283448Y91443D01*
X284405Y91046D01*
X285433Y90911D01*
X286461Y91046D01*
X287134Y91325D01*
X303215Y75244D01*
Y44441D01*
X293059Y34285D01*
X232926D01*
X206932Y60278D01*
X206506Y60563D01*
X206004Y60663D01*
X134303D01*
X119226Y75740D01*
Y108661D01*
X119126Y109164D01*
X118842Y109590D01*
X110860Y117571D01*
Y244732D01*
X139225Y273097D01*
X140872D01*
X141024Y272597D01*
X141001Y272582D01*
X114426Y246007D01*
X114142Y245581D01*
X114042Y245079D01*
Y118602D01*
X114142Y118100D01*
X114426Y117674D01*
X122309Y109791D01*
Y75295D01*
X122409Y74793D01*
X122694Y74367D01*
X134603Y62458D01*
X135029Y62173D01*
X135531Y62073D01*
X287621D01*
X287900Y61400D01*
X288531Y60578D01*
X289353Y59947D01*
X290311Y59550D01*
X291339Y59415D01*
X292366Y59550D01*
X293324Y59947D01*
X294146Y60578D01*
X294778Y61400D01*
X295174Y62358D01*
X295310Y63386D01*
X295174Y64414D01*
X294778Y65371D01*
X294146Y66194D01*
X293324Y66825D01*
X292366Y67221D01*
X291339Y67357D01*
X290311Y67221D01*
X289353Y66825D01*
X288531Y66194D01*
X287900Y65371D01*
X287621Y64698D01*
X136075D01*
X124935Y75839D01*
Y110335D01*
X124835Y110837D01*
X124550Y111263D01*
X116667Y119146D01*
Y244535D01*
X142203Y270071D01*
X142289Y270049D01*
X142442Y269496D01*
X118757Y245810D01*
X118472Y245384D01*
X118372Y244882D01*
Y122244D01*
X118472Y121742D01*
X118757Y121316D01*
X132546Y107527D01*
Y98600D01*
X131873Y98321D01*
X131050Y97690D01*
X130419Y96867D01*
X130023Y95910D01*
X129887Y94882D01*
X130023Y93854D01*
X130419Y92896D01*
X131050Y92074D01*
X131873Y91443D01*
X132831Y91046D01*
X133858Y90911D01*
X134886Y91046D01*
X135844Y91443D01*
X136666Y92074D01*
X137297Y92896D01*
X137694Y93854D01*
X137829Y94882D01*
X137694Y95910D01*
X137297Y96867D01*
X136666Y97690D01*
X135844Y98321D01*
X135171Y98600D01*
Y108071D01*
X135071Y108573D01*
X134786Y108999D01*
X120998Y122788D01*
Y244338D01*
X144245Y267585D01*
X165193D01*
X165587Y267321D01*
X166240Y267192D01*
X166893Y267321D01*
X167446Y267691D01*
X167816Y268245D01*
X167946Y268898D01*
X167816Y269550D01*
X167566Y269925D01*
X167486Y270276D01*
X167566Y270626D01*
X167816Y271001D01*
X167946Y271654D01*
X167816Y272306D01*
X167535Y272727D01*
X167348Y273203D01*
X167718Y273757D01*
X167848Y274410D01*
X167718Y275062D01*
X167655Y275156D01*
X167923Y275656D01*
X179870D01*
X182447Y273078D01*
Y269441D01*
X171405Y258399D01*
X137008D01*
X136505Y258299D01*
X136080Y258015D01*
X123580Y245515D01*
X123295Y245089D01*
X123195Y244587D01*
Y132874D01*
X123295Y132372D01*
X123580Y131946D01*
X172005Y83521D01*
X172431Y83236D01*
X172933Y83136D01*
X223130D01*
X223632Y83236D01*
X224058Y83521D01*
X265603Y125065D01*
X287621D01*
X287900Y124392D01*
X288531Y123570D01*
X289353Y122939D01*
X290311Y122542D01*
X291339Y122407D01*
X292366Y122542D01*
X293324Y122939D01*
X294146Y123570D01*
X294778Y124392D01*
X295056Y125065D01*
X313211D01*
X313490Y124392D01*
X314121Y123570D01*
X314944Y122939D01*
X315901Y122542D01*
X316929Y122407D01*
X317957Y122542D01*
X318915Y122939D01*
X319737Y123570D01*
X320368Y124392D01*
X320765Y125350D01*
X320900Y126378D01*
X320765Y127406D01*
X320368Y128363D01*
X319737Y129186D01*
X318915Y129817D01*
X317957Y130214D01*
X316929Y130349D01*
X315901Y130214D01*
X314944Y129817D01*
X314121Y129186D01*
X313490Y128363D01*
X313211Y127691D01*
X295056D01*
X294778Y128363D01*
X294146Y129186D01*
X293324Y129817D01*
X292366Y130214D01*
X291339Y130349D01*
X290311Y130214D01*
X289353Y129817D01*
X288531Y129186D01*
X287900Y128363D01*
X287621Y127691D01*
X265059D01*
X264557Y127591D01*
X264131Y127306D01*
X222586Y85761D01*
X173477D01*
X125821Y133418D01*
Y244043D01*
X137552Y255774D01*
X171949D01*
X172451Y255874D01*
X172877Y256158D01*
X184688Y267969D01*
X184973Y268395D01*
X185073Y268898D01*
Y273622D01*
X184973Y274124D01*
X184688Y274550D01*
X181523Y277715D01*
X181730Y278215D01*
X189811D01*
X193569Y274456D01*
Y269638D01*
X178295Y254364D01*
X139961D01*
X139458Y254264D01*
X139032Y253979D01*
X128698Y243645D01*
X128413Y243219D01*
X128313Y242717D01*
Y135433D01*
X128413Y134931D01*
X128698Y134505D01*
X176532Y86670D01*
X176958Y86386D01*
X177461Y86286D01*
X217421D01*
X217924Y86386D01*
X218349Y86670D01*
X270918Y139239D01*
X332822D01*
X347113Y124948D01*
Y98600D01*
X346440Y98321D01*
X345617Y97690D01*
X344986Y96867D01*
X344707Y96194D01*
X326552D01*
X326274Y96867D01*
X325642Y97690D01*
X324820Y98321D01*
X323862Y98718D01*
X322835Y98853D01*
X321807Y98718D01*
X320849Y98321D01*
X320027Y97690D01*
X319396Y96867D01*
X318999Y95910D01*
X318864Y94882D01*
X318999Y93854D01*
X319396Y92896D01*
X320027Y92074D01*
X320849Y91443D01*
X321807Y91046D01*
X322835Y90911D01*
X323862Y91046D01*
X324820Y91443D01*
X325642Y92074D01*
X326274Y92896D01*
X326552Y93569D01*
X344707D01*
X344986Y92896D01*
X345617Y92074D01*
X346440Y91443D01*
X347397Y91046D01*
X348425Y90911D01*
X349453Y91046D01*
X350411Y91443D01*
X351233Y92074D01*
X351864Y92896D01*
X352261Y93854D01*
X352396Y94882D01*
X352261Y95910D01*
X351864Y96867D01*
X351233Y97690D01*
X350411Y98321D01*
X349738Y98600D01*
Y125492D01*
X349638Y125994D01*
X349353Y126420D01*
X334294Y141479D01*
X333869Y141764D01*
X333366Y141864D01*
X270374D01*
X269872Y141764D01*
X269446Y141479D01*
X216878Y88911D01*
X178004D01*
X130939Y135977D01*
Y242173D01*
X140504Y251739D01*
X178801D01*
X178875Y251653D01*
X179038Y251268D01*
X177212Y249443D01*
X148882D01*
X148487Y249706D01*
X147835Y249836D01*
X147182Y249706D01*
X146628Y249336D01*
X146258Y248783D01*
X146129Y248130D01*
X146258Y247477D01*
X146628Y246924D01*
X147182Y246554D01*
X147835Y246424D01*
X148487Y246554D01*
X148882Y246817D01*
X177756D01*
X178258Y246917D01*
X178684Y247202D01*
X257630Y326148D01*
X339712D01*
X363550Y302311D01*
Y297111D01*
X363050Y297011D01*
X362757Y297717D01*
X362150Y298508D01*
X361359Y299115D01*
X360437Y299497D01*
X359449Y299627D01*
X358460Y299497D01*
X357863Y299250D01*
X333743Y323369D01*
X333317Y323654D01*
X332815Y323754D01*
X261024D01*
X260521Y323654D01*
X260095Y323369D01*
X187064Y250338D01*
X186779Y249912D01*
X186679Y249410D01*
Y220339D01*
X186416Y219944D01*
X186286Y219291D01*
X186416Y218638D01*
X186786Y218085D01*
X187339Y217715D01*
X187992Y217585D01*
X188645Y217715D01*
X189199Y218085D01*
X189568Y218638D01*
X189698Y219291D01*
X189568Y219944D01*
X189305Y220339D01*
Y248866D01*
X261567Y321128D01*
X332271D01*
X356006Y297393D01*
X355759Y296796D01*
X355629Y295807D01*
X355759Y294818D01*
X356140Y293897D01*
X356748Y293106D01*
X357539Y292499D01*
X358460Y292117D01*
X359449Y291987D01*
X360437Y292117D01*
X361359Y292499D01*
X362150Y293106D01*
X362757Y293897D01*
X363050Y294603D01*
X363550Y294504D01*
Y287935D01*
X363210Y287637D01*
X362725Y287759D01*
X362150Y288508D01*
X361359Y289115D01*
X360437Y289497D01*
X359449Y289627D01*
X358460Y289497D01*
X357539Y289115D01*
X356748Y288508D01*
X356140Y287717D01*
X355759Y286796D01*
X355629Y285807D01*
X355759Y284818D01*
X356140Y283897D01*
X356748Y283106D01*
X357539Y282499D01*
X358460Y282117D01*
X359449Y281987D01*
X360437Y282117D01*
X361359Y282499D01*
X362150Y283106D01*
X362757Y283897D01*
X363005Y284494D01*
X363366D01*
X363868Y284594D01*
X364294Y284879D01*
X365790Y286375D01*
X366075Y286801D01*
X366175Y287303D01*
Y302854D01*
X366075Y303357D01*
X365790Y303783D01*
X341184Y328389D01*
X340758Y328673D01*
X340256Y328773D01*
D02*
G37*
G36*
X310236Y297029D02*
X309247Y296899D01*
X308326Y296517D01*
X307535Y295910D01*
X306928Y295119D01*
X306546Y294197D01*
X306416Y293209D01*
X306546Y292220D01*
X306928Y291299D01*
X307535Y290508D01*
X308326Y289900D01*
X309247Y289519D01*
X310236Y289389D01*
X311225Y289519D01*
X312146Y289900D01*
X312937Y290508D01*
X313545Y291299D01*
X313926Y292220D01*
X314056Y293209D01*
X313926Y294197D01*
X313545Y295119D01*
X312937Y295910D01*
X312146Y296517D01*
X311225Y296899D01*
X310236Y297029D01*
D02*
G37*
G36*
X310736Y287177D02*
Y283709D01*
X314205D01*
X314133Y284253D01*
X313730Y285226D01*
X313089Y286062D01*
X312253Y286703D01*
X311280Y287106D01*
X310736Y287177D01*
D02*
G37*
G36*
X309736D02*
X309192Y287106D01*
X308219Y286703D01*
X307383Y286062D01*
X306742Y285226D01*
X306339Y284253D01*
X306267Y283709D01*
X309736D01*
Y287177D01*
D02*
G37*
G36*
X314205Y282709D02*
X310736D01*
Y279240D01*
X311280Y279312D01*
X312253Y279715D01*
X313089Y280356D01*
X313730Y281191D01*
X314133Y282164D01*
X314205Y282709D01*
D02*
G37*
G36*
X309736D02*
X306267D01*
X306339Y282164D01*
X306742Y281191D01*
X307383Y280356D01*
X308219Y279715D01*
X309192Y279312D01*
X309736Y279240D01*
Y282709D01*
D02*
G37*
G36*
X310736Y277177D02*
Y273709D01*
X314205D01*
X314133Y274253D01*
X313730Y275226D01*
X313089Y276062D01*
X312253Y276703D01*
X311280Y277106D01*
X310736Y277177D01*
D02*
G37*
G36*
X309736D02*
X309192Y277106D01*
X308219Y276703D01*
X307383Y276062D01*
X306742Y275226D01*
X306339Y274253D01*
X306267Y273709D01*
X309736D01*
Y277177D01*
D02*
G37*
G36*
X359449Y279627D02*
X358460Y279497D01*
X357539Y279115D01*
X356748Y278508D01*
X356140Y277717D01*
X355893Y277120D01*
X331909D01*
X331407Y277020D01*
X330981Y276735D01*
X313826Y259580D01*
X312550D01*
X312381Y260080D01*
X312937Y260507D01*
X313545Y261299D01*
X313926Y262220D01*
X314056Y263209D01*
X313926Y264197D01*
X313545Y265119D01*
X312937Y265910D01*
X312146Y266517D01*
X311225Y266899D01*
X310236Y267029D01*
X309247Y266899D01*
X308326Y266517D01*
X307535Y265910D01*
X306928Y265119D01*
X306546Y264197D01*
X306416Y263209D01*
X306546Y262220D01*
X306928Y261299D01*
X307535Y260507D01*
X308092Y260080D01*
X307922Y259580D01*
X227658D01*
X227415Y259532D01*
X227171Y259487D01*
X227164Y259482D01*
X227155Y259480D01*
X226950Y259343D01*
X226742Y259208D01*
X205251Y238288D01*
X204761Y238190D01*
X204207Y237821D01*
X203837Y237267D01*
X203707Y236614D01*
X203837Y235961D01*
X204207Y235408D01*
X204761Y235038D01*
X205413Y234908D01*
X206066Y235038D01*
X206620Y235408D01*
X206990Y235961D01*
X207077Y236402D01*
X228191Y256955D01*
X308111D01*
X308202Y256769D01*
X308246Y256455D01*
X307535Y255910D01*
X306928Y255119D01*
X306546Y254197D01*
X306416Y253209D01*
X306546Y252220D01*
X306928Y251299D01*
X307535Y250507D01*
X307758Y250336D01*
X307588Y249836D01*
X251673D01*
X251171Y249736D01*
X250745Y249452D01*
X227606Y226313D01*
X206165D01*
X205771Y226576D01*
X205118Y226706D01*
X204465Y226576D01*
X203912Y226206D01*
X203542Y225653D01*
X203412Y225000D01*
X203542Y224347D01*
X203912Y223794D01*
X204465Y223424D01*
X205118Y223294D01*
X205771Y223424D01*
X206165Y223687D01*
X228150D01*
X228652Y223787D01*
X229078Y224072D01*
X252217Y247211D01*
X308695D01*
X308795Y246711D01*
X308326Y246517D01*
X307535Y245910D01*
X306928Y245119D01*
X306546Y244197D01*
X306416Y243209D01*
X306546Y242220D01*
X306928Y241299D01*
X307535Y240508D01*
X308326Y239900D01*
X309247Y239519D01*
X310236Y239389D01*
X311225Y239519D01*
X312146Y239900D01*
X312937Y240508D01*
X313545Y241299D01*
X313926Y242220D01*
X314056Y243209D01*
X313926Y244197D01*
X313545Y245119D01*
X312937Y245910D01*
X312146Y246517D01*
X311678Y246711D01*
X311777Y247211D01*
X351870D01*
X352372Y247311D01*
X352798Y247596D01*
X357654Y252451D01*
X358460Y252117D01*
X359449Y251987D01*
X360437Y252117D01*
X361359Y252499D01*
X362150Y253106D01*
X362757Y253897D01*
X363139Y254818D01*
X363269Y255807D01*
X363139Y256796D01*
X362757Y257717D01*
X362150Y258508D01*
X361359Y259115D01*
X360437Y259497D01*
X359449Y259627D01*
X358460Y259497D01*
X357539Y259115D01*
X356748Y258508D01*
X356140Y257717D01*
X355759Y256796D01*
X355629Y255807D01*
X355759Y254818D01*
X355920Y254430D01*
X351326Y249836D01*
X312884D01*
X312714Y250336D01*
X312937Y250507D01*
X313545Y251299D01*
X313926Y252220D01*
X314056Y253209D01*
X313926Y254197D01*
X313545Y255119D01*
X312937Y255910D01*
X312227Y256455D01*
X312270Y256769D01*
X312361Y256955D01*
X314370D01*
X314872Y257055D01*
X315298Y257340D01*
X332453Y274495D01*
X355893D01*
X356140Y273897D01*
X356748Y273106D01*
X357539Y272499D01*
X358460Y272117D01*
X359449Y271987D01*
X360437Y272117D01*
X361359Y272499D01*
X362150Y273106D01*
X362757Y273897D01*
X363139Y274818D01*
X363269Y275807D01*
X363139Y276796D01*
X362757Y277717D01*
X362150Y278508D01*
X361359Y279115D01*
X360437Y279497D01*
X359449Y279627D01*
D02*
G37*
G36*
X314205Y272709D02*
X310736D01*
Y269240D01*
X311280Y269312D01*
X312253Y269715D01*
X313089Y270356D01*
X313730Y271191D01*
X314133Y272164D01*
X314205Y272709D01*
D02*
G37*
G36*
X309736D02*
X306267D01*
X306339Y272164D01*
X306742Y271191D01*
X307383Y270356D01*
X308219Y269715D01*
X309192Y269312D01*
X309736Y269240D01*
Y272709D01*
D02*
G37*
G36*
X359949Y269776D02*
Y266307D01*
X363418D01*
X363346Y266851D01*
X362943Y267824D01*
X362302Y268660D01*
X361466Y269301D01*
X360493Y269704D01*
X359949Y269776D01*
D02*
G37*
G36*
X358949D02*
X358405Y269704D01*
X357432Y269301D01*
X356596Y268660D01*
X355955Y267824D01*
X355552Y266851D01*
X355480Y266307D01*
X358949D01*
Y269776D01*
D02*
G37*
G36*
X363418Y265307D02*
X359949D01*
Y261838D01*
X360493Y261910D01*
X361466Y262313D01*
X362302Y262954D01*
X362943Y263790D01*
X363346Y264763D01*
X363418Y265307D01*
D02*
G37*
G36*
X358949D02*
X355480D01*
X355552Y264763D01*
X355955Y263790D01*
X356596Y262954D01*
X357432Y262313D01*
X358405Y261910D01*
X358949Y261838D01*
Y265307D01*
D02*
G37*
G36*
X30008Y243004D02*
Y239535D01*
X33477D01*
X33405Y240080D01*
X33002Y241053D01*
X32361Y241888D01*
X31525Y242529D01*
X30552Y242933D01*
X30008Y243004D01*
D02*
G37*
G36*
X29008D02*
X28464Y242933D01*
X27491Y242529D01*
X26655Y241888D01*
X26014Y241053D01*
X25611Y240080D01*
X25539Y239535D01*
X29008D01*
Y243004D01*
D02*
G37*
G36*
X49508Y242856D02*
X48519Y242725D01*
X47598Y242344D01*
X46807Y241737D01*
X46200Y240946D01*
X45818Y240024D01*
X45688Y239035D01*
X45818Y238047D01*
X46200Y237125D01*
X46807Y236334D01*
X47598Y235727D01*
X48519Y235346D01*
X49508Y235215D01*
X50497Y235346D01*
X51418Y235727D01*
X52209Y236334D01*
X52816Y237125D01*
X53198Y238047D01*
X53328Y239035D01*
X53198Y240024D01*
X52816Y240946D01*
X52209Y241737D01*
X51418Y242344D01*
X50497Y242725D01*
X49508Y242856D01*
D02*
G37*
G36*
X33477Y238535D02*
X30008D01*
Y235067D01*
X30552Y235138D01*
X31525Y235541D01*
X32361Y236183D01*
X33002Y237018D01*
X33405Y237991D01*
X33477Y238535D01*
D02*
G37*
G36*
X29008D02*
X25539D01*
X25611Y237991D01*
X26014Y237018D01*
X26655Y236183D01*
X27491Y235541D01*
X28464Y235138D01*
X29008Y235067D01*
Y238535D01*
D02*
G37*
G36*
X310236Y237029D02*
X309247Y236899D01*
X308326Y236517D01*
X307535Y235910D01*
X306928Y235119D01*
X306546Y234197D01*
X306416Y233209D01*
X306546Y232220D01*
X306928Y231299D01*
X307535Y230507D01*
X308326Y229900D01*
X309247Y229519D01*
X310236Y229389D01*
X311225Y229519D01*
X312146Y229900D01*
X312937Y230507D01*
X313545Y231299D01*
X313926Y232220D01*
X314056Y233209D01*
X313926Y234197D01*
X313545Y235119D01*
X312937Y235910D01*
X312146Y236517D01*
X311225Y236899D01*
X310236Y237029D01*
D02*
G37*
G36*
X49508Y232856D02*
X48519Y232725D01*
X47598Y232344D01*
X46807Y231737D01*
X46200Y230945D01*
X45818Y230024D01*
X45688Y229035D01*
X45818Y228047D01*
X46200Y227125D01*
X46807Y226334D01*
X47598Y225727D01*
X48519Y225345D01*
X49508Y225215D01*
X50497Y225345D01*
X51418Y225727D01*
X52209Y226334D01*
X52816Y227125D01*
X53198Y228047D01*
X53328Y229035D01*
X53198Y230024D01*
X52816Y230945D01*
X52209Y231737D01*
X51418Y232344D01*
X50497Y232725D01*
X49508Y232856D01*
D02*
G37*
G36*
X30008Y223004D02*
Y219535D01*
X33477D01*
X33405Y220080D01*
X33002Y221053D01*
X32361Y221888D01*
X31525Y222529D01*
X30552Y222933D01*
X30008Y223004D01*
D02*
G37*
G36*
X29008D02*
X28464Y222933D01*
X27491Y222529D01*
X26655Y221888D01*
X26014Y221053D01*
X25611Y220080D01*
X25539Y219535D01*
X29008D01*
Y223004D01*
D02*
G37*
G36*
X310236Y227029D02*
X309247Y226899D01*
X308326Y226517D01*
X307535Y225910D01*
X306928Y225119D01*
X306546Y224197D01*
X306416Y223209D01*
X306546Y222220D01*
X306928Y221299D01*
X307535Y220508D01*
X308326Y219900D01*
X309247Y219519D01*
X310236Y219389D01*
X311225Y219519D01*
X312146Y219900D01*
X312937Y220508D01*
X313545Y221299D01*
X313926Y222220D01*
X314056Y223209D01*
X313926Y224197D01*
X313545Y225119D01*
X312937Y225910D01*
X312146Y226517D01*
X311225Y226899D01*
X310236Y227029D01*
D02*
G37*
G36*
X254724Y231234D02*
X254071Y231104D01*
X253518Y230734D01*
X253148Y230180D01*
X253018Y229528D01*
X253148Y228875D01*
X253518Y228321D01*
X254071Y227951D01*
X254724Y227822D01*
X255377Y227951D01*
X255772Y228215D01*
X275047D01*
X282152Y221110D01*
Y183858D01*
X282252Y183356D01*
X282536Y182930D01*
X301040Y164426D01*
X301466Y164142D01*
X301969Y164042D01*
X332283D01*
X332786Y164142D01*
X333212Y164426D01*
X335180Y166395D01*
X335465Y166821D01*
X335565Y167323D01*
Y204181D01*
X349441Y218057D01*
X355893D01*
X356140Y217460D01*
X356748Y216669D01*
X357539Y216062D01*
X358460Y215680D01*
X359449Y215550D01*
X360437Y215680D01*
X361359Y216062D01*
X362150Y216669D01*
X362757Y217460D01*
X363139Y218381D01*
X363269Y219370D01*
X363139Y220359D01*
X362757Y221280D01*
X362150Y222071D01*
X361359Y222678D01*
X360437Y223060D01*
X359449Y223190D01*
X358460Y223060D01*
X357539Y222678D01*
X356748Y222071D01*
X356140Y221280D01*
X355893Y220683D01*
X348898D01*
X348395Y220583D01*
X347970Y220298D01*
X333324Y205653D01*
X333039Y205227D01*
X332939Y204724D01*
Y167867D01*
X331740Y166667D01*
X302512D01*
X284777Y184402D01*
Y221654D01*
X284677Y222156D01*
X284393Y222582D01*
X276519Y230456D01*
X276093Y230740D01*
X275590Y230840D01*
X255772D01*
X255377Y231104D01*
X254724Y231234D01*
D02*
G37*
G36*
X49508Y222855D02*
X48519Y222725D01*
X47598Y222344D01*
X46807Y221737D01*
X46200Y220946D01*
X45818Y220024D01*
X45688Y219035D01*
X45818Y218047D01*
X46200Y217125D01*
X46807Y216334D01*
X47598Y215727D01*
X48519Y215346D01*
X49508Y215215D01*
X50497Y215346D01*
X51418Y215727D01*
X52209Y216334D01*
X52816Y217125D01*
X53198Y218047D01*
X53328Y219035D01*
X53198Y220024D01*
X52816Y220946D01*
X52209Y221737D01*
X51418Y222344D01*
X50497Y222725D01*
X49508Y222855D01*
D02*
G37*
G36*
X33477Y218535D02*
X30008D01*
Y215067D01*
X30552Y215138D01*
X31525Y215541D01*
X32361Y216183D01*
X33002Y217018D01*
X33405Y217991D01*
X33477Y218535D01*
D02*
G37*
G36*
X29008D02*
X25539D01*
X25611Y217991D01*
X26014Y217018D01*
X26655Y216183D01*
X27491Y215541D01*
X28464Y215138D01*
X29008Y215067D01*
Y218535D01*
D02*
G37*
G36*
X310236Y217029D02*
X309247Y216899D01*
X308326Y216517D01*
X307535Y215910D01*
X306928Y215119D01*
X306546Y214197D01*
X306416Y213209D01*
X306546Y212220D01*
X306928Y211299D01*
X307535Y210507D01*
X308326Y209900D01*
X309247Y209519D01*
X310236Y209389D01*
X311225Y209519D01*
X312146Y209900D01*
X312937Y210507D01*
X313545Y211299D01*
X313926Y212220D01*
X314056Y213209D01*
X313926Y214197D01*
X313545Y215119D01*
X312937Y215910D01*
X312146Y216517D01*
X311225Y216899D01*
X310236Y217029D01*
D02*
G37*
G36*
X359449Y213190D02*
X358460Y213060D01*
X357539Y212678D01*
X356748Y212071D01*
X356140Y211280D01*
X355759Y210359D01*
X355629Y209370D01*
X355759Y208381D01*
X356140Y207460D01*
X356748Y206669D01*
X357539Y206062D01*
X358460Y205680D01*
X359449Y205550D01*
X360437Y205680D01*
X361359Y206062D01*
X362150Y206669D01*
X362757Y207460D01*
X363139Y208381D01*
X363269Y209370D01*
X363139Y210359D01*
X362757Y211280D01*
X362150Y212071D01*
X361359Y212678D01*
X360437Y213060D01*
X359449Y213190D01*
D02*
G37*
G36*
X310236Y207029D02*
X309247Y206899D01*
X308326Y206517D01*
X307535Y205910D01*
X306928Y205119D01*
X306546Y204197D01*
X306416Y203209D01*
X306546Y202220D01*
X306928Y201299D01*
X307535Y200507D01*
X308326Y199900D01*
X309247Y199519D01*
X310236Y199389D01*
X311225Y199519D01*
X312146Y199900D01*
X312937Y200507D01*
X313545Y201299D01*
X313926Y202220D01*
X314056Y203209D01*
X313926Y204197D01*
X313545Y205119D01*
X312937Y205910D01*
X312146Y206517D01*
X311225Y206899D01*
X310236Y207029D01*
D02*
G37*
G36*
X359449Y203190D02*
X358460Y203060D01*
X357539Y202678D01*
X356748Y202071D01*
X356140Y201280D01*
X355759Y200359D01*
X355629Y199370D01*
X355759Y198381D01*
X356140Y197460D01*
X356748Y196669D01*
X357539Y196062D01*
X358460Y195680D01*
X359449Y195550D01*
X360437Y195680D01*
X361359Y196062D01*
X362150Y196669D01*
X362757Y197460D01*
X363139Y198381D01*
X363269Y199370D01*
X363139Y200359D01*
X362757Y201280D01*
X362150Y202071D01*
X361359Y202678D01*
X360437Y203060D01*
X359449Y203190D01*
D02*
G37*
G36*
X310236Y197029D02*
X309247Y196899D01*
X308326Y196517D01*
X307535Y195910D01*
X306928Y195119D01*
X306546Y194197D01*
X306416Y193209D01*
X306546Y192220D01*
X306928Y191299D01*
X307535Y190507D01*
X308326Y189900D01*
X309247Y189519D01*
X310236Y189389D01*
X311225Y189519D01*
X312146Y189900D01*
X312937Y190507D01*
X313545Y191299D01*
X313926Y192220D01*
X314056Y193209D01*
X313926Y194197D01*
X313545Y195119D01*
X312937Y195910D01*
X312146Y196517D01*
X311225Y196899D01*
X310236Y197029D01*
D02*
G37*
G36*
X359449Y193190D02*
X358460Y193060D01*
X357539Y192678D01*
X356748Y192071D01*
X356140Y191280D01*
X355759Y190359D01*
X355629Y189370D01*
X355759Y188381D01*
X356140Y187460D01*
X356748Y186669D01*
X357539Y186062D01*
X358460Y185680D01*
X359449Y185550D01*
X360437Y185680D01*
X361359Y186062D01*
X362150Y186669D01*
X362757Y187460D01*
X363139Y188381D01*
X363269Y189370D01*
X363139Y190359D01*
X362757Y191280D01*
X362150Y192071D01*
X361359Y192678D01*
X360437Y193060D01*
X359449Y193190D01*
D02*
G37*
G36*
X310736Y186328D02*
Y177961D01*
X319104D01*
X318982Y179200D01*
X318474Y180873D01*
X317650Y182415D01*
X316542Y183766D01*
X315190Y184875D01*
X313649Y185699D01*
X311976Y186206D01*
X310736Y186328D01*
D02*
G37*
G36*
X309736D02*
X308497Y186206D01*
X306824Y185699D01*
X305282Y184875D01*
X303931Y183766D01*
X302822Y182415D01*
X301998Y180873D01*
X301491Y179200D01*
X301368Y177961D01*
X309736D01*
Y186328D01*
D02*
G37*
G36*
X82390D02*
Y177961D01*
X90758D01*
X90635Y179200D01*
X90128Y180873D01*
X89304Y182415D01*
X88195Y183766D01*
X86844Y184875D01*
X85302Y185699D01*
X83629Y186206D01*
X82390Y186328D01*
D02*
G37*
G36*
X81390D02*
X80150Y186206D01*
X78477Y185699D01*
X76936Y184875D01*
X75585Y183766D01*
X74476Y182415D01*
X73652Y180873D01*
X73144Y179200D01*
X73022Y177961D01*
X81390D01*
Y186328D01*
D02*
G37*
G36*
X319104Y176961D02*
X310736D01*
Y168593D01*
X311976Y168715D01*
X313649Y169222D01*
X315190Y170046D01*
X316542Y171155D01*
X317650Y172507D01*
X318474Y174048D01*
X318982Y175721D01*
X319104Y176961D01*
D02*
G37*
G36*
X309736D02*
X301368D01*
X301491Y175721D01*
X301998Y174048D01*
X302822Y172507D01*
X303931Y171155D01*
X305282Y170046D01*
X306824Y169222D01*
X308497Y168715D01*
X309736Y168593D01*
Y176961D01*
D02*
G37*
G36*
X90758D02*
X82390D01*
Y168593D01*
X83629Y168715D01*
X85302Y169222D01*
X86844Y170046D01*
X88195Y171155D01*
X89304Y172507D01*
X90128Y174048D01*
X90635Y175721D01*
X90758Y176961D01*
D02*
G37*
G36*
X81390D02*
X73022D01*
X73144Y175721D01*
X73652Y174048D01*
X74476Y172507D01*
X75585Y171155D01*
X76936Y170046D01*
X78477Y169222D01*
X80150Y168715D01*
X81390Y168593D01*
Y176961D01*
D02*
G37*
G36*
X31299Y164745D02*
X30310Y164615D01*
X29389Y164234D01*
X28598Y163626D01*
X27991Y162835D01*
X27609Y161914D01*
X27479Y160925D01*
X27609Y159936D01*
X27991Y159015D01*
X28598Y158224D01*
X29389Y157617D01*
X30310Y157235D01*
X31299Y157105D01*
X32288Y157235D01*
X33209Y157617D01*
X34000Y158224D01*
X34607Y159015D01*
X34989Y159936D01*
X35119Y160925D01*
X34989Y161914D01*
X34607Y162835D01*
X34000Y163626D01*
X33209Y164234D01*
X32288Y164615D01*
X31299Y164745D01*
D02*
G37*
G36*
X158465Y234974D02*
X157812Y234844D01*
X157258Y234474D01*
X156888Y233921D01*
X156759Y233268D01*
X156888Y232615D01*
X157152Y232221D01*
Y168654D01*
X149072Y160574D01*
X148787Y160148D01*
X148687Y159646D01*
Y154098D01*
X148424Y153704D01*
X148294Y153051D01*
X148424Y152398D01*
X148794Y151845D01*
X149347Y151475D01*
X150000Y151345D01*
X150653Y151475D01*
X151206Y151845D01*
X151576Y152398D01*
X151706Y153051D01*
X151576Y153704D01*
X151313Y154098D01*
Y159102D01*
X159393Y167182D01*
X159677Y167608D01*
X159777Y168110D01*
Y232221D01*
X160041Y232615D01*
X160171Y233268D01*
X160041Y233921D01*
X159671Y234474D01*
X159117Y234844D01*
X158465Y234974D01*
D02*
G37*
G36*
X35087Y154713D02*
X27512D01*
Y147138D01*
X35087D01*
Y154713D01*
D02*
G37*
G36*
X102362Y130349D02*
X101335Y130214D01*
X100377Y129817D01*
X99554Y129186D01*
X98923Y128363D01*
X98527Y127406D01*
X98391Y126378D01*
X98527Y125350D01*
X98923Y124392D01*
X99554Y123570D01*
X100377Y122939D01*
X101335Y122542D01*
X102362Y122407D01*
X103390Y122542D01*
X104348Y122939D01*
X105170Y123570D01*
X105801Y124392D01*
X106198Y125350D01*
X106333Y126378D01*
X106198Y127406D01*
X105801Y128363D01*
X105170Y129186D01*
X104348Y129817D01*
X103390Y130214D01*
X102362Y130349D01*
D02*
G37*
G36*
X317429Y112781D02*
Y109161D01*
X321049D01*
X320972Y109745D01*
X320554Y110754D01*
X319889Y111621D01*
X319022Y112286D01*
X318012Y112704D01*
X317429Y112781D01*
D02*
G37*
G36*
X316429D02*
X315846Y112704D01*
X314836Y112286D01*
X313970Y111621D01*
X313304Y110754D01*
X312886Y109745D01*
X312809Y109161D01*
X316429D01*
Y112781D01*
D02*
G37*
G36*
X291839D02*
Y109161D01*
X295458D01*
X295381Y109745D01*
X294963Y110754D01*
X294298Y111621D01*
X293431Y112286D01*
X292422Y112704D01*
X291839Y112781D01*
D02*
G37*
G36*
X290839D02*
X290255Y112704D01*
X289246Y112286D01*
X288379Y111621D01*
X287714Y110754D01*
X287296Y109745D01*
X287219Y109161D01*
X290839D01*
Y112781D01*
D02*
G37*
G36*
X102862D02*
Y109161D01*
X106482D01*
X106405Y109745D01*
X105987Y110754D01*
X105322Y111621D01*
X104455Y112286D01*
X103445Y112704D01*
X102862Y112781D01*
D02*
G37*
G36*
X101862D02*
X101279Y112704D01*
X100269Y112286D01*
X99403Y111621D01*
X98738Y110754D01*
X98319Y109745D01*
X98243Y109161D01*
X101862D01*
Y112781D01*
D02*
G37*
G36*
X77272D02*
Y109161D01*
X80891D01*
X80814Y109745D01*
X80396Y110754D01*
X79731Y111621D01*
X78864Y112286D01*
X77855Y112704D01*
X77272Y112781D01*
D02*
G37*
G36*
X76272D02*
X75688Y112704D01*
X74679Y112286D01*
X73812Y111621D01*
X73147Y110754D01*
X72729Y109745D01*
X72652Y109161D01*
X76272D01*
Y112781D01*
D02*
G37*
G36*
X321049Y108161D02*
X317429D01*
Y104542D01*
X318012Y104619D01*
X319022Y105037D01*
X319889Y105702D01*
X320554Y106569D01*
X320972Y107578D01*
X321049Y108161D01*
D02*
G37*
G36*
X316429D02*
X312809D01*
X312886Y107578D01*
X313304Y106569D01*
X313970Y105702D01*
X314836Y105037D01*
X315846Y104619D01*
X316429Y104542D01*
Y108161D01*
D02*
G37*
G36*
X295458D02*
X291839D01*
Y104542D01*
X292422Y104619D01*
X293431Y105037D01*
X294298Y105702D01*
X294963Y106569D01*
X295381Y107578D01*
X295458Y108161D01*
D02*
G37*
G36*
X290839D02*
X287219D01*
X287296Y107578D01*
X287714Y106569D01*
X288379Y105702D01*
X289246Y105037D01*
X290255Y104619D01*
X290839Y104542D01*
Y108161D01*
D02*
G37*
G36*
X106482D02*
X102862D01*
Y104542D01*
X103445Y104619D01*
X104455Y105037D01*
X105322Y105702D01*
X105987Y106569D01*
X106405Y107578D01*
X106482Y108161D01*
D02*
G37*
G36*
X101862D02*
X98243D01*
X98319Y107578D01*
X98738Y106569D01*
X99403Y105702D01*
X100269Y105037D01*
X101279Y104619D01*
X101862Y104542D01*
Y108161D01*
D02*
G37*
G36*
X80891D02*
X77272D01*
Y104542D01*
X77855Y104619D01*
X78864Y105037D01*
X79731Y105702D01*
X80396Y106569D01*
X80814Y107578D01*
X80891Y108161D01*
D02*
G37*
G36*
X76272D02*
X72652D01*
X72729Y107578D01*
X73147Y106569D01*
X73812Y105702D01*
X74679Y105037D01*
X75688Y104619D01*
X76272Y104542D01*
Y108161D01*
D02*
G37*
G36*
X257579Y239304D02*
X256926Y239175D01*
X256372Y238805D01*
X256003Y238251D01*
X255910Y237786D01*
X208717Y190594D01*
X208433Y190168D01*
X208333Y189665D01*
Y98600D01*
X207660Y98321D01*
X206838Y97690D01*
X206207Y96867D01*
X205928Y96194D01*
X187773D01*
X187494Y96867D01*
X186863Y97690D01*
X186041Y98321D01*
X185083Y98718D01*
X184055Y98853D01*
X183027Y98718D01*
X182070Y98321D01*
X181247Y97690D01*
X180616Y96867D01*
X180219Y95910D01*
X180084Y94882D01*
X180219Y93854D01*
X180616Y92896D01*
X181247Y92074D01*
X182070Y91443D01*
X183027Y91046D01*
X184055Y90911D01*
X185083Y91046D01*
X186041Y91443D01*
X186863Y92074D01*
X187494Y92896D01*
X187773Y93569D01*
X205928D01*
X206207Y92896D01*
X206838Y92074D01*
X207660Y91443D01*
X208618Y91046D01*
X209646Y90911D01*
X210673Y91046D01*
X211631Y91443D01*
X212454Y92074D01*
X213085Y92896D01*
X213481Y93854D01*
X213617Y94882D01*
X213481Y95910D01*
X213085Y96867D01*
X212454Y97690D01*
X211631Y98321D01*
X210958Y98600D01*
Y189122D01*
X257766Y235930D01*
X258232Y236022D01*
X258785Y236392D01*
X259155Y236946D01*
X259285Y237598D01*
X259155Y238251D01*
X258785Y238805D01*
X258232Y239175D01*
X257579Y239304D01*
D02*
G37*
G36*
X108268Y98853D02*
X107240Y98718D01*
X106282Y98321D01*
X105460Y97690D01*
X104829Y96867D01*
X104432Y95910D01*
X104297Y94882D01*
X104432Y93854D01*
X104829Y92896D01*
X105460Y92074D01*
X106282Y91443D01*
X107240Y91046D01*
X108268Y90911D01*
X109295Y91046D01*
X110253Y91443D01*
X111076Y92074D01*
X111707Y92896D01*
X112103Y93854D01*
X112239Y94882D01*
X112103Y95910D01*
X111707Y96867D01*
X111076Y97690D01*
X110253Y98321D01*
X109295Y98718D01*
X108268Y98853D01*
D02*
G37*
G36*
X70866D02*
X69838Y98718D01*
X68881Y98321D01*
X68058Y97690D01*
X67427Y96867D01*
X67031Y95910D01*
X66895Y94882D01*
X67031Y93854D01*
X67427Y92896D01*
X68058Y92074D01*
X68881Y91443D01*
X69838Y91046D01*
X70866Y90911D01*
X71894Y91046D01*
X72852Y91443D01*
X73674Y92074D01*
X74305Y92896D01*
X74702Y93854D01*
X74837Y94882D01*
X74702Y95910D01*
X74305Y96867D01*
X73674Y97690D01*
X72852Y98321D01*
X71894Y98718D01*
X70866Y98853D01*
D02*
G37*
G36*
X348925Y81285D02*
Y77665D01*
X352545D01*
X352468Y78249D01*
X352050Y79258D01*
X351385Y80125D01*
X350518Y80790D01*
X349509Y81208D01*
X348925Y81285D01*
D02*
G37*
G36*
X347925D02*
X347342Y81208D01*
X346333Y80790D01*
X345466Y80125D01*
X344800Y79258D01*
X344382Y78249D01*
X344306Y77665D01*
X347925D01*
Y81285D01*
D02*
G37*
G36*
X323335D02*
Y77665D01*
X326954D01*
X326877Y78249D01*
X326459Y79258D01*
X325794Y80125D01*
X324927Y80790D01*
X323918Y81208D01*
X323335Y81285D01*
D02*
G37*
G36*
X322335D02*
X321751Y81208D01*
X320742Y80790D01*
X319875Y80125D01*
X319210Y79258D01*
X318792Y78249D01*
X318715Y77665D01*
X322335D01*
Y81285D01*
D02*
G37*
G36*
X285933D02*
Y77665D01*
X289553D01*
X289476Y78249D01*
X289058Y79258D01*
X288393Y80125D01*
X287526Y80790D01*
X286516Y81208D01*
X285933Y81285D01*
D02*
G37*
G36*
X284933D02*
X284350Y81208D01*
X283340Y80790D01*
X282473Y80125D01*
X281808Y79258D01*
X281390Y78249D01*
X281313Y77665D01*
X284933D01*
Y81285D01*
D02*
G37*
G36*
X260343D02*
Y77665D01*
X263962D01*
X263885Y78249D01*
X263467Y79258D01*
X262802Y80125D01*
X261935Y80790D01*
X260926Y81208D01*
X260343Y81285D01*
D02*
G37*
G36*
X259343D02*
X258759Y81208D01*
X257750Y80790D01*
X256883Y80125D01*
X256218Y79258D01*
X255800Y78249D01*
X255723Y77665D01*
X259343D01*
Y81285D01*
D02*
G37*
G36*
X210146D02*
Y77665D01*
X213765D01*
X213688Y78249D01*
X213270Y79258D01*
X212605Y80125D01*
X211738Y80790D01*
X210729Y81208D01*
X210146Y81285D01*
D02*
G37*
G36*
X209146D02*
X208562Y81208D01*
X207553Y80790D01*
X206686Y80125D01*
X206021Y79258D01*
X205603Y78249D01*
X205526Y77665D01*
X209146D01*
Y81285D01*
D02*
G37*
G36*
X184555D02*
Y77665D01*
X188175D01*
X188098Y78249D01*
X187680Y79258D01*
X187015Y80125D01*
X186148Y80790D01*
X185138Y81208D01*
X184555Y81285D01*
D02*
G37*
G36*
X183555D02*
X182972Y81208D01*
X181962Y80790D01*
X181096Y80125D01*
X180430Y79258D01*
X180012Y78249D01*
X179936Y77665D01*
X183555D01*
Y81285D01*
D02*
G37*
G36*
X134358D02*
Y77665D01*
X137978D01*
X137901Y78249D01*
X137483Y79258D01*
X136818Y80125D01*
X135951Y80790D01*
X134941Y81208D01*
X134358Y81285D01*
D02*
G37*
G36*
X133358D02*
X132775Y81208D01*
X131766Y80790D01*
X130899Y80125D01*
X130234Y79258D01*
X129815Y78249D01*
X129739Y77665D01*
X133358D01*
Y81285D01*
D02*
G37*
G36*
X108768D02*
Y77665D01*
X112387D01*
X112311Y78249D01*
X111892Y79258D01*
X111227Y80125D01*
X110360Y80790D01*
X109351Y81208D01*
X108768Y81285D01*
D02*
G37*
G36*
X107768D02*
X107185Y81208D01*
X106175Y80790D01*
X105308Y80125D01*
X104643Y79258D01*
X104225Y78249D01*
X104148Y77665D01*
X107768D01*
Y81285D01*
D02*
G37*
G36*
X71366D02*
Y77665D01*
X74986D01*
X74909Y78249D01*
X74491Y79258D01*
X73826Y80125D01*
X72959Y80790D01*
X71949Y81208D01*
X71366Y81285D01*
D02*
G37*
G36*
X70366D02*
X69783Y81208D01*
X68774Y80790D01*
X67907Y80125D01*
X67242Y79258D01*
X66823Y78249D01*
X66747Y77665D01*
X70366D01*
Y81285D01*
D02*
G37*
G36*
X45776D02*
Y77665D01*
X49395D01*
X49318Y78249D01*
X48900Y79258D01*
X48235Y80125D01*
X47368Y80790D01*
X46359Y81208D01*
X45776Y81285D01*
D02*
G37*
G36*
X44776D02*
X44192Y81208D01*
X43183Y80790D01*
X42316Y80125D01*
X41651Y79258D01*
X41233Y78249D01*
X41156Y77665D01*
X44776D01*
Y81285D01*
D02*
G37*
G36*
X352545Y76665D02*
X348925D01*
Y73046D01*
X349509Y73123D01*
X350518Y73541D01*
X351385Y74206D01*
X352050Y75073D01*
X352468Y76082D01*
X352545Y76665D01*
D02*
G37*
G36*
X347925D02*
X344306D01*
X344382Y76082D01*
X344800Y75073D01*
X345466Y74206D01*
X346333Y73541D01*
X347342Y73123D01*
X347925Y73046D01*
Y76665D01*
D02*
G37*
G36*
X326954D02*
X323335D01*
Y73046D01*
X323918Y73123D01*
X324927Y73541D01*
X325794Y74206D01*
X326459Y75073D01*
X326877Y76082D01*
X326954Y76665D01*
D02*
G37*
G36*
X322335D02*
X318715D01*
X318792Y76082D01*
X319210Y75073D01*
X319875Y74206D01*
X320742Y73541D01*
X321751Y73123D01*
X322335Y73046D01*
Y76665D01*
D02*
G37*
G36*
X289553D02*
X285933D01*
Y73046D01*
X286516Y73123D01*
X287526Y73541D01*
X288393Y74206D01*
X289058Y75073D01*
X289476Y76082D01*
X289553Y76665D01*
D02*
G37*
G36*
X284933D02*
X281313D01*
X281390Y76082D01*
X281808Y75073D01*
X282473Y74206D01*
X283340Y73541D01*
X284350Y73123D01*
X284933Y73046D01*
Y76665D01*
D02*
G37*
G36*
X263962D02*
X260343D01*
Y73046D01*
X260926Y73123D01*
X261935Y73541D01*
X262802Y74206D01*
X263467Y75073D01*
X263885Y76082D01*
X263962Y76665D01*
D02*
G37*
G36*
X259343D02*
X255723D01*
X255800Y76082D01*
X256218Y75073D01*
X256883Y74206D01*
X257750Y73541D01*
X258759Y73123D01*
X259343Y73046D01*
Y76665D01*
D02*
G37*
G36*
X213765D02*
X210146D01*
Y73046D01*
X210729Y73123D01*
X211738Y73541D01*
X212605Y74206D01*
X213270Y75073D01*
X213688Y76082D01*
X213765Y76665D01*
D02*
G37*
G36*
X209146D02*
X205526D01*
X205603Y76082D01*
X206021Y75073D01*
X206686Y74206D01*
X207553Y73541D01*
X208562Y73123D01*
X209146Y73046D01*
Y76665D01*
D02*
G37*
G36*
X188175D02*
X184555D01*
Y73046D01*
X185138Y73123D01*
X186148Y73541D01*
X187015Y74206D01*
X187680Y75073D01*
X188098Y76082D01*
X188175Y76665D01*
D02*
G37*
G36*
X183555D02*
X179936D01*
X180012Y76082D01*
X180430Y75073D01*
X181096Y74206D01*
X181962Y73541D01*
X182972Y73123D01*
X183555Y73046D01*
Y76665D01*
D02*
G37*
G36*
X137978D02*
X134358D01*
Y73046D01*
X134941Y73123D01*
X135951Y73541D01*
X136818Y74206D01*
X137483Y75073D01*
X137901Y76082D01*
X137978Y76665D01*
D02*
G37*
G36*
X133358D02*
X129739D01*
X129815Y76082D01*
X130234Y75073D01*
X130899Y74206D01*
X131766Y73541D01*
X132775Y73123D01*
X133358Y73046D01*
Y76665D01*
D02*
G37*
G36*
X112387D02*
X108768D01*
Y73046D01*
X109351Y73123D01*
X110360Y73541D01*
X111227Y74206D01*
X111892Y75073D01*
X112311Y76082D01*
X112387Y76665D01*
D02*
G37*
G36*
X107768D02*
X104148D01*
X104225Y76082D01*
X104643Y75073D01*
X105308Y74206D01*
X106175Y73541D01*
X107185Y73123D01*
X107768Y73046D01*
Y76665D01*
D02*
G37*
G36*
X74986D02*
X71366D01*
Y73046D01*
X71949Y73123D01*
X72959Y73541D01*
X73826Y74206D01*
X74491Y75073D01*
X74909Y76082D01*
X74986Y76665D01*
D02*
G37*
G36*
X70366D02*
X66747D01*
X66823Y76082D01*
X67242Y75073D01*
X67907Y74206D01*
X68774Y73541D01*
X69783Y73123D01*
X70366Y73046D01*
Y76665D01*
D02*
G37*
G36*
X49395D02*
X45776D01*
Y73046D01*
X46359Y73123D01*
X47368Y73541D01*
X48235Y74206D01*
X48900Y75073D01*
X49318Y76082D01*
X49395Y76665D01*
D02*
G37*
G36*
X44776D02*
X41156D01*
X41233Y76082D01*
X41651Y75073D01*
X42316Y74206D01*
X43183Y73541D01*
X44192Y73123D01*
X44776Y73046D01*
Y76665D01*
D02*
G37*
G36*
X316929Y67357D02*
X315901Y67221D01*
X314944Y66825D01*
X314121Y66194D01*
X313490Y65371D01*
X313093Y64414D01*
X312958Y63386D01*
X313093Y62358D01*
X313490Y61400D01*
X314121Y60578D01*
X314944Y59947D01*
X315901Y59550D01*
X316929Y59415D01*
X317957Y59550D01*
X318915Y59947D01*
X319737Y60578D01*
X320368Y61400D01*
X320765Y62358D01*
X320900Y63386D01*
X320765Y64414D01*
X320368Y65371D01*
X319737Y66194D01*
X318915Y66825D01*
X317957Y67221D01*
X316929Y67357D01*
D02*
G37*
G36*
X102862Y49789D02*
Y46169D01*
X106482D01*
X106405Y46753D01*
X105987Y47762D01*
X105322Y48629D01*
X104455Y49294D01*
X103445Y49712D01*
X102862Y49789D01*
D02*
G37*
G36*
X101862D02*
X101279Y49712D01*
X100269Y49294D01*
X99403Y48629D01*
X98738Y47762D01*
X98319Y46753D01*
X98243Y46169D01*
X101862D01*
Y49789D01*
D02*
G37*
G36*
X77272D02*
Y46169D01*
X80891D01*
X80814Y46753D01*
X80396Y47762D01*
X79731Y48629D01*
X78864Y49294D01*
X77855Y49712D01*
X77272Y49789D01*
D02*
G37*
G36*
X76272D02*
X75688Y49712D01*
X74679Y49294D01*
X73812Y48629D01*
X73147Y47762D01*
X72729Y46753D01*
X72652Y46169D01*
X76272D01*
Y49789D01*
D02*
G37*
G36*
X317429Y49789D02*
Y46169D01*
X321049D01*
X320972Y46753D01*
X320554Y47762D01*
X319889Y48629D01*
X319022Y49294D01*
X318012Y49712D01*
X317429Y49789D01*
D02*
G37*
G36*
X316429D02*
X315846Y49712D01*
X314836Y49294D01*
X313970Y48629D01*
X313304Y47762D01*
X312886Y46753D01*
X312809Y46169D01*
X316429D01*
Y49789D01*
D02*
G37*
G36*
X291839D02*
Y46169D01*
X295458D01*
X295381Y46753D01*
X294963Y47762D01*
X294298Y48629D01*
X293431Y49294D01*
X292422Y49712D01*
X291839Y49789D01*
D02*
G37*
G36*
X290839D02*
X290255Y49712D01*
X289246Y49294D01*
X288379Y48629D01*
X287714Y47762D01*
X287296Y46753D01*
X287219Y46169D01*
X290839D01*
Y49789D01*
D02*
G37*
G36*
X106482Y45169D02*
X102862D01*
Y41550D01*
X103445Y41627D01*
X104455Y42045D01*
X105322Y42710D01*
X105987Y43577D01*
X106405Y44586D01*
X106482Y45169D01*
D02*
G37*
G36*
X101862D02*
X98243D01*
X98319Y44586D01*
X98738Y43577D01*
X99403Y42710D01*
X100269Y42045D01*
X101279Y41627D01*
X101862Y41550D01*
Y45169D01*
D02*
G37*
G36*
X80891D02*
X77272D01*
Y41550D01*
X77855Y41627D01*
X78864Y42045D01*
X79731Y42710D01*
X80396Y43577D01*
X80814Y44586D01*
X80891Y45169D01*
D02*
G37*
G36*
X76272D02*
X72652D01*
X72729Y44586D01*
X73147Y43577D01*
X73812Y42710D01*
X74679Y42045D01*
X75688Y41627D01*
X76272Y41550D01*
Y45169D01*
D02*
G37*
G36*
X321049Y45169D02*
X317429D01*
Y41550D01*
X318012Y41627D01*
X319022Y42045D01*
X319889Y42710D01*
X320554Y43577D01*
X320972Y44586D01*
X321049Y45169D01*
D02*
G37*
G36*
X316429D02*
X312809D01*
X312886Y44586D01*
X313304Y43577D01*
X313970Y42710D01*
X314836Y42045D01*
X315846Y41627D01*
X316429Y41550D01*
Y45169D01*
D02*
G37*
G36*
X295458D02*
X291839D01*
Y41550D01*
X292422Y41627D01*
X293431Y42045D01*
X294298Y42710D01*
X294963Y43577D01*
X295381Y44586D01*
X295458Y45169D01*
D02*
G37*
G36*
X290839D02*
X287219D01*
X287296Y44586D01*
X287714Y43577D01*
X288379Y42710D01*
X289246Y42045D01*
X290255Y41627D01*
X290839Y41550D01*
Y45169D01*
D02*
G37*
G36*
X210498Y25606D02*
X207095D01*
Y20972D01*
X210498D01*
Y25606D01*
D02*
G37*
G36*
X186606D02*
X183203D01*
Y20972D01*
X186606D01*
Y25606D01*
D02*
G37*
G36*
X191831Y32220D02*
X191139Y32082D01*
X190553Y31691D01*
X190162Y31105D01*
X190024Y30413D01*
Y26650D01*
X190127Y26135D01*
Y25606D01*
X187606D01*
Y20472D01*
Y15339D01*
X191010D01*
Y18347D01*
X200083D01*
Y18134D01*
X201468D01*
Y21850D01*
Y25567D01*
X200083D01*
Y25354D01*
X193627D01*
X193430Y25854D01*
X193500Y25958D01*
X193637Y26650D01*
Y30413D01*
X193500Y31105D01*
X193108Y31691D01*
X192522Y32082D01*
X191831Y32220D01*
D02*
G37*
G36*
X186606Y19972D02*
X183203D01*
Y16127D01*
X182787Y15849D01*
X182588Y15932D01*
X181799Y16036D01*
Y11622D01*
X186213D01*
X186109Y12411D01*
X185612Y13612D01*
X184820Y14643D01*
X184531Y14865D01*
X184692Y15339D01*
X186606D01*
Y19972D01*
D02*
G37*
G36*
X206095Y25606D02*
X202691D01*
Y25567D01*
X202468D01*
Y21850D01*
Y18134D01*
X202691D01*
Y15339D01*
X206095D01*
Y20472D01*
Y25606D01*
D02*
G37*
G36*
X212902Y16036D02*
Y11622D01*
X217315D01*
X217212Y12411D01*
X216714Y13612D01*
X215923Y14643D01*
X214891Y15435D01*
X213690Y15932D01*
X212902Y16036D01*
D02*
G37*
G36*
X210498Y19972D02*
X207095D01*
Y15339D01*
X209009D01*
X209170Y14865D01*
X208880Y14643D01*
X208089Y13612D01*
X207592Y12411D01*
X207488Y11622D01*
X211902D01*
Y16036D01*
X211113Y15932D01*
X210914Y15849D01*
X210498Y16127D01*
Y19972D01*
D02*
G37*
G36*
X180799Y16036D02*
X180010Y15932D01*
X178809Y15435D01*
X177778Y14643D01*
X176987Y13612D01*
X176489Y12411D01*
X176385Y11622D01*
X180799D01*
Y16036D01*
D02*
G37*
G36*
X217315Y10622D02*
X212902D01*
Y6208D01*
X213690Y6312D01*
X214891Y6810D01*
X215923Y7601D01*
X216714Y8632D01*
X217212Y9833D01*
X217315Y10622D01*
D02*
G37*
G36*
X186213D02*
X181799D01*
Y6208D01*
X182588Y6312D01*
X183789Y6810D01*
X184820Y7601D01*
X185612Y8632D01*
X186109Y9833D01*
X186213Y10622D01*
D02*
G37*
G36*
X211902D02*
X207488D01*
X207592Y9833D01*
X208089Y8632D01*
X208880Y7601D01*
X209912Y6810D01*
X211113Y6312D01*
X211902Y6208D01*
Y10622D01*
D02*
G37*
G36*
X180799D02*
X176385D01*
X176489Y9833D01*
X176987Y8632D01*
X177778Y7601D01*
X178809Y6810D01*
X180010Y6312D01*
X180799Y6208D01*
Y10622D01*
D02*
G37*
%LPD*%
D10*
X184055Y94882D02*
X209646D01*
X291339Y126378D02*
X316929D01*
X322835Y94882D02*
X348425D01*
X259842D02*
X285433D01*
X76772Y63386D02*
X102362D01*
X314370Y258268D02*
X331909Y275807D01*
X227658Y258268D02*
X314370D01*
X205413Y236614D02*
X227658Y258268D01*
X270374Y140551D02*
X333366D01*
X217421Y87598D02*
X270374Y140551D01*
X150000Y153051D02*
Y159646D01*
X158465Y168110D01*
Y233268D01*
X59350Y249902D02*
X96850Y287402D01*
X166240D01*
X59350Y153642D02*
Y249902D01*
X30413Y124705D02*
X59350Y153642D01*
X30413Y67716D02*
Y124705D01*
Y67716D02*
X36220Y61910D01*
X45374D01*
X55413Y71949D01*
Y117815D01*
X63976Y126378D01*
X76772D01*
X96752Y170374D02*
Y248031D01*
X45276Y118898D02*
X96752Y170374D01*
Y248031D02*
X133465Y284744D01*
X166240D01*
X45276Y94882D02*
Y118898D01*
X89665Y76279D02*
Y148819D01*
X76772Y63386D02*
X89665Y76279D01*
X139567Y282087D02*
X166240D01*
X103248Y245768D02*
X139567Y282087D01*
X103248Y162402D02*
Y245768D01*
X89665Y148819D02*
X103248Y162402D01*
X190354Y279528D02*
X194882Y275000D01*
Y269094D02*
Y275000D01*
X178839Y253051D02*
X194882Y269094D01*
X166142Y279528D02*
X190354D01*
X139961Y253051D02*
X178839D01*
X129626Y242717D02*
X139961Y253051D01*
X137008Y257087D02*
X171949D01*
X183760Y268898D01*
X124508Y244587D02*
X137008Y257087D01*
X124508Y132874D02*
Y244587D01*
Y132874D02*
X172933Y84449D01*
X129626Y135433D02*
Y242717D01*
Y135433D02*
X177461Y87598D01*
X217421D01*
X333366Y140551D02*
X348425Y125492D01*
Y94882D02*
Y125492D01*
X223130Y84449D02*
X265059Y126378D01*
X172933Y84449D02*
X223130D01*
X147835Y248130D02*
X177756D01*
X166142Y276969D02*
X180413D01*
X183760Y273622D01*
Y268898D02*
Y273622D01*
X265059Y126378D02*
X291339D01*
X138681Y274410D02*
X166142D01*
X109547Y245276D02*
X138681Y274410D01*
X109547Y117028D02*
Y245276D01*
Y117028D02*
X117913Y108661D01*
Y75197D02*
Y108661D01*
Y75197D02*
X133760Y59350D01*
X206004D01*
X232382Y32972D01*
X293602D01*
X304528Y43898D01*
Y75787D01*
X285433Y94882D02*
X304528Y75787D01*
X141929Y271654D02*
X166240D01*
X115354Y245079D02*
X141929Y271654D01*
X115354Y118602D02*
Y245079D01*
Y118602D02*
X123622Y110335D01*
Y75295D02*
Y110335D01*
Y75295D02*
X135531Y63386D01*
X291339D01*
X119685Y244882D02*
X143701Y268898D01*
X119685Y122244D02*
Y244882D01*
Y122244D02*
X133858Y108071D01*
Y94882D02*
Y108071D01*
X143701Y268898D02*
X166240D01*
X209646Y189665D02*
X257579Y237598D01*
X209646Y94882D02*
Y189665D01*
X205118Y225000D02*
X228150D01*
X351870Y248524D02*
X359154Y255807D01*
X251673Y248524D02*
X351870D01*
X228150Y225000D02*
X251673Y248524D01*
X359154Y255807D02*
X359449D01*
X331909Y275807D02*
X359449D01*
X364862Y287303D02*
Y302854D01*
X363366Y285807D02*
X364862Y287303D01*
X359449Y285807D02*
X363366D01*
X340256Y327461D02*
X364862Y302854D01*
X257087Y327461D02*
X340256D01*
X177756Y248130D02*
X257087Y327461D01*
X332815Y322441D02*
X359449Y295807D01*
X261024Y322441D02*
X332815D01*
X187992Y249410D02*
X261024Y322441D01*
X187992Y219291D02*
Y249410D01*
X254724Y229528D02*
X275590D01*
X283465Y221654D01*
Y183858D02*
Y221654D01*
Y183858D02*
X301969Y165354D01*
X332283D01*
X334252Y167323D01*
Y204724D01*
X348898Y219370D01*
X359449D01*
X191781Y30364D02*
X191831Y30413D01*
X191732Y21850D02*
X191781Y21900D01*
D19*
X206594Y20472D02*
D03*
X187106D02*
D03*
D20*
X191732Y21850D02*
D03*
X201969D02*
D03*
X199409D02*
D03*
X194291D02*
D03*
X196850D02*
D03*
D21*
X217913Y345669D02*
X339075D01*
X211811Y339567D02*
X217913Y345669D01*
X350098Y160236D02*
X368504Y178642D01*
Y316240D01*
X339075Y345669D02*
X368504Y316240D01*
X211811Y331496D02*
Y339567D01*
X252658Y160236D02*
X350098D01*
X191831Y26650D02*
Y30413D01*
D22*
X191732Y21850D02*
X191732Y26575D01*
D23*
X150000Y153051D02*
D03*
X158465Y233268D02*
D03*
X257579Y237598D02*
D03*
X166240Y287402D02*
D03*
Y284744D02*
D03*
X166240Y282087D02*
D03*
X166142Y279528D02*
D03*
Y276969D02*
D03*
Y274410D02*
D03*
X166240Y268898D02*
D03*
Y271654D02*
D03*
X205413Y236614D02*
D03*
X147835Y248130D02*
D03*
X205118Y225000D02*
D03*
X187992Y219291D02*
D03*
X254724Y229528D02*
D03*
X191831Y30413D02*
D03*
D24*
X252658Y160236D02*
D03*
X359449Y199370D02*
D03*
Y189370D02*
D03*
Y219370D02*
D03*
Y209370D02*
D03*
Y255807D02*
D03*
Y265807D02*
D03*
Y275807D02*
D03*
Y285807D02*
D03*
Y295807D02*
D03*
X31299Y160925D02*
D03*
X310236Y293209D02*
D03*
Y283209D02*
D03*
Y273209D02*
D03*
Y263209D02*
D03*
Y253209D02*
D03*
Y243209D02*
D03*
Y233209D02*
D03*
Y223209D02*
D03*
Y213209D02*
D03*
Y203209D02*
D03*
Y193209D02*
D03*
X49508Y239035D02*
D03*
Y229035D02*
D03*
Y219035D02*
D03*
X29508Y239035D02*
D03*
Y219035D02*
D03*
D25*
X285433Y94882D02*
D03*
X259842D02*
D03*
X285433Y77165D02*
D03*
X259842D02*
D03*
X316929Y63386D02*
D03*
X291339D02*
D03*
X316929Y45669D02*
D03*
X291339D02*
D03*
X102362Y126378D02*
D03*
X76772D02*
D03*
X102362Y108661D02*
D03*
X76772D02*
D03*
X133858Y94882D02*
D03*
X108268D02*
D03*
X133858Y77165D02*
D03*
X108268D02*
D03*
X209646Y94882D02*
D03*
X184055D02*
D03*
X209646Y77165D02*
D03*
X184055D02*
D03*
X70866Y94882D02*
D03*
X45276D02*
D03*
X70866Y77165D02*
D03*
X45276D02*
D03*
X348425Y94882D02*
D03*
X322835D02*
D03*
X348425Y77165D02*
D03*
X322835D02*
D03*
X316929Y126378D02*
D03*
X291339D02*
D03*
X316929Y108661D02*
D03*
X291339D02*
D03*
X102362Y63386D02*
D03*
X76772D02*
D03*
X102362Y45669D02*
D03*
X76772D02*
D03*
X171811Y331496D02*
D03*
X181811D02*
D03*
X191811D02*
D03*
X201811D02*
D03*
X211811D02*
D03*
X221811D02*
D03*
D26*
X31299Y150925D02*
D03*
D27*
X81890Y308957D02*
D03*
Y177461D02*
D03*
X310236D02*
D03*
Y308957D02*
D03*
D28*
X181299Y11122D02*
D03*
X212402D02*
D03*
M02*
